<svg width="80" height="71" viewBox="0 0 80 71" fill="none" xmlns="http://www.w3.org/2000/svg">
<path fill-rule="evenodd" clip-rule="evenodd" d="M34.299 36.701C34.299 36.701 -8.82148 27.7807 6.16311 19.1307C18.8082 11.8316 62.3869 -0.71768 68.4752 2.52482C71.7177 8.61306 59.1684 52.1918 51.8693 64.8369C43.2193 79.8215 34.299 36.701 34.299 36.701Z" stroke="#363853" stroke-width="4" stroke-linecap="round" stroke-linejoin="round"/>
<path d="M53.5195 46.7604C54.4787 42.6714 57.6714 39.4787 61.7604 38.5195C64.7134 37.8268 67.7866 37.8268 70.7396 38.5195C74.8286 39.4787 78.0213 42.6714 78.9805 46.7604C79.6732 49.7134 79.6732 52.7866 78.9805 55.7396C78.0213 59.8286 74.8286 63.0213 70.7396 63.9805C67.7866 64.6732 64.7134 64.6732 61.7604 63.9805C57.6714 63.0213 54.4787 59.8286 53.5195 55.7396C52.8268 52.7866 52.8268 49.7134 53.5195 46.7604Z" fill="#93E06F"/>
<path d="M62.2983 51.1144L65.2428 54.0588L70.3956 48.538" stroke="white" stroke-width="2.16959" stroke-linecap="round" stroke-linejoin="round"/>
<path d="M34.2988 36.701L68.475 2.52475" stroke="#363853" stroke-width="4" stroke-linecap="round" stroke-linejoin="round"/>
</svg>
