<svg width="77" height="74" viewBox="0 0 77 74" fill="none" xmlns="http://www.w3.org/2000/svg">
<path d="M36.389 2.00428V40.8392" stroke="#363853" stroke-width="4" stroke-linecap="round" stroke-linejoin="round"/>
<path d="M26.9839 11.4435L36.3886 2.00002L45.7934 11.4435" stroke="#363853" stroke-width="4" stroke-linecap="round" stroke-linejoin="round"/>
<path d="M21.9056 19.5212C10.3593 20.5856 6.1665 24.9074 6.1665 42.0978C6.1665 65.0002 13.6168 65.0002 35.9998 65.0002C58.3829 65.0002 65.8332 65.0002 65.8332 42.0978C65.8332 24.9074 61.6404 20.5856 50.0941 19.5212" stroke="#363853" stroke-width="4" stroke-linecap="round" stroke-linejoin="round"/>
<path d="M50.5195 46.7604C51.4787 42.6714 54.6714 39.4787 58.7604 38.5195C61.7134 37.8268 64.7866 37.8268 67.7396 38.5195C71.8286 39.4787 75.0213 42.6714 75.9805 46.7604C76.6732 49.7134 76.6732 52.7866 75.9805 55.7396C75.0213 59.8286 71.8286 63.0213 67.7396 63.9805C64.7866 64.6732 61.7134 64.6732 58.7604 63.9805C54.6714 63.0213 51.4787 59.8286 50.5195 55.7396C49.8268 52.7866 49.8268 49.7134 50.5195 46.7604Z" fill="#93E06F"/>
<path d="M59.2983 51.1144L62.2428 54.0588L67.3956 48.538" stroke="white" stroke-width="2.16959" stroke-linecap="round" stroke-linejoin="round"/>
</svg>
