<svg width="40" height="39" viewBox="0 0 40 39" fill="none" xmlns="http://www.w3.org/2000/svg">
<path d="M1.1967 12.8926C2.60827 6.87485 7.30698 2.17614 13.3247 0.764566C17.6707 -0.254855 22.1936 -0.254856 26.5395 0.764566C32.5573 2.17614 37.256 6.87485 38.6676 12.8926C39.687 17.2386 39.687 21.7614 38.6676 26.1074C37.256 32.1252 32.5573 36.8239 26.5395 38.2354C22.1936 39.2549 17.6707 39.2549 13.3247 38.2354C7.30699 36.8239 2.60827 32.1252 1.1967 26.1074C0.177273 21.7615 0.177273 17.2386 1.1967 12.8926Z" fill="#936EE3"/>
<mask id="mask0_674_394" style="mask-type:alpha" maskUnits="userSpaceOnUse" x="7" y="7" width="25" height="24">
<rect x="7.43213" y="7" width="24" height="24" fill="#D9D9D9"/>
</mask>
<g mask="url(#mask0_674_394)">
<path d="M14.4321 24.0776C14.1488 24.0776 13.9111 23.9816 13.7191 23.7896C13.5278 23.5983 13.4321 23.361 13.4321 23.0776V18.0526C13.4321 17.7693 13.5278 17.536 13.7191 17.3526C13.9111 17.1693 14.1488 17.0776 14.4321 17.0776C14.7155 17.0776 14.9531 17.1733 15.1451 17.3646C15.3365 17.5566 15.4321 17.7943 15.4321 18.0776V23.1026C15.4321 23.386 15.3365 23.6193 15.1451 23.8026C14.9531 23.986 14.7155 24.0776 14.4321 24.0776ZM20.4321 24.0776C20.1488 24.0776 19.9115 23.9816 19.7201 23.7896C19.5281 23.5983 19.4321 23.361 19.4321 23.0776V18.0526C19.4321 17.7693 19.5281 17.536 19.7201 17.3526C19.9115 17.1693 20.1488 17.0776 20.4321 17.0776C20.7155 17.0776 20.9531 17.1733 21.1451 17.3646C21.3365 17.5566 21.4321 17.7943 21.4321 18.0776V23.1026C21.4321 23.386 21.3365 23.6193 21.1451 23.8026C20.9531 23.986 20.7155 24.0776 20.4321 24.0776ZM11.4071 28.0776C11.1238 28.0776 10.8905 27.9816 10.7071 27.7896C10.5238 27.5983 10.4321 27.361 10.4321 27.0776C10.4321 26.7943 10.5281 26.557 10.7201 26.3656C10.9115 26.1736 11.1488 26.0776 11.4321 26.0776H29.4571C29.7405 26.0776 29.9738 26.1736 30.1571 26.3656C30.3405 26.557 30.4321 26.7943 30.4321 27.0776C30.4321 27.361 30.3361 27.5983 30.1441 27.7896C29.9528 27.9816 29.7155 28.0776 29.4321 28.0776H11.4071ZM26.4321 24.0776C26.1488 24.0776 25.9115 23.9816 25.7201 23.7896C25.5281 23.5983 25.4321 23.361 25.4321 23.0776V18.0526C25.4321 17.7693 25.5281 17.536 25.7201 17.3526C25.9115 17.1693 26.1488 17.0776 26.4321 17.0776C26.7155 17.0776 26.9528 17.1733 27.1441 17.3646C27.3361 17.5566 27.4321 17.7943 27.4321 18.0776V23.1026C27.4321 23.386 27.3361 23.6193 27.1441 23.8026C26.9528 23.986 26.7155 24.0776 26.4321 24.0776ZM21.3321 8.52764L29.7571 12.7276C29.9738 12.8443 30.1405 13.0066 30.2571 13.2146C30.3738 13.4233 30.4321 13.6526 30.4321 13.9026C30.4321 14.236 30.3115 14.515 30.0701 14.7396C29.8281 14.965 29.5405 15.0776 29.2071 15.0776H11.6821C11.3488 15.0776 11.0571 14.965 10.8071 14.7396C10.5571 14.515 10.4321 14.236 10.4321 13.9026C10.4321 13.6526 10.4865 13.4233 10.5951 13.2146C10.7031 13.0066 10.8738 12.8526 11.1071 12.7526L19.5321 8.52764C19.8155 8.3943 20.1155 8.32764 20.4321 8.32764C20.7488 8.32764 21.0488 8.3943 21.3321 8.52764ZM14.8821 13.0776H25.9821L20.4321 10.3276L14.8821 13.0776Z" fill="white"/>
</g>
</svg>
