<svg width="73" height="72" viewBox="0 0 73 72" fill="none" xmlns="http://www.w3.org/2000/svg">
<rect x="1.5" y="1" width="70" height="70" rx="35" fill="#0081C5" stroke="#363853" stroke-width="2"/>
<path d="M39.6707 31.0337L53.6375 33.808C54.763 34.0458 55.524 34.997 55.524 36.1226V52.2929C55.524 53.6088 54.4618 54.6709 53.146 54.6709H38.8781C39.3219 54.6709 39.6707 54.3222 39.6707 53.8783V53.0856H53.146C53.574 53.0856 53.9387 52.7368 53.9387 52.2929V36.1226C53.9387 35.758 53.685 35.4251 53.3204 35.3458L39.6707 32.6507V31.0337Z" fill="#FFF100"/>
<path d="M48.3898 38.8176C48.8337 38.8176 49.1825 39.1664 49.1825 39.6103C49.1825 40.0542 48.8337 40.403 48.3898 40.403H45.2192C44.7753 40.403 44.4265 40.0542 44.4265 39.6103C44.4265 39.1664 44.7753 38.8176 45.2192 38.8176H48.3898Z" fill="#FFF100"/>
<path d="M48.3898 43.5737C48.8337 43.5737 49.1825 43.9225 49.1825 44.3664C49.1825 44.8103 48.8337 45.1591 48.3898 45.1591H45.2192C44.7753 45.1591 44.4265 44.8103 44.4265 44.3664C44.4265 43.9225 44.7753 43.5737 45.2192 43.5737H48.3898Z" fill="#FFF100"/>
<path d="M48.3898 48.3298C48.8337 48.3298 49.1825 48.6786 49.1825 49.1225C49.1825 49.5664 48.8337 49.9152 48.3898 49.9152H45.2192C44.7753 49.9152 44.4265 49.5664 44.4265 49.1225C44.4265 48.6786 44.7753 48.3298 45.2192 48.3298H48.3898Z" fill="#FFF100"/>
<path d="M39.6707 53.8784C39.6707 54.3223 39.3219 54.671 38.878 54.671C38.4341 54.671 38.0853 54.3223 38.0853 53.8784V53.0857V31.6838C38.0853 31.446 38.1963 31.224 38.3707 31.0655C38.5609 30.9228 38.7987 30.8594 39.0365 30.907L39.6707 31.0338V32.6508V53.0857V53.8784Z" fill="#FFF100"/>
<path d="M38.0851 53.0857V53.8784C38.0851 54.3222 38.4339 54.671 38.8778 54.671H32.5365C32.9804 54.671 33.3292 54.3222 33.3292 53.8784V53.0857H38.0851Z" fill="#FFF100"/>
<path d="M34.1219 24.5498C34.5658 24.5498 34.9146 24.8986 34.9146 25.3425C34.9146 25.7864 34.5658 26.1351 34.1219 26.1351H30.9512C30.5073 26.1351 30.1586 25.7864 30.1586 25.3425C30.1586 24.8986 30.5073 24.5498 30.9512 24.5498H34.1219Z" fill="#F3F3F3"/>
<path d="M34.9146 30.0983C34.9146 30.5422 34.5658 30.891 34.1219 30.891H30.9512C30.5073 30.891 30.1586 30.5422 30.1586 30.0983C30.1586 29.6544 30.5073 29.3057 30.9512 29.3057H34.1219C34.5658 29.3057 34.9146 29.6544 34.9146 30.0983Z" fill="#F3F3F3"/>
<path d="M34.1219 34.0618C34.5658 34.0618 34.9146 34.4105 34.9146 34.8544C34.9146 35.2983 34.5658 35.6471 34.1219 35.6471H30.9512C30.5073 35.6471 30.1586 35.2983 30.1586 34.8544C30.1586 34.4105 30.5073 34.0618 30.9512 34.0618H34.1219Z" fill="#F3F3F3"/>
<path d="M34.1219 38.8176C34.5658 38.8176 34.9146 39.1664 34.9146 39.6103C34.9146 40.0542 34.5658 40.403 34.1219 40.403H30.9512C30.5073 40.403 30.1586 40.0542 30.1586 39.6103C30.1586 39.1664 30.5073 38.8176 30.9512 38.8176H34.1219Z" fill="#F3F3F3"/>
<path d="M26.988 39.6103C26.988 40.0542 26.6393 40.403 26.1954 40.403H23.0247C22.5808 40.403 22.2321 40.0542 22.2321 39.6103C22.2321 39.1664 22.5808 38.8176 23.0247 38.8176H26.1954C26.6393 38.8176 26.988 39.1664 26.988 39.6103Z" fill="#F3F3F3"/>
<path d="M26.1954 24.5498C26.6393 24.5498 26.988 24.8986 26.988 25.3425C26.988 25.7864 26.6393 26.1351 26.1954 26.1351H23.0247C22.5808 26.1351 22.2321 25.7864 22.2321 25.3425C22.2321 24.8986 22.5808 24.5498 23.0247 24.5498H26.1954Z" fill="#F3F3F3"/>
<path d="M26.1954 29.3057C26.6393 29.3057 26.988 29.6544 26.988 30.0983C26.988 30.5422 26.6393 30.891 26.1954 30.891H23.0247C22.5808 30.891 22.2321 30.5422 22.2321 30.0983C22.2321 29.6544 22.5808 29.3057 23.0247 29.3057H26.1954Z" fill="#F3F3F3"/>
<path d="M26.1954 34.0618C26.6393 34.0618 26.988 34.4105 26.988 34.8544C26.988 35.2983 26.6393 35.6471 26.1954 35.6471H23.0247C22.5808 35.6471 22.2321 35.2983 22.2321 34.8544C22.2321 34.4105 22.5808 34.0618 23.0247 34.0618H26.1954Z" fill="#F3F3F3"/>
<path d="M31.7441 45.9517C31.7441 45.5078 31.3795 45.1591 30.9515 45.1591H26.1955C25.7516 45.1591 25.4028 45.5078 25.4028 45.9517V53.0857H23.8175V45.9517C23.8175 44.6359 24.8797 43.5737 26.1955 43.5737H30.9515C32.2673 43.5737 33.3295 44.6359 33.3295 45.9517V53.0857H31.7441V45.9517Z" fill="#F3F3F3"/>
<path d="M25.4028 53.0857H31.7441H33.3295V53.8784C33.3295 54.3222 32.9807 54.671 32.5368 54.671H24.6102C24.1663 54.671 23.8175 54.3222 23.8175 53.8784V53.0857H25.4028Z" fill="#FFF100"/>
<path d="M20.2504 16.94L37.6732 19.5875C38.8305 19.7778 39.6707 20.7607 39.6707 21.9338V31.0336L39.0365 30.9068C38.7987 30.8592 38.5609 30.9226 38.3707 31.0653C38.1963 31.2239 38.0853 31.4458 38.0853 31.6836V21.9338C38.0853 21.5375 37.8 21.2046 37.4195 21.1412L19.9967 18.5095C19.9492 18.4937 19.9016 18.4937 19.8541 18.4937C19.6638 18.4937 19.4894 18.5571 19.3468 18.6839C19.1565 18.8424 19.0614 19.0485 19.0614 19.2863V52.2929C19.0614 52.7368 19.426 53.0855 19.8541 53.0855H23.8174V53.8782C23.8174 54.3221 24.1662 54.6709 24.6101 54.6709H19.8541C18.5382 54.6709 17.4761 53.6087 17.4761 52.2929V19.2863C17.4761 18.5888 17.7773 17.9229 18.3163 17.4791C18.8553 17.0193 19.5529 16.8291 20.2504 16.94Z" fill="#FFF100"/>
</svg>
