<svg width="17" height="16" viewBox="0 0 17 16" fill="none" xmlns="http://www.w3.org/2000/svg">
<path d="M11.8172 4.16667C12.6917 4.16667 13.4006 3.45778 13.4006 2.58333C13.4006 1.70888 12.6917 1 11.8172 1C10.9428 1 10.2339 1.70888 10.2339 2.58333C10.2339 3.45778 10.9428 4.16667 11.8172 4.16667Z" stroke="white" stroke-miterlimit="10" stroke-linecap="round" stroke-linejoin="round"/>
<path d="M13.3921 2.58325H16.0338" stroke="white" stroke-miterlimit="10" stroke-linecap="round" stroke-linejoin="round"/>
<path d="M1.16699 2.58325H10.2337" stroke="white" stroke-miterlimit="10" stroke-linecap="round" stroke-linejoin="round"/>
<path d="M5.58382 9.46672C6.45827 9.46672 7.16716 8.75783 7.16716 7.88338C7.16716 7.00893 6.45827 6.30005 5.58382 6.30005C4.70937 6.30005 4.00049 7.00893 4.00049 7.88338C4.00049 8.75783 4.70937 9.46672 5.58382 9.46672Z" stroke="white" stroke-miterlimit="10" stroke-linecap="round" stroke-linejoin="round"/>
<path d="M7.16699 7.8833H16.0337" stroke="white" stroke-miterlimit="10" stroke-linecap="round" stroke-linejoin="round"/>
<path d="M1.16699 7.8833H4.00866" stroke="white" stroke-miterlimit="10" stroke-linecap="round" stroke-linejoin="round"/>
<path d="M11.8172 14.7665C12.6917 14.7665 13.4006 14.0576 13.4006 13.1832C13.4006 12.3087 12.6917 11.5999 11.8172 11.5999C10.9428 11.5999 10.2339 12.3087 10.2339 13.1832C10.2339 14.0576 10.9428 14.7665 11.8172 14.7665Z" stroke="white" stroke-miterlimit="10" stroke-linecap="round" stroke-linejoin="round"/>
<path d="M13.3921 13.1833H16.0338" stroke="white" stroke-miterlimit="10" stroke-linecap="round" stroke-linejoin="round"/>
<path d="M1.16699 13.1833H10.2337" stroke="white" stroke-miterlimit="10" stroke-linecap="round" stroke-linejoin="round"/>
</svg>
