<svg width="77" height="74" viewBox="0 0 77 74" fill="none" xmlns="http://www.w3.org/2000/svg">
<path d="M50.3778 13.1877C48.4064 6.66782 42.3097 1.96112 35.1602 2.05057C26.6723 2.15379 19.8083 8.9902 19.6638 17.4781V24.9407" stroke="#363853" stroke-width="4" stroke-linecap="round" stroke-linejoin="round"/>
<path d="M35.3551 41.2916V48.9331" stroke="#363853" stroke-width="4" stroke-linecap="round" stroke-linejoin="round"/>
<path fill-rule="evenodd" clip-rule="evenodd" d="M35.3548 22.9465C15.5887 22.9465 9 28.3413 9 44.5224C9 60.7068 15.5887 66.1016 35.3548 66.1016C55.1243 66.1016 61.713 60.7068 61.713 44.5224C61.713 28.3413 55.1243 22.9465 35.3548 22.9465Z" stroke="#363853" stroke-width="4" stroke-linecap="round" stroke-linejoin="round"/>
<path d="M50.5195 46.7604C51.4787 42.6714 54.6714 39.4787 58.7604 38.5195C61.7134 37.8268 64.7866 37.8268 67.7396 38.5195C71.8286 39.4787 75.0213 42.6714 75.9805 46.7604C76.6732 49.7134 76.6732 52.7866 75.9805 55.7396C75.0213 59.8286 71.8286 63.0213 67.7396 63.9805C64.7866 64.6732 61.7134 64.6732 58.7604 63.9805C54.6714 63.0213 51.4787 59.8286 50.5195 55.7396C49.8268 52.7866 49.8268 49.7134 50.5195 46.7604Z" fill="#93E06F"/>
<path d="M59.2982 51.1144L62.2427 54.0588L67.3954 48.538" stroke="white" stroke-width="2.16959" stroke-linecap="round" stroke-linejoin="round"/>
</svg>
