<svg width="18" height="16" viewBox="0 0 18 16" fill="none" xmlns="http://www.w3.org/2000/svg">
<path d="M15.956 5.06992L15.3078 5.44708L15.3088 5.44879L15.956 5.06992ZM15.956 10.9301L15.3088 10.5512L15.956 10.9301ZM6.18047 14.5509L5.91213 15.2512L5.92418 15.2559L5.93638 15.26L6.18047 14.5509ZM1.79397 10.9301L2.44124 10.5512H2.44124L1.79397 10.9301ZM1.79397 5.06992L2.44124 5.4488L1.79397 5.06992ZM3.59731 13.0851L3.11309 13.6579L3.11795 13.662L3.59731 13.0851ZM13.7485 2.5948L14.2 1.99588L14.195 1.99217L13.7485 2.5948ZM11.0046 5.74737L11.5349 5.21704C11.5307 5.21285 11.5265 5.20871 11.5222 5.20462L11.0046 5.74737ZM6.52414 10.1248L5.95404 10.6121C5.95991 10.619 5.96591 10.6258 5.97203 10.6324L6.52414 10.1248ZM11.9871 8.05311L11.2371 8.04613V8.05311H11.9871ZM8.87451 11.2141V10.4641C8.84129 10.4641 8.8081 10.4663 8.77517 10.4707L8.87451 11.2141ZM15.3088 5.44879C16.2304 7.02332 16.2304 8.97668 15.3088 10.5512L16.6033 11.309C17.7989 9.26641 17.7989 6.73359 16.6033 4.69104L15.3088 5.44879ZM15.3088 10.5512C13.3874 13.8336 9.60194 14.9354 6.42457 13.8417L5.93638 15.26C9.73594 16.5679 14.293 15.2557 16.6033 11.309L15.3088 10.5512ZM2.44124 10.5512C1.51959 8.97668 1.51959 7.02332 2.44124 5.4488L1.14671 4.69104C-0.0489029 6.73359 -0.0489032 9.2664 1.14671 11.309L2.44124 10.5512ZM4.0815 12.5124C3.45508 11.9828 2.89713 11.33 2.44124 10.5512L1.14671 11.309C1.68847 12.2345 2.35666 13.0184 3.11311 13.6579L4.0815 12.5124ZM2.44124 5.4488C4.7859 1.44323 9.91299 0.686657 13.302 3.19744L14.195 1.99217C10.1286 -1.02037 3.96688 -0.126871 1.14671 4.69104L2.44124 5.4488ZM6.5129 8.05311C6.5129 6.70899 7.58125 5.64111 8.87451 5.64111V4.14111C6.73033 4.14111 5.0129 5.90323 5.0129 8.05311H6.5129ZM8.87451 5.64111C9.49661 5.64111 10.0629 5.88569 10.487 6.29012L11.5222 5.20462C10.8326 4.54692 9.90029 4.14111 8.87451 4.14111V5.64111ZM7.09423 9.63749C6.7326 9.21443 6.5129 8.66166 6.5129 8.05311H5.0129C5.0129 9.02971 5.36723 9.92567 5.95404 10.6121L7.09423 9.63749ZM11.2371 8.05311C11.2371 9.39577 10.1682 10.4641 8.87451 10.4641V11.9641C11.0182 11.9641 12.7371 10.2025 12.7371 8.05311H11.2371ZM6.44882 13.8505C5.38035 13.4411 4.87724 13.1736 4.07666 12.5083L3.11795 13.662C4.07303 14.4556 4.72902 14.7979 5.91213 15.2512L6.44882 13.8505ZM16.6043 4.69275C15.9239 3.52334 15.393 2.89526 14.2 1.9959L13.297 3.1937C14.3264 3.96965 14.725 4.44549 15.3078 5.44708L16.6043 4.69275ZM12.7371 8.0601C12.7402 7.72539 12.6536 7.24156 12.4768 6.75159C12.2974 6.2543 12.001 5.6831 11.5349 5.21704L10.4743 6.2777C10.7387 6.54211 10.9356 6.89976 11.0659 7.26072C11.1987 7.629 11.2382 7.9328 11.2371 8.04613L12.7371 8.0601ZM8.77517 10.4707C8.61987 10.4915 7.8316 10.4387 7.07624 9.61719L5.97203 10.6324C7.05529 11.8106 8.32832 12.0438 8.97385 11.9575L8.77517 10.4707Z" fill="#0081C5"/>
</svg>
