<svg width="32" height="32" viewBox="0 0 32 32" fill="none" xmlns="http://www.w3.org/2000/svg">
<rect width="32" height="32" rx="8" fill="#F3F3F3"/>
<path d="M16 22H23" stroke="#0081C5" stroke-linecap="round" stroke-linejoin="round"/>
<path d="M19.2504 9.47176C19.5524 9.1697 19.9621 9 20.3893 9C20.6008 9 20.8103 9.04166 21.0057 9.12261C21.2011 9.20355 21.3787 9.32219 21.5282 9.47176C21.6778 9.62133 21.7964 9.79889 21.8774 9.99431C21.9583 10.1897 22 10.3992 22 10.6107C22 10.8222 21.9583 11.0317 21.8774 11.2271C21.7964 11.4225 21.6778 11.6001 21.5282 11.7496L12.0371 21.2407L9 22L9.75929 18.9629L19.2504 9.47176Z" stroke="#0081C5" stroke-linecap="round" stroke-linejoin="round"/>
</svg>
