<svg width="91" height="91" viewBox="0 0 91 91" fill="none" xmlns="http://www.w3.org/2000/svg">
<path d="M1.78399 30.0827C5.07767 16.0413 16.0413 5.07766 30.0827 1.78399C40.2233 -0.594661 50.7767 -0.594663 60.9173 1.78399C74.9587 5.07766 85.9223 16.0413 89.216 30.0828C91.5947 40.2233 91.5947 50.7767 89.216 60.9172C85.9223 74.9587 74.9587 85.9223 60.9172 89.216C50.7767 91.5947 40.2233 91.5947 30.0828 89.216C16.0413 85.9223 5.07767 74.9587 1.78399 60.9173C-0.594664 50.7767 -0.594664 40.2233 1.78399 30.0827Z" fill="#0081C5"/>
<path d="M65.5455 27H25.4545C22.9944 27 21 29.0707 21 31.625V59.375C21 61.9293 22.9944 64 25.4545 64H65.5455C68.0056 64 70 61.9293 70 59.375V31.625C70 29.0707 68.0056 27 65.5455 27Z" stroke="white" stroke-width="3" stroke-linecap="round" stroke-linejoin="round"/>
<path d="M21 41H70" stroke="white" stroke-width="3" stroke-linecap="round" stroke-linejoin="round"/>
</svg>
