<svg width="33" height="34" viewBox="0 0 33 34" fill="none" xmlns="http://www.w3.org/2000/svg">
<path fill-rule="evenodd" clip-rule="evenodd" d="M16.3122 0.970028C16.7282 0.692608 17.2703 0.692608 17.6866 0.970028L32.4459 10.8096C33.4658 11.4895 32.9845 13.0793 31.7587 13.0793H2.23995C1.01418 13.0793 0.532842 11.4895 1.55274 10.8096L16.3122 0.970028ZM16.9994 2.63896L3.99354 11.3095H30.0051L16.9994 2.63896ZM31.4642 12.2822C31.464 12.282 31.4636 12.2819 31.4635 12.2817L31.4642 12.2822Z" fill="#363853"/>
<path fill-rule="evenodd" clip-rule="evenodd" d="M27.6182 26.3535C27.1295 26.3535 26.7333 25.9572 26.7333 25.4686V15.7345C26.7333 15.2459 27.1295 14.8496 27.6182 14.8496C28.1068 14.8496 28.5031 15.2459 28.5031 15.7345V25.4686C28.5031 25.9572 28.1068 26.3535 27.6182 26.3535Z" fill="#363853"/>
<path fill-rule="evenodd" clip-rule="evenodd" d="M20.5392 26.3535C20.0506 26.3535 19.6543 25.9572 19.6543 25.4686V15.7345C19.6543 15.2459 20.0506 14.8496 20.5392 14.8496C21.0279 14.8496 21.4241 15.2459 21.4241 15.7345V25.4686C21.4241 25.9572 21.0279 26.3535 20.5392 26.3535Z" fill="#363853"/>
<path fill-rule="evenodd" clip-rule="evenodd" d="M13.4596 26.3535C12.9709 26.3535 12.5747 25.9572 12.5747 25.4686V15.7345C12.5747 15.2459 12.9709 14.8496 13.4596 14.8496C13.9483 14.8496 14.3445 15.2459 14.3445 15.7345V25.4686C14.3445 25.9572 13.9483 26.3535 13.4596 26.3535Z" fill="#363853"/>
<path fill-rule="evenodd" clip-rule="evenodd" d="M6.38052 26.3535C5.8918 26.3535 5.49561 25.9572 5.49561 25.4686V15.7345C5.49561 15.2459 5.8918 14.8496 6.38052 14.8496C6.86924 14.8496 7.26543 15.2459 7.26543 15.7345V25.4686C7.26543 25.9572 6.86924 26.3535 6.38052 26.3535Z" fill="#363853"/>
<path fill-rule="evenodd" clip-rule="evenodd" d="M1.95569 30.7778C1.95569 29.3117 3.14425 28.123 4.61043 28.123H29.388C30.8541 28.123 32.0427 29.3117 32.0427 30.7778C32.0427 32.2439 30.8541 33.4325 29.388 33.4325H4.61043C3.14425 33.4325 1.95569 32.2439 1.95569 30.7778ZM4.61043 29.8929C4.12171 29.8929 3.72552 30.2891 3.72552 30.7778C3.72552 31.2664 4.12171 31.6627 4.61043 31.6627H29.388C29.8766 31.6627 30.2729 31.2664 30.2729 30.7778C30.2729 30.2891 29.8766 29.8929 29.388 29.8929H4.61043Z" fill="#363853"/>
</svg>
