<svg width="39" height="39" viewBox="0 0 39 39" fill="none" xmlns="http://www.w3.org/2000/svg">
<path d="M0.764568 12.8926C2.17614 6.87485 6.87485 2.17614 12.8926 0.764566C17.2386 -0.254855 21.7614 -0.254856 26.1074 0.764566C32.1252 2.17614 36.8239 6.87485 38.2354 12.8926C39.2549 17.2386 39.2549 21.7614 38.2354 26.1074C36.8239 32.1252 32.1252 36.8239 26.1074 38.2354C21.7614 39.2549 17.2386 39.2549 12.8926 38.2354C6.87486 36.8239 2.17614 32.1252 0.764568 26.1074C-0.254856 21.7615 -0.254856 17.2386 0.764568 12.8926Z" fill="#0081C5"/>
<path d="M29.4717 11.0422H11.4717C10.3671 11.0422 9.47168 11.9377 9.47168 13.0422V25.0422C9.47168 26.1468 10.3671 27.0422 11.4717 27.0422H29.4717C30.5763 27.0422 31.4717 26.1468 31.4717 25.0422V13.0422C31.4717 11.9377 30.5763 11.0422 29.4717 11.0422Z" stroke="white" stroke-width="1.5" stroke-linecap="round" stroke-linejoin="round"/>
<path d="M9.47168 17.0422H31.4717" stroke="white" stroke-width="1.5" stroke-linecap="round" stroke-linejoin="round"/>
</svg>
