<svg width="40" height="40" viewBox="0 0 40 40" fill="none" xmlns="http://www.w3.org/2000/svg">
<path d="M20 40.0002C14.6578 40.0002 9.63531 37.9199 5.85781 34.1424C2.08031 30.3649 0 25.3424 0 20.0002C0 14.6581 2.08039 9.63564 5.85781 5.85806C9.63523 2.08048 14.6578 0.000244141 20 0.000244141C25.3422 0.000244141 30.3647 2.08056 34.1422 5.85806C37.9197 9.63556 40 14.6581 40 20.0002C40 25.3424 37.9196 30.3649 34.1422 34.1424C30.3648 37.92 25.3422 40.0002 20 40.0002ZM20 2.50024C10.3505 2.50024 2.5 10.3507 2.5 20.0002C2.5 29.6498 10.3505 37.5002 20 37.5002C29.6495 37.5002 37.5 29.6498 37.5 20.0002C37.5 10.3507 29.6495 2.50024 20 2.50024Z" fill="#363853"/>
<path d="M20 18.7502C18.2769 18.7502 16.875 17.3484 16.875 15.6252C16.875 13.9021 18.2769 12.5002 20 12.5002C21.7231 12.5002 23.125 13.9021 23.125 15.6252C23.125 16.3156 23.6846 16.8752 24.375 16.8752C25.0654 16.8752 25.625 16.3156 25.625 15.6252C25.625 12.9533 23.7517 10.7121 21.25 10.142V8.75024C21.25 8.05993 20.6904 7.50024 20 7.50024C19.3096 7.50024 18.75 8.05993 18.75 8.75024V10.142C16.2483 10.7121 14.375 12.9533 14.375 15.6252C14.375 18.7269 16.8984 21.2502 20 21.2502C21.7231 21.2502 23.125 22.6521 23.125 24.3752C23.125 26.0984 21.7231 27.5002 20 27.5002C18.2769 27.5002 16.875 26.0984 16.875 24.3752C16.875 23.6849 16.3154 23.1252 15.625 23.1252C14.9346 23.1252 14.375 23.6849 14.375 24.3752C14.375 27.0472 16.2483 29.2884 18.75 29.8585V31.2502C18.75 31.9406 19.3096 32.5002 20 32.5002C20.6904 32.5002 21.25 31.9406 21.25 31.2502V29.8585C23.7517 29.2884 25.625 27.0472 25.625 24.3752C25.625 21.2736 23.1016 18.7502 20 18.7502Z" fill="#363853"/>
</svg>
