<svg width="114" height="114" viewBox="0 0 114 114" fill="none" xmlns="http://www.w3.org/2000/svg">
<g clip-path="url(#clip0_1_2870)">
<path d="M14.6762 42.2645C17.7708 29.0718 28.0718 18.7708 41.2646 15.6762C50.7922 13.4413 60.7078 13.4413 70.2355 15.6762C83.4282 18.7708 93.7292 29.0718 96.8238 42.2646C99.0587 51.7922 99.0587 61.7078 96.8238 71.2354C93.7292 84.4282 83.4282 94.7292 70.2354 97.8238C60.7078 100.059 50.7922 100.059 41.2646 97.8238C28.0718 94.7292 17.7708 84.4282 14.6762 71.2355C12.4413 61.7078 12.4413 51.7922 14.6762 42.2645Z" fill="#56BE15"/>
<path d="M43 56.3125L52.5 65.8125L69.125 48" stroke="white" stroke-width="7" stroke-linecap="round" stroke-linejoin="round"/>
<path d="M11.8638 18.9647C12.2206 18.5193 12.9656 18.7688 12.9821 19.3393L13.0273 20.8992C13.0326 21.0819 13.1224 21.2542 13.2718 21.3683L14.5474 22.3429C15.0139 22.6993 14.7733 23.4177 14.1863 23.4213L12.5809 23.431C12.393 23.4321 12.2175 23.5156 12.1033 23.6582L11.1277 24.8763C10.7709 25.3218 10.026 25.0723 10.0094 24.5018L9.96422 22.9418C9.95893 22.7592 9.86912 22.5869 9.71979 22.4728L8.44415 21.4982C7.97765 21.1418 8.21824 20.4234 8.8053 20.4198L10.4106 20.4101C10.5985 20.4089 10.774 20.3254 10.8882 20.1828L11.8638 18.9647Z" fill="#F9DB3E"/>
<path d="M19.2303 4.13841C19.7726 3.46134 20.905 3.84057 20.9301 4.70768L21.0162 7.67957C21.0243 7.95713 21.1608 8.21908 21.3877 8.39248L23.818 10.2492C24.527 10.7909 24.1613 11.8828 23.269 11.8883L20.2108 11.9068C19.9251 11.9086 19.6584 12.0355 19.4848 12.2522L17.6262 14.5728C17.0839 15.2498 15.9516 14.8706 15.9264 14.0035L15.8403 11.0316C15.8323 10.7541 15.6957 10.4921 15.4688 10.3187L13.0386 8.46197C12.3295 7.92024 12.6952 6.82835 13.5875 6.82293L16.6458 6.80435C16.9314 6.80261 17.1981 6.67572 17.3717 6.45899L19.2303 4.13841Z" fill="#F9DB3E"/>
<path d="M6.82839 8.00827C7.23685 7.48597 8.07496 7.76666 8.08647 8.42962L8.11794 10.2425C8.12163 10.4547 8.22088 10.6539 8.38807 10.7846L9.8163 11.9016C10.3386 12.31 10.0579 13.1481 9.39495 13.1597L7.58211 13.1911C7.3699 13.1948 7.17068 13.2941 7.03994 13.4613L5.92299 14.8895C5.51453 15.4118 4.67642 15.1311 4.66491 14.4681L4.63344 12.6553C4.62975 12.4431 4.5305 12.2439 4.36331 12.1131L2.93508 10.9962C2.41278 10.5877 2.69347 9.74962 3.35643 9.73811L5.16927 9.70663C5.38148 9.70294 5.58069 9.60369 5.71144 9.4365L6.82839 8.00827Z" fill="#F9DB3E"/>
<path d="M99.8768 104.168C100.029 103.753 100.637 103.753 100.79 104.168L101.207 105.302C101.255 105.435 101.364 105.539 101.501 105.587L102.677 105.988C103.108 106.135 103.108 106.722 102.677 106.869L101.501 107.271C101.364 107.318 101.255 107.422 101.207 107.555L100.79 108.689C100.637 109.104 100.029 109.104 99.8768 108.689L99.4601 107.555C99.4113 107.422 99.303 107.318 99.1653 107.271L97.9892 106.869C97.5591 106.722 97.5591 106.135 97.9892 105.988L99.1653 105.587C99.303 105.539 99.4113 105.435 99.4601 105.302L99.8768 104.168Z" fill="#F9DB3E"/>
<path d="M101.639 91.4728C101.871 90.8424 102.796 90.8424 103.027 91.4728L103.821 93.6333C103.895 93.8351 104.06 93.9938 104.269 94.0653L106.51 94.8309C107.163 95.0543 107.163 95.9457 106.51 96.1691L104.269 96.9347C104.06 97.0062 103.895 97.1649 103.821 97.3667L103.027 99.5272C102.796 100.158 101.871 100.158 101.639 99.5272L100.846 97.3667C100.771 97.1649 100.607 97.0062 100.398 96.9347L98.157 96.1691C97.5032 95.9457 97.5032 95.0543 98.157 94.8309L100.398 94.0653C100.607 93.9938 100.771 93.8351 100.846 93.6333L101.639 91.4728Z" fill="#F9DB3E"/>
<path d="M93.4864 97.3629C93.6579 96.879 94.3421 96.879 94.5136 97.3629L94.9824 98.686C95.0373 98.8409 95.1591 98.9627 95.314 99.0176L96.6371 99.4864C97.121 99.6579 97.121 100.342 96.6371 100.514L95.314 100.982C95.1591 101.037 95.0373 101.159 94.9824 101.314L94.5136 102.637C94.3421 103.121 93.6579 103.121 93.4864 102.637L93.0176 101.314C92.9627 101.159 92.8409 101.037 92.686 100.982L91.3629 100.514C90.879 100.342 90.879 99.6579 91.3629 99.4864L92.686 99.0176C92.8409 98.9627 92.9627 98.8409 93.0176 98.686L93.4864 97.3629Z" fill="#F9DB3E"/>
</g>
<defs>
<clipPath id="clip0_1_2870">
<rect width="114" height="114" fill="white"/>
</clipPath>
</defs>
</svg>
