<svg width="92" height="92" viewBox="0 0 92 92" fill="none" xmlns="http://www.w3.org/2000/svg">
<circle cx="46" cy="46" r="45" fill="white" stroke="#363853" stroke-width="2"/>
<path d="M62.1631 62V58C62.1631 55.8783 61.3202 53.8434 59.8199 52.3432C54.2041 46.7273 38.4727 46.3767 32.5062 52.3432C31.0059 53.8434 30.1631 55.8783 30.1631 58V62" stroke="#130F26" stroke-width="3" stroke-linecap="round" stroke-linejoin="round"/>
<path d="M46.1636 42C50.5818 42 54.1636 38.4183 54.1636 34C54.1636 29.5817 50.5818 26 46.1636 26C41.7453 26 38.1636 29.5817 38.1636 34C38.1636 38.4183 41.7453 42 46.1636 42Z" stroke="#130F26" stroke-width="3" stroke-linecap="round" stroke-linejoin="round"/>
<path d="M74.1636 62V58C74.1622 56.2275 73.5723 54.5056 72.4863 53.1046C71.4003 51.7037 69.8798 50.7031 68.1636 50.26" stroke="#130F26" stroke-width="3" stroke-linecap="round" stroke-linejoin="round"/>
<path d="M17.8359 62V58C17.8373 56.2275 18.4272 54.5056 19.5132 53.1046C20.5992 51.7037 22.1197 50.7031 23.8359 50.26" stroke="#130F26" stroke-width="3" stroke-linecap="round" stroke-linejoin="round"/>
<path d="M60.1636 26.2601C61.8844 26.7007 63.4096 27.7015 64.4988 29.1048C65.5881 30.508 66.1793 32.2338 66.1793 34.0101C66.1793 35.7865 65.5881 37.5123 64.4988 38.9155C63.4096 40.3187 61.8844 41.3195 60.1636 41.7601" stroke="#130F26" stroke-width="3" stroke-linecap="round" stroke-linejoin="round"/>
<path d="M31.8359 26.2601C30.1151 26.7007 28.5899 27.7015 27.5007 29.1048C26.4115 30.508 25.8203 32.2338 25.8203 34.0101C25.8203 35.7865 26.4115 37.5123 27.5007 38.9155C28.5899 40.3187 30.1151 41.3195 31.8359 41.7601" stroke="#130F26" stroke-width="3" stroke-linecap="round" stroke-linejoin="round"/>
</svg>
