<svg width="60" height="40" viewBox="0 0 60 40" fill="none" xmlns="http://www.w3.org/2000/svg">
<path d="M46.1631 38V34C46.1631 31.8782 45.3202 29.8434 43.8199 28.3431C38.2041 22.7273 22.4727 22.3766 16.5062 28.3431C15.0059 29.8434 14.1631 31.8782 14.1631 34V38" stroke="#130F26" stroke-width="3" stroke-linecap="round" stroke-linejoin="round"/>
<path d="M30.1636 18C34.5818 18 38.1636 14.4183 38.1636 9.99999C38.1636 5.58172 34.5818 2 30.1636 2C25.7453 2 22.1636 5.58172 22.1636 9.99999C22.1636 14.4183 25.7453 18 30.1636 18Z" stroke="#130F26" stroke-width="3" stroke-linecap="round" stroke-linejoin="round"/>
<path d="M58.1636 38V34C58.1622 32.2275 57.5723 30.5056 56.4863 29.1047C55.4003 27.7038 53.8798 26.7032 52.1636 26.26" stroke="#130F26" stroke-width="3" stroke-linecap="round" stroke-linejoin="round"/>
<path d="M1.83594 38V34C1.83726 32.2275 2.42723 30.5056 3.51321 29.1047C4.59919 27.7038 6.11968 26.7032 7.83594 26.26" stroke="#130F26" stroke-width="3" stroke-linecap="round" stroke-linejoin="round"/>
<path d="M44.1636 2.26013C45.8844 2.70073 47.4096 3.70153 48.4988 5.10475C49.5881 6.50797 50.1793 8.23379 50.1793 10.0101C50.1793 11.7865 49.5881 13.5123 48.4988 14.9155C47.4096 16.3187 45.8844 17.3195 44.1636 17.7601" stroke="#130F26" stroke-width="3" stroke-linecap="round" stroke-linejoin="round"/>
<path d="M15.8359 2.26013C14.1151 2.70073 12.5899 3.70153 11.5007 5.10475C10.4115 6.50797 9.82026 8.23379 9.82026 10.0101C9.82026 11.7865 10.4115 13.5123 11.5007 14.9155C12.5899 16.3187 14.1151 17.3195 15.8359 17.7601" stroke="#130F26" stroke-width="3" stroke-linecap="round" stroke-linejoin="round"/>
</svg>
