<svg width="132" height="132" viewBox="0 0 132 132" fill="none" xmlns="http://www.w3.org/2000/svg">
<path d="M95.6324 95.3335V88.0001C95.6324 84.1103 94.0872 80.3798 91.3367 77.6292C81.041 67.3335 52.2002 66.6907 41.2616 77.6292C38.5111 80.3798 36.9658 84.1103 36.9658 88.0001V95.3335" stroke="#130F26" stroke-width="3" stroke-linecap="round" stroke-linejoin="round"/>
<path d="M66.3 58.6668C74.4001 58.6668 80.9666 52.1003 80.9666 44.0002C80.9666 35.9 74.4001 29.3335 66.3 29.3335C58.1998 29.3335 51.6333 35.9 51.6333 44.0002C51.6333 52.1003 58.1998 58.6668 66.3 58.6668Z" stroke="#130F26" stroke-width="3" stroke-linecap="round" stroke-linejoin="round"/>
<path d="M117.633 95.3334V88C117.631 84.7504 116.549 81.5936 114.558 79.0252C112.567 76.4569 109.78 74.6225 106.633 73.8101" stroke="#130F26" stroke-width="3" stroke-linecap="round" stroke-linejoin="round"/>
<path d="M14.366 95.3334V88C14.3684 84.7504 15.45 81.5936 17.441 79.0252C19.4319 76.4569 22.2195 74.6225 25.366 73.8101" stroke="#130F26" stroke-width="3" stroke-linecap="round" stroke-linejoin="round"/>
<path d="M91.9666 29.8105C95.1214 30.6183 97.9177 32.4531 99.9146 35.0257C101.911 37.5982 102.995 40.7622 102.995 44.0189C102.995 47.2755 101.911 50.4395 99.9146 53.0121C97.9177 55.5846 95.1214 57.4194 91.9666 58.2272" stroke="#130F26" stroke-width="3" stroke-linecap="round" stroke-linejoin="round"/>
<path d="M40.0325 29.8105C36.8776 30.6183 34.0813 32.4531 32.0845 35.0257C30.0876 37.5982 29.0037 40.7622 29.0037 44.0189C29.0037 47.2755 30.0876 50.4395 32.0845 53.0121C34.0813 55.5846 36.8776 57.4194 40.0325 58.2272" stroke="#130F26" stroke-width="3" stroke-linecap="round" stroke-linejoin="round"/>
<path d="M95.6324 95.3335V88.0001C95.6324 84.1103 94.0872 80.3798 91.3367 77.6292C81.041 67.3335 52.2002 66.6907 41.2616 77.6292C38.5111 80.3798 36.9658 84.1103 36.9658 88.0001V95.3335" stroke="#130F26" stroke-width="3" stroke-linecap="round" stroke-linejoin="round"/>
<path d="M66.3 58.6668C74.4001 58.6668 80.9666 52.1003 80.9666 44.0002C80.9666 35.9 74.4001 29.3335 66.3 29.3335C58.1998 29.3335 51.6333 35.9 51.6333 44.0002C51.6333 52.1003 58.1998 58.6668 66.3 58.6668Z" stroke="#130F26" stroke-width="3" stroke-linecap="round" stroke-linejoin="round"/>
<path d="M117.633 95.3334V88C117.631 84.7504 116.549 81.5936 114.558 79.0252C112.567 76.4569 109.78 74.6225 106.633 73.8101" stroke="#130F26" stroke-width="3" stroke-linecap="round" stroke-linejoin="round"/>
<path d="M14.366 95.3334V88C14.3684 84.7504 15.45 81.5936 17.441 79.0252C19.4319 76.4569 22.2195 74.6225 25.366 73.8101" stroke="#130F26" stroke-width="3" stroke-linecap="round" stroke-linejoin="round"/>
<path d="M91.9666 29.8105C95.1214 30.6183 97.9177 32.4531 99.9146 35.0257C101.911 37.5982 102.995 40.7622 102.995 44.0189C102.995 47.2755 101.911 50.4395 99.9146 53.0121C97.9177 55.5846 95.1214 57.4194 91.9666 58.2272" stroke="#130F26" stroke-width="3" stroke-linecap="round" stroke-linejoin="round"/>
<path d="M40.0325 29.8105C36.8776 30.6183 34.0813 32.4531 32.0845 35.0257C30.0876 37.5982 29.0037 40.7622 29.0037 44.0189C29.0037 47.2755 30.0876 50.4395 32.0845 53.0121C34.0813 55.5846 36.8776 57.4194 40.0325 58.2272" stroke="#130F26" stroke-width="3" stroke-linecap="round" stroke-linejoin="round"/>
</svg>
