<svg width="33" height="33" viewBox="0 0 33 33" fill="none" xmlns="http://www.w3.org/2000/svg">
<path d="M0.646942 10.9091C1.84135 5.81718 5.81718 1.84135 10.9091 0.646941C14.5865 -0.215646 18.4135 -0.215647 22.0909 0.64694C27.1828 1.84135 31.1587 5.81718 32.3531 10.9091C33.2156 14.5865 33.2156 18.4135 32.3531 22.0909C31.1587 27.1828 27.1828 31.1587 22.0909 32.3531C18.4135 33.2156 14.5865 33.2156 10.9091 32.3531C5.81719 31.1587 1.84135 27.1828 0.646942 22.0909C-0.215647 18.4135 -0.215647 14.5865 0.646942 10.9091Z" fill="#24BEEF"/>
<path d="M21.4302 24.0908V22.4141C21.4302 21.5247 21.0769 20.6717 20.448 20.0428C19.8191 19.4139 18.9661 19.0605 18.0767 19.0605H12.208C11.3186 19.0605 10.4656 19.4139 9.83672 20.0428C9.20781 20.6717 8.85449 21.5247 8.85449 22.4141V24.0908" stroke="white" stroke-width="1.5" stroke-linecap="round" stroke-linejoin="round"/>
<path d="M15.1421 15.7071C16.9942 15.7071 18.4956 14.2056 18.4956 12.3535C18.4956 10.5014 16.9942 9 15.1421 9C13.29 9 11.7886 10.5014 11.7886 12.3535C11.7886 14.2056 13.29 15.7071 15.1421 15.7071Z" stroke="white" stroke-width="1.5" stroke-linecap="round" stroke-linejoin="round"/>
<path d="M23.6309 13.1919V18.2222" stroke="white" stroke-width="1.5" stroke-linecap="round" stroke-linejoin="round"/>
<path d="M26.1465 15.707H21.1162" stroke="white" stroke-width="1.5" stroke-linecap="round" stroke-linejoin="round"/>
</svg>
