<svg width="92" height="92" viewBox="0 0 92 92" fill="none" xmlns="http://www.w3.org/2000/svg">
<circle cx="46" cy="46" r="46" fill="#0081C5"/>
<path d="M62.1631 66V62C62.1631 59.8783 61.3202 57.8434 59.8199 56.3432C54.2041 50.7273 38.4727 50.3767 32.5062 56.3432C31.0059 57.8434 30.1631 59.8783 30.1631 62V66" stroke="white" stroke-width="3" stroke-linecap="round" stroke-linejoin="round"/>
<path d="M46.1636 46C50.5818 46 54.1636 42.4183 54.1636 38C54.1636 33.5817 50.5818 30 46.1636 30C41.7453 30 38.1636 33.5817 38.1636 38C38.1636 42.4183 41.7453 46 46.1636 46Z" stroke="white" stroke-width="3" stroke-linecap="round" stroke-linejoin="round"/>
<path d="M74.1636 66V62C74.1622 60.2275 73.5723 58.5056 72.4863 57.1046C71.4003 55.7037 69.8798 54.7031 68.1636 54.26" stroke="white" stroke-width="3" stroke-linecap="round" stroke-linejoin="round"/>
<path d="M17.8359 66V62C17.8373 60.2275 18.4272 58.5056 19.5132 57.1046C20.5992 55.7037 22.1197 54.7031 23.8359 54.26" stroke="white" stroke-width="3" stroke-linecap="round" stroke-linejoin="round"/>
<path d="M60.1636 30.2601C61.8844 30.7007 63.4096 31.7015 64.4988 33.1048C65.5881 34.508 66.1793 36.2338 66.1793 38.0101C66.1793 39.7865 65.5881 41.5123 64.4988 42.9155C63.4096 44.3187 61.8844 45.3195 60.1636 45.7601" stroke="white" stroke-width="3" stroke-linecap="round" stroke-linejoin="round"/>
<path d="M31.8359 30.2601C30.1151 30.7007 28.5899 31.7015 27.5007 33.1048C26.4115 34.508 25.8203 36.2338 25.8203 38.0101C25.8203 39.7865 26.4115 41.5123 27.5007 42.9155C28.5899 44.3187 30.1151 45.3195 31.8359 45.7601" stroke="white" stroke-width="3" stroke-linecap="round" stroke-linejoin="round"/>
</svg>
