<svg width="72" height="72" viewBox="0 0 72 72" fill="none" xmlns="http://www.w3.org/2000/svg">
<path d="M61.7147 15.2923C63.7489 17.4289 66.4608 19.4204 67.2801 22.2853C67.9995 24.8007 67.9995 27.5926 67.9995 33.1765C67.9995 38.7603 67.9995 41.5523 67.2801 44.0677C66.4608 46.9326 64.9687 49.5478 62.9346 51.6844C61.1485 53.5603 58.7747 54.9291 54.0271 57.6666L53.472 57.9867C48.3752 60.9256 45.8269 62.395 43.1248 62.9708C40.7335 63.4803 38.2655 63.4803 35.8742 62.9708C33.1722 62.395 30.6238 60.9256 25.5271 57.9867L24.972 57.6666C20.2243 54.9291 17.8505 53.5603 16.0645 51.6844C14.0303 49.5478 12.5382 46.9326 11.7189 44.0677C10.9995 41.5523 10.9995 38.7603 10.9995 33.1765C10.9995 27.5926 10.9995 24.8007 11.7189 22.2853C12.5382 19.4204 14.0303 16.8051 16.0645 14.6686C17.8505 12.7926 20.2243 11.4238 24.972 8.6863L25.5271 8.36621C30.6238 5.42738 33.1722 3.95796 35.8742 3.38217C38.2655 2.87261 40.7335 2.87261 43.1248 3.38217C45.8269 3.95796 45.6195 3.71185 50.7162 6.65069" stroke="#363853" stroke-width="4" stroke-linecap="round" stroke-linejoin="round"/>
<path d="M61.7142 11.3644H49.1445M55.4294 18.4348L55.4294 4.29395" stroke="#363853" stroke-width="4" stroke-linecap="round"/>
<path d="M24.4116 54.8959C24.4116 50.1404 31.3175 45.7505 39.4999 45.7505C47.6382 45.7505 54.5881 50.0979 54.5881 54.8533" stroke="#363853" stroke-width="4" stroke-linecap="round" stroke-linejoin="round"/>
<path fill-rule="evenodd" clip-rule="evenodd" d="M39.5013 38.206C45.0565 38.206 49.5591 33.7035 49.5591 28.1482C49.5591 22.593 45.0565 18.0884 39.5013 18.0884C33.9461 18.0884 29.4415 22.593 29.4415 28.1482C29.4227 33.6847 33.894 38.1873 39.4304 38.206C39.4554 38.206 39.4784 38.206 39.5013 38.206Z" stroke="#363853" stroke-width="4" stroke-linecap="round" stroke-linejoin="round"/>
<path d="M42.5195 50.7604C43.4787 46.6714 46.6714 43.4787 50.7604 42.5195C53.7134 41.8268 56.7866 41.8268 59.7396 42.5195C63.8286 43.4787 67.0213 46.6714 67.9805 50.7604C68.6732 53.7134 68.6732 56.7866 67.9805 59.7396C67.0213 63.8286 63.8286 67.0213 59.7396 67.9805C56.7866 68.6732 53.7134 68.6732 50.7604 67.9805C46.6714 67.0213 43.4787 63.8286 42.5195 59.7396C41.8268 56.7866 41.8268 53.7134 42.5195 50.7604Z" fill="#93E06F"/>
<path d="M51.2988 55.1145L54.2433 58.0589L59.396 52.5381" stroke="white" stroke-width="2.16959" stroke-linecap="round" stroke-linejoin="round"/>
</svg>
