<svg width="61" height="65" viewBox="0 0 61 65" fill="none" xmlns="http://www.w3.org/2000/svg">
<path d="M52.7147 14.2923C54.7489 16.4289 57.4608 18.4204 58.2801 21.2853C58.9995 23.8007 58.9995 26.5926 58.9995 32.1765C58.9995 37.7603 58.9995 40.5523 58.2801 43.0677C57.4608 45.9326 55.9687 48.5478 53.9346 50.6844C52.1485 52.5603 49.7747 53.9291 45.0271 56.6666L44.472 56.9867C39.3752 59.9256 36.8269 61.395 34.1248 61.9708C31.7335 62.4803 29.2655 62.4803 26.8742 61.9708C24.1722 61.395 21.6238 59.9256 16.5271 56.9867L15.972 56.6666C11.2243 53.9291 8.8505 52.5603 7.06446 50.6844C5.03028 48.5478 3.53819 45.9326 2.71888 43.0677C1.99951 40.5523 1.99951 37.7603 1.99951 32.1765C1.99951 26.5926 1.99951 23.8007 2.71888 21.2853C3.53819 18.4204 5.03028 15.8051 7.06446 13.6686C8.8505 11.7926 11.2243 10.4238 15.972 7.6863L16.5271 7.36621C21.6238 4.42738 24.1722 2.95796 26.8742 2.38217C29.2655 1.87261 31.7335 1.87261 34.1248 2.38217C36.8269 2.95796 36.6195 2.71185 41.7162 5.65069" stroke="#363853" stroke-width="4" stroke-linecap="round" stroke-linejoin="round"/>
<path d="M52.7142 10.3644H40.1445M46.4294 17.4348L46.4294 3.29395" stroke="#363853" stroke-width="4" stroke-linecap="round"/>
<path d="M15.4116 53.8959C15.4116 49.1404 22.3175 44.7505 30.4999 44.7505C38.6382 44.7505 45.5881 49.0979 45.5881 53.8533" stroke="#363853" stroke-width="4" stroke-linecap="round" stroke-linejoin="round"/>
<path fill-rule="evenodd" clip-rule="evenodd" d="M30.5013 37.206C36.0565 37.206 40.5591 32.7035 40.5591 27.1482C40.5591 21.593 36.0565 17.0884 30.5013 17.0884C24.9461 17.0884 20.4415 21.593 20.4415 27.1482C20.4227 32.6847 24.894 37.1873 30.4304 37.206C30.4554 37.206 30.4784 37.206 30.5013 37.206Z" stroke="#363853" stroke-width="4" stroke-linecap="round" stroke-linejoin="round"/>
</svg>
