<svg width="33" height="33" viewBox="0 0 33 33" fill="none" xmlns="http://www.w3.org/2000/svg">
<path d="M0.646942 10.9091C1.84135 5.81718 5.81718 1.84135 10.9091 0.646941C14.5865 -0.215646 18.4135 -0.215647 22.0909 0.64694C27.1828 1.84135 31.1587 5.81718 32.3531 10.9091C33.2156 14.5865 33.2156 18.4135 32.3531 22.0909C31.1587 27.1828 27.1828 31.1587 22.0909 32.3531C18.4135 33.2156 14.5865 33.2156 10.9091 32.3531C5.81719 31.1587 1.84135 27.1828 0.646942 22.0909C-0.215647 18.4135 -0.215647 14.5865 0.646942 10.9091Z" fill="#936EE3"/>
<path d="M9 12.1113H10.5556H23" stroke="white" stroke-width="1.5" stroke-linecap="round" stroke-linejoin="round"/>
<path d="M21.4446 12.1111V23C21.4446 23.4126 21.2807 23.8082 20.9889 24.0999C20.6972 24.3917 20.3016 24.5556 19.889 24.5556H12.1112C11.6987 24.5556 11.303 24.3917 11.0113 24.0999C10.7196 23.8082 10.5557 23.4126 10.5557 23V12.1111M12.889 12.1111V10.5556C12.889 10.143 13.0529 9.74733 13.3446 9.45561C13.6363 9.16389 14.032 9 14.4446 9H17.5557C17.9682 9 18.3639 9.16389 18.6556 9.45561C18.9473 9.74733 19.1112 10.143 19.1112 10.5556V12.1111" stroke="white" stroke-width="1.5" stroke-linecap="round" stroke-linejoin="round"/>
</svg>
