<svg width="82" height="74" viewBox="0 0 77 74" fill="none" xmlns="http://www.w3.org/2000/svg">
<style type="text/css">
	.st1{fill:#FF3333;}
	.st2{fill:none;stroke:#FFFFFF;stroke-width:2.169;stroke-linecap:round;stroke-linejoin:round;}
</style>
<path d="M36.389 2.00428V40.8392" stroke="#363853" stroke-width="4" stroke-linecap="round" stroke-linejoin="round"/>
<path d="M26.9839 11.4435L36.3886 2.00002L45.7934 11.4435" stroke="#363853" stroke-width="4" stroke-linecap="round" stroke-linejoin="round"/>
<path d="M21.9056 19.5212C10.3593 20.5856 6.1665 24.9074 6.1665 42.0978C6.1665 65.0002 13.6168 65.0002 35.9998 65.0002C58.3829 65.0002 65.8332 65.0002 65.8332 42.0978C65.8332 24.9074 61.6404 20.5856 50.0941 19.5212" stroke="#363853" stroke-width="4" stroke-linecap="round" stroke-linejoin="round"/>
<path class="st1" d="M53.5,46.8c1-4.1,4.2-7.3,8.2-8.2c3-0.7,6-0.7,9,0c4.1,1,7.3,4.2,8.2,8.2c0.7,3,0.7,6,0,9
	c-1,4.1-4.2,7.3-8.2,8.2c-3,0.7-6,0.7-9,0c-4.1-1-7.3-4.2-8.2-8.2C52.8,52.8,52.8,49.7,53.5,46.8z"/>
<path class="st2" d="M61.7,55.8l9.1-9.1"/>
<path class="st2" d="M70.8,55.8l-9.1-9.1"/>	
</svg>
