<svg width="132" height="132" viewBox="0 0 132 132" fill="none" xmlns="http://www.w3.org/2000/svg">
<path d="M95.6324 95.3335V88.0001C95.6324 84.1103 94.0872 80.3798 91.3367 77.6292C81.041 67.3335 52.2002 66.6907 41.2616 77.6292C38.5111 80.3798 36.9658 84.1103 36.9658 88.0001V95.3335" stroke="#130F26" stroke-width="3" stroke-linecap="round" stroke-linejoin="round"/>
<path d="M66.3 58.6668C74.4001 58.6668 80.9666 52.1003 80.9666 44.0002C80.9666 35.9 74.4001 29.3335 66.3 29.3335C58.1998 29.3335 51.6333 35.9 51.6333 44.0002C51.6333 52.1003 58.1998 58.6668 66.3 58.6668Z" stroke="#130F26" stroke-width="3" stroke-linecap="round" stroke-linejoin="round"/>
<path d="M95.6324 95.3335V88.0001C95.6324 84.1103 94.0872 80.3798 91.3367 77.6292C81.041 67.3335 52.2002 66.6907 41.2616 77.6292C38.5111 80.3798 36.9658 84.1103 36.9658 88.0001V95.3335" stroke="#130F26" stroke-width="3" stroke-linecap="round" stroke-linejoin="round"/>
<path d="M66.3 58.6668C74.4001 58.6668 80.9666 52.1003 80.9666 44.0002C80.9666 35.9 74.4001 29.3335 66.3 29.3335C58.1998 29.3335 51.6333 35.9 51.6333 44.0002C51.6333 52.1003 58.1998 58.6668 66.3 58.6668Z" stroke="#130F26" stroke-width="3" stroke-linecap="round" stroke-linejoin="round"/>
</svg>
