<svg height="80" width="80" viewBox="0 0 32 32" version="1.1" xmlns="http://www.w3.org/2000/svg"
    xmlns:xlink="http://www.w3.org/1999/xlink" fill="#000000">
    <g id="SVGRepo_bgCarrier" stroke-width="0" />
    <g id="SVGRepo_tracerCarrier" stroke-linecap="round" stroke-linejoin="round" />
    <g id="SVGRepo_iconCarrier">
        <g id="icomoon-ignore" />
        <path
            d="M6.576 6.576c-5.205 5.205-5.205 13.643 0 18.849s13.643 5.205 18.849-0c5.206-5.206 5.206-13.643 0-18.849s-13.643-5.205-18.849 0zM24.67 24.67c-4.781 4.781-12.56 4.781-17.341 0s-4.781-12.56 0-17.341c4.781-4.781 12.56-4.781 17.341 0s4.78 12.56-0 17.341z"
            fill="#000000" />
        <path
            d="M10.722 9.969l-0.754 0.754 5.278 5.278-5.253 5.253 0.754 0.754 5.253-5.253 5.253 5.253 0.754-0.754-5.253-5.253 5.278-5.278-0.754-0.754-5.278 5.278z"
            fill="#000000" />
    </g>
</svg>
  