<svg width="39" height="39" viewBox="0 0 39 39" fill="none" xmlns="http://www.w3.org/2000/svg">
<path d="M0.764568 12.8926C2.17614 6.87485 6.87485 2.17614 12.8926 0.764566C17.2386 -0.254855 21.7614 -0.254856 26.1074 0.764566C32.1252 2.17614 36.8239 6.87485 38.2354 12.8926C39.2549 17.2386 39.2549 21.7614 38.2354 26.1074C36.8239 32.1251 32.1252 36.8239 26.1074 38.2354C21.7614 39.2549 17.2386 39.2549 12.8926 38.2354C6.87486 36.8239 2.17614 32.1252 0.764568 26.1074C-0.254856 21.7615 -0.254856 17.2386 0.764568 12.8926Z" fill="#0081C5"/>
<path d="M11 20C11 20 13.9091 14 19 14C24.0909 14 27 20 27 20C27 20 24.0909 26 19 26C13.9091 26 11 20 11 20Z" stroke="white" stroke-width="1.5" stroke-linecap="round" stroke-linejoin="round"/>
<path d="M19 22C20.1046 22 21 21.1046 21 20C21 18.8954 20.1046 18 19 18C17.8954 18 17 18.8954 17 20C17 21.1046 17.8954 22 19 22Z" stroke="white" stroke-width="1.5" stroke-linecap="round" stroke-linejoin="round"/>
</svg>
