<svg width="19" height="20" viewBox="0 0 19 20" fill="none" xmlns="http://www.w3.org/2000/svg">
<path d="M6.94439 17.9039V15.1437C6.94438 14.4443 7.50981 13.876 8.21018 13.8716H10.7818C11.4853 13.8716 12.0556 14.4412 12.0556 15.1437V15.1437V17.8959C12.0556 18.5026 12.5457 18.9956 13.1532 19H14.9076C15.727 19.0021 16.5136 18.6785 17.0938 18.1006C17.6739 17.5228 18 16.7381 18 15.9198V8.07926C18 7.41825 17.7066 6.79124 17.1989 6.36715L11.2385 1.60684C10.1966 0.77421 8.70849 0.801107 7.69746 1.67085L1.86522 6.36715C1.3335 6.77874 1.0157 7.40761 1 8.07926V15.9118C1 17.6173 2.3845 19 4.09237 19H5.80679C6.09926 19.0021 6.38049 18.8876 6.58805 18.6818C6.79562 18.476 6.91235 18.196 6.91235 17.9039H6.94439Z" stroke="#F3F3F3" stroke-width="1.25"/>
</svg>
