<?xml version="1.0" standalone="no"?>
<!DOCTYPE svg PUBLIC "-//W3C//DTD SVG 1.1//EN" "http://www.w3.org/Graphics/SVG/1.1/DTD/svg11.dtd" >
<svg xmlns="http://www.w3.org/2000/svg" xmlns:xlink="http://www.w3.org/1999/xlink" version="1.1">
<metadata>
Created by FontForge 20170731 at Wed Feb 15 04:05:16 2017
 By Aleksey,,,
(c) 2015 Connary Fagen
</metadata>
<defs>
<font id="VisbyRoundCF-DemiBold" horiz-adv-x="615" >
  <font-face 
    font-family="Visby Round CF Demi Bold"
    font-weight="600"
    font-stretch="normal"
    units-per-em="1000"
    panose-1="0 0 7 0 0 0 0 0 0 0"
    ascent="800"
    descent="-200"
    x-height="520"
    cap-height="700"
    bbox="-214 -241 1126 980"
    underline-thickness="50"
    underline-position="-150"
    unicode-range="U+0020-FB02"
  />
<missing-glyph horiz-adv-x="495" 
d="M406 800v-990h-314v990h314zM330 734h-164v-33h65v-37h-66v-32h165v32h-66v37h66v33zM264 606h-99v-103h165v34h-66v69zM231 572v-35h-33v35h33zM330 476h-165v-32h66v-37h-66v-33h99v70h66v32zM330 417h-33v-65h-132v-34h165v99zM330 296h-99v-55h33v22h33v-46h-99v79
h-33v-112h165v112zM330 125h-165v-112h165v112zM297 92v-46h-99v46h99zM330 -10h-165v-32h70l-70 -47v-33h165v33h-101l69 47h32v32z" />
    <glyph glyph-name="fl" unicode="fl" horiz-adv-x="617" 
d="M541.5 10.5q-15.5 -15.5 -37.5 -15.5t-37.5 15.5t-15.5 37.5v613q0 22 15.5 37.5t37.5 15.5t37.5 -15.5t15.5 -37.5v-613q0 -22 -15.5 -37.5zM399 654q0 -17 -11 -28t-28 -11q-11 0 -38 10q-15 6 -24.5 9t-22.5 3q-39 0 -56.5 -24t-17.5 -59v-34h100q20 0 32 -11.5
t12 -30.5t-12 -31t-32 -12h-100v-388q0 -22 -15.5 -37.5t-36.5 -15.5q-22 0 -37.5 15.5t-15.5 37.5v388h-33q-19 0 -31 12t-12 31t12 30.5t31 11.5h33v38q0 92 51.5 130.5t114.5 38.5q66 0 110 -31q27 -17 27 -42z" />
    <glyph glyph-name="f_t" unicode="ft" horiz-adv-x="721" 
d="M680 83.5q12 -10.5 12 -29.5q0 -29 -29 -44t-74 -15q-54 0 -86.5 29t-32.5 107v304h-269v-388q0 -22 -15.5 -37.5t-36.5 -15.5q-22 0 -37.5 15.5t-15.5 37.5v388h-33q-19 0 -31 12t-12 31t12 30.5t31 11.5h33v38q0 92 51.5 130.5t114.5 38.5q66 0 110 -31q27 -17 27 -42
q0 -17 -11 -28t-28 -11q-11 0 -38 10q-15 6 -24.5 9t-22.5 3q-39 0 -56.5 -24t-17.5 -59v-34h269v78q0 21 15.5 36.5t36.5 15.5q22 0 37.5 -15.5t15.5 -36.5v-78h73q20 0 32 -11.5t12 -30.5t-12 -31t-32 -12h-73v-305q0 -44 35 -44q8 0 20 2t19 3q19 3 31 -7.5z" />
    <glyph glyph-name=".notdef" horiz-adv-x="495" 
d="M406 800v-990h-314v990h314zM330 734h-164v-33h65v-37h-66v-32h165v32h-66v37h66v33zM264 606h-99v-103h165v34h-66v69zM231 572v-35h-33v35h33zM330 476h-165v-32h66v-37h-66v-33h99v70h66v32zM330 417h-33v-65h-132v-34h165v99zM330 296h-99v-55h33v22h33v-46h-99v79
h-33v-112h165v112zM330 125h-165v-112h165v112zM297 92v-46h-99v46h99zM330 -10h-165v-32h70l-70 -47v-33h165v33h-101l69 47h32v32z" />
    <glyph glyph-name=".null" horiz-adv-x="0" 
 />
    <glyph glyph-name="nonmarkingreturn" horiz-adv-x="333" 
 />
    <glyph glyph-name="space" unicode=" " horiz-adv-x="279" 
 />
    <glyph glyph-name="exclam" unicode="!" horiz-adv-x="244" 
d="M163.5 685.5q17.5 -17.5 17.5 -41.5v-383q0 -24 -17.5 -41.5t-40.5 -17.5q-25 0 -42.5 17.5t-17.5 41.5v383q0 24 17.5 41.5t42.5 17.5q23 0 40.5 -17.5zM78.5 15.5q-18.5 18.5 -18.5 44.5t18.5 44t44.5 18q25 0 43 -18.5t18 -43.5q0 -26 -18 -44.5t-43 -18.5
q-26 0 -44.5 18.5z" />
    <glyph glyph-name="quotedbl" unicode="&#x22;" horiz-adv-x="346" 
d="M291.5 690.5q15.5 -15.5 15.5 -37.5v-90q0 -22 -15.5 -37.5t-37.5 -15.5t-37.5 15.5t-15.5 37.5v90q0 22 15.5 37.5t37.5 15.5t37.5 -15.5zM130.5 690.5q15.5 -15.5 15.5 -37.5v-90q0 -22 -15.5 -37.5t-37.5 -15.5t-37.5 15.5t-15.5 37.5v90q0 22 15.5 37.5t37.5 15.5
t37.5 -15.5z" />
    <glyph glyph-name="numbersign" unicode="#" horiz-adv-x="617" 
d="M558.5 258q13.5 -13 13.5 -32t-13.5 -32.5t-32.5 -13.5h-69l-10 -137q-1 -21 -16.5 -35t-35.5 -14q-23 0 -39 17t-14 40l9 129h-116l-10 -137q-1 -21 -16 -35t-35 -14q-23 0 -39 17t-14 40l9 129h-39q-19 0 -32.5 13.5t-13.5 32.5t13.5 32t32.5 13h46l11 158h-57
q-19 0 -32.5 13.5t-13.5 32.5t13.5 32t32.5 13h63l10 137q1 21 16.5 35t35.5 14q23 0 39 -17t14 -40l-9 -129h115l10 137q1 21 16.5 35t35.5 14q23 0 39 -17t14 -40l-9 -129h45q19 0 32.5 -13t13.5 -32t-13.5 -32.5t-32.5 -13.5h-52l-11 -158h63q19 0 32.5 -13zM242 271h116
l11 158h-116z" />
    <glyph glyph-name="dollar" unicode="$" horiz-adv-x="565" 
d="M468.5 63q-56.5 -51 -137.5 -65v-3v-49q0 -19 -13 -32.5t-32 -13.5t-32.5 13.5t-13.5 32.5v49q-56 8 -103.5 34.5t-75.5 69.5q-21 29 -21 51q0 19 12 33t33 14q31 0 52 -32q25 -38 62 -56.5t79 -18.5q55 0 95.5 25t40.5 79q0 44 -29 68t-95 50l-54 21q-84 33 -129 76.5
t-45 111.5q0 73 50 122.5t128 60.5v50q0 19 13.5 32.5t32.5 13.5t32 -13.5t13 -32.5v-51q84 -16 138 -84q23 -29 23 -50q0 -18 -13 -30.5t-32 -12.5q-27 0 -46 23q-23 31 -49.5 46.5t-66.5 15.5q-53 0 -84 -25t-31 -66q0 -33 22.5 -57.5t70.5 -43.5l49 -19
q112 -43 162.5 -88.5t50.5 -117.5q0 -80 -56.5 -131z" />
    <glyph glyph-name="percent" unicode="%" horiz-adv-x="698" 
d="M256 669.5q36 -35.5 36 -87.5q0 -51 -36 -87t-88 -36q-51 0 -87 36t-36 87q0 52 36 87.5t87 35.5q52 0 88 -35.5zM519 682q11 6 24 6q20 0 34.5 -14t14.5 -34q0 -14 -9 -28l-386 -576q-16 -23 -42 -23q-19 0 -34 15t-15 34q0 15 8 28l388 576q6 10 17 16zM132 617
q-15 -14 -15 -35t15 -35.5t36 -14.5q19 0 33.5 14.5t14.5 35.5t-14.5 35t-33.5 14q-21 0 -36 -14zM617 205.5q36 -35.5 36 -87.5q0 -51 -36 -87t-88 -36q-51 0 -87 36t-36 87q0 52 36 87.5t87 35.5q52 0 88 -35.5zM493 153q-15 -14 -15 -35t15 -35.5t36 -14.5
q19 0 33.5 14.5t14.5 35.5t-14.5 35t-33.5 14q-21 0 -36 -14z" />
    <glyph glyph-name="ampersand" unicode="&#x26;" horiz-adv-x="734" 
d="M186.5 18.5q-56.5 27.5 -91.5 78t-35 116.5q0 83 50 137t125 69l-108 177q-12 20 -12 39q0 27 21 46t54 19h296q19 0 32.5 -13t13.5 -32t-13.5 -32.5t-32.5 -13.5h-265l117 -195q10 -18 10 -34q0 -15 -10 -24.5t-30 -9.5q-45 0 -77 -18.5t-48.5 -49t-16.5 -65.5
q0 -36 18.5 -66t51.5 -47.5t75 -17.5q41 0 81 17t66 51t26 82v123q0 26 17 42.5t43 16.5h77q19 0 32.5 -13t13.5 -32t-13.5 -32.5t-32.5 -13.5h-33v-183q0 -29 10.5 -41.5t32.5 -12.5q11 0 26 3q18 3 32.5 -9t14.5 -32q0 -27 -24 -40t-60 -13q-52 0 -78 27t-26 77v15
q-30 -58 -84.5 -90.5t-124.5 -32.5q-64 0 -120.5 27.5z" />
    <glyph glyph-name="quotesingle" unicode="'" horiz-adv-x="186" 
d="M130.5 690.5q15.5 -15.5 15.5 -37.5v-90q0 -22 -15.5 -37.5t-37.5 -15.5t-37.5 15.5t-15.5 37.5v90q0 22 15.5 37.5t37.5 15.5t37.5 -15.5z" />
    <glyph glyph-name="parenleft" unicode="(" horiz-adv-x="263" 
d="M214 737q14 -14 14 -33q0 -6 -4 -18q-72 -166 -72 -366q0 -214 73 -391q3 -8 3 -18q0 -20 -13.5 -33.5t-32.5 -13.5q-14 0 -25.5 7t-17.5 19q-47 95 -70.5 200.5t-23.5 229.5q0 227 94 406q6 12 17 18.5t25 6.5q19 0 33 -14z" />
    <glyph glyph-name="parenright" unicode=")" horiz-adv-x="261" 
d="M216 320q0 -124 -23.5 -229.5t-70.5 -200.5q-6 -12 -17.5 -19t-25.5 -7q-19 0 -32.5 13.5t-13.5 33.5q0 10 3 18q73 177 73 391q0 200 -72 366q-4 12 -4 18q0 19 14 33t33 14q14 0 25 -6.5t17 -18.5q94 -179 94 -406z" />
    <glyph glyph-name="asterisk" unicode="*" horiz-adv-x="486" 
d="M212 718.5q13 13.5 30 13.5q18 0 31 -13t13 -31l-1 -76l79 20q3 1 9 1q16 0 27 -13.5t11 -30.5q0 -15 -9 -26.5t-23 -15.5l-67 -19l44 -58q8 -10 8 -26q0 -18 -12.5 -31t-30.5 -13q-22 0 -36 18l-42 60l-42 -60q-14 -18 -36 -18q-18 0 -30.5 13t-12.5 31q0 17 9 26l43 58
l-66 19q-14 4 -23.5 15.5t-9.5 26.5q0 17 11 30.5t28 13.5q6 0 9 -1l79 -20l-2 75q-1 18 12 31.5z" />
    <glyph glyph-name="plus" unicode="+" horiz-adv-x="458" 
d="M399 308q14 -13 14 -31t-14 -30.5t-33 -12.5h-94v-94q0 -19 -13 -33t-31 -14t-30.5 14t-12.5 33v94h-94q-19 0 -32.5 12.5t-13.5 30.5t13.5 31t32.5 13h94v94q0 19 12.5 32.5t30.5 13.5t31 -13.5t13 -32.5v-94h94q19 0 33 -13z" />
    <glyph glyph-name="comma" unicode="," horiz-adv-x="241" 
d="M37.5 -110.5q-7.5 6.5 -7.5 17.5q0 6 4 18l52 155q8 22 21.5 32t33.5 10h33q31 0 31 -21q0 -12 -9 -30l-79 -157q-9 -18 -22.5 -24.5t-30.5 -6.5h-6q-13 0 -20.5 6.5z" />
    <glyph glyph-name="hyphen" unicode="-" horiz-adv-x="430" 
d="M372 308q13 -13 13 -31t-13 -30.5t-30 -12.5h-254q-17 0 -30 12.5t-13 30.5t13 31t30 13h254q17 0 30 -13z" />
    <glyph glyph-name="period" unicode="." horiz-adv-x="204" 
d="M58.5 15.5q-18.5 18.5 -18.5 44.5t18.5 44t44.5 18q25 0 43 -18.5t18 -43.5q0 -26 -18 -44.5t-43 -18.5q-26 0 -44.5 18.5z" />
    <glyph glyph-name="slash" unicode="/" horiz-adv-x="477" 
d="M427 735.5q14 -15.5 14 -35.5q0 -8 -3 -17l-305 -786q-5 -14 -18.5 -23.5t-28.5 -9.5q-22 0 -36 15.5t-14 35.5q0 9 3 17l305 786q5 14 18.5 23.5t28.5 9.5q22 0 36 -15.5z" />
    <glyph glyph-name="zero" unicode="0" horiz-adv-x="642" 
d="M457.5 666.5q63.5 -40.5 101.5 -118.5t38 -185v-24q0 -108 -38 -186t-101.5 -118t-136.5 -40t-136 40.5t-101.5 118t-38.5 185.5v24q0 107 38.5 185t101.5 118.5t136 40.5t136.5 -40.5zM228 581q-38 -35 -57.5 -92.5t-19.5 -125.5v-24q0 -68 19.5 -125.5t57.5 -92.5
t93 -35t93 35t57.5 92.5t19.5 125.5v24q0 68 -19.5 125.5t-57.5 92.5t-93 35t-93 -35z" />
    <glyph glyph-name="one" unicode="1" horiz-adv-x="338" 
d="M246 683.5q17 -16.5 17 -42.5v-593q0 -22 -15.5 -37.5t-37.5 -15.5t-37.5 15.5t-15.5 37.5v561h-66q-19 0 -32.5 13.5t-13.5 32.5t13.5 32t32.5 13h112q26 0 43 -16.5z" />
    <glyph glyph-name="two" unicode="2" horiz-adv-x="543" 
d="M382 679q52 -28 81.5 -75.5t29.5 -101.5q0 -40 -17 -74.5t-47 -68.5t-92 -95l-33 -33l-135 -137h282q19 0 33 -13.5t14 -33.5t-14 -33.5t-33 -13.5h-322q-36 0 -59.5 22t-23.5 52q0 32 25 57l130 133l56 56q53 51 78 79t38.5 53.5t13.5 53.5q0 52 -36 80t-81 28
q-42 0 -75.5 -24.5t-44.5 -74.5q-5 -18 -20 -30.5t-35 -12.5q-22 0 -35 15t-13 37q0 12 3 22q17 70 74.5 115.5t140.5 45.5q65 0 117 -28z" />
    <glyph glyph-name="three" unicode="3" horiz-adv-x="571" 
d="M467 680q22 -20 22 -48q0 -21 -15 -42l-134 -174q46 -8 88.5 -34.5t70 -71t27.5 -101.5q0 -64 -32.5 -113.5t-89 -77.5t-124.5 -28q-83 0 -146 41t-86 116q-3 9 -3 18q0 20 13 34.5t34 14.5q18 0 31 -9.5t17 -22.5q15 -50 55.5 -75.5t84.5 -25.5q32 0 64.5 13.5t54.5 42
t22 72.5q0 61 -45.5 93t-104.5 43q-19 4 -30.5 17t-11.5 29q0 11 5.5 20.5t19.5 27.5l125 170h-265q-19 0 -32.5 13.5t-13.5 32.5t13.5 32t32.5 13h297q34 0 56 -20z" />
    <glyph glyph-name="four" unicode="4" horiz-adv-x="561" 
d="M480 262q19 0 32.5 -13t13.5 -31q0 -19 -13.5 -31.5t-32.5 -12.5h-35v-127q0 -22 -15.5 -37.5t-37.5 -15.5t-37.5 15.5t-15.5 37.5v127h-223q-33 0 -52 16t-19 40t16 47l272 390q11 16 25.5 24t30.5 8q23 0 39.5 -16.5t16.5 -43.5v-377h35zM339 528l-182 -266h182v266z
" />
    <glyph glyph-name="five" unicode="5" horiz-adv-x="560" 
d="M436.5 687q13.5 -13 13.5 -32t-13.5 -32.5t-32.5 -13.5h-226l-21 -177q19 14 53 26t77 12q61 0 113 -30t83.5 -84.5t31.5 -124.5q0 -69 -33.5 -124t-91 -86t-128.5 -31q-65 0 -117.5 25.5t-86.5 70.5q-14 19 -14 36q0 20 13.5 33.5t34.5 13.5q12 0 23.5 -5.5t17.5 -14.5
q19 -30 53 -49t75 -19q37 0 71 17t55.5 51t21.5 82q0 46 -19.5 79.5t-52 51t-69.5 17.5q-55 0 -106 -41q-7 -4 -20 -7t-24 -3q-30 0 -48 22t-15 53l31 247q3 22 18.5 36t38.5 14h261q19 0 32.5 -13z" />
    <glyph glyph-name="six" unicode="6" horiz-adv-x="554" 
d="M388 692.5q13 -13.5 13 -33.5q0 -16 -10 -29l-150 -196q14 4 37 4q59 0 112.5 -29.5t86 -81.5t32.5 -115t-32.5 -114t-86 -79.5t-112.5 -28.5q-60 0 -113.5 29.5t-86.5 82t-33 120.5q0 44 14.5 84t37 75t62.5 87q18 22 36 48l122 170q6 9 16.5 14.5t21.5 5.5
q20 0 33 -13.5zM181 304q-36 -36 -36 -92q0 -36 18 -66t48.5 -47t65.5 -17t65 17t48 47t18 66t-18 65.5t-48 46t-65 16.5q-60 0 -96 -36z" />
    <glyph glyph-name="seven" unicode="7" horiz-adv-x="511" 
d="M457 681q20 -19 20 -47q0 -15 -8 -33l-275 -577q-6 -13 -18 -21.5t-27 -8.5q-21 0 -35.5 15t-14.5 36q0 11 5 21l265 543h-288q-19 0 -32.5 13.5t-13.5 32.5t13.5 32t32.5 13h324q32 0 52 -19z" />
    <glyph glyph-name="eight" unicode="8" horiz-adv-x="558" 
d="M489.5 319.5q28.5 -46.5 28.5 -106.5q0 -66 -34 -116.5t-89 -78t-116 -27.5t-116 27.5t-89 78t-34 116.5q0 60 28.5 106.5t75.5 74.5q-28 26 -44 60t-16 71q0 50 23.5 91.5t68 66t103.5 24.5t103.5 -24.5t68.5 -66.5t24 -91q0 -37 -16.5 -71.5t-44.5 -59.5
q47 -28 75.5 -74.5zM211 458.5q27 -27.5 68 -27.5q42 0 68.5 27.5t26.5 65.5q0 37 -26.5 64.5t-68.5 27.5t-68.5 -27.5t-26.5 -64.5q0 -38 27 -65.5zM344 99q30 17 48 47t18 67q0 39 -18.5 68.5t-48.5 45.5t-64 16t-64 -16t-48.5 -45.5t-18.5 -68.5q0 -37 18 -67t48.5 -47
t64.5 -17q35 0 65 17z" />
    <glyph glyph-name="nine" unicode="9" horiz-adv-x="554" 
d="M166 6.5q-13 13.5 -13 33.5q0 16 10 29l150 196q-14 -4 -37 -4q-59 0 -112.5 29.5t-86 81.5t-32.5 115t32.5 114t86 79.5t112.5 28.5q60 0 113.5 -29.5t86.5 -82t33 -120.5q0 -44 -14.5 -84t-37 -75t-62.5 -87q-18 -22 -36 -48l-122 -170q-6 -9 -16.5 -14.5t-21.5 -5.5
q-20 0 -33 13.5zM373 395q36 36 36 92q0 36 -18 66t-48.5 47t-65.5 17t-65 -17t-48 -47t-18 -66t18 -65.5t48 -46t65 -16.5q60 0 96 36z" />
    <glyph glyph-name="colon" unicode=":" horiz-adv-x="224" 
d="M68.5 15.5q-18.5 18.5 -18.5 44.5t18.5 44t44.5 18q25 0 43 -18.5t18 -43.5q0 -26 -18 -44.5t-43 -18.5q-26 0 -44.5 18.5zM68.5 412.5q-18.5 18.5 -18.5 44.5t18.5 44t44.5 18q25 0 43 -18.5t18 -43.5q0 -26 -18 -44.5t-43 -18.5q-26 0 -44.5 18.5z" />
    <glyph glyph-name="semicolon" unicode=";" horiz-adv-x="263" 
d="M107.5 412.5q-18.5 18.5 -18.5 44.5t18.5 44t44.5 18q25 0 43 -18.5t18 -43.5q0 -26 -18 -44.5t-43 -18.5q-26 0 -44.5 18.5zM37.5 -110.5q-7.5 6.5 -7.5 17.5q0 6 4 18l52 155q8 22 21.5 32t33.5 10h33q31 0 31 -21q0 -12 -9 -30l-79 -157q-9 -18 -22.5 -24.5
t-30.5 -6.5h-6q-13 0 -20.5 6.5z" />
    <glyph glyph-name="less" unicode="&#x3c;" horiz-adv-x="467" 
d="M378 455q18 0 31 -12.5t13 -31.5q0 -12 -6.5 -22.5t-17.5 -16.5l-252 -132l252 -130q11 -5 17.5 -16t6.5 -24q0 -18 -13 -31t-31 -13q-10 0 -21 6l-268 142q-21 12 -32 29.5t-11 36.5q0 20 11 37.5t32 28.5l269 144q9 5 20 5z" />
    <glyph glyph-name="equal" unicode="=" horiz-adv-x="458" 
d="M399 393q14 -13 14 -31t-14 -30.5t-33 -12.5h-275q-19 0 -32.5 12.5t-13.5 30.5t13.5 31t32.5 13h275q19 0 33 -13zM399 223q14 -13 14 -31t-14 -30.5t-33 -12.5h-275q-19 0 -32.5 12.5t-13.5 30.5t13.5 31t32.5 13h275q19 0 33 -13z" />
    <glyph glyph-name="greater" unicode="&#x3e;" horiz-adv-x="467" 
d="M378 306q21 -11 32.5 -29t11.5 -37t-11.5 -36.5t-32.5 -29.5l-268 -142q-10 -6 -21 -6q-18 0 -31 13t-13 31q0 13 6.5 24t17.5 16l252 130l-252 132q-11 6 -17.5 16.5t-6.5 22.5q0 19 13 31.5t31 12.5q11 0 20 -5z" />
    <glyph glyph-name="question" unicode="?" horiz-adv-x="520" 
d="M373 682.5q51 -24.5 81.5 -70t30.5 -104.5q0 -37 -12.5 -64.5t-30 -46.5t-46.5 -43q-36 -30 -53.5 -53t-17.5 -58q0 -22 -15 -38.5t-40 -16.5t-40 16.5t-15 38.5q0 34 12.5 61.5t30.5 46.5t48 46q37 32 55.5 56.5t18.5 57.5q0 26 -14 50.5t-40.5 39.5t-62.5 15
q-58 0 -89.5 -37t-30.5 -93q0 -23 -14 -39.5t-40 -16.5t-40 16.5t-14 39.5q0 68 32 118t84.5 76.5t111.5 26.5t110 -24.5zM224.5 15.5q-18.5 18.5 -18.5 44.5t18.5 44t44.5 18q25 0 43 -18.5t18 -43.5q0 -26 -18 -44.5t-43 -18.5q-26 0 -44.5 18.5z" />
    <glyph glyph-name="at" unicode="@" horiz-adv-x="806" 
d="M549 511q11 -11 11 -28v-167q0 -63 38 -63q28 0 42 30t14 74q0 82 -33.5 140t-90.5 87t-125 29q-67 0 -125 -33.5t-93 -94.5t-35 -139q0 -75 34.5 -134t92 -92t121.5 -33q31 0 62.5 8.5t55.5 24.5q14 8 32 8q22 0 34.5 -13.5t12.5 -33.5q0 -26 -23 -41q-71 -47 -168 -47
q-94 0 -176 45.5t-131 126t-49 181.5q0 103 51 186t133 129t171 46q91 0 172 -45.5t130 -127t49 -182.5q0 -61 -20 -104t-54 -65t-76 -22q-75 0 -98 76q-15 -36 -47 -56.5t-73 -20.5q-40 0 -78 21.5t-62.5 64t-24.5 102.5q0 58 24.5 99t62 62t75.5 21t66 -20t35 -43v23
q0 13 9.5 22.5t25.5 9.5q17 0 28 -11zM335 412q-22 -27 -22 -65q0 -39 22 -67t57 -28t57 28t22 67q0 38 -21.5 65t-57.5 27q-35 0 -57 -27z" />
    <glyph glyph-name="A" unicode="A" horiz-adv-x="707" 
d="M672 46q0 -20 -15.5 -35t-37.5 -15q-18 0 -31.5 9.5t-20.5 24.5l-61 143h-305l-61 -143q-7 -15 -20.5 -24.5t-31.5 -9.5q-22 0 -37.5 15t-15.5 35q0 15 7 29l259 589q17 40 52 40q36 0 53 -40l259 -589q7 -14 7 -29zM238 259h231l-116 270z" />
    <glyph glyph-name="B" unicode="B" horiz-adv-x="598" 
d="M558 201q0 -94 -66.5 -147.5t-191.5 -53.5h-181q-25 0 -42 17t-17 42v582q0 26 17 42.5t42 16.5h174q99 0 159.5 -46.5t60.5 -128.5q0 -102 -99 -138q144 -50 144 -186zM168 419h125q55 0 84.5 24.5t29.5 69.5t-30 70t-84 25h-125v-189zM415.5 123.5q37.5 31.5 37.5 86.5
t-38 89.5t-115 34.5h-132v-242h132q78 0 115.5 31.5z" />
    <glyph glyph-name="C" unicode="C" horiz-adv-x="658" 
d="M608.5 141.5q14.5 -13.5 14.5 -35.5q0 -18 -11.5 -32.5t-35.5 -30.5q-73 -50 -174 -50q-89 0 -170 46t-131.5 127.5t-50.5 183.5t50.5 183.5t131.5 127.5t170 46q101 0 174 -50q24 -16 35.5 -30.5t11.5 -32.5q0 -22 -14.5 -35.5t-35.5 -13.5q-14 0 -24.5 5t-23.5 15
q-20 16 -52 27.5t-70 11.5q-62 0 -117.5 -33.5t-89 -91.5t-33.5 -129t33.5 -129t89 -91.5t117.5 -33.5q38 0 70 11.5t52 27.5q13 10 23.5 15t24.5 5q21 0 35.5 -13.5z" />
    <glyph glyph-name="D" unicode="D" horiz-adv-x="662" 
d="M450.5 659q80.5 -41 126 -119.5t45.5 -187.5q0 -111 -45.5 -190.5t-125.5 -120.5t-183 -41h-149q-25 0 -42 17t-17 42v582q0 26 17 42.5t42 16.5h149q102 0 182.5 -41zM450.5 157q63.5 65 63.5 195q0 128 -64 192t-182 64h-100v-516h100q119 0 182.5 65z" />
    <glyph glyph-name="E" unicode="E" horiz-adv-x="558" 
d="M475 95q20 0 34 -14t14 -33q0 -20 -14 -34t-34 -14h-356q-25 0 -42 17t-17 42v582q0 26 17 42.5t42 16.5h346q20 0 34 -14t14 -33q0 -20 -14 -34t-34 -14h-297v-208h204q19 0 33 -13.5t14 -31.5q0 -19 -14 -32.5t-33 -13.5h-204v-211h307z" />
    <glyph glyph-name="F" unicode="F" horiz-adv-x="548" 
d="M499 619q-14 -14 -34 -14h-297v-219h243q20 0 34 -13.5t14 -32.5t-14 -32.5t-34 -13.5h-243v-244q0 -23 -15.5 -39.5t-37.5 -16.5t-38.5 16.5t-16.5 39.5v591q0 26 17 42.5t42 16.5h346q20 0 34 -14t14 -33q0 -20 -14 -34z" />
    <glyph glyph-name="G" unicode="G" horiz-adv-x="760" 
d="M703 346q15 -18 13 -48q-4 -95 -47 -164t-113 -105t-152 -36q-90 0 -171.5 46t-132 127.5t-50.5 183.5t50.5 183.5t131.5 127.5t170 46q101 0 174 -50q24 -16 35.5 -30.5t11.5 -32.5q0 -22 -14.5 -35.5t-35.5 -13.5q-14 0 -24.5 5t-23.5 15q-20 16 -52 27.5t-70 11.5
q-62 0 -117.5 -33.5t-89 -91.5t-33.5 -129t33.5 -129t89 -91.5t118.5 -33.5q50 0 95.5 21t75.5 61.5t36 95.5h-142q-20 0 -34 13t-14 32t14 32t34 13h190q29 0 44 -18z" />
    <glyph glyph-name="H" unicode="H" horiz-adv-x="671" 
d="M519 687q16 16 39 16q22 0 37.5 -16t15.5 -39v-596q0 -23 -15.5 -39t-37.5 -16q-23 0 -39 16t-16 39v245h-335v-245q0 -23 -15.5 -39t-37.5 -16q-23 0 -39 16t-16 39v596q0 23 16 39t39 16q22 0 37.5 -16t15.5 -39v-258h335v258q0 23 16 39z" />
    <glyph glyph-name="I" unicode="I" horiz-adv-x="230" 
d="M154 686.5q16 -16.5 16 -39.5v-597q0 -23 -16 -39.5t-38 -16.5q-23 0 -39.5 16.5t-16.5 39.5v597q0 23 16.5 39.5t39.5 16.5q22 0 38 -16.5z" />
    <glyph glyph-name="J" unicode="J" horiz-adv-x="519" 
d="M443 687.5q16 -15.5 16 -37.5v-394q0 -139 -66 -201t-168 -62q-94 0 -156 48q-34 25 -34 55q0 19 12 32.5t33 13.5q12 0 23.5 -4.5t18.5 -9.5q28 -19 50 -28t51 -9q126 0 126 165v394q0 22 16 37.5t39 15.5t39 -15.5z" />
    <glyph glyph-name="K" unicode="K" horiz-adv-x="662" 
d="M632 42q0 -20 -14.5 -34t-34.5 -14q-10 0 -19.5 4.5t-16.5 12.5l-264 291l-115 -118v-135q0 -22 -16 -38.5t-38 -16.5t-38 16t-16 39v602q0 23 16 39t38 16t38 -16.5t16 -38.5v-322l351 359q18 18 38 18t34.5 -14.5t14.5 -34.5q0 -19 -11 -32l-244 -252l268 -298
q13 -15 13 -33z" />
    <glyph glyph-name="L" unicode="L" horiz-adv-x="531" 
d="M448 96q19 0 33.5 -14t14.5 -34t-14.5 -34t-33.5 -14h-329q-25 0 -42 17t-17 42v588q0 23 16 39.5t39 16.5q22 0 37.5 -16.5t15.5 -39.5v-551h280z" />
    <glyph glyph-name="M" unicode="M" horiz-adv-x="867" 
d="M792.5 689.5q14.5 -13.5 14.5 -36.5v-600q0 -23 -16 -39.5t-39 -16.5q-22 0 -38.5 16.5t-16.5 39.5v406l-216 -403q-16 -30 -47 -30q-15 0 -27.5 7.5t-19.5 22.5l-217 403v-406q0 -23 -16 -39.5t-38 -16.5q-23 0 -39.5 16.5t-16.5 39.5v600q0 23 14.5 36.5t34.5 13.5
q17 0 32 -10t24 -26l269 -489l269 489q9 16 24 26t32 10q19 0 33.5 -13.5z" />
    <glyph glyph-name="N" unicode="N" horiz-adv-x="689" 
d="M612.5 686.5q16.5 -16.5 16.5 -39.5v-600q0 -25 -14.5 -38.5t-36.5 -13.5q-34 0 -55 32l-353 477v-453q0 -23 -16 -39.5t-38 -16.5q-23 0 -39.5 16.5t-16.5 39.5v600q0 25 14.5 38.5t36.5 13.5q34 0 55 -32l353 -477v453q0 23 16 39.5t38 16.5q23 0 39.5 -16.5z" />
    <glyph glyph-name="O" unicode="O" horiz-adv-x="796" 
d="M566.5 661q80.5 -46 130 -127.5t49.5 -183.5t-49.5 -183.5t-130 -127.5t-168.5 -46t-168.5 46t-130 127.5t-49.5 183.5t49.5 183.5t130 127.5t168.5 46t168.5 -46zM283 572.5q-54 -32.5 -87 -90.5t-33 -132t33 -132t87 -90t115 -32t115 32t87 90t33 132t-32.5 132
t-86.5 90.5t-116 32.5q-61 0 -115 -32.5z" />
    <glyph glyph-name="P" unicode="P" horiz-adv-x="592" 
d="M436 671q58 -29 89.5 -79.5t31.5 -113.5q0 -65 -31.5 -115.5t-89 -79t-134.5 -28.5h-134v-206q0 -23 -15.5 -39t-37.5 -16q-23 0 -39 16t-16 39v592q0 26 17 42.5t42 16.5h183q76 0 134 -29zM411.5 379.5q40.5 31.5 40.5 98.5q0 64 -41.5 96.5t-112.5 32.5h-130v-259h130
q73 0 113.5 31.5z" />
    <glyph glyph-name="Q" unicode="Q" horiz-adv-x="796" 
d="M674 66q12 -15 12 -31q0 -19 -13 -32t-32 -13q-20 0 -31 14l-38 38q-84 -49 -174 -49q-88 0 -168.5 46t-130 127.5t-49.5 183.5t49.5 183.5t130 127.5t168.5 46t168.5 -46t130 -127.5t49.5 -183.5q0 -75 -27.5 -139.5t-75.5 -112.5zM497 119l-80 82q-13 15 -13 31
q0 18 13 31.5t32 13.5q20 0 32 -14l87 -89q31 34 48 78.5t17 97.5q0 74 -32.5 132t-86.5 90.5t-116 32.5q-61 0 -115 -32.5t-87 -90.5t-33 -132t33 -132t87 -90t115 -32q51 0 99 23z" />
    <glyph glyph-name="R" unicode="R" horiz-adv-x="606" 
d="M566 47q0 -21 -14 -35.5t-35 -14.5q-24 0 -40 20l-188 238h-121v-206q0 -23 -15.5 -39t-37.5 -16q-23 0 -39 16t-16 39v592q0 26 17 42.5t42 16.5h183q76 0 134 -29t89.5 -79.5t31.5 -113.5q0 -76 -42 -131t-116 -78l154 -188q13 -15 13 -34zM168 348h130
q73 0 113.5 31.5t40.5 98.5q0 64 -41.5 96.5t-112.5 32.5h-130v-259z" />
    <glyph glyph-name="S" unicode="S" horiz-adv-x="565" 
d="M469 619q23 -29 23 -50q0 -18 -13 -30.5t-32 -12.5q-27 0 -46 23q-23 31 -49.5 46.5t-66.5 15.5q-53 0 -84 -25t-31 -66q0 -33 22.5 -57.5t70.5 -43.5l49 -19q112 -43 162.5 -88.5t50.5 -117.5q0 -63 -36.5 -108.5t-93 -69t-117.5 -23.5q-66 0 -125 28t-92 78
q-21 29 -21 51q0 19 12 33t33 14q31 0 52 -32q25 -38 62 -56.5t79 -18.5q55 0 95.5 25t40.5 79q0 44 -29 68t-95 50l-54 21q-84 33 -129 76.5t-45 111.5q0 55 29 97.5t79 65.5t111 23q118 0 188 -88z" />
    <glyph glyph-name="T" unicode="T" horiz-adv-x="580" 
d="M536 686q14 -14 14 -34t-14 -34t-34 -14h-158v-553q0 -23 -16 -40t-37 -17q-22 0 -38.5 17t-16.5 40v553h-158q-20 0 -34 14t-14 34t14 34t34 14h424q20 0 34 -14z" />
    <glyph glyph-name="U" unicode="U" horiz-adv-x="678" 
d="M598 687.5q15 -15.5 15 -37.5v-394q0 -81 -35.5 -140.5t-98 -91t-140.5 -31.5t-140.5 31.5t-98 91t-35.5 140.5v394q0 22 15.5 37.5t37.5 15.5q23 0 39 -15.5t16 -37.5v-393q0 -84 46 -128.5t120 -44.5t120 44.5t46 128.5v393q0 22 16.5 37.5t39.5 15.5q22 0 37 -15.5z
" />
    <glyph glyph-name="V" unicode="V" horiz-adv-x="707" 
d="M656.5 688q15.5 -15 15.5 -35q0 -15 -7 -29l-259 -589q-17 -40 -53 -40q-35 0 -52 40l-259 589q-7 14 -7 29q0 20 15.5 35t37.5 15q18 0 31.5 -9.5t20.5 -24.5l213 -499l214 499q7 15 20.5 24.5t31.5 9.5q22 0 37.5 -15z" />
    <glyph glyph-name="W" unicode="W" horiz-adv-x="1025" 
d="M975 688q15 -15 15 -35q0 -13 -6 -29l-182 -589q-7 -19 -22 -29.5t-36 -10.5q-42 0 -56 40l-175 474l-175 -474q-15 -40 -57 -40q-21 0 -36 10.5t-21 29.5l-182 589q-7 19 -7 29q0 20 15.5 35t37.5 15q18 0 33 -9.5t19 -24.5l145 -499l179 498q14 35 48 35q36 0 49 -35
l180 -498l145 499q4 15 19 24.5t33 9.5q22 0 37 -15z" />
    <glyph glyph-name="X" unicode="X" horiz-adv-x="640" 
d="M595 41q0 -20 -14 -33.5t-36 -13.5q-28 0 -45 24l-180 256l-179 -256q-18 -24 -45 -24q-22 0 -36.5 13.5t-14.5 33.5q0 19 12 38l203 281l-186 259q-13 16 -13 37q0 20 14.5 33.5t36.5 13.5q27 0 45 -24l163 -233l163 233q18 24 46 24q22 0 36 -13.5t14 -33.5
q0 -22 -12 -37l-186 -259l202 -281q12 -16 12 -38z" />
    <glyph glyph-name="Y" unicode="Y" horiz-adv-x="617" 
d="M568.5 688.5q14.5 -14.5 14.5 -34.5q0 -15 -9 -29l-212 -307v-271q0 -22 -15.5 -37.5t-37.5 -15.5t-38 15.5t-16 37.5v271l-212 307q-8 14 -8 29q0 20 14.5 34.5t35.5 14.5q24 0 40 -21l184 -272l183 272q16 21 41 21q21 0 35.5 -14.5z" />
    <glyph glyph-name="Z" unicode="Z" horiz-adv-x="580" 
d="M515 679.5q22 -20.5 22 -49.5q0 -23 -16 -45l-366 -489h337q20 0 34 -14t14 -34t-14 -34t-34 -14h-374q-34 0 -56 20.5t-22 49.5q0 23 16 45l366 489h-315q-20 0 -34 14t-14 34t14 34t34 14h352q34 0 56 -20.5z" />
    <glyph glyph-name="bracketleft" unicode="[" horiz-adv-x="276" 
d="M218.5 733.5q12.5 -11.5 12.5 -33.5q0 -46 -48 -46h-32v-693h32q48 0 48 -46q0 -45 -48 -45h-76q-30 0 -46 16t-16 46v751q0 30 16 46t46 16h76q23 0 35.5 -11.5z" />
    <glyph glyph-name="backslash" unicode="\" horiz-adv-x="477" 
d="M114.5 741.5q13.5 -9.5 18.5 -23.5l305 -786q3 -8 3 -17q0 -20 -14 -35.5t-36 -15.5q-15 0 -28.5 9.5t-18.5 23.5l-305 786q-3 9 -3 17q0 20 14 35.5t36 15.5q15 0 28.5 -9.5z" />
    <glyph glyph-name="bracketright" unicode="]" horiz-adv-x="276" 
d="M169 745q30 0 46 -16t16 -46v-751q0 -30 -16 -46t-46 -16h-76q-48 0 -48 45q0 46 48 46h32v693h-32q-48 0 -48 46q0 22 12.5 33.5t35.5 11.5h76z" />
    <glyph glyph-name="asciicircum" unicode="^" horiz-adv-x="437" 
d="M392 501q0 -13 -9.5 -22.5t-22.5 -9.5t-23 10l-118 128l-120 -128q-8 -10 -22 -10q-13 0 -22.5 9.5t-9.5 22.5q0 10 6 19l115 157q21 28 53 28t53 -28l114 -157q6 -9 6 -19z" />
    <glyph glyph-name="underscore" unicode="_" horiz-adv-x="601" 
d="M542.5 -13.5q13.5 -13.5 13.5 -32.5t-13.5 -32t-32.5 -13h-419q-19 0 -32.5 13t-13.5 32t13.5 32.5t32.5 13.5h419q19 0 32.5 -13.5z" />
    <glyph glyph-name="grave" unicode="`" horiz-adv-x="205" 
d="M125 762.5q14 -10.5 20 -26.5l52 -124q4 -12 4 -16q0 -15 -11 -24t-26 -9q-17 0 -29 15l-85 104q-12 17 -12 35q0 23 16.5 39.5t39.5 16.5q17 0 31 -10.5z" />
    <glyph glyph-name="a" unicode="a" 
d="M383.5 500q44.5 -26 64.5 -70v40q0 22 15.5 37.5t37.5 15.5t38 -15.5t16 -37.5v-423q0 -22 -16 -37.5t-38 -15.5t-37.5 15.5t-15.5 37.5v54q-4 -24 -25.5 -49t-57.5 -42t-81 -17q-59 0 -115 30.5t-92.5 90.5t-36.5 146q0 84 36.5 144.5t93 91t114.5 30.5q55 0 99.5 -26z
M372.5 103q34.5 19 57.5 59t23 98q0 59 -23 98.5t-57.5 58t-71.5 18.5q-38 0 -74 -20t-58.5 -59.5t-22.5 -95.5t22.5 -96t58.5 -60t74 -20q37 0 71.5 19z" />
    <glyph glyph-name="b" unicode="b" 
d="M445.5 495.5q56.5 -30.5 93 -91t36.5 -144.5q0 -86 -36.5 -146t-92.5 -90.5t-115 -30.5q-45 0 -81 17t-57.5 42t-25.5 49v-54q0 -22 -15.5 -37.5t-37.5 -15.5t-38 15.5t-16 37.5v614q0 22 16 37.5t38 15.5q21 0 36.5 -15.5t15.5 -37.5v-181q1 -3 1 -10v-40q20 44 64.5 70
t99.5 26q58 0 114.5 -30.5zM388 104q36 20 58.5 60t22.5 96t-22.5 95.5t-58.5 59.5t-74 20q-37 0 -71.5 -18.5t-57.5 -58t-23 -98.5q0 -58 23 -98t57.5 -59t71.5 -19q38 0 74 20z" />
    <glyph glyph-name="c" unicode="c" horiz-adv-x="539" 
d="M486 140.5q13 -11.5 13 -29.5q0 -14 -6.5 -23.5t-13 -16l-8.5 -8.5q-65 -68 -168 -68q-63 0 -123.5 30.5t-100 90.5t-39.5 144q0 85 39.5 145t100 90.5t123.5 30.5q103 0 168 -68l10 -10t13 -17.5t5 -20.5q0 -18 -13 -29.5t-30 -11.5q-24 0 -43 19q-19 23 -47.5 34.5
t-58.5 11.5q-43 0 -80 -20t-59.5 -59.5t-22.5 -94.5q0 -54 22.5 -93.5t59.5 -59.5t80 -20q30 0 58.5 11.5t47.5 34.5q19 19 43 19q17 0 30 -11.5z" />
    <glyph glyph-name="d" unicode="d" 
d="M539 698.5q16 -15.5 16 -37.5v-614q0 -22 -16 -37.5t-38 -15.5t-37.5 15.5t-15.5 37.5v54q-4 -24 -25.5 -49t-57.5 -42t-81 -17q-59 0 -115 30.5t-92.5 90.5t-36.5 146q0 84 36.5 144.5t93 91t114.5 30.5q55 0 99.5 -26t64.5 -70v40q0 7 1 10v181q0 22 15.5 37.5
t36.5 15.5q22 0 38 -15.5zM372.5 103q34.5 19 57.5 59t23 98q0 59 -23 98.5t-57.5 58t-71.5 18.5q-38 0 -74 -20t-58.5 -59.5t-22.5 -95.5t22.5 -96t58.5 -60t74 -20q37 0 71.5 19z" />
    <glyph glyph-name="e" unicode="e" horiz-adv-x="590" 
d="M416.5 496q58.5 -30 96 -87t37.5 -132q0 -30 -16.5 -43.5t-49.5 -13.5l-335 1q8 -67 54 -103t110 -36q30 0 53 7t47 22q3 2 12.5 7t16 7t13.5 2q17 0 27 -10.5t10 -27.5q0 -23 -27 -45q-29 -23 -69 -36t-87 -13q-68 0 -130 29.5t-100.5 89t-38.5 145.5q0 85 39.5 145.5
t99.5 91t120 30.5q59 0 117.5 -30zM199.5 398.5q-44.5 -35.5 -50.5 -101.5h298q-6 67 -49.5 102t-98.5 35t-99.5 -35.5z" />
    <glyph glyph-name="f" unicode="f" horiz-adv-x="409" 
d="M399 654q0 -17 -11 -28t-28 -11q-11 0 -38 10q-15 6 -24.5 9t-22.5 3q-39 0 -56.5 -24t-17.5 -59v-34h100q20 0 32 -11.5t12 -30.5t-12 -31t-32 -12h-100v-388q0 -22 -15.5 -37.5t-36.5 -15.5q-22 0 -37.5 15.5t-15.5 37.5v388h-33q-19 0 -31 12t-12 31t12 30.5t31 11.5
h33v38q0 92 51.5 130.5t114.5 38.5q66 0 110 -31q27 -17 27 -42z" />
    <glyph glyph-name="g" unicode="g" 
d="M555 47q0 -7 -1 -10v-27q0 -77 -39 -125t-97 -69t-118 -21q-43 0 -79 9t-58 21q-33 14 -33 45q0 18 12.5 30t29.5 12q11 0 25 -5q51 -21 105 -21q66 0 106 33t40 91v91q-4 -24 -25.5 -49t-57.5 -42t-81 -17q-59 0 -115 30.5t-92.5 90.5t-36.5 146q0 84 36.5 144.5t93 91
t114.5 30.5q55 0 99.5 -26t64.5 -70v40q0 22 15.5 37.5t37.5 15.5t38 -15.5t16 -37.5v-423zM372.5 103q34.5 19 57.5 59t23 98q0 59 -23 98.5t-57.5 58t-71.5 18.5q-38 0 -74 -20t-58.5 -59.5t-22.5 -95.5t22.5 -96t58.5 -60t74 -20q37 0 71.5 19z" />
    <glyph glyph-name="h" unicode="h" horiz-adv-x="597" 
d="M482 469q55 -56 55 -175v-246q0 -22 -15 -37.5t-37 -15.5t-37.5 15.5t-15.5 37.5v246q0 71 -34.5 105.5t-87.5 34.5q-44 0 -75.5 -22t-48 -52t-20.5 -55v-257q0 -22 -15.5 -37.5t-37.5 -15.5t-37.5 15.5t-15.5 37.5v613q0 22 15.5 37.5t37.5 15.5t37.5 -15.5t15.5 -37.5
v-258q3 21 25 50t62 50.5t92 21.5q82 0 137 -56z" />
    <glyph glyph-name="i" unicode="i" horiz-adv-x="228" 
d="M76 633.5q-16 15.5 -16 37.5t16 37.5t38 15.5t38 -15.5t16 -37.5t-16 -37.5t-38 -15.5t-38 15.5zM151.5 507q15.5 -16 15.5 -38v-421q0 -22 -15.5 -38t-37.5 -16t-37.5 16t-15.5 38v421q0 22 15.5 38t37.5 16t37.5 -16z" />
    <glyph glyph-name="j" unicode="j" horiz-adv-x="260" 
d="M108 633.5q-16 15.5 -16 37.5t16 37.5t38 15.5t38 -15.5t16 -37.5t-16 -37.5t-38 -15.5t-38 15.5zM183.5 507q15.5 -16 15.5 -38v-525q0 -74 -38.5 -111.5t-102.5 -37.5q-44 0 -78 17q-40 22 -40 54q0 19 14 33t33 14q9 0 14 -2t17 -8.5t28 -6.5q47 0 47 72v501
q0 22 15.5 38t37.5 16t37.5 -16z" />
    <glyph glyph-name="k" unicode="k" horiz-adv-x="539" 
d="M514 41q0 -19 -14 -32.5t-33 -13.5t-33 14l-198 215l-70 -67v-109q0 -22 -15.5 -37.5t-37.5 -15.5t-37.5 15.5t-15.5 37.5v613q0 22 15.5 37.5t37.5 15.5t37.5 -15.5t15.5 -37.5v-379l225 226q17 15 36 15q20 0 34 -14t14 -34q0 -19 -13 -34l-161 -155l199 -212
q14 -14 14 -33z" />
    <glyph glyph-name="l" unicode="l" horiz-adv-x="226" 
d="M150.5 10.5q-15.5 -15.5 -37.5 -15.5t-37.5 15.5t-15.5 37.5v613q0 22 15.5 37.5t37.5 15.5t37.5 -15.5t15.5 -37.5v-613q0 -22 -15.5 -37.5z" />
    <glyph glyph-name="m" unicode="m" horiz-adv-x="969" 
d="M854 469q55 -56 55 -175v-246q0 -22 -15.5 -37.5t-36.5 -15.5q-22 0 -37.5 15.5t-15.5 37.5v246q0 71 -34.5 105.5t-87.5 34.5q-44 0 -75.5 -21.5t-48.5 -51.5t-21 -56v-11v-246q0 -22 -15 -37.5t-37 -15.5t-37.5 15.5t-15.5 37.5v246q0 71 -34.5 105.5t-87.5 34.5
q-44 0 -75.5 -22t-48 -52t-20.5 -55v-257q0 -22 -15.5 -37.5t-37.5 -15.5t-37.5 15.5t-15.5 37.5v421q0 22 15.5 38t37.5 16t37.5 -16t15.5 -38v-66q3 21 25 50t62 50.5t92 21.5q60 0 108.5 -31.5t69.5 -97.5q24 53 74 91t120 38q82 0 137 -56z" />
    <glyph glyph-name="n" unicode="n" horiz-adv-x="597" 
d="M482 469q55 -56 55 -175v-246q0 -22 -15 -37.5t-37 -15.5t-37.5 15.5t-15.5 37.5v246q0 71 -34.5 105.5t-87.5 34.5q-44 0 -75.5 -22t-48 -52t-20.5 -55v-257q0 -22 -15.5 -37.5t-37.5 -15.5t-37.5 15.5t-15.5 37.5v421q0 22 15.5 38t37.5 16t37.5 -16t15.5 -38v-66
q3 21 25 50t62 50.5t92 21.5q82 0 137 -56z" />
    <glyph glyph-name="o" unicode="o" horiz-adv-x="607" 
d="M425 495q61 -31 101.5 -91.5t40.5 -144.5t-40.5 -144.5t-101.5 -91t-122 -30.5t-122 30.5t-101 91t-40 144.5t40 144.5t101 91.5t122 31t122 -31zM226.5 413.5q-36.5 -20.5 -59 -60.5t-22.5 -94t23 -93.5t59 -60t76 -20.5t76.5 20.5t59.5 60t23 93.5t-23 94t-59.5 60.5
t-76.5 20.5t-76.5 -20.5z" />
    <glyph glyph-name="p" unicode="p" 
d="M445.5 495.5q56.5 -30.5 93 -91t36.5 -144.5q0 -86 -36.5 -146t-92.5 -90.5t-115 -30.5q-45 0 -81 17t-57.5 42t-25.5 49v-54q0 -7 -1 -10v-180q0 -22 -15.5 -37.5t-37.5 -15.5t-37.5 15.5t-15.5 37.5v613q0 22 16 37.5t38 15.5t37.5 -15.5t15.5 -37.5v-40q20 44 64.5 70
t99.5 26q58 0 114.5 -30.5zM388 104q36 20 58.5 60t22.5 96t-22.5 95.5t-58.5 59.5t-74 20q-37 0 -71.5 -18.5t-57.5 -58t-23 -98.5q0 -58 23 -98t57.5 -59t71.5 -19q38 0 74 20z" />
    <glyph glyph-name="q" unicode="q" 
d="M539 507.5q16 -15.5 16 -37.5v-613q0 -22 -15.5 -37.5t-37.5 -15.5t-37.5 15.5t-15.5 37.5v180q-1 3 -1 10v54q-4 -24 -25.5 -49t-57.5 -42t-81 -17q-59 0 -115 30.5t-92.5 90.5t-36.5 146q0 84 36.5 144.5t93 91t114.5 30.5q55 0 99.5 -26t64.5 -70v40q0 22 15.5 37.5
t37.5 15.5t38 -15.5zM372.5 103q34.5 19 57.5 59t23 98q0 59 -23 98.5t-57.5 58t-71.5 18.5q-38 0 -74 -20t-58.5 -59.5t-22.5 -95.5t22.5 -96t58.5 -60t74 -20q37 0 71.5 19z" />
    <glyph glyph-name="r" unicode="r" horiz-adv-x="416" 
d="M371.5 511q14.5 -14 14.5 -35q0 -23 -17.5 -36.5t-50.5 -13.5q-42 0 -75 -18.5t-53 -46.5t-24 -56v-257q0 -22 -15.5 -37.5t-37.5 -15.5t-37.5 15.5t-15.5 37.5v421q0 22 15.5 38t37.5 16t37.5 -16t15.5 -38v-66q3 20 25 49t59 51t82 22q25 0 39.5 -14z" />
    <glyph glyph-name="s" unicode="s" horiz-adv-x="468" 
d="M331 505.5q44 -20.5 68 -57.5q7 -10 10.5 -18t3.5 -19q0 -18 -12 -29t-31 -11q-26 0 -46 27q-34 42 -89 42q-37 0 -58.5 -17t-21.5 -44q0 -45 67 -64l62 -17q71 -19 110 -52.5t39 -92.5q0 -50 -28.5 -86t-74.5 -54t-100 -18q-61 0 -107 22.5t-67 56.5q-9 12 -15 24t-6 27
q0 17 10.5 30t30.5 13q16 0 26 -7.5t19 -21.5q33 -56 109 -56q44 0 71 17t27 47q0 46 -71 66l-67 18q-139 39 -139 147q0 45 25 79t66.5 51.5t90.5 17.5q54 0 98 -20.5z" />
    <glyph glyph-name="t" unicode="t" horiz-adv-x="353" 
d="M311 83.5q12 -10.5 12 -29.5q0 -29 -29 -44t-74 -15q-54 0 -86.5 29t-32.5 107v304h-38q-19 0 -31 12t-12 31t12 30.5t31 11.5h38v78q0 21 15.5 36.5t36.5 15.5q22 0 37.5 -15.5t15.5 -36.5v-78h73q20 0 32 -11.5t12 -30.5t-12 -31t-32 -12h-73v-305q0 -44 35 -44
q8 0 20 2t19 3q19 3 31 -7.5z" />
    <glyph glyph-name="u" unicode="u" horiz-adv-x="597" 
d="M115 49q-55 56 -55 175v246q0 22 15 37.5t37 15.5t37.5 -15.5t15.5 -37.5v-246q0 -71 34.5 -105.5t87.5 -34.5q44 0 75.5 22t48 52t20.5 55v257q0 22 15.5 37.5t37.5 15.5t37.5 -15.5t15.5 -37.5v-421q0 -22 -15.5 -38t-37.5 -16t-37.5 16t-15.5 38v66q-3 -21 -25 -50
t-62 -50.5t-92 -21.5q-82 0 -137 56z" />
    <glyph glyph-name="v" unicode="v" horiz-adv-x="546" 
d="M502 509q14 -14 14 -34q0 -10 -6 -24l-184 -413q-10 -20 -22 -30t-31 -10t-31 10t-22 30l-184 413q-6 14 -6 24q0 20 14 34t35 14q16 0 29 -9t21 -27l144 -339l144 339q7 18 20.5 27t29.5 9q21 0 35 -14z" />
    <glyph glyph-name="w" unicode="w" horiz-adv-x="830" 
d="M785.5 508.5q14.5 -14.5 14.5 -35.5q0 -6 -3 -13t-4 -11l-141 -411q-7 -19 -20 -29.5t-30 -10.5q-35 0 -52 40l-135 330l-136 -330q-7 -19 -20.5 -29.5t-30.5 -10.5t-30 10.5t-20 29.5l-141 411q-1 4 -4 11t-3 13q0 21 14.5 35.5t35.5 14.5q14 0 27.5 -8t17.5 -21
l110 -340l132 336q13 33 48 33q34 0 48 -33l132 -336l110 340q4 13 17 21t28 8q21 0 35.5 -14.5z" />
    <glyph glyph-name="x" unicode="x" horiz-adv-x="513" 
d="M478 42q0 -19 -14.5 -33t-33.5 -14q-21 0 -37 19l-136 176l-137 -176q-16 -19 -37 -19q-19 0 -33.5 14t-14.5 33q0 15 10 28l153 191l-149 187q-11 13 -11 28q0 19 14.5 33t33.5 14q22 0 38 -19l133 -172l133 172q16 19 37 19q19 0 33.5 -14t14.5 -33q0 -15 -11 -28
l-149 -187l153 -191q10 -13 10 -28z" />
    <glyph glyph-name="y" unicode="y" horiz-adv-x="559" 
d="M515 509q14 -14 14 -34q0 -10 -6 -24l-267 -610q-8 -18 -21 -27t-29 -9q-21 0 -34 14t-13 34q0 10 6 24l62 143l-191 431q-6 14 -6 24q0 20 14 34t35 14q16 0 29 -9t21 -27l150 -349l151 349q8 18 21 27t29 9q21 0 35 -14z" />
    <glyph glyph-name="z" unicode="z" horiz-adv-x="496" 
d="M428 500q22 -20 22 -48q0 -27 -22 -52l-276 -309h258q19 0 32.5 -13t13.5 -32t-13.5 -32.5t-32.5 -13.5h-294q-33 0 -54.5 19.5t-21.5 47.5t23 54l275 308h-241q-19 0 -32.5 13.5t-13.5 32.5t13.5 32t32.5 13h276q33 0 55 -20z" />
    <glyph glyph-name="braceleft" unicode="{" horiz-adv-x="325" 
d="M266.5 732q13.5 -13 13.5 -32t-13.5 -32.5t-32.5 -13.5h-13q-16 0 -25.5 -8.5t-9.5 -23.5v-233q0 -15 -9 -27l-40 -56l39 -54q10 -11 10 -27v-232q0 -15 9.5 -23.5t25.5 -8.5h13q19 0 32.5 -13.5t13.5 -32.5t-13.5 -32t-32.5 -13h-57q-39 0 -68 23t-29 74v268l-27 43
q-8 14 -8 28q0 15 8 28l27 45v269q0 51 29 74t68 23h57q19 0 32.5 -13z" />
    <glyph glyph-name="bar" unicode="|" horiz-adv-x="241" 
d="M153 792.5q13 -13.5 13 -32.5v-910q0 -19 -13 -32.5t-32 -13.5t-32.5 13.5t-13.5 32.5v910q0 19 13.5 32.5t32.5 13.5t32 -13.5z" />
    <glyph glyph-name="braceright" unicode="}" horiz-adv-x="311" 
d="M134 745q39 0 68 -23t29 -74v-269l27 -45q8 -11 8 -28q0 -16 -8 -28l-27 -43v-268q0 -51 -29 -74t-68 -23h-57q-19 0 -32.5 13t-13.5 32t13.5 32.5t32.5 13.5h13q16 0 25.5 8.5t9.5 23.5v232q0 16 10 27l39 54l-40 56q-9 12 -9 27v233q0 15 -9.5 23.5t-25.5 8.5h-13
q-19 0 -32.5 13.5t-13.5 32.5t13.5 32t32.5 13h57z" />
    <glyph glyph-name="asciitilde" unicode="~" horiz-adv-x="501" 
d="M217 352.5q24 -9.5 56 -28.5q30 -16 45.5 -23t34.5 -7q18 0 31.5 4t19.5 11l8 8t9.5 7t10.5 2q12 0 18.5 -7t4.5 -19q-8 -41 -37.5 -65t-77.5 -24q-29 0 -53.5 10.5t-55.5 30.5q-28 18 -46.5 26.5t-39.5 8.5q-19 0 -32.5 -6t-19.5 -15q-7 -11 -12 -15t-15 -4
q-11 0 -16.5 6t-3.5 17q7 42 37 67t80 25q30 0 54 -9.5z" />
    <glyph glyph-name="exclamdown" unicode="&#xa1;" horiz-adv-x="244" 
d="M166 504.5q18 -18.5 18 -44.5q0 -25 -18 -43.5t-43 -18.5q-26 0 -44.5 18t-18.5 44t18.5 44.5t44.5 18.5q25 0 43 -18.5zM80.5 -165.5q-17.5 17.5 -17.5 41.5v383q0 24 17.5 41.5t42.5 17.5q23 0 40.5 -17.5t17.5 -41.5v-383q0 -24 -17.5 -41.5t-40.5 -17.5
q-25 0 -42.5 17.5z" />
    <glyph glyph-name="cent" unicode="&#xa2;" horiz-adv-x="539" 
d="M486 212.5q13 -11.5 13 -28.5q0 -14 -6 -23t-13 -15.5t-9 -8.5q-51 -53 -130 -65v-72q0 -19 -13 -32.5t-32 -13.5t-32.5 13.5t-13.5 32.5v75q-56 12 -103.5 44t-77 86t-29.5 125t29.5 125t77 86t103.5 44v75q0 19 13.5 32.5t32.5 13.5t32 -13.5t13 -32.5v-72
q78 -10 130 -64l10 -10t13 -17t5 -20q0 -18 -13 -29t-30 -11q-25 0 -43 18q-28 33 -72 41v-332q45 10 72 41q19 19 43 19q17 0 30 -11.5zM174 227.5q29 -41.5 76 -57.5v321q-47 -17 -76 -58t-29 -103q0 -61 29 -102.5z" />
    <glyph glyph-name="sterling" unicode="&#xa3;" horiz-adv-x="573" 
d="M514.5 78q13.5 -13 13.5 -32t-13.5 -32.5t-32.5 -13.5h-397q-24 0 -33 11q-7 7 -7 17t8 21q59 73 80.5 117.5t21.5 81.5q0 21 -4 36h-57q-17 0 -29 12t-12 28t12 28t29 12h22q-22 40 -33.5 69.5t-11.5 68.5q0 62 33 108.5t87 71.5t115 25q81 0 142 -43.5t79 -122.5
q2 -12 2 -17q0 -22 -14.5 -36.5t-38.5 -14.5q-20 0 -32.5 10t-15.5 24q-27 109 -124 109q-55 0 -90.5 -32t-35.5 -88q0 -34 11 -60t35 -72h118q17 0 28.5 -11.5t11.5 -28.5q0 -16 -11.5 -28t-28.5 -12h-85q4 -24 4 -39q0 -74 -65 -154h286q19 0 32.5 -13z" />
    <glyph glyph-name="currency" unicode="&#xa4;" horiz-adv-x="543" 
d="M442 365l46 -46l-69 -68l-42 42q-58 -41 -130 -41q-70 0 -128 40l-41 -41l-69 68l44 44q-30 52 -30 113q0 62 32 115l-46 46l69 68l43 -43q57 38 126 38t127 -40l45 45l69 -68l-48 -48q31 -51 31 -113q0 -58 -29 -111zM320.5 361q31.5 21 47.5 52.5t16 62.5t-16 62.5
t-47.5 52.5t-73.5 21q-43 0 -74 -21t-46.5 -52.5t-15.5 -62.5t15.5 -62.5t46.5 -52.5t74 -21q42 0 73.5 21z" />
    <glyph glyph-name="yen" unicode="&#xa5;" horiz-adv-x="617" 
d="M362 318v-14h74q16 0 28 -11.5t12 -26.5q0 -16 -12 -27.5t-28 -11.5h-74v-36h74q16 0 28 -11.5t12 -26.5t-12 -27t-28 -12h-74v-67q0 -22 -15.5 -37.5t-37.5 -15.5t-38 15.5t-16 37.5v67h-73q-17 0 -29 12t-12 27t12 26.5t29 11.5h73v36h-73q-17 0 -29 11.5t-12 27.5
q0 15 12 26.5t29 11.5h73v14l-212 307q-8 14 -8 29q0 20 14.5 34.5t35.5 14.5q24 0 40 -21l184 -272l183 272q16 21 41 21q21 0 35.5 -14.5t14.5 -34.5q0 -15 -9 -29z" />
    <glyph glyph-name="brokenbar" unicode="&#xa6;" horiz-adv-x="241" 
d="M153 792.5q13 -13.5 13 -32.5v-200q0 -19 -13 -32.5t-32 -13.5t-32.5 13.5t-13.5 32.5v200q0 19 13.5 32.5t32.5 13.5t32 -13.5zM153 82.5q13 -13.5 13 -32.5v-200q0 -19 -13 -32.5t-32 -13.5t-32.5 13.5t-13.5 32.5v200q0 19 13.5 32.5t32.5 13.5t32 -13.5z" />
    <glyph glyph-name="section" unicode="&#xa7;" horiz-adv-x="575" 
d="M424.5 707q59.5 -37 90.5 -95q9 -17 9 -30q0 -34 -42 -47q-11 -3 -20 -3q-16 0 -26.5 10t-24.5 32q-17 29 -50 46.5t-75 17.5q-50 0 -82 -24t-32 -63q0 -36 21.5 -58t66.5 -36l74 -26q91 -28 146 -79.5t55 -137.5q0 -53 -33 -99q33 -47 33 -109q0 -60 -37.5 -106
t-95.5 -70.5t-119 -24.5q-78 0 -140 39.5t-95 106.5q-7 15 -7 30q0 32 39 47q11 3 19 3q17 0 29.5 -10.5t25.5 -33.5q20 -36 53.5 -56t75.5 -20q58 0 98.5 25.5t40.5 69.5t-27.5 69t-74.5 42l-91 30q-78 25 -124 71t-46 122q0 52 34 103q-34 49 -34 108q0 55 31 99t83 69
t113 25q79 0 138.5 -37zM172 340q0 -36 21.5 -58t66.5 -35l74 -25q54 -17 86 -35q0 7 1 14t1 13q0 44 -28 70.5t-74 42.5l-91 28q-12 4 -26.5 10.5t-22.5 9.5q-8 -16 -8 -35z" />
    <glyph glyph-name="dieresis" unicode="&#xa8;" horiz-adv-x="362" 
d="M17 612q-17 17 -17 40t17 40t41 17t41 -17t17 -40t-17 -40t-41 -17t-41 17zM263 612q-17 17 -17 40t17 40t41 17t41 -17t17 -40t-17 -40t-41 -17t-41 17z" />
    <glyph glyph-name="copyright" unicode="&#xa9;" horiz-adv-x="815" 
d="M582 661.5q82 -45.5 132.5 -127t50.5 -184.5t-50.5 -184.5t-132.5 -127t-174 -45.5t-174.5 45.5t-133 127t-50.5 184.5t50.5 184.5t133 127t174.5 45.5t174 -45.5zM285 574.5q-57 -32.5 -91 -91.5t-34 -133t34 -133t91 -91.5t123 -32.5t123 32.5t91 91.5t34 133t-34 133
t-91 91.5t-123 32.5t-123 -32.5zM499.5 526.5q38.5 -19.5 38.5 -49.5q0 -17 -14 -30t-33 -13q-8 0 -22 8q-13 8 -24.5 12.5t-27.5 4.5q-27 0 -51.5 -14.5t-39.5 -39.5t-15 -55q0 -45 31.5 -77t74.5 -32q16 0 26 4.5t25 12.5q16 9 25 9q19 0 31.5 -12.5t12.5 -31.5
q0 -32 -40.5 -50.5t-86.5 -18.5q-50 0 -93.5 25t-69.5 70t-26 101t26 101t70.5 70t95.5 25q48 0 86.5 -19.5z" />
    <glyph glyph-name="ordfeminine" unicode="&#xaa;" horiz-adv-x="400" 
d="M295.5 672.5q35.5 -38.5 35.5 -114.5v-96q0 -30 5 -44q3 -10 3 -19q0 -10 -5.5 -14t-18.5 -4q-20 0 -30 4.5t-14 15.5q-2 4 -6 22q-36 -44 -105 -44q-54 0 -87 26t-33 73q0 51 37 76.5t95 30.5l82 7q0 28 -18 42t-47 14q-37 0 -70 -24q-13 -10 -24 -10q-10 0 -23 11
q-12 11 -12 24q0 10 7 18q47 44 124 44q69 0 104.5 -38.5zM171 521q-28 -2 -42.5 -13.5t-14.5 -27.5q0 -18 13 -28.5t40 -10.5q33 0 55 17.5t32 38.5v33q-20 -3 -83 -9z" />
    <glyph glyph-name="guillemotleft" unicode="&#xab;" horiz-adv-x="450" 
d="M46 317q6 9 22 25l108 103q9 9 23 9q12 0 20.5 -8.5t8.5 -20.5q0 -15 -23 -39l-90 -96l90 -96q23 -24 23 -38q0 -13 -9 -21.5t-21 -8.5q-11 0 -22 9l-108 103q-16 16 -22 25t-6 25v4q0 16 6 25zM228 317q6 9 22 25l108 103q9 9 23 9q12 0 20.5 -8.5t8.5 -20.5
q0 -15 -23 -39l-90 -96l90 -96q23 -24 23 -38q0 -13 -9 -21.5t-21 -8.5q-11 0 -22 9l-108 103q-16 16 -22 25t-6 25v4q0 16 6 25z" />
    <glyph glyph-name="logicalnot" unicode="&#xac;" horiz-adv-x="508" 
d="M446.5 304q16.5 -17 16.5 -43v-98q0 -22 -15 -37.5t-37 -15.5t-37.5 15.5t-15.5 37.5v71h-270q-17 0 -30 12.5t-13 30.5t13 31t30 13h316q26 0 42.5 -17z" />
    <glyph glyph-name="uni00AD" unicode="&#xad;" horiz-adv-x="430" 
d="M372 308q13 -13 13 -31t-13 -30.5t-30 -12.5h-254q-17 0 -30 12.5t-13 30.5t13 31t30 13h254q17 0 30 -13z" />
    <glyph glyph-name="registered" unicode="&#xae;" horiz-adv-x="815" 
d="M582 661.5q82 -45.5 132.5 -127t50.5 -184.5t-50.5 -184.5t-132.5 -127t-174 -45.5t-174.5 45.5t-133 127t-50.5 184.5t50.5 184.5t133 127t174.5 45.5t174 -45.5zM285 574.5q-57 -32.5 -91 -91.5t-34 -133t34 -133t91 -91.5t123 -32.5t123 32.5t91 91.5t34 133t-34 133
t-91 91.5t-123 32.5t-123 -32.5zM500.5 502.5q37.5 -31.5 37.5 -81.5q0 -36 -22 -65.5t-64 -42.5l98 -142h-65l-94 139h-49v-139h-62v363h118q65 0 102.5 -31.5zM341 479v-114h62q33 0 51 15t18 41q0 27 -18 42.5t-51 15.5h-62z" />
    <glyph glyph-name="macron" unicode="&#xaf;" horiz-adv-x="383" 
d="M369.5 687q13.5 -13 13.5 -32t-13.5 -32.5t-32.5 -13.5h-291q-19 0 -32.5 13.5t-13.5 32.5t13.5 32t32.5 13h291q19 0 32.5 -13z" />
    <glyph glyph-name="degree" unicode="&#xb0;" horiz-adv-x="386" 
d="M267 699q34 -20 54 -53.5t20 -72.5q0 -40 -20 -74t-54 -54t-74 -20t-74 20t-54 54t-20 74q0 39 20 72.5t54 53.5t74 20t74 -20zM142 620q-18 -22 -18 -47q0 -26 18 -48.5t51 -22.5t51 22.5t18 48.5q0 25 -18 47t-51 22t-51 -22z" />
    <glyph glyph-name="plusminus" unicode="&#xb1;" horiz-adv-x="458" 
d="M399 396q14 -13 14 -31t-14 -30.5t-33 -12.5h-94v-94q0 -19 -13 -33t-31 -14t-30.5 14t-12.5 33v94h-94q-19 0 -32.5 12.5t-13.5 30.5t13.5 31t32.5 13h94v94q0 19 12.5 32.5t30.5 13.5t31 -13.5t13 -32.5v-94h94q19 0 33 -13zM399 75q14 -13 14 -31t-14 -30.5t-33 -12.5
h-275q-19 0 -32.5 12.5t-13.5 30.5t13.5 31t32.5 13h275q19 0 33 -13z" />
    <glyph glyph-name="uni00B2" unicode="&#xb2;" horiz-adv-x="261" 
d="M188 681.5q25 -22.5 25 -52.5q0 -26 -14.5 -47t-53.5 -61l-47 -49h118v-32h-168v32l68 69q38 40 48.5 54.5t10.5 33.5q0 18 -14 31t-32 13q-19 0 -33 -13t-14 -37v-14h-37v14q0 35 24.5 58t59.5 23q34 0 59 -22.5z" />
    <glyph glyph-name="uni00B3" unicode="&#xb3;" horiz-adv-x="273" 
d="M192 682.5q24 -20.5 24 -47.5q0 -32 -30 -53q19 -8 30.5 -25t11.5 -41q0 -34 -27.5 -57t-64.5 -23q-41 0 -67.5 27t-23.5 64h38q-1 -3 -1 -9q0 -20 16 -35t38 -15t38 13.5t16 34.5q0 46 -55 46q-12 0 -19 -1v31q63 3 63 43q0 15 -12.5 26t-30.5 11q-22 0 -35 -15.5
t-11 -41.5h-38q-3 38 22 63t62 25q32 0 56 -20.5z" />
    <glyph glyph-name="acute" unicode="&#xb4;" horiz-adv-x="172" 
d="M150.5 756.5q16.5 -16.5 16.5 -39.5q0 -18 -12 -35l-85 -104q-12 -15 -29 -15q-15 0 -26 9t-11 24q0 4 4 16l52 124q6 16 20 26.5t31 10.5q23 0 39.5 -16.5z" />
    <glyph glyph-name="uni00B5" unicode="&#xb5;" horiz-adv-x="602" 
d="M526.5 507.5q15.5 -15.5 15.5 -37.5v-421q0 -22 -15.5 -38t-37.5 -16t-37.5 16t-15.5 38v66q-3 -21 -25 -50t-62 -50.5t-92 -21.5t-91 21v-157q0 -22 -15.5 -37.5t-37.5 -15.5t-37.5 15.5t-15.5 37.5v613q0 22 15.5 37.5t37.5 15.5h2h2q22 0 37.5 -15.5t15.5 -37.5v-246
q0 -71 34.5 -105.5t87.5 -34.5q44 0 75.5 22t48 52t20.5 55v257q0 22 15.5 37.5t37.5 15.5t37.5 -15.5z" />
    <glyph glyph-name="paragraph" unicode="&#xb6;" horiz-adv-x="830" 
d="M744.5 690.5q15.5 -15.5 15.5 -37.5v-606q0 -22 -15.5 -37.5t-36.5 -15.5q-22 0 -37.5 15.5t-15.5 37.5v606q0 22 15.5 37.5t37.5 15.5q21 0 36.5 -15.5zM557.5 683.5q16.5 -16.5 16.5 -42.5v-592q0 -23 -16 -39t-39 -16q-22 0 -37.5 16t-15.5 39v206h-134
q-77 0 -134.5 28.5t-89 79t-31.5 115.5q0 63 31.5 113.5t89.5 79.5t134 29h183q26 0 42.5 -16.5zM466 348v259h-130q-71 0 -112.5 -32.5t-41.5 -96.5q0 -67 40.5 -98.5t113.5 -31.5h130z" />
    <glyph glyph-name="periodcentered" unicode="&#xb7;" horiz-adv-x="224" 
d="M68.5 236.5q-18.5 18.5 -18.5 44.5t18.5 44t44.5 18q25 0 43 -18.5t18 -43.5q0 -26 -18 -44.5t-43 -18.5q-26 0 -44.5 18.5z" />
    <glyph glyph-name="cedilla" unicode="&#xb8;" horiz-adv-x="183" 
d="M157.5 -81q25.5 -24 25.5 -60q0 -44 -38.5 -67.5t-100.5 -23.5q-15 0 -22 1q-9 1 -15.5 6.5t-6.5 12.5q0 17 26 19q36 1 55 15t19 35q0 18 -11 28.5t-27 10.5q-4 0 -12 -2q-10 -2 -13 -2q-13 0 -23 15q-6 10 -6 19q0 8 5 15l36 59h94l-49 -51q38 -6 63.5 -30z" />
    <glyph glyph-name="uni00B9" unicode="&#xb9;" horiz-adv-x="192" 
d="M117 701v-261h-37v221l-17 -11l-18 31l35 20h37z" />
    <glyph glyph-name="ordmasculine" unicode="&#xba;" horiz-adv-x="389" 
d="M268.5 685.5q35.5 -19.5 58 -56.5t22.5 -86q0 -50 -22.5 -87t-58 -56.5t-73.5 -19.5t-73.5 19.5t-58.5 56.5t-23 87q0 49 23 86t58.5 56.5t73.5 19.5t73.5 -19.5zM136 610q-24 -24 -24 -66t24 -66.5t59 -24.5q34 0 58 24t24 67q0 42 -24 66t-58 24q-35 0 -59 -24z" />
    <glyph glyph-name="guillemotright" unicode="&#xbb;" horiz-adv-x="450" 
d="M228 288q0 -16 -6 -25t-22 -25l-108 -103q-11 -9 -22 -9q-12 0 -21 8.5t-9 21.5q0 14 23 38l90 96l-90 96q-23 24 -23 39q0 12 8.5 20.5t20.5 8.5q14 0 23 -9l108 -103q16 -16 22 -25t6 -25v-4zM410 288q0 -16 -6 -25t-22 -25l-108 -103q-10 -9 -22 -9t-21 8.5t-9 21.5
q0 14 23 38l90 96l-90 96q-23 24 -23 39q0 12 8.5 20.5t20.5 8.5q14 0 23 -9l108 -103q16 -16 22 -25t6 -25v-4z" />
    <glyph glyph-name="onequarter" unicode="&#xbc;" horiz-adv-x="569" 
d="M100 701v-261h-37v221l-17 -11l-18 31l35 20h37zM503 700l-430 -700h-48l436 700h42zM517 261v-154h27v-31h-27v-76h-37v76h-132l132 185h37zM480 202l-65 -95h65v95z" />
    <glyph glyph-name="onehalf" unicode="&#xbd;" horiz-adv-x="544" 
d="M100 701v-261h-37v221l-17 -11l-18 31l35 20h37zM503 700l-430 -700h-48l436 700h42zM491 241.5q25 -22.5 25 -52.5q0 -26 -14.5 -47t-53.5 -61l-47 -49h118v-32h-168v32l68 69q38 40 48.5 54.5t10.5 33.5q0 18 -14 31t-32 13q-19 0 -33 -13t-14 -37v-14h-37v14
q0 35 24.5 58t59.5 23q34 0 59 -22.5z" />
    <glyph glyph-name="threequarters" unicode="&#xbe;" horiz-adv-x="587" 
d="M172 682.5q24 -20.5 24 -47.5q0 -32 -30 -53q19 -8 30.5 -25t11.5 -41q0 -34 -27.5 -57t-64.5 -23q-41 0 -67.5 27t-23.5 64h38q-1 -3 -1 -9q0 -20 16 -35t38 -15t38 13.5t16 34.5q0 46 -55 46q-12 0 -19 -1v31q63 3 63 43q0 15 -12.5 26t-30.5 11q-22 0 -35 -15.5
t-11 -41.5h-38q-3 38 22 63t62 25q32 0 56 -20.5zM531 700l-430 -700h-48l436 700h42zM535 261v-154h27v-31h-27v-76h-37v76h-132l132 185h37zM498 202l-65 -95h65v95z" />
    <glyph glyph-name="questiondown" unicode="&#xbf;" horiz-adv-x="520" 
d="M295.5 504.5q18.5 -18.5 18.5 -44.5t-18.5 -44t-44.5 -18q-25 0 -43 18.5t-18 43.5q0 26 18 44.5t43 18.5q26 0 44.5 -18.5zM147 -162.5q-51 24.5 -81.5 70t-30.5 104.5q0 37 12.5 64.5t30 46.5t46.5 43q36 30 53.5 53t17.5 58q0 22 15 38.5t40 16.5t40 -16.5t15 -38.5
q0 -34 -12.5 -61.5t-30.5 -46.5t-48 -46q-37 -32 -55.5 -56.5t-18.5 -57.5q0 -26 14 -50.5t40.5 -39.5t62.5 -15q57 0 88.5 36.5t31.5 90.5q0 24 13.5 41.5t40.5 17.5q26 0 40 -16.5t14 -39.5q0 -68 -32 -118t-84.5 -76.5t-111.5 -26.5t-110 24.5z" />
    <glyph glyph-name="Agrave" unicode="&#xc0;" horiz-adv-x="707" 
d="M672 46q0 -20 -15.5 -35t-37.5 -15q-18 0 -31.5 9.5t-20.5 24.5l-61 143h-305l-61 -143q-7 -15 -20.5 -24.5t-31.5 -9.5q-22 0 -37.5 15t-15.5 35q0 15 7 29l259 589q17 40 52 40q36 0 53 -40l259 -589q7 -14 7 -29zM238 259h231l-116 270zM324 942.5q14 -10.5 20 -26.5
l52 -124q4 -12 4 -16q0 -15 -11 -24t-26 -9q-17 0 -29 15l-85 104q-12 17 -12 35q0 23 16.5 39.5t39.5 16.5q17 0 31 -10.5z" />
    <glyph glyph-name="Aacute" unicode="&#xc1;" horiz-adv-x="707" 
d="M672 46q0 -20 -15.5 -35t-37.5 -15q-18 0 -31.5 9.5t-20.5 24.5l-61 143h-305l-61 -143q-7 -15 -20.5 -24.5t-31.5 -9.5q-22 0 -37.5 15t-15.5 35q0 15 7 29l259 589q17 40 52 40q36 0 53 -40l259 -589q7 -14 7 -29zM238 259h231l-116 270zM442.5 936.5
q16.5 -16.5 16.5 -39.5q0 -18 -12 -35l-85 -104q-12 -15 -29 -15q-15 0 -26 9t-11 24q0 4 4 16l52 124q6 16 20 26.5t31 10.5q23 0 39.5 -16.5z" />
    <glyph glyph-name="Acircumflex" unicode="&#xc2;" horiz-adv-x="707" 
d="M672 46q0 -20 -15.5 -35t-37.5 -15q-18 0 -31.5 9.5t-20.5 24.5l-61 143h-305l-61 -143q-7 -15 -20.5 -24.5t-31.5 -9.5q-22 0 -37.5 15t-15.5 35q0 15 7 29l259 589q17 40 52 40q36 0 53 -40l259 -589q7 -14 7 -29zM238 259h231l-116 270zM383 974q11 -6 23 -22l79 -104
q9 -12 9 -23q0 -12 -8 -20.5t-21 -8.5q-19 0 -39 23l-73 87l-73 -87q-19 -23 -38 -23q-13 0 -21 8.5t-8 20.5q0 11 9 23l79 104q13 16 23 22t27 6h4q17 0 28 -6z" />
    <glyph glyph-name="Atilde" unicode="&#xc3;" horiz-adv-x="707" 
d="M672 46q0 -20 -15.5 -35t-37.5 -15q-18 0 -31.5 9.5t-20.5 24.5l-61 143h-305l-61 -143q-7 -15 -20.5 -24.5t-31.5 -9.5q-22 0 -37.5 15t-15.5 35q0 15 7 29l259 589q17 40 52 40q36 0 53 -40l259 -589q7 -14 7 -29zM238 259h231l-116 270zM324.5 907q22.5 -10 50.5 -28
q24 -15 39 -22t31 -7q36 0 47 23q9 13 25 13q13 0 21.5 -10.5t5.5 -24.5q-10 -39 -39.5 -62.5t-68.5 -23.5q-27 0 -50.5 11t-52.5 31q-26 17 -42.5 25t-33.5 8q-33 0 -45 -28q-3 -7 -10 -11.5t-15 -4.5q-14 0 -21.5 10t-4.5 23q10 40 41 64t73 24q27 0 49.5 -10z" />
    <glyph glyph-name="Adieresis" unicode="&#xc4;" horiz-adv-x="707" 
d="M672 46q0 -20 -15.5 -35t-37.5 -15q-18 0 -31.5 9.5t-20.5 24.5l-61 143h-305l-61 -143q-7 -15 -20.5 -24.5t-31.5 -9.5q-22 0 -37.5 15t-15.5 35q0 15 7 29l259 589q17 40 52 40q36 0 53 -40l259 -589q7 -14 7 -29zM238 259h231l-116 270zM189 792q-17 17 -17 40t17 40
t41 17t41 -17t17 -40t-17 -40t-41 -17t-41 17zM435 792q-17 17 -17 40t17 40t41 17t41 -17t17 -40t-17 -40t-41 -17t-41 17z" />
    <glyph glyph-name="Aring" unicode="&#xc5;" horiz-adv-x="707" 
d="M672 46q0 -20 -15.5 -35t-37.5 -15q-18 0 -31.5 9.5t-20.5 24.5l-61 143h-305l-61 -143q-7 -15 -20.5 -24.5t-31.5 -9.5q-22 0 -37.5 15t-15.5 35q0 15 7 29l259 589q17 40 52 40q36 0 53 -40l259 -589q7 -14 7 -29zM238 259h231l-116 270zM424 949q29 -29 29 -70
q0 -40 -29.5 -69t-69.5 -29q-42 0 -71.5 29t-29.5 69q0 41 29.5 70t71.5 29q41 0 70 -29zM330 903.5q-9 -9.5 -9 -23.5q0 -13 9 -22.5t22 -9.5t23 9.5t10 22.5q0 14 -9.5 23.5t-23.5 9.5q-13 0 -22 -9.5z" />
    <glyph glyph-name="AE" unicode="&#xc6;" horiz-adv-x="965" 
d="M916 81q14 -14 14 -33q0 -20 -14 -34t-34 -14h-356q-25 0 -42 17t-17 42v123h-222l-101 -149q-22 -33 -63 -33h-2q-21 0 -32.5 9t-11.5 23q0 13 11 30l413 605q23 33 63 33h350q20 0 34 -14t14 -33q0 -20 -14 -34t-34 -14h-297v-208h204q19 0 33 -13.5t14 -31.5
q0 -19 -14 -32.5t-33 -13.5h-204v-211h307q20 0 34 -14zM307 273h160v237z" />
    <glyph glyph-name="Ccedilla" unicode="&#xc7;" horiz-adv-x="658" 
d="M608.5 141.5q14.5 -13.5 14.5 -35.5q0 -18 -11.5 -32.5t-35.5 -30.5q-61 -42 -144 -49l-43 -45q38 -6 63.5 -30t25.5 -60q0 -44 -38.5 -67.5t-100.5 -23.5q-15 0 -22 1q-9 1 -15.5 6.5t-6.5 12.5q0 17 26 19q36 1 55 15t19 35q0 18 -11 28.5t-27 10.5q-4 0 -12 -2
q-10 -2 -13 -2q-13 0 -23 15q-6 10 -6 19q0 8 5 15l35 57q-78 15 -145 63.5t-107.5 123.5t-40.5 165q0 102 50.5 183.5t131.5 127.5t170 46q101 0 174 -50q24 -16 35.5 -30.5t11.5 -32.5q0 -22 -14.5 -35.5t-35.5 -13.5q-14 0 -24.5 5t-23.5 15q-20 16 -52 27.5t-70 11.5
q-62 0 -117.5 -33.5t-89 -91.5t-33.5 -129t33.5 -129t89 -91.5t117.5 -33.5q38 0 70 11.5t52 27.5q13 10 23.5 15t24.5 5q21 0 35.5 -13.5z" />
    <glyph glyph-name="Egrave" unicode="&#xc8;" horiz-adv-x="558" 
d="M475 95q20 0 34 -14t14 -33q0 -20 -14 -34t-34 -14h-356q-25 0 -42 17t-17 42v582q0 26 17 42.5t42 16.5h346q20 0 34 -14t14 -33q0 -20 -14 -34t-34 -14h-297v-208h204q19 0 33 -13.5t14 -31.5q0 -19 -14 -32.5t-33 -13.5h-204v-211h307zM267 942.5q14 -10.5 20 -26.5
l52 -124q4 -12 4 -16q0 -15 -11 -24t-26 -9q-17 0 -29 15l-85 104q-12 17 -12 35q0 23 16.5 39.5t39.5 16.5q17 0 31 -10.5z" />
    <glyph glyph-name="Eacute" unicode="&#xc9;" horiz-adv-x="558" 
d="M475 95q20 0 34 -14t14 -33q0 -20 -14 -34t-34 -14h-356q-25 0 -42 17t-17 42v582q0 26 17 42.5t42 16.5h346q20 0 34 -14t14 -33q0 -20 -14 -34t-34 -14h-297v-208h204q19 0 33 -13.5t14 -31.5q0 -19 -14 -32.5t-33 -13.5h-204v-211h307zM385.5 936.5
q16.5 -16.5 16.5 -39.5q0 -18 -12 -35l-85 -104q-12 -15 -29 -15q-15 0 -26 9t-11 24q0 4 4 16l52 124q6 16 20 26.5t31 10.5q23 0 39.5 -16.5z" />
    <glyph glyph-name="Ecircumflex" unicode="&#xca;" horiz-adv-x="558" 
d="M475 95q20 0 34 -14t14 -33q0 -20 -14 -34t-34 -14h-356q-25 0 -42 17t-17 42v582q0 26 17 42.5t42 16.5h346q20 0 34 -14t14 -33q0 -20 -14 -34t-34 -14h-297v-208h204q19 0 33 -13.5t14 -31.5q0 -19 -14 -32.5t-33 -13.5h-204v-211h307zM326 974q11 -6 23 -22l79 -104
q9 -12 9 -23q0 -12 -8 -20.5t-21 -8.5q-19 0 -39 23l-73 87l-73 -87q-19 -23 -38 -23q-13 0 -21 8.5t-8 20.5q0 11 9 23l79 104q13 16 23 22t27 6h4q17 0 28 -6z" />
    <glyph glyph-name="Edieresis" unicode="&#xcb;" horiz-adv-x="558" 
d="M475 95q20 0 34 -14t14 -33q0 -20 -14 -34t-34 -14h-356q-25 0 -42 17t-17 42v582q0 26 17 42.5t42 16.5h346q20 0 34 -14t14 -33q0 -20 -14 -34t-34 -14h-297v-208h204q19 0 33 -13.5t14 -31.5q0 -19 -14 -32.5t-33 -13.5h-204v-211h307zM132 792q-17 17 -17 40t17 40
t41 17t41 -17t17 -40t-17 -40t-41 -17t-41 17zM378 792q-17 17 -17 40t17 40t41 17t41 -17t17 -40t-17 -40t-41 -17t-41 17z" />
    <glyph glyph-name="Igrave" unicode="&#xcc;" horiz-adv-x="230" 
d="M154 686.5q16 -16.5 16 -39.5v-597q0 -23 -16 -39.5t-38 -16.5q-23 0 -39.5 16.5t-16.5 39.5v597q0 23 16.5 39.5t39.5 16.5q22 0 38 -16.5zM87 942.5q14 -10.5 20 -26.5l52 -124q4 -12 4 -16q0 -15 -11 -24t-26 -9q-17 0 -29 15l-85 104q-12 17 -12 35q0 23 16.5 39.5
t39.5 16.5q17 0 31 -10.5z" />
    <glyph glyph-name="Iacute" unicode="&#xcd;" horiz-adv-x="230" 
d="M154 686.5q16 -16.5 16 -39.5v-597q0 -23 -16 -39.5t-38 -16.5q-23 0 -39.5 16.5t-16.5 39.5v597q0 23 16.5 39.5t39.5 16.5q22 0 38 -16.5zM205.5 936.5q16.5 -16.5 16.5 -39.5q0 -18 -12 -35l-85 -104q-12 -15 -29 -15q-15 0 -26 9t-11 24q0 4 4 16l52 124
q6 16 20 26.5t31 10.5q23 0 39.5 -16.5z" />
    <glyph glyph-name="Icircumflex" unicode="&#xce;" horiz-adv-x="230" 
d="M154 686.5q16 -16.5 16 -39.5v-597q0 -23 -16 -39.5t-38 -16.5q-23 0 -39.5 16.5t-16.5 39.5v597q0 23 16.5 39.5t39.5 16.5q22 0 38 -16.5zM146 974q11 -6 23 -22l79 -104q9 -12 9 -23q0 -12 -8 -20.5t-21 -8.5q-19 0 -39 23l-73 87l-73 -87q-19 -23 -38 -23
q-13 0 -21 8.5t-8 20.5q0 11 9 23l79 104q13 16 23 22t27 6h4q17 0 28 -6z" />
    <glyph glyph-name="Idieresis" unicode="&#xcf;" horiz-adv-x="230" 
d="M154 686.5q16 -16.5 16 -39.5v-597q0 -23 -16 -39.5t-38 -16.5q-23 0 -39.5 16.5t-16.5 39.5v597q0 23 16.5 39.5t39.5 16.5q22 0 38 -16.5zM-48 792q-17 17 -17 40t17 40t41 17t41 -17t17 -40t-17 -40t-41 -17t-41 17zM198 792q-17 17 -17 40t17 40t41 17t41 -17t17 -40
t-17 -40t-41 -17t-41 17z" />
    <glyph glyph-name="Eth" unicode="&#xd0;" horiz-adv-x="720" 
d="M508.5 659q80.5 -41 126 -119.5t45.5 -187.5q0 -111 -45.5 -190.5t-125.5 -120.5t-183 -41h-149q-25 0 -42 17t-17 42v243h-15q-17 0 -30 12.5t-13 30.5t13 31t30 13h15v252q0 26 17 42.5t42 16.5h149q102 0 182.5 -41zM508.5 157q63.5 65 63.5 195q0 128 -64 192
t-182 64h-100v-219h131q17 0 30 -13t13 -31t-13 -30.5t-30 -12.5h-131v-210h100q119 0 182.5 65z" />
    <glyph glyph-name="Ntilde" unicode="&#xd1;" horiz-adv-x="689" 
d="M612.5 686.5q16.5 -16.5 16.5 -39.5v-600q0 -25 -14.5 -38.5t-36.5 -13.5q-34 0 -55 32l-353 477v-453q0 -23 -16 -39.5t-38 -16.5q-23 0 -39.5 16.5t-16.5 39.5v600q0 25 14.5 38.5t36.5 13.5q34 0 55 -32l353 -477v453q0 23 16 39.5t38 16.5q23 0 39.5 -16.5z
M316.5 907q22.5 -10 50.5 -28q24 -15 39 -22t31 -7q36 0 47 23q9 13 25 13q13 0 21.5 -10.5t5.5 -24.5q-10 -39 -39.5 -62.5t-68.5 -23.5q-27 0 -50.5 11t-52.5 31q-26 17 -42.5 25t-33.5 8q-33 0 -45 -28q-3 -7 -10 -11.5t-15 -4.5q-14 0 -21.5 10t-4.5 23q10 40 41 64
t73 24q27 0 49.5 -10z" />
    <glyph glyph-name="Ograve" unicode="&#xd2;" horiz-adv-x="796" 
d="M566.5 661q80.5 -46 130 -127.5t49.5 -183.5t-49.5 -183.5t-130 -127.5t-168.5 -46t-168.5 46t-130 127.5t-49.5 183.5t49.5 183.5t130 127.5t168.5 46t168.5 -46zM283 572.5q-54 -32.5 -87 -90.5t-33 -132t33 -132t87 -90t115 -32t115 32t87 90t33 132t-32.5 132
t-86.5 90.5t-116 32.5q-61 0 -115 -32.5zM369 942.5q14 -10.5 20 -26.5l52 -124q4 -12 4 -16q0 -15 -11 -24t-26 -9q-17 0 -29 15l-85 104q-12 17 -12 35q0 23 16.5 39.5t39.5 16.5q17 0 31 -10.5z" />
    <glyph glyph-name="Oacute" unicode="&#xd3;" horiz-adv-x="796" 
d="M566.5 661q80.5 -46 130 -127.5t49.5 -183.5t-49.5 -183.5t-130 -127.5t-168.5 -46t-168.5 46t-130 127.5t-49.5 183.5t49.5 183.5t130 127.5t168.5 46t168.5 -46zM283 572.5q-54 -32.5 -87 -90.5t-33 -132t33 -132t87 -90t115 -32t115 32t87 90t33 132t-32.5 132
t-86.5 90.5t-116 32.5q-61 0 -115 -32.5zM487.5 936.5q16.5 -16.5 16.5 -39.5q0 -18 -12 -35l-85 -104q-12 -15 -29 -15q-15 0 -26 9t-11 24q0 4 4 16l52 124q6 16 20 26.5t31 10.5q23 0 39.5 -16.5z" />
    <glyph glyph-name="Ocircumflex" unicode="&#xd4;" horiz-adv-x="796" 
d="M566.5 661q80.5 -46 130 -127.5t49.5 -183.5t-49.5 -183.5t-130 -127.5t-168.5 -46t-168.5 46t-130 127.5t-49.5 183.5t49.5 183.5t130 127.5t168.5 46t168.5 -46zM283 572.5q-54 -32.5 -87 -90.5t-33 -132t33 -132t87 -90t115 -32t115 32t87 90t33 132t-32.5 132
t-86.5 90.5t-116 32.5q-61 0 -115 -32.5zM428 974q11 -6 23 -22l79 -104q9 -12 9 -23q0 -12 -8 -20.5t-21 -8.5q-19 0 -39 23l-73 87l-73 -87q-19 -23 -38 -23q-13 0 -21 8.5t-8 20.5q0 11 9 23l79 104q13 16 23 22t27 6h4q17 0 28 -6z" />
    <glyph glyph-name="Otilde" unicode="&#xd5;" horiz-adv-x="796" 
d="M566.5 661q80.5 -46 130 -127.5t49.5 -183.5t-49.5 -183.5t-130 -127.5t-168.5 -46t-168.5 46t-130 127.5t-49.5 183.5t49.5 183.5t130 127.5t168.5 46t168.5 -46zM283 572.5q-54 -32.5 -87 -90.5t-33 -132t33 -132t87 -90t115 -32t115 32t87 90t33 132t-32.5 132
t-86.5 90.5t-116 32.5q-61 0 -115 -32.5zM369.5 907q22.5 -10 50.5 -28q24 -15 39 -22t31 -7q36 0 47 23q9 13 25 13q13 0 21.5 -10.5t5.5 -24.5q-10 -39 -39.5 -62.5t-68.5 -23.5q-27 0 -50.5 11t-52.5 31q-26 17 -42.5 25t-33.5 8q-33 0 -45 -28q-3 -7 -10 -11.5t-15 -4.5
q-14 0 -21.5 10t-4.5 23q10 40 41 64t73 24q27 0 49.5 -10z" />
    <glyph glyph-name="Odieresis" unicode="&#xd6;" horiz-adv-x="796" 
d="M566.5 661q80.5 -46 130 -127.5t49.5 -183.5t-49.5 -183.5t-130 -127.5t-168.5 -46t-168.5 46t-130 127.5t-49.5 183.5t49.5 183.5t130 127.5t168.5 46t168.5 -46zM283 572.5q-54 -32.5 -87 -90.5t-33 -132t33 -132t87 -90t115 -32t115 32t87 90t33 132t-32.5 132
t-86.5 90.5t-116 32.5q-61 0 -115 -32.5zM234 792q-17 17 -17 40t17 40t41 17t41 -17t17 -40t-17 -40t-41 -17t-41 17zM480 792q-17 17 -17 40t17 40t41 17t41 -17t17 -40t-17 -40t-41 -17t-41 17z" />
    <glyph glyph-name="multiply" unicode="&#xd7;" horiz-adv-x="375" 
d="M329 167q0 -18 -12 -30t-29 -12q-20 0 -35 15l-66 66l-67 -66q-14 -14 -34 -14q-18 0 -30 12t-12 29q0 21 15 34l66 67l-66 66q-14 14 -14 33q0 18 12 30t30 12q20 0 33 -13l67 -67l66 67q16 14 34 14q17 0 29 -12t12 -31q0 -20 -13 -33l-67 -66l67 -67q14 -14 14 -34z
" />
    <glyph glyph-name="Oslash" unicode="&#xd8;" horiz-adv-x="796" 
d="M705.5 517q40.5 -76 40.5 -167q0 -102 -49.5 -183.5t-130 -127.5t-168.5 -46q-52 0 -103 17l-17 -35q-7 -13 -20 -22t-27 -9q-22 0 -37.5 15.5t-15.5 37.5q0 11 5 23l18 37q-69 48 -110 124.5t-41 168.5q0 102 49.5 183.5t130 127.5t168.5 46q54 0 105 -18l15 31
q7 13 20 22t27 9q22 0 37.5 -15.5t15.5 -37.5q0 -11 -5 -23l-16 -34q68 -48 108.5 -124zM185.5 239.5q22.5 -50.5 61.5 -85.5l212 442q-30 9 -61 9q-61 0 -115 -32.5t-87 -90.5t-33 -132q0 -60 22.5 -110.5zM513 128q54 32 87 90t33 132q0 60 -22 110t-60 85l-211 -441
q30 -8 58 -8q61 0 115 32z" />
    <glyph glyph-name="Ugrave" unicode="&#xd9;" horiz-adv-x="678" 
d="M598 687.5q15 -15.5 15 -37.5v-394q0 -81 -35.5 -140.5t-98 -91t-140.5 -31.5t-140.5 31.5t-98 91t-35.5 140.5v394q0 22 15.5 37.5t37.5 15.5q23 0 39 -15.5t16 -37.5v-393q0 -84 46 -128.5t120 -44.5t120 44.5t46 128.5v393q0 22 16.5 37.5t39.5 15.5q22 0 37 -15.5z
M310 942.5q14 -10.5 20 -26.5l52 -124q4 -12 4 -16q0 -15 -11 -24t-26 -9q-17 0 -29 15l-85 104q-12 17 -12 35q0 23 16.5 39.5t39.5 16.5q17 0 31 -10.5z" />
    <glyph glyph-name="Uacute" unicode="&#xda;" horiz-adv-x="678" 
d="M598 687.5q15 -15.5 15 -37.5v-394q0 -81 -35.5 -140.5t-98 -91t-140.5 -31.5t-140.5 31.5t-98 91t-35.5 140.5v394q0 22 15.5 37.5t37.5 15.5q23 0 39 -15.5t16 -37.5v-393q0 -84 46 -128.5t120 -44.5t120 44.5t46 128.5v393q0 22 16.5 37.5t39.5 15.5q22 0 37 -15.5z
M428.5 936.5q16.5 -16.5 16.5 -39.5q0 -18 -12 -35l-85 -104q-12 -15 -29 -15q-15 0 -26 9t-11 24q0 4 4 16l52 124q6 16 20 26.5t31 10.5q23 0 39.5 -16.5z" />
    <glyph glyph-name="Ucircumflex" unicode="&#xdb;" horiz-adv-x="678" 
d="M598 687.5q15 -15.5 15 -37.5v-394q0 -81 -35.5 -140.5t-98 -91t-140.5 -31.5t-140.5 31.5t-98 91t-35.5 140.5v394q0 22 15.5 37.5t37.5 15.5q23 0 39 -15.5t16 -37.5v-393q0 -84 46 -128.5t120 -44.5t120 44.5t46 128.5v393q0 22 16.5 37.5t39.5 15.5q22 0 37 -15.5z
M369 974q11 -6 23 -22l79 -104q9 -12 9 -23q0 -12 -8 -20.5t-21 -8.5q-19 0 -39 23l-73 87l-73 -87q-19 -23 -38 -23q-13 0 -21 8.5t-8 20.5q0 11 9 23l79 104q13 16 23 22t27 6h4q17 0 28 -6z" />
    <glyph glyph-name="Udieresis" unicode="&#xdc;" horiz-adv-x="678" 
d="M598 687.5q15 -15.5 15 -37.5v-394q0 -81 -35.5 -140.5t-98 -91t-140.5 -31.5t-140.5 31.5t-98 91t-35.5 140.5v394q0 22 15.5 37.5t37.5 15.5q23 0 39 -15.5t16 -37.5v-393q0 -84 46 -128.5t120 -44.5t120 44.5t46 128.5v393q0 22 16.5 37.5t39.5 15.5q22 0 37 -15.5z
M175 792q-17 17 -17 40t17 40t41 17t41 -17t17 -40t-17 -40t-41 -17t-41 17zM421 792q-17 17 -17 40t17 40t41 17t41 -17t17 -40t-17 -40t-41 -17t-41 17z" />
    <glyph glyph-name="Yacute" unicode="&#xdd;" horiz-adv-x="617" 
d="M568.5 688.5q14.5 -14.5 14.5 -34.5q0 -15 -9 -29l-212 -307v-271q0 -22 -15.5 -37.5t-37.5 -15.5t-38 15.5t-16 37.5v271l-212 307q-8 14 -8 29q0 20 14.5 34.5t35.5 14.5q24 0 40 -21l184 -272l183 272q16 21 41 21q21 0 35.5 -14.5zM398.5 936.5
q16.5 -16.5 16.5 -39.5q0 -18 -12 -35l-85 -104q-12 -15 -29 -15q-15 0 -26 9t-11 24q0 4 4 16l52 124q6 16 20 26.5t31 10.5q23 0 39.5 -16.5z" />
    <glyph glyph-name="Thorn" unicode="&#xde;" horiz-adv-x="623" 
d="M460.5 538q61.5 -27 94.5 -75t33 -111q0 -101 -72.5 -157t-197.5 -56h-152v-139h-106v700h106v-135h152q81 0 142.5 -27zM407 239q35 9 55.5 35.5t20.5 77.5q0 68 -43 95t-120 27h-154v-244h154q52 0 87 9z" />
    <glyph glyph-name="germandbls" unicode="&#xdf;" horiz-adv-x="628" 
d="M431 678.5q55 -21.5 86 -62.5t31 -96q0 -59 -32 -94.5t-77 -41.5q66 -9 107.5 -56.5t41.5 -123.5q0 -96 -66 -150t-182 -54h-51q-26 0 -39.5 12t-13.5 35t13.5 35t39.5 12h46q68 0 108 27.5t40 88.5q0 64 -42 92t-107 28h-45q-26 0 -39.5 12t-13.5 34q0 23 13.5 35
t39.5 12h46q53 0 80.5 26t27.5 67q0 51 -38.5 72t-99.5 21q-72 0 -105.5 -28.5t-33.5 -91.5v-435q0 -26 -13.5 -40t-39.5 -14q-53 0 -53 54v435q0 98 66 154.5t181 56.5q69 0 124 -21.5z" />
    <glyph glyph-name="agrave" unicode="&#xe0;" 
d="M383.5 500q44.5 -26 64.5 -70v40q0 22 15.5 37.5t37.5 15.5t38 -15.5t16 -37.5v-423q0 -22 -16 -37.5t-38 -15.5t-37.5 15.5t-15.5 37.5v54q-4 -24 -25.5 -49t-57.5 -42t-81 -17q-59 0 -115 30.5t-92.5 90.5t-36.5 146q0 84 36.5 144.5t93 91t114.5 30.5q55 0 99.5 -26z
M372.5 103q34.5 19 57.5 59t23 98q0 59 -23 98.5t-57.5 58t-71.5 18.5q-38 0 -74 -20t-58.5 -59.5t-22.5 -95.5t22.5 -96t58.5 -60t74 -20q37 0 71.5 19zM282 762.5q14 -10.5 20 -26.5l52 -124q4 -12 4 -16q0 -15 -11 -24t-26 -9q-17 0 -29 15l-85 104q-12 17 -12 35
q0 23 16.5 39.5t39.5 16.5q17 0 31 -10.5z" />
    <glyph glyph-name="aacute" unicode="&#xe1;" 
d="M383.5 500q44.5 -26 64.5 -70v40q0 22 15.5 37.5t37.5 15.5t38 -15.5t16 -37.5v-423q0 -22 -16 -37.5t-38 -15.5t-37.5 15.5t-15.5 37.5v54q-4 -24 -25.5 -49t-57.5 -42t-81 -17q-59 0 -115 30.5t-92.5 90.5t-36.5 146q0 84 36.5 144.5t93 91t114.5 30.5q55 0 99.5 -26z
M372.5 103q34.5 19 57.5 59t23 98q0 59 -23 98.5t-57.5 58t-71.5 18.5q-38 0 -74 -20t-58.5 -59.5t-22.5 -95.5t22.5 -96t58.5 -60t74 -20q37 0 71.5 19zM400.5 756.5q16.5 -16.5 16.5 -39.5q0 -18 -12 -35l-85 -104q-12 -15 -29 -15q-15 0 -26 9t-11 24q0 4 4 16l52 124
q6 16 20 26.5t31 10.5q23 0 39.5 -16.5z" />
    <glyph glyph-name="acircumflex" unicode="&#xe2;" 
d="M383.5 500q44.5 -26 64.5 -70v40q0 22 15.5 37.5t37.5 15.5t38 -15.5t16 -37.5v-423q0 -22 -16 -37.5t-38 -15.5t-37.5 15.5t-15.5 37.5v54q-4 -24 -25.5 -49t-57.5 -42t-81 -17q-59 0 -115 30.5t-92.5 90.5t-36.5 146q0 84 36.5 144.5t93 91t114.5 30.5q55 0 99.5 -26z
M372.5 103q34.5 19 57.5 59t23 98q0 59 -23 98.5t-57.5 58t-71.5 18.5q-38 0 -74 -20t-58.5 -59.5t-22.5 -95.5t22.5 -96t58.5 -60t74 -20q37 0 71.5 19zM341 794q11 -6 23 -22l79 -104q9 -12 9 -23q0 -12 -8 -20.5t-21 -8.5q-19 0 -39 23l-73 87l-73 -87q-19 -23 -38 -23
q-13 0 -21 8.5t-8 20.5q0 11 9 23l79 104q13 16 23 22t27 6h4q17 0 28 -6z" />
    <glyph glyph-name="atilde" unicode="&#xe3;" 
d="M383.5 500q44.5 -26 64.5 -70v40q0 22 15.5 37.5t37.5 15.5t38 -15.5t16 -37.5v-423q0 -22 -16 -37.5t-38 -15.5t-37.5 15.5t-15.5 37.5v54q-4 -24 -25.5 -49t-57.5 -42t-81 -17q-59 0 -115 30.5t-92.5 90.5t-36.5 146q0 84 36.5 144.5t93 91t114.5 30.5q55 0 99.5 -26z
M372.5 103q34.5 19 57.5 59t23 98q0 59 -23 98.5t-57.5 58t-71.5 18.5q-38 0 -74 -20t-58.5 -59.5t-22.5 -95.5t22.5 -96t58.5 -60t74 -20q37 0 71.5 19zM282.5 727q22.5 -10 50.5 -28q24 -15 39 -22t31 -7q36 0 47 23q9 13 25 13q13 0 21.5 -10.5t5.5 -24.5
q-10 -39 -39.5 -62.5t-68.5 -23.5q-27 0 -50.5 11t-52.5 31q-26 17 -42.5 25t-33.5 8q-33 0 -45 -28q-3 -7 -10 -11.5t-15 -4.5q-14 0 -21.5 10t-4.5 23q10 40 41 64t73 24q27 0 49.5 -10z" />
    <glyph glyph-name="adieresis" unicode="&#xe4;" 
d="M383.5 500q44.5 -26 64.5 -70v40q0 22 15.5 37.5t37.5 15.5t38 -15.5t16 -37.5v-423q0 -22 -16 -37.5t-38 -15.5t-37.5 15.5t-15.5 37.5v54q-4 -24 -25.5 -49t-57.5 -42t-81 -17q-59 0 -115 30.5t-92.5 90.5t-36.5 146q0 84 36.5 144.5t93 91t114.5 30.5q55 0 99.5 -26z
M372.5 103q34.5 19 57.5 59t23 98q0 59 -23 98.5t-57.5 58t-71.5 18.5q-38 0 -74 -20t-58.5 -59.5t-22.5 -95.5t22.5 -96t58.5 -60t74 -20q37 0 71.5 19zM147 612q-17 17 -17 40t17 40t41 17t41 -17t17 -40t-17 -40t-41 -17t-41 17zM393 612q-17 17 -17 40t17 40t41 17
t41 -17t17 -40t-17 -40t-41 -17t-41 17z" />
    <glyph glyph-name="aring" unicode="&#xe5;" 
d="M383.5 500q44.5 -26 64.5 -70v40q0 22 15.5 37.5t37.5 15.5t38 -15.5t16 -37.5v-423q0 -22 -16 -37.5t-38 -15.5t-37.5 15.5t-15.5 37.5v54q-4 -24 -25.5 -49t-57.5 -42t-81 -17q-59 0 -115 30.5t-92.5 90.5t-36.5 146q0 84 36.5 144.5t93 91t114.5 30.5q55 0 99.5 -26z
M372.5 103q34.5 19 57.5 59t23 98q0 59 -23 98.5t-57.5 58t-71.5 18.5q-38 0 -74 -20t-58.5 -59.5t-22.5 -95.5t22.5 -96t58.5 -60t74 -20q37 0 71.5 19zM382 769q29 -29 29 -70q0 -40 -29.5 -69t-69.5 -29q-42 0 -71.5 29t-29.5 69q0 41 29.5 70t71.5 29q41 0 70 -29z
M288 723.5q-9 -9.5 -9 -23.5q0 -13 9 -22.5t22 -9.5t23 9.5t10 22.5q0 14 -9.5 23.5t-23.5 9.5q-13 0 -22 -9.5z" />
    <glyph glyph-name="ae" unicode="&#xe6;" horiz-adv-x="1004" 
d="M947.5 233.5q-16.5 -13.5 -49.5 -13.5l-335 1q8 -67 54 -103t110 -36q30 0 53 7t47 22q3 2 12.5 7t16 7t13.5 2q17 0 27 -10.5t10 -27.5q0 -23 -27 -45q-29 -23 -69 -36t-87 -13q-45 0 -88.5 13t-79.5 39q0 -22 -16 -37.5t-38 -15.5t-37.5 15.5t-15.5 37.5v54
q-4 -24 -25.5 -49t-57.5 -42t-81 -17q-59 0 -115 30.5t-92.5 90.5t-36.5 146q0 84 36.5 144.5t93 91t114.5 30.5q55 0 99.5 -26t64.5 -70v40q0 22 15.5 37.5t37.5 15.5q21 0 37 -15t17 -36q35 26 76.5 40t81.5 14q59 0 117.5 -30t96 -87t37.5 -132q0 -30 -16.5 -43.5z
M372.5 103q34.5 19 57.5 59t23 98q0 59 -23 98.5t-57.5 58t-71.5 18.5q-38 0 -74 -20t-58.5 -59.5t-22.5 -95.5t22.5 -96t58.5 -60t74 -20q37 0 71.5 19zM861 297q-6 67 -49.5 102t-98.5 35t-99.5 -35.5t-50.5 -101.5h298z" />
    <glyph glyph-name="ccedilla" unicode="&#xe7;" horiz-adv-x="539" 
d="M486 140.5q13 -11.5 13 -29.5q0 -14 -6.5 -23.5t-13 -16l-8.5 -8.5q-52 -53 -125 -65l-47 -49q38 -6 63.5 -30t25.5 -60q0 -44 -38.5 -67.5t-100.5 -23.5q-15 0 -22 1q-9 1 -15.5 6.5t-6.5 12.5q0 17 26 19q36 1 55 15t19 35q0 18 -11 28.5t-27 10.5q-4 0 -12 -2
q-10 -2 -13 -2q-13 0 -23 15q-6 10 -6 19q0 8 5 15l36 59q-56 11 -104.5 43.5t-79 88t-30.5 128.5q0 85 39.5 145t100 90.5t123.5 30.5q103 0 168 -68l10 -10t13 -17.5t5 -20.5q0 -18 -13 -29.5t-30 -11.5q-24 0 -43 19q-19 23 -47.5 34.5t-58.5 11.5q-43 0 -80 -20
t-59.5 -59.5t-22.5 -94.5q0 -54 22.5 -93.5t59.5 -59.5t80 -20q30 0 58.5 11.5t47.5 34.5q19 19 43 19q17 0 30 -11.5z" />
    <glyph glyph-name="egrave" unicode="&#xe8;" horiz-adv-x="590" 
d="M416.5 496q58.5 -30 96 -87t37.5 -132q0 -30 -16.5 -43.5t-49.5 -13.5l-335 1q8 -67 54 -103t110 -36q30 0 53 7t47 22q3 2 12.5 7t16 7t13.5 2q17 0 27 -10.5t10 -27.5q0 -23 -27 -45q-29 -23 -69 -36t-87 -13q-68 0 -130 29.5t-100.5 89t-38.5 145.5q0 85 39.5 145.5
t99.5 91t120 30.5q59 0 117.5 -30zM199.5 398.5q-44.5 -35.5 -50.5 -101.5h298q-6 67 -49.5 102t-98.5 35t-99.5 -35.5zM268 762.5q14 -10.5 20 -26.5l52 -124q4 -12 4 -16q0 -15 -11 -24t-26 -9q-17 0 -29 15l-85 104q-12 17 -12 35q0 23 16.5 39.5t39.5 16.5
q17 0 31 -10.5z" />
    <glyph glyph-name="eacute" unicode="&#xe9;" horiz-adv-x="590" 
d="M416.5 496q58.5 -30 96 -87t37.5 -132q0 -30 -16.5 -43.5t-49.5 -13.5l-335 1q8 -67 54 -103t110 -36q30 0 53 7t47 22q3 2 12.5 7t16 7t13.5 2q17 0 27 -10.5t10 -27.5q0 -23 -27 -45q-29 -23 -69 -36t-87 -13q-68 0 -130 29.5t-100.5 89t-38.5 145.5q0 85 39.5 145.5
t99.5 91t120 30.5q59 0 117.5 -30zM199.5 398.5q-44.5 -35.5 -50.5 -101.5h298q-6 67 -49.5 102t-98.5 35t-99.5 -35.5zM386.5 756.5q16.5 -16.5 16.5 -39.5q0 -18 -12 -35l-85 -104q-12 -15 -29 -15q-15 0 -26 9t-11 24q0 4 4 16l52 124q6 16 20 26.5t31 10.5
q23 0 39.5 -16.5z" />
    <glyph glyph-name="ecircumflex" unicode="&#xea;" horiz-adv-x="590" 
d="M416.5 496q58.5 -30 96 -87t37.5 -132q0 -30 -16.5 -43.5t-49.5 -13.5l-335 1q8 -67 54 -103t110 -36q30 0 53 7t47 22q3 2 12.5 7t16 7t13.5 2q17 0 27 -10.5t10 -27.5q0 -23 -27 -45q-29 -23 -69 -36t-87 -13q-68 0 -130 29.5t-100.5 89t-38.5 145.5q0 85 39.5 145.5
t99.5 91t120 30.5q59 0 117.5 -30zM199.5 398.5q-44.5 -35.5 -50.5 -101.5h298q-6 67 -49.5 102t-98.5 35t-99.5 -35.5zM327 794q11 -6 23 -22l79 -104q9 -12 9 -23q0 -12 -8 -20.5t-21 -8.5q-19 0 -39 23l-73 87l-73 -87q-19 -23 -38 -23q-13 0 -21 8.5t-8 20.5q0 11 9 23
l79 104q13 16 23 22t27 6h4q17 0 28 -6z" />
    <glyph glyph-name="edieresis" unicode="&#xeb;" horiz-adv-x="590" 
d="M416.5 496q58.5 -30 96 -87t37.5 -132q0 -30 -16.5 -43.5t-49.5 -13.5l-335 1q8 -67 54 -103t110 -36q30 0 53 7t47 22q3 2 12.5 7t16 7t13.5 2q17 0 27 -10.5t10 -27.5q0 -23 -27 -45q-29 -23 -69 -36t-87 -13q-68 0 -130 29.5t-100.5 89t-38.5 145.5q0 85 39.5 145.5
t99.5 91t120 30.5q59 0 117.5 -30zM199.5 398.5q-44.5 -35.5 -50.5 -101.5h298q-6 67 -49.5 102t-98.5 35t-99.5 -35.5zM133 612q-17 17 -17 40t17 40t41 17t41 -17t17 -40t-17 -40t-41 -17t-41 17zM379 612q-17 17 -17 40t17 40t41 17t41 -17t17 -40t-17 -40t-41 -17
t-41 17z" />
    <glyph glyph-name="igrave" unicode="&#xec;" horiz-adv-x="256" 
d="M165.5 507.5q15.5 -15.5 15.5 -37.5v-422q0 -22 -15.5 -37.5t-37.5 -15.5t-37.5 15.5t-15.5 37.5v422q0 22 15.5 37.5t37.5 15.5t37.5 -15.5zM99 762.5q14 -10.5 20 -26.5l52 -124q4 -12 4 -16q0 -15 -11 -24t-26 -9q-17 0 -29 15l-85 104q-12 17 -12 35q0 23 16.5 39.5
t39.5 16.5q17 0 31 -10.5z" />
    <glyph glyph-name="iacute" unicode="&#xed;" horiz-adv-x="256" 
d="M165.5 507.5q15.5 -15.5 15.5 -37.5v-422q0 -22 -15.5 -37.5t-37.5 -15.5t-37.5 15.5t-15.5 37.5v422q0 22 15.5 37.5t37.5 15.5t37.5 -15.5zM217.5 756.5q16.5 -16.5 16.5 -39.5q0 -18 -12 -35l-85 -104q-12 -15 -29 -15q-15 0 -26 9t-11 24q0 4 4 16l52 124
q6 16 20 26.5t31 10.5q23 0 39.5 -16.5z" />
    <glyph glyph-name="icircumflex" unicode="&#xee;" horiz-adv-x="256" 
d="M165.5 507.5q15.5 -15.5 15.5 -37.5v-422q0 -22 -15.5 -37.5t-37.5 -15.5t-37.5 15.5t-15.5 37.5v422q0 22 15.5 37.5t37.5 15.5t37.5 -15.5zM158 794q11 -6 23 -22l79 -104q9 -12 9 -23q0 -12 -8 -20.5t-21 -8.5q-19 0 -39 23l-73 87l-73 -87q-19 -23 -38 -23
q-13 0 -21 8.5t-8 20.5q0 11 9 23l79 104q13 16 23 22t27 6h4q17 0 28 -6z" />
    <glyph glyph-name="idieresis" unicode="&#xef;" horiz-adv-x="256" 
d="M165.5 507.5q15.5 -15.5 15.5 -37.5v-422q0 -22 -15.5 -37.5t-37.5 -15.5t-37.5 15.5t-15.5 37.5v422q0 22 15.5 37.5t37.5 15.5t37.5 -15.5zM-36 612q-17 17 -17 40t17 40t41 17t41 -17t17 -40t-17 -40t-41 -17t-41 17zM210 612q-17 17 -17 40t17 40t41 17t41 -17
t17 -40t-17 -40t-41 -17t-41 17z" />
    <glyph glyph-name="eth" unicode="&#xf0;" horiz-adv-x="597" 
d="M537 261q0 -90 -33.5 -151t-90 -90.5t-125.5 -29.5q-68 0 -124.5 29.5t-90 89.5t-33.5 148q0 82 30 141t83.5 90.5t124.5 31.5q70 0 102 -32l-50 67l-58 -8q-20 -3 -35.5 9t-15.5 32q0 17 11 28.5t27 13.5l14 2q-9 12 -9 27q0 19 14 33t33 14q22 0 38 -19l31 -41l48 7
q20 3 35 -9t15 -32q0 -17 -11 -28.5t-27 -13.5h-4q101 -151 101 -309zM389.5 122q41.5 41 41.5 135q0 85 -39.5 128t-104.5 43q-64 0 -102.5 -43t-38.5 -128q0 -94 41.5 -135t99.5 -41q61 0 102.5 41z" />
    <glyph glyph-name="ntilde" unicode="&#xf1;" horiz-adv-x="597" 
d="M482 469q55 -56 55 -175v-246q0 -22 -15 -37.5t-37 -15.5t-37.5 15.5t-15.5 37.5v246q0 71 -34.5 105.5t-87.5 34.5q-44 0 -75.5 -22t-48 -52t-20.5 -55v-257q0 -22 -15.5 -37.5t-37.5 -15.5t-37.5 15.5t-15.5 37.5v421q0 22 15.5 38t37.5 16t37.5 -16t15.5 -38v-66
q3 21 25 50t62 50.5t92 21.5q82 0 137 -56zM270.5 727q22.5 -10 50.5 -28q24 -15 39 -22t31 -7q36 0 47 23q9 13 25 13q13 0 21.5 -10.5t5.5 -24.5q-10 -39 -39.5 -62.5t-68.5 -23.5q-27 0 -50.5 11t-52.5 31q-26 17 -42.5 25t-33.5 8q-33 0 -45 -28q-3 -7 -10 -11.5
t-15 -4.5q-14 0 -21.5 10t-4.5 23q10 40 41 64t73 24q27 0 49.5 -10z" />
    <glyph glyph-name="ograve" unicode="&#xf2;" horiz-adv-x="607" 
d="M425 495q61 -31 101.5 -91.5t40.5 -144.5t-40.5 -144.5t-101.5 -91t-122 -30.5t-122 30.5t-101 91t-40 144.5t40 144.5t101 91.5t122 31t122 -31zM226.5 413.5q-36.5 -20.5 -59 -60.5t-22.5 -94t23 -93.5t59 -60t76 -20.5t76.5 20.5t59.5 60t23 93.5t-23 94t-59.5 60.5
t-76.5 20.5t-76.5 -20.5zM274 762.5q14 -10.5 20 -26.5l52 -124q4 -12 4 -16q0 -15 -11 -24t-26 -9q-17 0 -29 15l-85 104q-12 17 -12 35q0 23 16.5 39.5t39.5 16.5q17 0 31 -10.5z" />
    <glyph glyph-name="oacute" unicode="&#xf3;" horiz-adv-x="607" 
d="M425 495q61 -31 101.5 -91.5t40.5 -144.5t-40.5 -144.5t-101.5 -91t-122 -30.5t-122 30.5t-101 91t-40 144.5t40 144.5t101 91.5t122 31t122 -31zM226.5 413.5q-36.5 -20.5 -59 -60.5t-22.5 -94t23 -93.5t59 -60t76 -20.5t76.5 20.5t59.5 60t23 93.5t-23 94t-59.5 60.5
t-76.5 20.5t-76.5 -20.5zM392.5 756.5q16.5 -16.5 16.5 -39.5q0 -18 -12 -35l-85 -104q-12 -15 -29 -15q-15 0 -26 9t-11 24q0 4 4 16l52 124q6 16 20 26.5t31 10.5q23 0 39.5 -16.5z" />
    <glyph glyph-name="ocircumflex" unicode="&#xf4;" horiz-adv-x="607" 
d="M425 495q61 -31 101.5 -91.5t40.5 -144.5t-40.5 -144.5t-101.5 -91t-122 -30.5t-122 30.5t-101 91t-40 144.5t40 144.5t101 91.5t122 31t122 -31zM226.5 413.5q-36.5 -20.5 -59 -60.5t-22.5 -94t23 -93.5t59 -60t76 -20.5t76.5 20.5t59.5 60t23 93.5t-23 94t-59.5 60.5
t-76.5 20.5t-76.5 -20.5zM333 794q11 -6 23 -22l79 -104q9 -12 9 -23q0 -12 -8 -20.5t-21 -8.5q-19 0 -39 23l-73 87l-73 -87q-19 -23 -38 -23q-13 0 -21 8.5t-8 20.5q0 11 9 23l79 104q13 16 23 22t27 6h4q17 0 28 -6z" />
    <glyph glyph-name="otilde" unicode="&#xf5;" horiz-adv-x="607" 
d="M425 495q61 -31 101.5 -91.5t40.5 -144.5t-40.5 -144.5t-101.5 -91t-122 -30.5t-122 30.5t-101 91t-40 144.5t40 144.5t101 91.5t122 31t122 -31zM226.5 413.5q-36.5 -20.5 -59 -60.5t-22.5 -94t23 -93.5t59 -60t76 -20.5t76.5 20.5t59.5 60t23 93.5t-23 94t-59.5 60.5
t-76.5 20.5t-76.5 -20.5zM274.5 727q22.5 -10 50.5 -28q24 -15 39 -22t31 -7q36 0 47 23q9 13 25 13q13 0 21.5 -10.5t5.5 -24.5q-10 -39 -39.5 -62.5t-68.5 -23.5q-27 0 -50.5 11t-52.5 31q-26 17 -42.5 25t-33.5 8q-33 0 -45 -28q-3 -7 -10 -11.5t-15 -4.5q-14 0 -21.5 10
t-4.5 23q10 40 41 64t73 24q27 0 49.5 -10z" />
    <glyph glyph-name="odieresis" unicode="&#xf6;" horiz-adv-x="607" 
d="M425 495q61 -31 101.5 -91.5t40.5 -144.5t-40.5 -144.5t-101.5 -91t-122 -30.5t-122 30.5t-101 91t-40 144.5t40 144.5t101 91.5t122 31t122 -31zM226.5 413.5q-36.5 -20.5 -59 -60.5t-22.5 -94t23 -93.5t59 -60t76 -20.5t76.5 20.5t59.5 60t23 93.5t-23 94t-59.5 60.5
t-76.5 20.5t-76.5 -20.5zM139 612q-17 17 -17 40t17 40t41 17t41 -17t17 -40t-17 -40t-41 -17t-41 17zM385 612q-17 17 -17 40t17 40t41 17t41 -17t17 -40t-17 -40t-41 -17t-41 17z" />
    <glyph glyph-name="divide" unicode="&#xf7;" horiz-adv-x="458" 
d="M184.5 398.5q-18.5 18.5 -18.5 44.5t18.5 44t44.5 18q25 0 43 -18.5t18 -43.5q0 -26 -18 -44.5t-43 -18.5q-26 0 -44.5 18.5zM399 308q14 -13 14 -31t-14 -30.5t-33 -12.5h-275q-19 0 -32.5 12.5t-13.5 30.5t13.5 31t32.5 13h275q19 0 33 -13zM184.5 68.5
q-18.5 18.5 -18.5 44.5t18.5 44t44.5 18q25 0 43 -18.5t18 -43.5q0 -26 -18 -44.5t-43 -18.5q-26 0 -44.5 18.5z" />
    <glyph glyph-name="oslash" unicode="&#xf8;" horiz-adv-x="607" 
d="M536 387.5q31 -55.5 31 -128.5q0 -84 -40.5 -144.5t-101.5 -91t-122 -30.5q-37 0 -75 12l-16 -33q-6 -12 -17.5 -20t-26.5 -8q-20 0 -34 14.5t-14 34.5q0 13 5 21l16 34q-46 35 -73.5 88.5t-27.5 122.5q0 84 40 144.5t101 91.5t122 31q28 0 63 -8l18 38q6 12 17.5 20
t26.5 8q20 0 34 -14.5t14 -34.5q0 -14 -4 -21l-18 -37q51 -34 82 -89.5zM185 140l140 292q-14 2 -22 2q-40 0 -76.5 -20.5t-59 -60.5t-22.5 -94q0 -71 40 -119zM379.5 105.5q36.5 20.5 59.5 60t23 93.5q0 80 -50 130l-144 -300q16 -4 35 -4q40 0 76.5 20.5z" />
    <glyph glyph-name="ugrave" unicode="&#xf9;" horiz-adv-x="597" 
d="M115 49q-55 56 -55 175v246q0 22 15 37.5t37 15.5t37.5 -15.5t15.5 -37.5v-246q0 -71 34.5 -105.5t87.5 -34.5q44 0 75.5 22t48 52t20.5 55v257q0 22 15.5 37.5t37.5 15.5t37.5 -15.5t15.5 -37.5v-421q0 -22 -15.5 -38t-37.5 -16t-37.5 16t-15.5 38v66q-3 -21 -25 -50
t-62 -50.5t-92 -21.5q-82 0 -137 56zM270 762.5q14 -10.5 20 -26.5l52 -124q4 -12 4 -16q0 -15 -11 -24t-26 -9q-17 0 -29 15l-85 104q-12 17 -12 35q0 23 16.5 39.5t39.5 16.5q17 0 31 -10.5z" />
    <glyph glyph-name="uacute" unicode="&#xfa;" horiz-adv-x="597" 
d="M115 49q-55 56 -55 175v246q0 22 15 37.5t37 15.5t37.5 -15.5t15.5 -37.5v-246q0 -71 34.5 -105.5t87.5 -34.5q44 0 75.5 22t48 52t20.5 55v257q0 22 15.5 37.5t37.5 15.5t37.5 -15.5t15.5 -37.5v-421q0 -22 -15.5 -38t-37.5 -16t-37.5 16t-15.5 38v66q-3 -21 -25 -50
t-62 -50.5t-92 -21.5q-82 0 -137 56zM388.5 756.5q16.5 -16.5 16.5 -39.5q0 -18 -12 -35l-85 -104q-12 -15 -29 -15q-15 0 -26 9t-11 24q0 4 4 16l52 124q6 16 20 26.5t31 10.5q23 0 39.5 -16.5z" />
    <glyph glyph-name="ucircumflex" unicode="&#xfb;" horiz-adv-x="597" 
d="M115 49q-55 56 -55 175v246q0 22 15 37.5t37 15.5t37.5 -15.5t15.5 -37.5v-246q0 -71 34.5 -105.5t87.5 -34.5q44 0 75.5 22t48 52t20.5 55v257q0 22 15.5 37.5t37.5 15.5t37.5 -15.5t15.5 -37.5v-421q0 -22 -15.5 -38t-37.5 -16t-37.5 16t-15.5 38v66q-3 -21 -25 -50
t-62 -50.5t-92 -21.5q-82 0 -137 56zM329 794q11 -6 23 -22l79 -104q9 -12 9 -23q0 -12 -8 -20.5t-21 -8.5q-19 0 -39 23l-73 87l-73 -87q-19 -23 -38 -23q-13 0 -21 8.5t-8 20.5q0 11 9 23l79 104q13 16 23 22t27 6h4q17 0 28 -6z" />
    <glyph glyph-name="udieresis" unicode="&#xfc;" horiz-adv-x="597" 
d="M115 49q-55 56 -55 175v246q0 22 15 37.5t37 15.5t37.5 -15.5t15.5 -37.5v-246q0 -71 34.5 -105.5t87.5 -34.5q44 0 75.5 22t48 52t20.5 55v257q0 22 15.5 37.5t37.5 15.5t37.5 -15.5t15.5 -37.5v-421q0 -22 -15.5 -38t-37.5 -16t-37.5 16t-15.5 38v66q-3 -21 -25 -50
t-62 -50.5t-92 -21.5q-82 0 -137 56zM135 612q-17 17 -17 40t17 40t41 17t41 -17t17 -40t-17 -40t-41 -17t-41 17zM381 612q-17 17 -17 40t17 40t41 17t41 -17t17 -40t-17 -40t-41 -17t-41 17z" />
    <glyph glyph-name="yacute" unicode="&#xfd;" horiz-adv-x="559" 
d="M515 509q14 -14 14 -34q0 -10 -6 -24l-267 -610q-8 -18 -21 -27t-29 -9q-21 0 -34 14t-13 34q0 10 6 24l62 143l-191 431q-6 14 -6 24q0 20 14 34t35 14q16 0 29 -9t21 -27l150 -349l151 349q8 18 21 27t29 9q21 0 35 -14zM366.5 756.5q16.5 -16.5 16.5 -39.5
q0 -18 -12 -35l-85 -104q-12 -15 -29 -15q-15 0 -26 9t-11 24q0 4 4 16l52 124q6 16 20 26.5t31 10.5q23 0 39.5 -16.5z" />
    <glyph glyph-name="thorn" unicode="&#xfe;" 
d="M445.5 495.5q56.5 -30.5 93 -91t36.5 -144.5q0 -86 -36.5 -146t-92.5 -90.5t-115 -30.5q-45 0 -81 17t-57.5 42t-25.5 49v-54q0 -7 -1 -10v-180q0 -22 -15.5 -37.5t-37.5 -15.5t-37.5 15.5t-15.5 37.5v804q0 22 16 37.5t38 15.5q21 0 36.5 -15.5t15.5 -37.5v-181
q1 -3 1 -10v-40q20 44 64.5 70t99.5 26q58 0 114.5 -30.5zM388 104q36 20 58.5 60t22.5 96t-22.5 95.5t-58.5 59.5t-74 20q-37 0 -71.5 -18.5t-57.5 -58t-23 -98.5q0 -58 23 -98t57.5 -59t71.5 -19q38 0 74 20z" />
    <glyph glyph-name="ydieresis" unicode="&#xff;" horiz-adv-x="559" 
d="M515 509q14 -14 14 -34q0 -10 -6 -24l-267 -610q-8 -18 -21 -27t-29 -9q-21 0 -34 14t-13 34q0 10 6 24l62 143l-191 431q-6 14 -6 24q0 20 14 34t35 14q16 0 29 -9t21 -27l150 -349l151 349q8 18 21 27t29 9q21 0 35 -14zM113 612q-17 17 -17 40t17 40t41 17t41 -17
t17 -40t-17 -40t-41 -17t-41 17zM359 612q-17 17 -17 40t17 40t41 17t41 -17t17 -40t-17 -40t-41 -17t-41 17z" />
    <glyph glyph-name="Amacron" unicode="&#x100;" horiz-adv-x="707" 
d="M672 46q0 -20 -15.5 -35t-37.5 -15q-18 0 -31.5 9.5t-20.5 24.5l-61 143h-305l-61 -143q-7 -15 -20.5 -24.5t-31.5 -9.5q-22 0 -37.5 15t-15.5 35q0 15 7 29l259 589q17 40 52 40q36 0 53 -40l259 -589q7 -14 7 -29zM238 259h231l-116 270zM531.5 867q13.5 -13 13.5 -32
t-13.5 -32.5t-32.5 -13.5h-291q-19 0 -32.5 13.5t-13.5 32.5t13.5 32t32.5 13h291q19 0 32.5 -13z" />
    <glyph glyph-name="amacron" unicode="&#x101;" 
d="M383.5 500q44.5 -26 64.5 -70v40q0 22 15.5 37.5t37.5 15.5t38 -15.5t16 -37.5v-423q0 -22 -16 -37.5t-38 -15.5t-37.5 15.5t-15.5 37.5v54q-4 -24 -25.5 -49t-57.5 -42t-81 -17q-59 0 -115 30.5t-92.5 90.5t-36.5 146q0 84 36.5 144.5t93 91t114.5 30.5q55 0 99.5 -26z
M372.5 103q34.5 19 57.5 59t23 98q0 59 -23 98.5t-57.5 58t-71.5 18.5q-38 0 -74 -20t-58.5 -59.5t-22.5 -95.5t22.5 -96t58.5 -60t74 -20q37 0 71.5 19zM489.5 687q13.5 -13 13.5 -32t-13.5 -32.5t-32.5 -13.5h-291q-19 0 -32.5 13.5t-13.5 32.5t13.5 32t32.5 13h291
q19 0 32.5 -13z" />
    <glyph glyph-name="Abreve" unicode="&#x102;" horiz-adv-x="707" 
d="M672 46q0 -20 -15.5 -35t-37.5 -15q-18 0 -31.5 9.5t-20.5 24.5l-61 143h-305l-61 -143q-7 -15 -20.5 -24.5t-31.5 -9.5q-22 0 -37.5 15t-15.5 35q0 15 7 29l259 589q17 40 52 40q36 0 53 -40l259 -589q7 -14 7 -29zM238 259h231l-116 270zM507 940.5q12 -12.5 12 -29.5
q0 -3 -2 -13q-14 -55 -56.5 -91t-107.5 -36t-107.5 36t-56.5 91q-2 10 -2 13q0 17 12 29.5t30 12.5q14 0 24 -7t15 -19q10 -27 33 -43.5t52 -16.5q30 0 53 16.5t32 43.5q5 11 15.5 18.5t23.5 7.5q18 0 30 -12.5z" />
    <glyph glyph-name="abreve" unicode="&#x103;" 
d="M383.5 500q44.5 -26 64.5 -70v40q0 22 15.5 37.5t37.5 15.5t38 -15.5t16 -37.5v-423q0 -22 -16 -37.5t-38 -15.5t-37.5 15.5t-15.5 37.5v54q-4 -24 -25.5 -49t-57.5 -42t-81 -17q-59 0 -115 30.5t-92.5 90.5t-36.5 146q0 84 36.5 144.5t93 91t114.5 30.5q55 0 99.5 -26z
M372.5 103q34.5 19 57.5 59t23 98q0 59 -23 98.5t-57.5 58t-71.5 18.5q-38 0 -74 -20t-58.5 -59.5t-22.5 -95.5t22.5 -96t58.5 -60t74 -20q37 0 71.5 19zM465 760.5q12 -12.5 12 -29.5q0 -3 -2 -13q-14 -55 -56.5 -91t-107.5 -36t-107.5 36t-56.5 91q-2 10 -2 13
q0 17 12 29.5t30 12.5q14 0 24 -7t15 -19q10 -27 33 -43.5t52 -16.5q30 0 53 16.5t32 43.5q5 11 15.5 18.5t23.5 7.5q18 0 30 -12.5z" />
    <glyph glyph-name="Aogonek" unicode="&#x104;" horiz-adv-x="707" 
d="M672 41q0 -31 -20.5 -52t-59.5 -44q-30 -19 -44.5 -32t-14.5 -30q0 -18 15 -28t38 -10q20 0 31 -7.5t11 -20.5q0 -16 -20 -23t-48 -7q-51 0 -89 21t-38 67q0 32 19.5 54t57.5 48q28 20 40 31.5t12 26.5q0 3 -2 11l-54 127h-305l-61 -143q-7 -15 -20.5 -24.5t-31.5 -9.5
q-22 0 -37.5 15t-15.5 35q0 15 7 29l259 589q17 40 52 40q36 0 53 -40l259 -589q4 -8 5 -13q2 -7 2 -21zM238 259h231l-116 270z" />
    <glyph glyph-name="aogonek" unicode="&#x105;" 
d="M539 507.5q16 -15.5 16 -37.5v-423v-6q-3 -29 -21.5 -47.5t-53.5 -41.5q-30 -18 -44.5 -32.5t-14.5 -34.5q0 -21 16 -30.5t39 -9.5q39 0 39 -25q0 -33 -78 -33q-49 0 -82.5 20.5t-33.5 65.5q0 33 17.5 53.5t50.5 42.5q31 22 45 38.5t14 41.5v52q-4 -24 -25.5 -49
t-57.5 -42t-81 -17q-59 0 -115 30.5t-92.5 90.5t-36.5 146q0 84 36.5 144.5t93 91t114.5 30.5q55 0 99.5 -26t64.5 -70v40q0 22 15.5 37.5t37.5 15.5t38 -15.5zM372.5 103q34.5 19 57.5 59t23 98q0 59 -23 98.5t-57.5 58t-71.5 18.5q-38 0 -74 -20t-58.5 -59.5t-22.5 -95.5
t22.5 -96t58.5 -60t74 -20q37 0 71.5 19z" />
    <glyph glyph-name="Cacute" unicode="&#x106;" horiz-adv-x="658" 
d="M608.5 141.5q14.5 -13.5 14.5 -35.5q0 -18 -11.5 -32.5t-35.5 -30.5q-73 -50 -174 -50q-89 0 -170 46t-131.5 127.5t-50.5 183.5t50.5 183.5t131.5 127.5t170 46q101 0 174 -50q24 -16 35.5 -30.5t11.5 -32.5q0 -22 -14.5 -35.5t-35.5 -13.5q-14 0 -24.5 5t-23.5 15
q-20 16 -52 27.5t-70 11.5q-62 0 -117.5 -33.5t-89 -91.5t-33.5 -129t33.5 -129t89 -91.5t117.5 -33.5q38 0 70 11.5t52 27.5q13 10 23.5 15t24.5 5q21 0 35.5 -13.5zM477.5 936.5q16.5 -16.5 16.5 -39.5q0 -18 -12 -35l-85 -104q-12 -15 -29 -15q-15 0 -26 9t-11 24
q0 4 4 16l52 124q6 16 20 26.5t31 10.5q23 0 39.5 -16.5z" />
    <glyph glyph-name="cacute" unicode="&#x107;" horiz-adv-x="539" 
d="M486 140.5q13 -11.5 13 -29.5q0 -14 -6.5 -23.5t-13 -16l-8.5 -8.5q-65 -68 -168 -68q-63 0 -123.5 30.5t-100 90.5t-39.5 144q0 85 39.5 145t100 90.5t123.5 30.5q103 0 168 -68l10 -10t13 -17.5t5 -20.5q0 -18 -13 -29.5t-30 -11.5q-24 0 -43 19q-19 23 -47.5 34.5
t-58.5 11.5q-43 0 -80 -20t-59.5 -59.5t-22.5 -94.5q0 -54 22.5 -93.5t59.5 -59.5t80 -20q30 0 58.5 11.5t47.5 34.5q19 19 43 19q17 0 30 -11.5zM392.5 756.5q16.5 -16.5 16.5 -39.5q0 -18 -12 -35l-85 -104q-12 -15 -29 -15q-15 0 -26 9t-11 24q0 4 4 16l52 124
q6 16 20 26.5t31 10.5q23 0 39.5 -16.5z" />
    <glyph glyph-name="Cdotaccent" unicode="&#x10a;" horiz-adv-x="658" 
d="M608.5 141.5q14.5 -13.5 14.5 -35.5q0 -18 -11.5 -32.5t-35.5 -30.5q-73 -50 -174 -50q-89 0 -170 46t-131.5 127.5t-50.5 183.5t50.5 183.5t131.5 127.5t170 46q101 0 174 -50q24 -16 35.5 -30.5t11.5 -32.5q0 -22 -14.5 -35.5t-35.5 -13.5q-14 0 -24.5 5t-23.5 15
q-20 16 -52 27.5t-70 11.5q-62 0 -117.5 -33.5t-89 -91.5t-33.5 -129t33.5 -129t89 -91.5t117.5 -33.5q38 0 70 11.5t52 27.5q13 10 23.5 15t24.5 5q21 0 35.5 -13.5zM349.5 844.5q-16.5 16.5 -16.5 38.5q0 23 16.5 39t38.5 16q23 0 39 -16t16 -39q0 -22 -16 -38.5
t-39 -16.5q-22 0 -38.5 16.5z" />
    <glyph glyph-name="cdotaccent" unicode="&#x10b;" horiz-adv-x="539" 
d="M486 140.5q13 -11.5 13 -29.5q0 -14 -6.5 -23.5t-13 -16l-8.5 -8.5q-65 -68 -168 -68q-63 0 -123.5 30.5t-100 90.5t-39.5 144q0 85 39.5 145t100 90.5t123.5 30.5q103 0 168 -68l10 -10t13 -17.5t5 -20.5q0 -18 -13 -29.5t-30 -11.5q-24 0 -43 19q-19 23 -47.5 34.5
t-58.5 11.5q-43 0 -80 -20t-59.5 -59.5t-22.5 -94.5q0 -54 22.5 -93.5t59.5 -59.5t80 -20q30 0 58.5 11.5t47.5 34.5q19 19 43 19q17 0 30 -11.5zM264.5 664.5q-16.5 16.5 -16.5 38.5q0 23 16.5 39t38.5 16q23 0 39 -16t16 -39q0 -22 -16 -38.5t-39 -16.5q-22 0 -38.5 16.5z
" />
    <glyph glyph-name="Ccaron" unicode="&#x10c;" horiz-adv-x="658" 
d="M608.5 141.5q14.5 -13.5 14.5 -35.5q0 -18 -11.5 -32.5t-35.5 -30.5q-73 -50 -174 -50q-89 0 -170 46t-131.5 127.5t-50.5 183.5t50.5 183.5t131.5 127.5t170 46q101 0 174 -50q24 -16 35.5 -30.5t11.5 -32.5q0 -22 -14.5 -35.5t-35.5 -13.5q-14 0 -24.5 5t-23.5 15
q-20 16 -52 27.5t-70 11.5q-62 0 -117.5 -33.5t-89 -91.5t-33.5 -129t33.5 -129t89 -91.5t117.5 -33.5q38 0 70 11.5t52 27.5q13 10 23.5 15t24.5 5q21 0 35.5 -13.5zM386 796q-17 0 -27 6t-23 22l-79 104q-9 12 -9 23q0 12 8 20.5t21 8.5q19 0 38 -23l73 -87l73 87
q20 23 39 23q13 0 21 -8.5t8 -20.5q0 -11 -9 -23l-79 -104q-12 -16 -23 -22t-28 -6h-4z" />
    <glyph glyph-name="ccaron" unicode="&#x10d;" horiz-adv-x="539" 
d="M486 140.5q13 -11.5 13 -29.5q0 -14 -6.5 -23.5t-13 -16l-8.5 -8.5q-65 -68 -168 -68q-63 0 -123.5 30.5t-100 90.5t-39.5 144q0 85 39.5 145t100 90.5t123.5 30.5q103 0 168 -68l10 -10t13 -17.5t5 -20.5q0 -18 -13 -29.5t-30 -11.5q-24 0 -43 19q-19 23 -47.5 34.5
t-58.5 11.5q-43 0 -80 -20t-59.5 -59.5t-22.5 -94.5q0 -54 22.5 -93.5t59.5 -59.5t80 -20q30 0 58.5 11.5t47.5 34.5q19 19 43 19q17 0 30 -11.5zM301 616q-17 0 -27 6t-23 22l-79 104q-9 12 -9 23q0 12 8 20.5t21 8.5q19 0 38 -23l73 -87l73 87q20 23 39 23q13 0 21 -8.5
t8 -20.5q0 -11 -9 -23l-79 -104q-12 -16 -23 -22t-28 -6h-4z" />
    <glyph glyph-name="Dcaron" unicode="&#x10e;" horiz-adv-x="662" 
d="M450.5 659q80.5 -41 126 -119.5t45.5 -187.5q0 -111 -45.5 -190.5t-125.5 -120.5t-183 -41h-149q-25 0 -42 17t-17 42v582q0 26 17 42.5t42 16.5h149q102 0 182.5 -41zM450.5 157q63.5 65 63.5 195q0 128 -64 192t-182 64h-100v-516h100q119 0 182.5 65zM337 796
q-17 0 -27 6t-23 22l-79 104q-9 12 -9 23q0 12 8 20.5t21 8.5q19 0 38 -23l73 -87l73 87q20 23 39 23q13 0 21 -8.5t8 -20.5q0 -11 -9 -23l-79 -104q-12 -16 -23 -22t-28 -6h-4z" />
    <glyph glyph-name="dcaron" unicode="&#x10f;" horiz-adv-x="756" 
d="M539 698.5q16 -15.5 16 -37.5v-614q0 -22 -16 -37.5t-38 -15.5t-37.5 15.5t-15.5 37.5v54q-4 -24 -25.5 -49t-57.5 -42t-81 -17q-59 0 -115 30.5t-92.5 90.5t-36.5 146q0 84 36.5 144.5t93 91t114.5 30.5q55 0 99.5 -26t64.5 -70v40q0 7 1 10v181q0 22 15.5 37.5
t36.5 15.5q22 0 38 -15.5zM372.5 103q34.5 19 57.5 59t23 98q0 59 -23 98.5t-57.5 58t-71.5 18.5q-38 0 -74 -20t-58.5 -59.5t-22.5 -95.5t22.5 -96t58.5 -60t74 -20q37 0 71.5 19zM734.5 689.5q16.5 -16.5 16.5 -39.5q0 -18 -12 -35l-85 -104q-12 -15 -29 -15q-15 0 -26 9
t-11 24q0 4 4 16l52 124q6 16 20 26.5t31 10.5q23 0 39.5 -16.5z" />
    <glyph glyph-name="Dcroat" unicode="&#x110;" horiz-adv-x="720" 
d="M508.5 659q80.5 -41 126 -119.5t45.5 -187.5q0 -111 -45.5 -190.5t-125.5 -120.5t-183 -41h-149q-25 0 -42 17t-17 42v243h-15q-17 0 -30 12.5t-13 30.5t13 31t30 13h15v252q0 26 17 42.5t42 16.5h149q102 0 182.5 -41zM508.5 157q63.5 65 63.5 195q0 128 -64 192
t-182 64h-100v-219h131q17 0 30 -13t13 -31t-13 -30.5t-30 -12.5h-131v-210h100q119 0 182.5 65z" />
    <glyph glyph-name="dcroat" unicode="&#x111;" horiz-adv-x="630" 
d="M612 632q13 -12 13 -29t-13 -29.5t-31 -12.5h-26v-514q0 -22 -16 -37.5t-38 -15.5t-37.5 15.5t-15.5 37.5v54q-4 -24 -25.5 -49t-57.5 -42t-81 -17q-59 0 -115 30.5t-92.5 90.5t-36.5 146q0 84 36.5 144.5t93 91t114.5 30.5q55 0 99.5 -26t64.5 -70v40q0 7 1 10v81h-149
q-18 0 -31 12.5t-13 29.5t13 29t31 12h149v17q0 22 15.5 37.5t36.5 15.5q22 0 38 -15.5t16 -37.5v-17h26q18 0 31 -12zM372.5 103q34.5 19 57.5 59t23 98q0 59 -23 98.5t-57.5 58t-71.5 18.5q-38 0 -74 -20t-58.5 -59.5t-22.5 -95.5t22.5 -96t58.5 -60t74 -20q37 0 71.5 19z
" />
    <glyph glyph-name="Emacron" unicode="&#x112;" horiz-adv-x="558" 
d="M475 95q20 0 34 -14t14 -33q0 -20 -14 -34t-34 -14h-356q-25 0 -42 17t-17 42v582q0 26 17 42.5t42 16.5h346q20 0 34 -14t14 -33q0 -20 -14 -34t-34 -14h-297v-208h204q19 0 33 -13.5t14 -31.5q0 -19 -14 -32.5t-33 -13.5h-204v-211h307zM474.5 867q13.5 -13 13.5 -32
t-13.5 -32.5t-32.5 -13.5h-291q-19 0 -32.5 13.5t-13.5 32.5t13.5 32t32.5 13h291q19 0 32.5 -13z" />
    <glyph glyph-name="emacron" unicode="&#x113;" horiz-adv-x="590" 
d="M416.5 496q58.5 -30 96 -87t37.5 -132q0 -30 -16.5 -43.5t-49.5 -13.5l-335 1q8 -67 54 -103t110 -36q30 0 53 7t47 22q3 2 12.5 7t16 7t13.5 2q17 0 27 -10.5t10 -27.5q0 -23 -27 -45q-29 -23 -69 -36t-87 -13q-68 0 -130 29.5t-100.5 89t-38.5 145.5q0 85 39.5 145.5
t99.5 91t120 30.5q59 0 117.5 -30zM199.5 398.5q-44.5 -35.5 -50.5 -101.5h298q-6 67 -49.5 102t-98.5 35t-99.5 -35.5zM475.5 687q13.5 -13 13.5 -32t-13.5 -32.5t-32.5 -13.5h-291q-19 0 -32.5 13.5t-13.5 32.5t13.5 32t32.5 13h291q19 0 32.5 -13z" />
    <glyph glyph-name="Edotaccent" unicode="&#x116;" horiz-adv-x="558" 
d="M475 95q20 0 34 -14t14 -33q0 -20 -14 -34t-34 -14h-356q-25 0 -42 17t-17 42v582q0 26 17 42.5t42 16.5h346q20 0 34 -14t14 -33q0 -20 -14 -34t-34 -14h-297v-208h204q19 0 33 -13.5t14 -31.5q0 -19 -14 -32.5t-33 -13.5h-204v-211h307zM257.5 844.5
q-16.5 16.5 -16.5 38.5q0 23 16.5 39t38.5 16q23 0 39 -16t16 -39q0 -22 -16 -38.5t-39 -16.5q-22 0 -38.5 16.5z" />
    <glyph glyph-name="edotaccent" unicode="&#x117;" horiz-adv-x="590" 
d="M416.5 496q58.5 -30 96 -87t37.5 -132q0 -30 -16.5 -43.5t-49.5 -13.5l-335 1q8 -67 54 -103t110 -36q30 0 53 7t47 22q3 2 12.5 7t16 7t13.5 2q17 0 27 -10.5t10 -27.5q0 -23 -27 -45q-29 -23 -69 -36t-87 -13q-68 0 -130 29.5t-100.5 89t-38.5 145.5q0 85 39.5 145.5
t99.5 91t120 30.5q59 0 117.5 -30zM199.5 398.5q-44.5 -35.5 -50.5 -101.5h298q-6 67 -49.5 102t-98.5 35t-99.5 -35.5zM258.5 664.5q-16.5 16.5 -16.5 38.5q0 23 16.5 39t38.5 16q23 0 39 -16t16 -39q0 -22 -16 -38.5t-39 -16.5q-22 0 -38.5 16.5z" />
    <glyph glyph-name="Eogonek" unicode="&#x118;" horiz-adv-x="572" 
d="M475 95q20 0 34 -14t14 -33q0 -20 -14 -34t-34 -14h-356q-25 0 -42 17t-17 42v582q0 26 17 42.5t42 16.5h346q20 0 34 -14t14 -33q0 -20 -14 -34t-34 -14h-297v-208h204q19 0 33 -13.5t14 -31.5q0 -19 -14 -32.5t-33 -13.5h-204v-211h307zM387 -39q-42 -28 -42 -66
q0 -24 17 -37t42 -13q35 0 35 -25q0 -33 -78 -33q-50 0 -83 21.5t-33 70.5q0 40 23.5 67.5t53 40.5t48.5 13h108q-49 -11 -91 -39z" />
    <glyph glyph-name="eogonek" unicode="&#x119;" horiz-adv-x="590" 
d="M533.5 233.5q-16.5 -13.5 -49.5 -13.5l-335 1q8 -67 54 -103t110 -36q30 0 53 7t47 22q3 2 12.5 7t16 7t13.5 2q17 0 27 -10.5t10 -27.5q0 -23 -27 -45q-40 -33 -103 -45q-49 -11 -90 -38.5t-41 -65.5q0 -24 17 -37t42 -13q35 0 35 -25q0 -33 -78 -33q-50 0 -83 21.5
t-33 70.5q0 40 22.5 67t51.5 40t49 14q-91 16 -152.5 82.5t-61.5 176.5q0 85 39.5 145.5t99.5 91t120 30.5q59 0 117.5 -30t96 -87t37.5 -132q0 -30 -16.5 -43.5zM447 297q-6 67 -49.5 102t-98.5 35t-99.5 -35.5t-50.5 -101.5h298z" />
    <glyph glyph-name="Ecaron" unicode="&#x11a;" horiz-adv-x="558" 
d="M475 95q20 0 34 -14t14 -33q0 -20 -14 -34t-34 -14h-356q-25 0 -42 17t-17 42v582q0 26 17 42.5t42 16.5h346q20 0 34 -14t14 -33q0 -20 -14 -34t-34 -14h-297v-208h204q19 0 33 -13.5t14 -31.5q0 -19 -14 -32.5t-33 -13.5h-204v-211h307zM294 796q-17 0 -27 6t-23 22
l-79 104q-9 12 -9 23q0 12 8 20.5t21 8.5q19 0 38 -23l73 -87l73 87q20 23 39 23q13 0 21 -8.5t8 -20.5q0 -11 -9 -23l-79 -104q-12 -16 -23 -22t-28 -6h-4z" />
    <glyph glyph-name="ecaron" unicode="&#x11b;" horiz-adv-x="590" 
d="M416.5 496q58.5 -30 96 -87t37.5 -132q0 -30 -16.5 -43.5t-49.5 -13.5l-335 1q8 -67 54 -103t110 -36q30 0 53 7t47 22q3 2 12.5 7t16 7t13.5 2q17 0 27 -10.5t10 -27.5q0 -23 -27 -45q-29 -23 -69 -36t-87 -13q-68 0 -130 29.5t-100.5 89t-38.5 145.5q0 85 39.5 145.5
t99.5 91t120 30.5q59 0 117.5 -30zM199.5 398.5q-44.5 -35.5 -50.5 -101.5h298q-6 67 -49.5 102t-98.5 35t-99.5 -35.5zM295 616q-17 0 -27 6t-23 22l-79 104q-9 12 -9 23q0 12 8 20.5t21 8.5q19 0 38 -23l73 -87l73 87q20 23 39 23q13 0 21 -8.5t8 -20.5q0 -11 -9 -23
l-79 -104q-12 -16 -23 -22t-28 -6h-4z" />
    <glyph glyph-name="Gbreve" unicode="&#x11e;" horiz-adv-x="760" 
d="M703 346q15 -18 13 -48q-4 -95 -47 -164t-113 -105t-152 -36q-90 0 -171.5 46t-132 127.5t-50.5 183.5t50.5 183.5t131.5 127.5t170 46q101 0 174 -50q24 -16 35.5 -30.5t11.5 -32.5q0 -22 -14.5 -35.5t-35.5 -13.5q-14 0 -24.5 5t-23.5 15q-20 16 -52 27.5t-70 11.5
q-62 0 -117.5 -33.5t-89 -91.5t-33.5 -129t33.5 -129t89 -91.5t118.5 -33.5q50 0 95.5 21t75.5 61.5t36 95.5h-142q-20 0 -34 13t-14 32t14 32t34 13h190q29 0 44 -18zM551 940.5q12 -12.5 12 -29.5q0 -3 -2 -13q-14 -55 -56.5 -91t-107.5 -36t-107.5 36t-56.5 91
q-2 10 -2 13q0 17 12 29.5t30 12.5q14 0 24 -7t15 -19q10 -27 33 -43.5t52 -16.5q30 0 53 16.5t32 43.5q5 11 15.5 18.5t23.5 7.5q18 0 30 -12.5z" />
    <glyph glyph-name="gbreve" unicode="&#x11f;" 
d="M555 47q0 -7 -1 -10v-27q0 -77 -39 -125t-97 -69t-118 -21q-43 0 -79 9t-58 21q-33 14 -33 45q0 18 12.5 30t29.5 12q11 0 25 -5q51 -21 105 -21q66 0 106 33t40 91v91q-4 -24 -25.5 -49t-57.5 -42t-81 -17q-59 0 -115 30.5t-92.5 90.5t-36.5 146q0 84 36.5 144.5t93 91
t114.5 30.5q55 0 99.5 -26t64.5 -70v40q0 22 15.5 37.5t37.5 15.5t38 -15.5t16 -37.5v-423zM372.5 103q34.5 19 57.5 59t23 98q0 59 -23 98.5t-57.5 58t-71.5 18.5q-38 0 -74 -20t-58.5 -59.5t-22.5 -95.5t22.5 -96t58.5 -60t74 -20q37 0 71.5 19zM467 760.5
q12 -12.5 12 -29.5q0 -3 -2 -13q-14 -55 -56.5 -91t-107.5 -36t-107.5 36t-56.5 91q-2 10 -2 13q0 17 12 29.5t30 12.5q14 0 24 -7t15 -19q10 -27 33 -43.5t52 -16.5q30 0 53 16.5t32 43.5q5 11 15.5 18.5t23.5 7.5q18 0 30 -12.5z" />
    <glyph glyph-name="Gdotaccent" unicode="&#x120;" horiz-adv-x="760" 
d="M703 346q15 -18 13 -48q-4 -95 -47 -164t-113 -105t-152 -36q-90 0 -171.5 46t-132 127.5t-50.5 183.5t50.5 183.5t131.5 127.5t170 46q101 0 174 -50q24 -16 35.5 -30.5t11.5 -32.5q0 -22 -14.5 -35.5t-35.5 -13.5q-14 0 -24.5 5t-23.5 15q-20 16 -52 27.5t-70 11.5
q-62 0 -117.5 -33.5t-89 -91.5t-33.5 -129t33.5 -129t89 -91.5t118.5 -33.5q50 0 95.5 21t75.5 61.5t36 95.5h-142q-20 0 -34 13t-14 32t14 32t34 13h190q29 0 44 -18zM358.5 844.5q-16.5 16.5 -16.5 38.5q0 23 16.5 39t38.5 16q23 0 39 -16t16 -39q0 -22 -16 -38.5
t-39 -16.5q-22 0 -38.5 16.5z" />
    <glyph glyph-name="gdotaccent" unicode="&#x121;" 
d="M555 47q0 -7 -1 -10v-27q0 -77 -39 -125t-97 -69t-118 -21q-43 0 -79 9t-58 21q-33 14 -33 45q0 18 12.5 30t29.5 12q11 0 25 -5q51 -21 105 -21q66 0 106 33t40 91v91q-4 -24 -25.5 -49t-57.5 -42t-81 -17q-59 0 -115 30.5t-92.5 90.5t-36.5 146q0 84 36.5 144.5t93 91
t114.5 30.5q55 0 99.5 -26t64.5 -70v40q0 22 15.5 37.5t37.5 15.5t38 -15.5t16 -37.5v-423zM372.5 103q34.5 19 57.5 59t23 98q0 59 -23 98.5t-57.5 58t-71.5 18.5q-38 0 -74 -20t-58.5 -59.5t-22.5 -95.5t22.5 -96t58.5 -60t74 -20q37 0 71.5 19zM274.5 664.5
q-16.5 16.5 -16.5 38.5q0 23 16.5 39t38.5 16q23 0 39 -16t16 -39q0 -22 -16 -38.5t-39 -16.5q-22 0 -38.5 16.5z" />
    <glyph glyph-name="Gcommaaccent" unicode="&#x122;" horiz-adv-x="760" 
d="M703 346q15 -18 13 -48q-3 -89 -41.5 -155t-101 -104t-137.5 -45l-2 -3l-79 -157q-9 -18 -22.5 -24.5t-30.5 -6.5h-6q-13 0 -20.5 6.5t-7.5 17.5q0 6 4 18l52 155l1 3q-75 18 -138 66.5t-100 121t-37 159.5q0 102 50.5 183.5t131.5 127.5t170 46q101 0 174 -50
q24 -16 35.5 -30.5t11.5 -32.5q0 -22 -14.5 -35.5t-35.5 -13.5q-14 0 -24.5 5t-23.5 15q-20 16 -52 27.5t-70 11.5q-62 0 -117.5 -33.5t-89 -91.5t-33.5 -129t33.5 -129t89 -91.5t118.5 -33.5q50 0 95.5 21t75.5 61.5t36 95.5h-142q-20 0 -34 13t-14 32t14 32t34 13h190
q29 0 44 -18z" />
    <glyph glyph-name="gcommaaccent" unicode="&#x123;" 
d="M555 47q0 -7 -1 -10v-27q0 -77 -39 -125t-97 -69t-118 -21q-43 0 -79 9t-58 21q-33 14 -33 45q0 18 12.5 30t29.5 12q11 0 25 -5q51 -21 105 -21q66 0 106 33t40 91v91q-4 -24 -25.5 -49t-57.5 -42t-81 -17q-59 0 -115 30.5t-92.5 90.5t-36.5 146q0 73 28 128t72.5 88.5
t96.5 44.5l3 6l79 157q9 18 22.5 24.5t30.5 6.5h6q13 0 20.5 -6.5t7.5 -17.5q0 -6 -4 -18l-52 -155l-1 -2q34 -11 60 -33.5t39 -52.5v40q0 22 15.5 37.5t37.5 15.5t38 -15.5t16 -37.5v-423zM372.5 103q34.5 19 57.5 59t23 98q0 59 -23 98.5t-57.5 58t-71.5 18.5
q-38 0 -74 -20t-58.5 -59.5t-22.5 -95.5t22.5 -96t58.5 -60t74 -20q37 0 71.5 19z" />
    <glyph glyph-name="Hbar" unicode="&#x126;" horiz-adv-x="671" 
d="M595.5 687q15.5 -16 15.5 -39v-596q0 -23 -15.5 -39t-37.5 -16q-23 0 -39 16t-16 39v245h-335v-245q0 -23 -15.5 -39t-37.5 -16q-23 0 -39 16t-16 39v596q0 23 16 39t39 16q22 0 37.5 -16t15.5 -39v-91h335v91q0 23 16 39t39 16q22 0 37.5 -16zM168 390h335v81h-335v-81z
" />
    <glyph glyph-name="hbar" unicode="&#x127;" horiz-adv-x="634" 
d="M519 469q55 -56 55 -175v-246q0 -22 -15 -37.5t-37 -15.5t-37.5 15.5t-15.5 37.5v246q0 71 -34.5 105.5t-87.5 34.5q-44 0 -75.5 -22t-48 -52t-20.5 -55v-257q0 -22 -15.5 -37.5t-37.5 -15.5t-37.5 15.5t-15.5 37.5v491h-24q-17 0 -30 12.5t-13 30.5t13 31t30 13h24v35
q0 22 15.5 37.5t37.5 15.5t37.5 -15.5t15.5 -37.5v-35h52q17 0 30 -13t13 -31t-13 -30.5t-30 -12.5h-52v-136q3 21 25 50t62 50.5t92 21.5q82 0 137 -56z" />
    <glyph glyph-name="Imacron" unicode="&#x12a;" horiz-adv-x="230" 
d="M154 686.5q16 -16.5 16 -39.5v-597q0 -23 -16 -39.5t-38 -16.5q-23 0 -39.5 16.5t-16.5 39.5v597q0 23 16.5 39.5t39.5 16.5q22 0 38 -16.5zM294.5 867q13.5 -13 13.5 -32t-13.5 -32.5t-32.5 -13.5h-291q-19 0 -32.5 13.5t-13.5 32.5t13.5 32t32.5 13h291q19 0 32.5 -13z
" />
    <glyph glyph-name="imacron" unicode="&#x12b;" horiz-adv-x="256" 
d="M165.5 507.5q15.5 -15.5 15.5 -37.5v-422q0 -22 -15.5 -37.5t-37.5 -15.5t-37.5 15.5t-15.5 37.5v422q0 22 15.5 37.5t37.5 15.5t37.5 -15.5zM306.5 687q13.5 -13 13.5 -32t-13.5 -32.5t-32.5 -13.5h-291q-19 0 -32.5 13.5t-13.5 32.5t13.5 32t32.5 13h291q19 0 32.5 -13
z" />
    <glyph glyph-name="Iogonek" unicode="&#x12e;" horiz-adv-x="234" 
d="M174 50v-1v0q0 -33 -19 -53t-57 -44q-30 -19 -45 -33t-15 -34q0 -21 16 -30.5t40 -9.5q38 0 38 -25q0 -33 -77 -33q-49 0 -83 21t-34 65q0 33 17 53.5t50 42.5q31 22 45 38.5t14 41.5v1v597q0 23 16.5 39.5t39.5 16.5q22 0 38 -16.5t16 -39.5v-597z" />
    <glyph glyph-name="iogonek" unicode="&#x12f;" horiz-adv-x="234" 
d="M80.5 664.5q-16.5 16.5 -16.5 38.5q0 23 16.5 39t38.5 16q23 0 39 -16t16 -39q0 -22 -16 -38.5t-39 -16.5q-22 0 -38.5 16.5zM156.5 507.5q15.5 -15.5 15.5 -37.5v-422q0 -33 -19 -53t-56 -44q-29 -19 -43.5 -33t-14.5 -34q0 -21 16 -30.5t39 -9.5q39 0 39 -25
q0 -33 -78 -33q-49 0 -82.5 20.5t-33.5 65.5q0 33 17.5 53.5t50.5 42.5q31 22 45 38.5t14 41.5v422q0 22 15.5 37.5t37.5 15.5t37.5 -15.5z" />
    <glyph glyph-name="Idotaccent" unicode="&#x130;" horiz-adv-x="230" 
d="M154 686.5q16 -16.5 16 -39.5v-597q0 -23 -16 -39.5t-38 -16.5q-23 0 -39.5 16.5t-16.5 39.5v597q0 23 16.5 39.5t39.5 16.5q22 0 38 -16.5zM77.5 844.5q-16.5 16.5 -16.5 38.5q0 23 16.5 39t38.5 16q23 0 39 -16t16 -39q0 -22 -16 -38.5t-39 -16.5q-22 0 -38.5 16.5z
" />
    <glyph glyph-name="dotlessi" unicode="&#x131;" horiz-adv-x="256" 
d="M165.5 507.5q15.5 -15.5 15.5 -37.5v-422q0 -22 -15.5 -37.5t-37.5 -15.5t-37.5 15.5t-15.5 37.5v422q0 22 15.5 37.5t37.5 15.5t37.5 -15.5z" />
    <glyph glyph-name="IJ" unicode="&#x132;" horiz-adv-x="749" 
d="M154 686.5q16 -16.5 16 -39.5v-597q0 -23 -16 -39.5t-38 -16.5q-23 0 -39.5 16.5t-16.5 39.5v597q0 23 16.5 39.5t39.5 16.5q22 0 38 -16.5zM673 687.5q16 -15.5 16 -37.5v-394q0 -139 -66 -201t-168 -62q-94 0 -156 48q-34 25 -34 55q0 19 12 32.5t33 13.5
q12 0 23.5 -4.5t18.5 -9.5q28 -19 50 -28t51 -9q126 0 126 165v394q0 22 16 37.5t39 15.5t39 -15.5z" />
    <glyph glyph-name="ij" unicode="&#x133;" horiz-adv-x="488" 
d="M76 633.5q-16 15.5 -16 37.5t16 37.5t38 15.5t38 -15.5t16 -37.5t-16 -37.5t-38 -15.5t-38 15.5zM151.5 507q15.5 -16 15.5 -38v-421q0 -22 -15.5 -38t-37.5 -16t-37.5 16t-15.5 38v421q0 22 15.5 38t37.5 16t37.5 -16zM336 633.5q-16 15.5 -16 37.5t16 37.5t38 15.5
t38 -15.5t16 -37.5t-16 -37.5t-38 -15.5t-38 15.5zM411.5 507q15.5 -16 15.5 -38v-525q0 -74 -38.5 -111.5t-102.5 -37.5q-44 0 -78 17q-40 22 -40 54q0 19 14 33t33 14q9 0 14 -2t17 -8.5t28 -6.5q47 0 47 72v501q0 22 15.5 38t37.5 16t37.5 -16z" />
    <glyph glyph-name="Kcommaaccent" unicode="&#x136;" horiz-adv-x="662" 
d="M632 42q0 -20 -14.5 -34t-34.5 -14q-10 0 -19.5 4.5t-16.5 12.5l-264 291l-115 -118v-135q0 -22 -16 -38.5t-38 -16.5t-38 16t-16 39v602q0 23 16 39t38 16t38 -16.5t16 -38.5v-322l351 359q18 18 38 18t34.5 -14.5t14.5 -34.5q0 -19 -11 -32l-244 -252l268 -298
q13 -15 13 -33zM233.5 -190.5q-7.5 6.5 -7.5 17.5q0 6 4 18l52 155q8 22 21 32t34 10h33q31 0 31 -21q0 -12 -9 -30l-79 -157q-9 -18 -22.5 -24.5t-30.5 -6.5h-6q-13 0 -20.5 6.5z" />
    <glyph glyph-name="kcommaaccent" unicode="&#x137;" horiz-adv-x="539" 
d="M514 41q0 -19 -14 -32.5t-33 -13.5t-33 14l-198 215l-70 -67v-109q0 -22 -15.5 -37.5t-37.5 -15.5t-37.5 15.5t-15.5 37.5v613q0 22 15.5 37.5t37.5 15.5t37.5 -15.5t15.5 -37.5v-379l225 226q17 15 36 15q20 0 34 -14t14 -34q0 -19 -13 -34l-161 -155l199 -212
q14 -14 14 -33zM169.5 -190.5q-7.5 6.5 -7.5 17.5q0 6 4 18l52 155q8 22 21 32t34 10h33q31 0 31 -21q0 -12 -9 -30l-79 -157q-9 -18 -22.5 -24.5t-30.5 -6.5h-6q-13 0 -20.5 6.5z" />
    <glyph glyph-name="Lacute" unicode="&#x139;" horiz-adv-x="531" 
d="M448 96q19 0 33.5 -14t14.5 -34t-14.5 -34t-33.5 -14h-329q-25 0 -42 17t-17 42v588q0 23 16 39.5t39 16.5q22 0 37.5 -16.5t15.5 -39.5v-551h280zM232.5 934.5q16.5 -16.5 16.5 -39.5q0 -18 -12 -35l-85 -104q-12 -15 -29 -15q-15 0 -26 9t-11 24q0 4 4 16l52 124
q6 16 20 26.5t31 10.5q23 0 39.5 -16.5z" />
    <glyph glyph-name="lacute" unicode="&#x13a;" horiz-adv-x="226" 
d="M150.5 10.5q-15.5 -15.5 -37.5 -15.5t-37.5 15.5t-15.5 37.5v613q0 22 15.5 37.5t37.5 15.5t37.5 -15.5t15.5 -37.5v-613q0 -22 -15.5 -37.5zM203.5 936.5q16.5 -16.5 16.5 -39.5q0 -18 -12 -35l-85 -104q-12 -15 -29 -15q-15 0 -26 9t-11 24q0 4 4 16l52 124
q6 16 20 26.5t31 10.5q23 0 39.5 -16.5z" />
    <glyph glyph-name="Lcommaaccent" unicode="&#x13b;" horiz-adv-x="531" 
d="M481.5 82q14.5 -14 14.5 -34t-14.5 -34t-33.5 -14h-113q-2 -6 -4 -9l-79 -157q-9 -18 -22.5 -24.5t-30.5 -6.5h-6q-13 0 -20.5 6.5t-7.5 17.5q0 6 4 18l52 155h-102q-25 0 -42 17t-17 42v588q0 23 16 39.5t39 16.5q22 0 37.5 -16.5t15.5 -39.5v-551h280q19 0 33.5 -14z
" />
    <glyph glyph-name="lcommaaccent" unicode="&#x13c;" horiz-adv-x="226" 
d="M166 48q0 -15 -9 -29q0 -11 -9 -28l-79 -157q-9 -18 -22.5 -24.5t-30.5 -6.5h-6q-13 0 -20.5 6.5t-7.5 17.5q0 6 4 18l52 155q9 23 24 34q-2 8 -2 14v613q0 22 15.5 37.5t37.5 15.5t37.5 -15.5t15.5 -37.5v-613z" />
    <glyph glyph-name="Lcaron" unicode="&#x13d;" horiz-adv-x="531" 
d="M448 96q19 0 33.5 -14t14.5 -34t-14.5 -34t-33.5 -14h-329q-25 0 -42 17t-17 42v588q0 23 16 39.5t39 16.5q22 0 37.5 -16.5t15.5 -39.5v-551h280zM268.5 545.5q-7.5 6.5 -7.5 17.5q0 6 4 18l52 155q8 22 21.5 32t33.5 10h33q31 0 31 -21q0 -12 -9 -30l-79 -157
q-9 -18 -22.5 -24.5t-30.5 -6.5h-6q-13 0 -20.5 6.5z" />
    <glyph glyph-name="lcaron" unicode="&#x13e;" horiz-adv-x="419" 
d="M150.5 10.5q-15.5 -15.5 -37.5 -15.5t-37.5 15.5t-15.5 37.5v613q0 22 15.5 37.5t37.5 15.5t37.5 -15.5t15.5 -37.5v-613q0 -22 -15.5 -37.5zM235.5 467.5q-7.5 6.5 -7.5 17.5q0 6 4 18l52 155q8 22 21.5 32t33.5 10h33q31 0 31 -21q0 -12 -9 -30l-79 -157
q-9 -18 -22.5 -24.5t-30.5 -6.5h-6q-13 0 -20.5 6.5z" />
    <glyph glyph-name="Ldot" unicode="&#x13f;" horiz-adv-x="531" 
d="M448 96q19 0 33.5 -14t14.5 -34t-14.5 -34t-33.5 -14h-329q-25 0 -42 17t-17 42v588q0 23 16 39.5t39 16.5q22 0 37.5 -16.5t15.5 -39.5v-551h280zM336.5 323.5q-18.5 18.5 -18.5 44.5t18.5 44t44.5 18q25 0 43 -18.5t18 -43.5q0 -26 -18 -44.5t-43 -18.5
q-26 0 -44.5 18.5z" />
    <glyph glyph-name="ldot" unicode="&#x140;" horiz-adv-x="429" 
d="M150.5 10.5q-15.5 -15.5 -37.5 -15.5t-37.5 15.5t-15.5 37.5v613q0 22 15.5 37.5t37.5 15.5t37.5 -15.5t15.5 -37.5v-613q0 -22 -15.5 -37.5zM263.5 321.5q-18.5 18.5 -18.5 44.5t18.5 44t44.5 18q25 0 43 -18.5t18 -43.5q0 -26 -18 -44.5t-43 -18.5q-26 0 -44.5 18.5z
" />
    <glyph glyph-name="Lslash" unicode="&#x141;" horiz-adv-x="597" 
d="M548.5 82q14.5 -14 14.5 -34t-14.5 -34t-33.5 -14h-329q-25 0 -42 17t-17 42v158q-10 -12 -28 -12q-16 0 -27.5 11t-11.5 27q0 18 11 27l56 59v318q0 23 16 39.5t39 16.5q22 0 37.5 -16.5t15.5 -39.5v-204l46 48q13 13 28 13q16 0 27.5 -11.5t11.5 -27.5q0 -12 -10 -26
l-103 -108v-235h280q19 0 33.5 -14z" />
    <glyph glyph-name="lslash" unicode="&#x142;" horiz-adv-x="312" 
d="M282 432l-78 -82v-302q0 -22 -15.5 -37.5t-37.5 -15.5t-37.5 15.5t-15.5 37.5v190l-11 -12q-12 -12 -28 -12t-27.5 11.5t-11.5 27.5t11 27l67 70v311q0 22 15.5 37.5t37.5 15.5t37.5 -15.5t15.5 -37.5v-200l22 23q11 12 28 12q16 0 27 -11t11 -27t-10 -26z" />
    <glyph glyph-name="Nacute" unicode="&#x143;" horiz-adv-x="689" 
d="M612.5 686.5q16.5 -16.5 16.5 -39.5v-600q0 -25 -14.5 -38.5t-36.5 -13.5q-34 0 -55 32l-353 477v-453q0 -23 -16 -39.5t-38 -16.5q-23 0 -39.5 16.5t-16.5 39.5v600q0 25 14.5 38.5t36.5 13.5q34 0 55 -32l353 -477v453q0 23 16 39.5t38 16.5q23 0 39.5 -16.5z
M434.5 936.5q16.5 -16.5 16.5 -39.5q0 -18 -12 -35l-85 -104q-12 -15 -29 -15q-15 0 -26 9t-11 24q0 4 4 16l52 124q6 16 20 26.5t31 10.5q23 0 39.5 -16.5z" />
    <glyph glyph-name="nacute" unicode="&#x144;" horiz-adv-x="597" 
d="M482 469q55 -56 55 -175v-246q0 -22 -15 -37.5t-37 -15.5t-37.5 15.5t-15.5 37.5v246q0 71 -34.5 105.5t-87.5 34.5q-44 0 -75.5 -22t-48 -52t-20.5 -55v-257q0 -22 -15.5 -37.5t-37.5 -15.5t-37.5 15.5t-15.5 37.5v421q0 22 15.5 38t37.5 16t37.5 -16t15.5 -38v-66
q3 21 25 50t62 50.5t92 21.5q82 0 137 -56zM388.5 756.5q16.5 -16.5 16.5 -39.5q0 -18 -12 -35l-85 -104q-12 -15 -29 -15q-15 0 -26 9t-11 24q0 4 4 16l52 124q6 16 20 26.5t31 10.5q23 0 39.5 -16.5z" />
    <glyph glyph-name="Ncommaaccent" unicode="&#x145;" horiz-adv-x="689" 
d="M612.5 686.5q16.5 -16.5 16.5 -39.5v-600q0 -25 -14.5 -38.5t-36.5 -13.5q-34 0 -55 32l-353 477v-453q0 -23 -16 -39.5t-38 -16.5q-23 0 -39.5 16.5t-16.5 39.5v600q0 25 14.5 38.5t36.5 13.5q34 0 55 -32l353 -477v453q0 23 16 39.5t38 16.5q23 0 39.5 -16.5z
M221.5 -190.5q-7.5 6.5 -7.5 17.5q0 6 4 18l52 155q8 22 21 32t34 10h33q31 0 31 -21q0 -12 -9 -30l-79 -157q-9 -18 -22.5 -24.5t-30.5 -6.5h-6q-13 0 -20.5 6.5z" />
    <glyph glyph-name="ncommaaccent" unicode="&#x146;" horiz-adv-x="597" 
d="M482 469q55 -56 55 -175v-246q0 -22 -15 -37.5t-37 -15.5t-37.5 15.5t-15.5 37.5v246q0 71 -34.5 105.5t-87.5 34.5q-44 0 -75.5 -22t-48 -52t-20.5 -55v-257q0 -22 -15.5 -37.5t-37.5 -15.5t-37.5 15.5t-15.5 37.5v421q0 22 15.5 38t37.5 16t37.5 -16t15.5 -38v-66
q3 21 25 50t62 50.5t92 21.5q82 0 137 -56zM175.5 -190.5q-7.5 6.5 -7.5 17.5q0 6 4 18l52 155q8 22 21 32t34 10h33q31 0 31 -21q0 -12 -9 -30l-79 -157q-9 -18 -22.5 -24.5t-30.5 -6.5h-6q-13 0 -20.5 6.5z" />
    <glyph glyph-name="Ncaron" unicode="&#x147;" horiz-adv-x="689" 
d="M612.5 686.5q16.5 -16.5 16.5 -39.5v-600q0 -25 -14.5 -38.5t-36.5 -13.5q-34 0 -55 32l-353 477v-453q0 -23 -16 -39.5t-38 -16.5q-23 0 -39.5 16.5t-16.5 39.5v600q0 25 14.5 38.5t36.5 13.5q34 0 55 -32l353 -477v453q0 23 16 39.5t38 16.5q23 0 39.5 -16.5zM343 796
q-17 0 -27 6t-23 22l-79 104q-9 12 -9 23q0 12 8 20.5t21 8.5q19 0 38 -23l73 -87l73 87q20 23 39 23q13 0 21 -8.5t8 -20.5q0 -11 -9 -23l-79 -104q-12 -16 -23 -22t-28 -6h-4z" />
    <glyph glyph-name="ncaron" unicode="&#x148;" horiz-adv-x="597" 
d="M482 469q55 -56 55 -175v-246q0 -22 -15 -37.5t-37 -15.5t-37.5 15.5t-15.5 37.5v246q0 71 -34.5 105.5t-87.5 34.5q-44 0 -75.5 -22t-48 -52t-20.5 -55v-257q0 -22 -15.5 -37.5t-37.5 -15.5t-37.5 15.5t-15.5 37.5v421q0 22 15.5 38t37.5 16t37.5 -16t15.5 -38v-66
q3 21 25 50t62 50.5t92 21.5q82 0 137 -56zM297 616q-17 0 -27 6t-23 22l-79 104q-9 12 -9 23q0 12 8 20.5t21 8.5q19 0 38 -23l73 -87l73 87q20 23 39 23q13 0 21 -8.5t8 -20.5q0 -11 -9 -23l-79 -104q-12 -16 -23 -22t-28 -6h-4z" />
    <glyph glyph-name="Eng" unicode="&#x14a;" horiz-adv-x="689" 
d="M612.5 686.5q16.5 -16.5 16.5 -39.5v-625q0 -139 -66 -201t-168 -62q-94 0 -156 48q-34 25 -34 55q0 19 12 32.5t33 13.5q12 0 23.5 -4.5t18.5 -9.5q28 -19 50 -28t51 -9q126 0 126 165v10l-349 472v-453q0 -23 -16 -39.5t-38 -16.5q-23 0 -39.5 16.5t-16.5 39.5v600
q0 25 14.5 38.5t36.5 13.5q34 0 55 -32l353 -477v453q0 23 16 39.5t38 16.5q23 0 39.5 -16.5z" />
    <glyph glyph-name="eng" unicode="&#x14b;" horiz-adv-x="605" 
d="M545 126v-182q0 -77 -36.5 -113t-102.5 -36q-32 0 -71 13q-15 5 -25 18t-10 29q0 22 15 37t35 15q4 0 12 -2q14 -5 32 -5q24 0 35 20.5t11 51.5v48q-8 13 -8 28v246q0 71 -34.5 105.5t-87.5 34.5q-44 0 -75.5 -22t-48 -52t-20.5 -55v-257q0 -22 -15.5 -37.5t-37.5 -15.5
t-37.5 15.5t-15.5 37.5v421q0 22 15.5 38t37.5 16t37.5 -16t15.5 -38v-66q3 21 25 50t62 50.5t92 21.5q82 0 137 -56t55 -175v-141q8 -13 8 -27z" />
    <glyph glyph-name="Omacron" unicode="&#x14c;" horiz-adv-x="796" 
d="M566.5 661q80.5 -46 130 -127.5t49.5 -183.5t-49.5 -183.5t-130 -127.5t-168.5 -46t-168.5 46t-130 127.5t-49.5 183.5t49.5 183.5t130 127.5t168.5 46t168.5 -46zM283 572.5q-54 -32.5 -87 -90.5t-33 -132t33 -132t87 -90t115 -32t115 32t87 90t33 132t-32.5 132
t-86.5 90.5t-116 32.5q-61 0 -115 -32.5zM576.5 867q13.5 -13 13.5 -32t-13.5 -32.5t-32.5 -13.5h-291q-19 0 -32.5 13.5t-13.5 32.5t13.5 32t32.5 13h291q19 0 32.5 -13z" />
    <glyph glyph-name="omacron" unicode="&#x14d;" horiz-adv-x="607" 
d="M425 495q61 -31 101.5 -91.5t40.5 -144.5t-40.5 -144.5t-101.5 -91t-122 -30.5t-122 30.5t-101 91t-40 144.5t40 144.5t101 91.5t122 31t122 -31zM226.5 413.5q-36.5 -20.5 -59 -60.5t-22.5 -94t23 -93.5t59 -60t76 -20.5t76.5 20.5t59.5 60t23 93.5t-23 94t-59.5 60.5
t-76.5 20.5t-76.5 -20.5zM481.5 687q13.5 -13 13.5 -32t-13.5 -32.5t-32.5 -13.5h-291q-19 0 -32.5 13.5t-13.5 32.5t13.5 32t32.5 13h291q19 0 32.5 -13z" />
    <glyph glyph-name="Ohungarumlaut" unicode="&#x150;" horiz-adv-x="796" 
d="M566.5 661q80.5 -46 130 -127.5t49.5 -183.5t-49.5 -183.5t-130 -127.5t-168.5 -46t-168.5 46t-130 127.5t-49.5 183.5t49.5 183.5t130 127.5t168.5 46t168.5 -46zM283 572.5q-54 -32.5 -87 -90.5t-33 -132t33 -132t87 -90t115 -32t115 32t87 90t33 132t-32.5 132
t-86.5 90.5t-116 32.5q-61 0 -115 -32.5zM603.5 936.5q16.5 -16.5 16.5 -39.5q0 -18 -12 -35l-85 -104q-12 -15 -29 -15q-15 0 -26 9t-11 24q0 4 4 16l52 124q6 16 20 26.5t31 10.5q23 0 39.5 -16.5zM421.5 936.5q16.5 -16.5 16.5 -39.5q0 -18 -12 -35l-85 -104
q-12 -15 -29 -15q-15 0 -26 9t-11 24q0 4 4 16l52 124q6 16 20 26.5t31 10.5q23 0 39.5 -16.5z" />
    <glyph glyph-name="ohungarumlaut" unicode="&#x151;" horiz-adv-x="607" 
d="M425 495q61 -31 101.5 -91.5t40.5 -144.5t-40.5 -144.5t-101.5 -91t-122 -30.5t-122 30.5t-101 91t-40 144.5t40 144.5t101 91.5t122 31t122 -31zM226.5 413.5q-36.5 -20.5 -59 -60.5t-22.5 -94t23 -93.5t59 -60t76 -20.5t76.5 20.5t59.5 60t23 93.5t-23 94t-59.5 60.5
t-76.5 20.5t-76.5 -20.5zM508.5 756.5q16.5 -16.5 16.5 -39.5q0 -18 -12 -35l-85 -104q-12 -15 -29 -15q-15 0 -26 9t-11 24q0 4 4 16l52 124q6 16 20 26.5t31 10.5q23 0 39.5 -16.5zM326.5 756.5q16.5 -16.5 16.5 -39.5q0 -18 -12 -35l-85 -104q-12 -15 -29 -15
q-15 0 -26 9t-11 24q0 4 4 16l52 124q6 16 20 26.5t31 10.5q23 0 39.5 -16.5z" />
    <glyph glyph-name="OE" unicode="&#x152;" horiz-adv-x="1121" 
d="M1072 81q14 -14 14 -33q0 -20 -14 -34t-34 -14h-356q-25 0 -42 17t-17 42v20q-47 -41 -105.5 -63.5t-119.5 -22.5q-88 0 -168.5 46t-130 127.5t-49.5 183.5t49.5 183.5t130 127.5t168.5 46q61 0 119.5 -22.5t105.5 -63.5v20q0 26 17 42.5t42 16.5h346q20 0 34 -14t14 -33
q0 -20 -14 -34t-34 -14h-297v-151q10 -35 12 -57h192q19 0 33 -13.5t14 -31.5q0 -19 -14 -32.5t-33 -13.5h-192q-3 -31 -12 -60v-151h307q20 0 34 -14zM537.5 145q63.5 49 85.5 129v152q-22 81 -85 130t-140 49q-61 0 -115 -32.5t-87 -90.5t-33 -132t33 -132t87 -90t115 -32
q76 0 139.5 49z" />
    <glyph glyph-name="oe" unicode="&#x153;" horiz-adv-x="1013" 
d="M956.5 233.5q-16.5 -13.5 -49.5 -13.5l-335 1q8 -67 54 -103t110 -36q30 0 53 7t47 22q3 2 12.5 7t16 7t13.5 2q17 0 27 -10.5t10 -27.5q0 -23 -27 -45q-29 -23 -69 -36t-87 -13q-64 0 -122 25.5t-96 75.5q-39 -50 -96.5 -76.5t-114.5 -26.5q-61 0 -122 30.5t-101 91
t-40 144.5t40 144.5t101 91.5t122 31q57 0 114.5 -27.5t96.5 -77.5q37 51 94 78t114 27q59 0 117.5 -30t96 -87t37.5 -132q0 -30 -16.5 -43.5zM379.5 105.5q36.5 20.5 59.5 60t23 93.5t-23 94t-59.5 60.5t-76.5 20.5t-76.5 -20.5t-59 -60.5t-22.5 -94t23 -93.5t59 -60
t76 -20.5t76.5 20.5zM870 297q-6 67 -49.5 102t-98.5 35t-99.5 -35.5t-50.5 -101.5h298z" />
    <glyph glyph-name="Racute" unicode="&#x154;" horiz-adv-x="606" 
d="M566 47q0 -21 -14 -35.5t-35 -14.5q-24 0 -40 20l-188 238h-121v-206q0 -23 -15.5 -39t-37.5 -16q-23 0 -39 16t-16 39v592q0 26 17 42.5t42 16.5h183q76 0 134 -29t89.5 -79.5t31.5 -113.5q0 -76 -42 -131t-116 -78l154 -188q13 -15 13 -34zM168 348h130
q73 0 113.5 31.5t40.5 98.5q0 64 -41.5 96.5t-112.5 32.5h-130v-259zM401.5 936.5q16.5 -16.5 16.5 -39.5q0 -18 -12 -35l-85 -104q-12 -15 -29 -15q-15 0 -26 9t-11 24q0 4 4 16l52 124q6 16 20 26.5t31 10.5q23 0 39.5 -16.5z" />
    <glyph glyph-name="racute" unicode="&#x155;" horiz-adv-x="416" 
d="M371.5 511q14.5 -14 14.5 -35q0 -23 -17.5 -36.5t-50.5 -13.5q-42 0 -75 -18.5t-53 -46.5t-24 -56v-257q0 -22 -15.5 -37.5t-37.5 -15.5t-37.5 15.5t-15.5 37.5v421q0 22 15.5 38t37.5 16t37.5 -16t15.5 -38v-66q3 20 25 49t59 51t82 22q25 0 39.5 -14zM329.5 756.5
q16.5 -16.5 16.5 -39.5q0 -18 -12 -35l-85 -104q-12 -15 -29 -15q-15 0 -26 9t-11 24q0 4 4 16l52 124q6 16 20 26.5t31 10.5q23 0 39.5 -16.5z" />
    <glyph glyph-name="Rcommaaccent" unicode="&#x156;" horiz-adv-x="606" 
d="M566 47q0 -21 -14 -35.5t-35 -14.5q-24 0 -40 20l-188 238h-121v-206q0 -23 -15.5 -39t-37.5 -16q-23 0 -39 16t-16 39v592q0 26 17 42.5t42 16.5h183q76 0 134 -29t89.5 -79.5t31.5 -113.5q0 -76 -42 -131t-116 -78l154 -188q13 -15 13 -34zM168 348h130
q73 0 113.5 31.5t40.5 98.5q0 64 -41.5 96.5t-112.5 32.5h-130v-259zM192.5 -190.5q-7.5 6.5 -7.5 17.5q0 6 4 18l52 155q8 22 21 32t34 10h33q31 0 31 -21q0 -12 -9 -30l-79 -157q-9 -18 -22.5 -24.5t-30.5 -6.5h-6q-13 0 -20.5 6.5z" />
    <glyph glyph-name="rcommaaccent" unicode="&#x157;" horiz-adv-x="416" 
d="M371.5 511q14.5 -14 14.5 -35q0 -23 -17.5 -36.5t-50.5 -13.5q-42 0 -75 -18.5t-53 -46.5t-24 -56v-257q0 -17 -10 -30q0 -9 -9 -27l-79 -157q-9 -18 -22.5 -24.5t-30.5 -6.5h-6q-13 0 -20.5 6.5t-7.5 17.5q0 6 4 18l52 155q9 25 25 34q-2 10 -2 14v421q0 22 15.5 38
t37.5 16t37.5 -16t15.5 -38v-66q3 20 25 49t59 51t82 22q25 0 39.5 -14z" />
    <glyph glyph-name="Rcaron" unicode="&#x158;" horiz-adv-x="606" 
d="M566 47q0 -21 -14 -35.5t-35 -14.5q-24 0 -40 20l-188 238h-121v-206q0 -23 -15.5 -39t-37.5 -16q-23 0 -39 16t-16 39v592q0 26 17 42.5t42 16.5h183q76 0 134 -29t89.5 -79.5t31.5 -113.5q0 -76 -42 -131t-116 -78l154 -188q13 -15 13 -34zM168 348h130
q73 0 113.5 31.5t40.5 98.5q0 64 -41.5 96.5t-112.5 32.5h-130v-259zM310 796q-17 0 -27 6t-23 22l-79 104q-9 12 -9 23q0 12 8 20.5t21 8.5q19 0 38 -23l73 -87l73 87q20 23 39 23q13 0 21 -8.5t8 -20.5q0 -11 -9 -23l-79 -104q-12 -16 -23 -22t-28 -6h-4z" />
    <glyph glyph-name="rcaron" unicode="&#x159;" horiz-adv-x="416" 
d="M371.5 511q14.5 -14 14.5 -35q0 -23 -17.5 -36.5t-50.5 -13.5q-42 0 -75 -18.5t-53 -46.5t-24 -56v-257q0 -22 -15.5 -37.5t-37.5 -15.5t-37.5 15.5t-15.5 37.5v421q0 22 15.5 38t37.5 16t37.5 -16t15.5 -38v-66q3 20 25 49t59 51t82 22q25 0 39.5 -14zM238 616
q-17 0 -27 6t-23 22l-79 104q-9 12 -9 23q0 12 8 20.5t21 8.5q19 0 38 -23l73 -87l73 87q20 23 39 23q13 0 21 -8.5t8 -20.5q0 -11 -9 -23l-79 -104q-12 -16 -23 -22t-28 -6h-4z" />
    <glyph glyph-name="Sacute" unicode="&#x15a;" horiz-adv-x="565" 
d="M469 619q23 -29 23 -50q0 -18 -13 -30.5t-32 -12.5q-27 0 -46 23q-23 31 -49.5 46.5t-66.5 15.5q-53 0 -84 -25t-31 -66q0 -33 22.5 -57.5t70.5 -43.5l49 -19q112 -43 162.5 -88.5t50.5 -117.5q0 -63 -36.5 -108.5t-93 -69t-117.5 -23.5q-66 0 -125 28t-92 78
q-21 29 -21 51q0 19 12 33t33 14q31 0 52 -32q25 -38 62 -56.5t79 -18.5q55 0 95.5 25t40.5 79q0 44 -29 68t-95 50l-54 21q-84 33 -129 76.5t-45 111.5q0 55 29 97.5t79 65.5t111 23q118 0 188 -88zM366.5 936.5q16.5 -16.5 16.5 -39.5q0 -18 -12 -35l-85 -104
q-12 -15 -29 -15q-15 0 -26 9t-11 24q0 4 4 16l52 124q6 16 20 26.5t31 10.5q23 0 39.5 -16.5z" />
    <glyph glyph-name="sacute" unicode="&#x15b;" horiz-adv-x="468" 
d="M331 505.5q44 -20.5 68 -57.5q7 -10 10.5 -18t3.5 -19q0 -18 -12 -29t-31 -11q-26 0 -46 27q-34 42 -89 42q-37 0 -58.5 -17t-21.5 -44q0 -45 67 -64l62 -17q71 -19 110 -52.5t39 -92.5q0 -50 -28.5 -86t-74.5 -54t-100 -18q-61 0 -107 22.5t-67 56.5q-9 12 -15 24t-6 27
q0 17 10.5 30t30.5 13q16 0 26 -7.5t19 -21.5q33 -56 109 -56q44 0 71 17t27 47q0 46 -71 66l-67 18q-139 39 -139 147q0 45 25 79t66.5 51.5t90.5 17.5q54 0 98 -20.5zM324.5 756.5q16.5 -16.5 16.5 -39.5q0 -18 -12 -35l-85 -104q-12 -15 -29 -15q-15 0 -26 9t-11 24
q0 4 4 16l52 124q6 16 20 26.5t31 10.5q23 0 39.5 -16.5z" />
    <glyph glyph-name="Scedilla" unicode="&#x15e;" horiz-adv-x="565" 
d="M466.5 60.5q-58.5 -51.5 -142.5 -64.5l-46 -47q38 -6 63.5 -30t25.5 -60q0 -44 -38.5 -67.5t-100.5 -23.5q-15 0 -22 1q-9 1 -15.5 6.5t-6.5 12.5q0 17 26 19q36 1 55 15t19 35q0 18 -11 28.5t-27 10.5q-4 0 -12 -2q-10 -2 -13 -2q-13 0 -23 15q-6 10 -6 19q0 8 5 15
l34 56q-53 8 -98 34.5t-72 67.5q-21 29 -21 51q0 19 12 33t33 14q31 0 52 -32q25 -38 62 -56.5t79 -18.5q55 0 95.5 25t40.5 79q0 44 -29 68t-95 50l-54 21q-84 33 -129 76.5t-45 111.5q0 55 29 97.5t79 65.5t111 23q118 0 188 -88q23 -29 23 -50q0 -18 -13 -30.5t-32 -12.5
q-27 0 -46 23q-23 31 -49.5 46.5t-66.5 15.5q-53 0 -84 -25t-31 -66q0 -33 22.5 -57.5t70.5 -43.5l49 -19q112 -43 162.5 -88.5t50.5 -117.5q0 -82 -58.5 -133.5z" />
    <glyph glyph-name="scedilla" unicode="&#x15f;" horiz-adv-x="468" 
d="M391 51.5q-42 -39.5 -107 -51.5h3l-49 -51q38 -6 63.5 -30t25.5 -60q0 -44 -38.5 -67.5t-100.5 -23.5q-15 0 -22 1q-9 1 -15.5 6.5t-6.5 12.5q0 17 26 19q36 1 55 15t19 35q0 18 -11 28.5t-27 10.5q-4 0 -12 -2q-10 -2 -13 -2q-13 0 -23 15q-6 10 -6 19q0 8 5 15l35 57
q-48 6 -83 27t-53 49q-9 12 -15 24t-6 27q0 17 10.5 30t30.5 13q16 0 26 -7.5t19 -21.5q33 -56 109 -56q44 0 71 17t27 47q0 46 -71 66l-67 18q-139 39 -139 147q0 45 25 79t66.5 51.5t90.5 17.5q54 0 98 -20.5t68 -57.5q7 -10 10.5 -18t3.5 -19q0 -18 -12 -29t-31 -11
q-26 0 -46 27q-34 42 -89 42q-37 0 -58.5 -17t-21.5 -44q0 -45 67 -64l62 -17q71 -19 110 -52.5t39 -92.5q0 -62 -42 -101.5z" />
    <glyph glyph-name="Scaron" unicode="&#x160;" horiz-adv-x="565" 
d="M469 619q23 -29 23 -50q0 -18 -13 -30.5t-32 -12.5q-27 0 -46 23q-23 31 -49.5 46.5t-66.5 15.5q-53 0 -84 -25t-31 -66q0 -33 22.5 -57.5t70.5 -43.5l49 -19q112 -43 162.5 -88.5t50.5 -117.5q0 -63 -36.5 -108.5t-93 -69t-117.5 -23.5q-66 0 -125 28t-92 78
q-21 29 -21 51q0 19 12 33t33 14q31 0 52 -32q25 -38 62 -56.5t79 -18.5q55 0 95.5 25t40.5 79q0 44 -29 68t-95 50l-54 21q-84 33 -129 76.5t-45 111.5q0 55 29 97.5t79 65.5t111 23q118 0 188 -88zM275 796q-17 0 -27 6t-23 22l-79 104q-9 12 -9 23q0 12 8 20.5t21 8.5
q19 0 38 -23l73 -87l73 87q20 23 39 23q13 0 21 -8.5t8 -20.5q0 -11 -9 -23l-79 -104q-12 -16 -23 -22t-28 -6h-4z" />
    <glyph glyph-name="scaron" unicode="&#x161;" horiz-adv-x="468" 
d="M331 505.5q44 -20.5 68 -57.5q7 -10 10.5 -18t3.5 -19q0 -18 -12 -29t-31 -11q-26 0 -46 27q-34 42 -89 42q-37 0 -58.5 -17t-21.5 -44q0 -45 67 -64l62 -17q71 -19 110 -52.5t39 -92.5q0 -50 -28.5 -86t-74.5 -54t-100 -18q-61 0 -107 22.5t-67 56.5q-9 12 -15 24t-6 27
q0 17 10.5 30t30.5 13q16 0 26 -7.5t19 -21.5q33 -56 109 -56q44 0 71 17t27 47q0 46 -71 66l-67 18q-139 39 -139 147q0 45 25 79t66.5 51.5t90.5 17.5q54 0 98 -20.5zM233 616q-17 0 -27 6t-23 22l-79 104q-9 12 -9 23q0 12 8 20.5t21 8.5q19 0 38 -23l73 -87l73 87
q20 23 39 23q13 0 21 -8.5t8 -20.5q0 -11 -9 -23l-79 -104q-12 -16 -23 -22t-28 -6h-4z" />
    <glyph glyph-name="uni0162" unicode="&#x162;" horiz-adv-x="580" 
d="M536 686q14 -14 14 -34t-14 -34t-34 -14h-158v-552h17q0 -28 -18.5 -58t-37.5 -46q37 -5 62.5 -30.5t25.5 -61.5q0 -48 -45 -72t-116 -21q-13 0 -19 6t-3 14q8 17 27 18q72 7 72 55q0 17 -10 28.5t-25 11.5q-7 0 -15 -3q-10 -4 -14 -4q-11 0 -20 16q-6 10 -6 19q0 8 4 16
q17 49 22 80q-9 14 -9 31v553h-158q-20 0 -34 14t-14 34t14 34t34 14h424q20 0 34 -14z" />
    <glyph glyph-name="uni0163" unicode="&#x163;" horiz-adv-x="353" 
d="M267 0h6l-49 -51q38 -6 63.5 -30t25.5 -60q0 -44 -38.5 -67.5t-100.5 -23.5q-15 0 -22 1q-9 1 -15.5 6.5t-6.5 12.5q0 17 26 19q36 1 55 15t19 35q0 18 -11 28.5t-27 10.5q-4 0 -12 -2q-10 -2 -13 -2q-13 0 -23 15q-6 10 -6 19q0 8 5 15l36 58q-78 20 -78 132v304h-38
q-19 0 -31 12t-12 31t12 30.5t31 11.5h38v78q0 21 15.5 36.5t36.5 15.5q22 0 37.5 -15.5t15.5 -36.5v-78h73q20 0 32 -11.5t12 -30.5t-12 -31t-32 -12h-73v-305q0 -44 35 -44q8 0 20 2t19 3q19 3 31 -7.5t12 -29.5q0 -40 -56 -54z" />
    <glyph glyph-name="Tcaron" unicode="&#x164;" horiz-adv-x="580" 
d="M536 686q14 -14 14 -34t-14 -34t-34 -14h-158v-553q0 -23 -16 -40t-37 -17q-22 0 -38.5 17t-16.5 40v553h-158q-20 0 -34 14t-14 34t14 34t34 14h424q20 0 34 -14zM288 796q-17 0 -27 6t-23 22l-79 104q-9 12 -9 23q0 12 8 20.5t21 8.5q19 0 38 -23l73 -87l73 87
q20 23 39 23q13 0 21 -8.5t8 -20.5q0 -11 -9 -23l-79 -104q-12 -16 -23 -22t-28 -6h-4z" />
    <glyph glyph-name="tcaron" unicode="&#x165;" horiz-adv-x="414" 
d="M311 83.5q12 -10.5 12 -29.5q0 -29 -29 -44t-74 -15q-54 0 -86.5 29t-32.5 107v304h-38q-19 0 -31 12t-12 31t12 30.5t31 11.5h38v78q0 21 15.5 36.5t36.5 15.5q22 0 37.5 -15.5t15.5 -36.5v-78h73q20 0 32 -11.5t12 -30.5t-12 -31t-32 -12h-73v-305q0 -44 35 -44
q8 0 20 2t19 3q19 3 31 -7.5zM382.5 742.5q16.5 -16.5 16.5 -39.5q0 -18 -12 -35l-85 -104q-12 -15 -29 -15q-15 0 -26 9t-11 24q0 4 4 16l52 124q6 16 20 26.5t31 10.5q23 0 39.5 -16.5z" />
    <glyph glyph-name="Tbar" unicode="&#x166;" horiz-adv-x="580" 
d="M536 686q14 -14 14 -34t-14 -34t-34 -14h-158v-84h92q19 0 32.5 -13t13.5 -32t-13.5 -32.5t-32.5 -13.5h-92v-378q0 -23 -16 -40t-37 -17q-22 0 -38.5 17t-16.5 40v378h-91q-19 0 -32.5 13.5t-13.5 32.5t13.5 32t32.5 13h91v84h-158q-20 0 -34 14t-14 34t14 34t34 14h424
q20 0 34 -14z" />
    <glyph glyph-name="tbar" unicode="&#x167;" horiz-adv-x="353" 
d="M311 83.5q12 -10.5 12 -29.5q0 -29 -29 -44t-74 -15q-54 0 -86.5 29t-32.5 107v152h-30q-19 0 -32.5 13.5t-13.5 32.5t13.5 32.5t32.5 13.5h30v60h-38q-19 0 -31 12t-12 31t12 30.5t31 11.5h38v78q0 21 15.5 36.5t36.5 15.5q22 0 37.5 -15.5t15.5 -36.5v-78h73
q20 0 32 -11.5t12 -30.5t-12 -31t-32 -12h-73v-60h69q19 0 32.5 -13.5t13.5 -32.5t-13.5 -32.5t-32.5 -13.5h-69v-153q0 -44 35 -44q8 0 20 2t19 3q19 3 31 -7.5z" />
    <glyph glyph-name="Umacron" unicode="&#x16a;" horiz-adv-x="678" 
d="M598 687.5q15 -15.5 15 -37.5v-394q0 -81 -35.5 -140.5t-98 -91t-140.5 -31.5t-140.5 31.5t-98 91t-35.5 140.5v394q0 22 15.5 37.5t37.5 15.5q23 0 39 -15.5t16 -37.5v-393q0 -84 46 -128.5t120 -44.5t120 44.5t46 128.5v393q0 22 16.5 37.5t39.5 15.5q22 0 37 -15.5z
M517.5 867q13.5 -13 13.5 -32t-13.5 -32.5t-32.5 -13.5h-291q-19 0 -32.5 13.5t-13.5 32.5t13.5 32t32.5 13h291q19 0 32.5 -13z" />
    <glyph glyph-name="umacron" unicode="&#x16b;" horiz-adv-x="597" 
d="M115 49q-55 56 -55 175v246q0 22 15 37.5t37 15.5t37.5 -15.5t15.5 -37.5v-246q0 -71 34.5 -105.5t87.5 -34.5q44 0 75.5 22t48 52t20.5 55v257q0 22 15.5 37.5t37.5 15.5t37.5 -15.5t15.5 -37.5v-421q0 -22 -15.5 -38t-37.5 -16t-37.5 16t-15.5 38v66q-3 -21 -25 -50
t-62 -50.5t-92 -21.5q-82 0 -137 56zM477.5 687q13.5 -13 13.5 -32t-13.5 -32.5t-32.5 -13.5h-291q-19 0 -32.5 13.5t-13.5 32.5t13.5 32t32.5 13h291q19 0 32.5 -13z" />
    <glyph glyph-name="Ubreve" unicode="&#x16c;" horiz-adv-x="678" 
d="M598 687.5q15 -15.5 15 -37.5v-394q0 -81 -35.5 -140.5t-98 -91t-140.5 -31.5t-140.5 31.5t-98 91t-35.5 140.5v394q0 22 15.5 37.5t37.5 15.5q23 0 39 -15.5t16 -37.5v-393q0 -84 46 -128.5t120 -44.5t120 44.5t46 128.5v393q0 22 16.5 37.5t39.5 15.5q22 0 37 -15.5z
M493 940.5q12 -12.5 12 -29.5q0 -3 -2 -13q-14 -55 -56.5 -91t-107.5 -36t-107.5 36t-56.5 91q-2 10 -2 13q0 17 12 29.5t30 12.5q14 0 24 -7t15 -19q10 -27 33 -43.5t52 -16.5q30 0 53 16.5t32 43.5q5 11 15.5 18.5t23.5 7.5q18 0 30 -12.5z" />
    <glyph glyph-name="ubreve" unicode="&#x16d;" horiz-adv-x="597" 
d="M115 49q-55 56 -55 175v246q0 22 15 37.5t37 15.5t37.5 -15.5t15.5 -37.5v-246q0 -71 34.5 -105.5t87.5 -34.5q44 0 75.5 22t48 52t20.5 55v257q0 22 15.5 37.5t37.5 15.5t37.5 -15.5t15.5 -37.5v-421q0 -22 -15.5 -38t-37.5 -16t-37.5 16t-15.5 38v66q-3 -21 -25 -50
t-62 -50.5t-92 -21.5q-82 0 -137 56zM453 760.5q12 -12.5 12 -29.5q0 -3 -2 -13q-14 -55 -56.5 -91t-107.5 -36t-107.5 36t-56.5 91q-2 10 -2 13q0 17 12 29.5t30 12.5q14 0 24 -7t15 -19q10 -27 33 -43.5t52 -16.5q30 0 53 16.5t32 43.5q5 11 15.5 18.5t23.5 7.5
q18 0 30 -12.5z" />
    <glyph glyph-name="Uring" unicode="&#x16e;" horiz-adv-x="678" 
d="M598 687.5q15 -15.5 15 -37.5v-394q0 -81 -35.5 -140.5t-98 -91t-140.5 -31.5t-140.5 31.5t-98 91t-35.5 140.5v394q0 22 15.5 37.5t37.5 15.5q23 0 39 -15.5t16 -37.5v-393q0 -84 46 -128.5t120 -44.5t120 44.5t46 128.5v393q0 22 16.5 37.5t39.5 15.5q22 0 37 -15.5z
M410 949q29 -29 29 -70q0 -40 -29.5 -69t-69.5 -29q-42 0 -71.5 29t-29.5 69q0 41 29.5 70t71.5 29q41 0 70 -29zM316 903.5q-9 -9.5 -9 -23.5q0 -13 9 -22.5t22 -9.5t23 9.5t10 22.5q0 14 -9.5 23.5t-23.5 9.5q-13 0 -22 -9.5z" />
    <glyph glyph-name="uring" unicode="&#x16f;" horiz-adv-x="597" 
d="M115 49q-55 56 -55 175v246q0 22 15 37.5t37 15.5t37.5 -15.5t15.5 -37.5v-246q0 -71 34.5 -105.5t87.5 -34.5q44 0 75.5 22t48 52t20.5 55v257q0 22 15.5 37.5t37.5 15.5t37.5 -15.5t15.5 -37.5v-421q0 -22 -15.5 -38t-37.5 -16t-37.5 16t-15.5 38v66q-3 -21 -25 -50
t-62 -50.5t-92 -21.5q-82 0 -137 56zM370 769q29 -29 29 -70q0 -40 -29.5 -69t-69.5 -29q-42 0 -71.5 29t-29.5 69q0 41 29.5 70t71.5 29q41 0 70 -29zM276 723.5q-9 -9.5 -9 -23.5q0 -13 9 -22.5t22 -9.5t23 9.5t10 22.5q0 14 -9.5 23.5t-23.5 9.5q-13 0 -22 -9.5z" />
    <glyph glyph-name="Uhungarumlaut" unicode="&#x170;" horiz-adv-x="678" 
d="M598 687.5q15 -15.5 15 -37.5v-394q0 -81 -35.5 -140.5t-98 -91t-140.5 -31.5t-140.5 31.5t-98 91t-35.5 140.5v394q0 22 15.5 37.5t37.5 15.5q23 0 39 -15.5t16 -37.5v-393q0 -84 46 -128.5t120 -44.5t120 44.5t46 128.5v393q0 22 16.5 37.5t39.5 15.5q22 0 37 -15.5z
M544.5 936.5q16.5 -16.5 16.5 -39.5q0 -18 -12 -35l-85 -104q-12 -15 -29 -15q-15 0 -26 9t-11 24q0 4 4 16l52 124q6 16 20 26.5t31 10.5q23 0 39.5 -16.5zM362.5 936.5q16.5 -16.5 16.5 -39.5q0 -18 -12 -35l-85 -104q-12 -15 -29 -15q-15 0 -26 9t-11 24q0 4 4 16l52 124
q6 16 20 26.5t31 10.5q23 0 39.5 -16.5z" />
    <glyph glyph-name="uhungarumlaut" unicode="&#x171;" horiz-adv-x="597" 
d="M115 49q-55 56 -55 175v246q0 22 15 37.5t37 15.5t37.5 -15.5t15.5 -37.5v-246q0 -71 34.5 -105.5t87.5 -34.5q44 0 75.5 22t48 52t20.5 55v257q0 22 15.5 37.5t37.5 15.5t37.5 -15.5t15.5 -37.5v-421q0 -22 -15.5 -38t-37.5 -16t-37.5 16t-15.5 38v66q-3 -21 -25 -50
t-62 -50.5t-92 -21.5q-82 0 -137 56zM504.5 756.5q16.5 -16.5 16.5 -39.5q0 -18 -12 -35l-85 -104q-12 -15 -29 -15q-15 0 -26 9t-11 24q0 4 4 16l52 124q6 16 20 26.5t31 10.5q23 0 39.5 -16.5zM322.5 756.5q16.5 -16.5 16.5 -39.5q0 -18 -12 -35l-85 -104q-12 -15 -29 -15
q-15 0 -26 9t-11 24q0 4 4 16l52 124q6 16 20 26.5t31 10.5q23 0 39.5 -16.5z" />
    <glyph glyph-name="Uogonek" unicode="&#x172;" horiz-adv-x="678" 
d="M598 687.5q15 -15.5 15 -37.5v-394q0 -104 -57.5 -171t-151.5 -86q-49 -12 -89 -39t-40 -65q0 -24 17 -37t42 -13q35 0 35 -25q0 -33 -78 -33q-50 0 -83 21.5t-33 70.5q0 50 34 80t73 39q-98 16 -157.5 84t-59.5 174v394q0 22 15.5 37.5t37.5 15.5q23 0 39 -15.5
t16 -37.5v-393q0 -84 46 -128.5t120 -44.5t120 44.5t46 128.5v393q0 22 16.5 37.5t39.5 15.5q22 0 37 -15.5z" />
    <glyph glyph-name="uogonek" unicode="&#x173;" horiz-adv-x="597" 
d="M521.5 507.5q15.5 -15.5 15.5 -37.5v-421q0 -33 -18.5 -53t-55.5 -44q-29 -19 -43.5 -33t-14.5 -34q0 -21 16 -30.5t39 -9.5q38 0 38 -25q0 -33 -77 -33q-49 0 -82.5 20.5t-33.5 65.5q0 33 17 53.5t51 43.5q27 19 41.5 34t17.5 37q-1 3 -1 8v66q-3 -21 -25 -50t-62 -50.5
t-92 -21.5q-82 0 -137 56t-55 175v246q0 22 15 37.5t37 15.5t37.5 -15.5t15.5 -37.5v-246q0 -71 34.5 -105.5t87.5 -34.5q44 0 75.5 22t48 52t20.5 55v257q0 22 15.5 37.5t37.5 15.5t37.5 -15.5z" />
    <glyph glyph-name="Wcircumflex" unicode="&#x174;" horiz-adv-x="1025" 
d="M975 688q15 -15 15 -35q0 -13 -6 -29l-182 -589q-7 -19 -22 -29.5t-36 -10.5q-42 0 -56 40l-175 474l-175 -474q-15 -40 -57 -40q-21 0 -36 10.5t-21 29.5l-182 589q-7 19 -7 29q0 20 15.5 35t37.5 15q18 0 33 -9.5t19 -24.5l145 -499l179 498q14 35 48 35q36 0 49 -35
l180 -498l145 499q4 15 19 24.5t33 9.5q22 0 37 -15zM543 974q11 -6 23 -22l79 -104q9 -12 9 -23q0 -12 -8 -20.5t-21 -8.5q-19 0 -39 23l-73 87l-73 -87q-19 -23 -38 -23q-13 0 -21 8.5t-8 20.5q0 11 9 23l79 104q13 16 23 22t27 6h4q17 0 28 -6z" />
    <glyph glyph-name="wcircumflex" unicode="&#x175;" horiz-adv-x="830" 
d="M785.5 508.5q14.5 -14.5 14.5 -35.5q0 -6 -3 -13t-4 -11l-141 -411q-7 -19 -20 -29.5t-30 -10.5q-35 0 -52 40l-135 330l-136 -330q-7 -19 -20.5 -29.5t-30.5 -10.5t-30 10.5t-20 29.5l-141 411q-1 4 -4 11t-3 13q0 21 14.5 35.5t35.5 14.5q14 0 27.5 -8t17.5 -21
l110 -340l132 336q13 33 48 33q34 0 48 -33l132 -336l110 340q4 13 17 21t28 8q21 0 35.5 -14.5zM445 794q11 -6 23 -22l79 -104q9 -12 9 -23q0 -12 -8 -20.5t-21 -8.5q-19 0 -39 23l-73 87l-73 -87q-19 -23 -38 -23q-13 0 -21 8.5t-8 20.5q0 11 9 23l79 104q13 16 23 22
t27 6h4q17 0 28 -6z" />
    <glyph glyph-name="Ycircumflex" unicode="&#x176;" horiz-adv-x="617" 
d="M568.5 688.5q14.5 -14.5 14.5 -34.5q0 -15 -9 -29l-212 -307v-271q0 -22 -15.5 -37.5t-37.5 -15.5t-38 15.5t-16 37.5v271l-212 307q-8 14 -8 29q0 20 14.5 34.5t35.5 14.5q24 0 40 -21l184 -272l183 272q16 21 41 21q21 0 35.5 -14.5zM339 974q11 -6 23 -22l79 -104
q9 -12 9 -23q0 -12 -8 -20.5t-21 -8.5q-19 0 -39 23l-73 87l-73 -87q-19 -23 -38 -23q-13 0 -21 8.5t-8 20.5q0 11 9 23l79 104q13 16 23 22t27 6h4q17 0 28 -6z" />
    <glyph glyph-name="ycircumflex" unicode="&#x177;" horiz-adv-x="559" 
d="M515 509q14 -14 14 -34q0 -10 -6 -24l-267 -610q-8 -18 -21 -27t-29 -9q-21 0 -34 14t-13 34q0 10 6 24l62 143l-191 431q-6 14 -6 24q0 20 14 34t35 14q16 0 29 -9t21 -27l150 -349l151 349q8 18 21 27t29 9q21 0 35 -14zM307 794q11 -6 23 -22l79 -104q9 -12 9 -23
q0 -12 -8 -20.5t-21 -8.5q-19 0 -39 23l-73 87l-73 -87q-19 -23 -38 -23q-13 0 -21 8.5t-8 20.5q0 11 9 23l79 104q13 16 23 22t27 6h4q17 0 28 -6z" />
    <glyph glyph-name="Ydieresis" unicode="&#x178;" horiz-adv-x="617" 
d="M568.5 688.5q14.5 -14.5 14.5 -34.5q0 -15 -9 -29l-212 -307v-271q0 -22 -15.5 -37.5t-37.5 -15.5t-38 15.5t-16 37.5v271l-212 307q-8 14 -8 29q0 20 14.5 34.5t35.5 14.5q24 0 40 -21l184 -272l183 272q16 21 41 21q21 0 35.5 -14.5zM145 792q-17 17 -17 40t17 40
t41 17t41 -17t17 -40t-17 -40t-41 -17t-41 17zM391 792q-17 17 -17 40t17 40t41 17t41 -17t17 -40t-17 -40t-41 -17t-41 17z" />
    <glyph glyph-name="Zacute" unicode="&#x179;" horiz-adv-x="580" 
d="M515 679.5q22 -20.5 22 -49.5q0 -23 -16 -45l-366 -489h337q20 0 34 -14t14 -34t-14 -34t-34 -14h-374q-34 0 -56 20.5t-22 49.5q0 23 16 45l366 489h-315q-20 0 -34 14t-14 34t14 34t34 14h352q34 0 56 -20.5zM386.5 936.5q16.5 -16.5 16.5 -39.5q0 -18 -12 -35
l-85 -104q-12 -15 -29 -15q-15 0 -26 9t-11 24q0 4 4 16l52 124q6 16 20 26.5t31 10.5q23 0 39.5 -16.5z" />
    <glyph glyph-name="zacute" unicode="&#x17a;" horiz-adv-x="496" 
d="M428 500q22 -20 22 -48q0 -27 -22 -52l-276 -309h258q19 0 32.5 -13t13.5 -32t-13.5 -32.5t-32.5 -13.5h-294q-33 0 -54.5 19.5t-21.5 47.5t23 54l275 308h-241q-19 0 -32.5 13.5t-13.5 32.5t13.5 32t32.5 13h276q33 0 55 -20zM331.5 756.5q16.5 -16.5 16.5 -39.5
q0 -18 -12 -35l-85 -104q-12 -15 -29 -15q-15 0 -26 9t-11 24q0 4 4 16l52 124q6 16 20 26.5t31 10.5q23 0 39.5 -16.5z" />
    <glyph glyph-name="Zdotaccent" unicode="&#x17b;" horiz-adv-x="580" 
d="M515 679.5q22 -20.5 22 -49.5q0 -23 -16 -45l-366 -489h337q20 0 34 -14t14 -34t-14 -34t-34 -14h-374q-34 0 -56 20.5t-22 49.5q0 23 16 45l366 489h-315q-20 0 -34 14t-14 34t14 34t34 14h352q34 0 56 -20.5zM258.5 844.5q-16.5 16.5 -16.5 38.5q0 23 16.5 39t38.5 16
q23 0 39 -16t16 -39q0 -22 -16 -38.5t-39 -16.5q-22 0 -38.5 16.5z" />
    <glyph glyph-name="zdotaccent" unicode="&#x17c;" horiz-adv-x="496" 
d="M428 500q22 -20 22 -48q0 -27 -22 -52l-276 -309h258q19 0 32.5 -13t13.5 -32t-13.5 -32.5t-32.5 -13.5h-294q-33 0 -54.5 19.5t-21.5 47.5t23 54l275 308h-241q-19 0 -32.5 13.5t-13.5 32.5t13.5 32t32.5 13h276q33 0 55 -20zM203.5 664.5q-16.5 16.5 -16.5 38.5
q0 23 16.5 39t38.5 16q23 0 39 -16t16 -39q0 -22 -16 -38.5t-39 -16.5q-22 0 -38.5 16.5z" />
    <glyph glyph-name="Zcaron" unicode="&#x17d;" horiz-adv-x="580" 
d="M515 679.5q22 -20.5 22 -49.5q0 -23 -16 -45l-366 -489h337q20 0 34 -14t14 -34t-14 -34t-34 -14h-374q-34 0 -56 20.5t-22 49.5q0 23 16 45l366 489h-315q-20 0 -34 14t-14 34t14 34t34 14h352q34 0 56 -20.5zM295 796q-17 0 -27 6t-23 22l-79 104q-9 12 -9 23
q0 12 8 20.5t21 8.5q19 0 38 -23l73 -87l73 87q20 23 39 23q13 0 21 -8.5t8 -20.5q0 -11 -9 -23l-79 -104q-12 -16 -23 -22t-28 -6h-4z" />
    <glyph glyph-name="zcaron" unicode="&#x17e;" horiz-adv-x="496" 
d="M428 500q22 -20 22 -48q0 -27 -22 -52l-276 -309h258q19 0 32.5 -13t13.5 -32t-13.5 -32.5t-32.5 -13.5h-294q-33 0 -54.5 19.5t-21.5 47.5t23 54l275 308h-241q-19 0 -32.5 13.5t-13.5 32.5t13.5 32t32.5 13h276q33 0 55 -20zM240 616q-17 0 -27 6t-23 22l-79 104
q-9 12 -9 23q0 12 8 20.5t21 8.5q19 0 38 -23l73 -87l73 87q20 23 39 23q13 0 21 -8.5t8 -20.5q0 -11 -9 -23l-79 -104q-12 -16 -23 -22t-28 -6h-4z" />
    <glyph glyph-name="florin" unicode="&#x192;" horiz-adv-x="331" 
d="M308 508.5q12 -11.5 12 -30.5t-11.5 -31t-31.5 -12h-56v-461q0 -75 -33 -116.5t-90 -51.5q-4 -1 -13 -1q-23 0 -37.5 13t-14.5 33q0 16 10 28t25 17q28 6 37.5 28.5t9.5 68.5v442h-51q-19 0 -31 12t-12 31t12 30.5t31 11.5h51v16q0 76 33 117.5t91 50.5q5 1 14 1
q23 0 36.5 -13t13.5 -32q0 -16 -10 -28.5t-25 -16.5q-28 -7 -37.5 -28.5t-9.5 -66.5h56q19 0 31 -11.5z" />
    <glyph glyph-name="uni01CD" unicode="&#x1cd;" horiz-adv-x="707" 
d="M672 46q0 -20 -15.5 -35t-37.5 -15q-18 0 -31.5 9.5t-20.5 24.5l-61 143h-305l-61 -143q-7 -15 -20.5 -24.5t-31.5 -9.5q-22 0 -37.5 15t-15.5 35q0 15 7 29l259 589q17 40 52 40q36 0 53 -40l259 -589q7 -14 7 -29zM238 259h231l-116 270zM351 796q-17 0 -27 6t-23 22
l-79 104q-9 12 -9 23q0 12 8 20.5t21 8.5q19 0 38 -23l73 -87l73 87q20 23 39 23q13 0 21 -8.5t8 -20.5q0 -11 -9 -23l-79 -104q-12 -16 -23 -22t-28 -6h-4z" />
    <glyph glyph-name="uni01CE" unicode="&#x1ce;" 
d="M383.5 500q44.5 -26 64.5 -70v40q0 22 15.5 37.5t37.5 15.5t38 -15.5t16 -37.5v-423q0 -22 -16 -37.5t-38 -15.5t-37.5 15.5t-15.5 37.5v54q-4 -24 -25.5 -49t-57.5 -42t-81 -17q-59 0 -115 30.5t-92.5 90.5t-36.5 146q0 84 36.5 144.5t93 91t114.5 30.5q55 0 99.5 -26z
M372.5 103q34.5 19 57.5 59t23 98q0 59 -23 98.5t-57.5 58t-71.5 18.5q-38 0 -74 -20t-58.5 -59.5t-22.5 -95.5t22.5 -96t58.5 -60t74 -20q37 0 71.5 19zM309 616q-17 0 -27 6t-23 22l-79 104q-9 12 -9 23q0 12 8 20.5t21 8.5q19 0 38 -23l73 -87l73 87q20 23 39 23
q13 0 21 -8.5t8 -20.5q0 -11 -9 -23l-79 -104q-12 -16 -23 -22t-28 -6h-4z" />
    <glyph glyph-name="uni01CF" unicode="&#x1cf;" horiz-adv-x="230" 
d="M154 686.5q16 -16.5 16 -39.5v-597q0 -23 -16 -39.5t-38 -16.5q-23 0 -39.5 16.5t-16.5 39.5v597q0 23 16.5 39.5t39.5 16.5q22 0 38 -16.5zM114 796q-17 0 -27 6t-23 22l-79 104q-9 12 -9 23q0 12 8 20.5t21 8.5q19 0 38 -23l73 -87l73 87q20 23 39 23q13 0 21 -8.5
t8 -20.5q0 -11 -9 -23l-79 -104q-12 -16 -23 -22t-28 -6h-4z" />
    <glyph glyph-name="uni01D0" unicode="&#x1d0;" horiz-adv-x="256" 
d="M165.5 507.5q15.5 -15.5 15.5 -37.5v-422q0 -22 -15.5 -37.5t-37.5 -15.5t-37.5 15.5t-15.5 37.5v422q0 22 15.5 37.5t37.5 15.5t37.5 -15.5zM126 616q-17 0 -27 6t-23 22l-79 104q-9 12 -9 23q0 12 8 20.5t21 8.5q19 0 38 -23l73 -87l73 87q20 23 39 23q13 0 21 -8.5
t8 -20.5q0 -11 -9 -23l-79 -104q-12 -16 -23 -22t-28 -6h-4z" />
    <glyph glyph-name="uni01D1" unicode="&#x1d1;" horiz-adv-x="796" 
d="M566.5 661q80.5 -46 130 -127.5t49.5 -183.5t-49.5 -183.5t-130 -127.5t-168.5 -46t-168.5 46t-130 127.5t-49.5 183.5t49.5 183.5t130 127.5t168.5 46t168.5 -46zM283 572.5q-54 -32.5 -87 -90.5t-33 -132t33 -132t87 -90t115 -32t115 32t87 90t33 132t-32.5 132
t-86.5 90.5t-116 32.5q-61 0 -115 -32.5zM396 796q-17 0 -27 6t-23 22l-79 104q-9 12 -9 23q0 12 8 20.5t21 8.5q19 0 38 -23l73 -87l73 87q20 23 39 23q13 0 21 -8.5t8 -20.5q0 -11 -9 -23l-79 -104q-12 -16 -23 -22t-28 -6h-4z" />
    <glyph glyph-name="uni01D2" unicode="&#x1d2;" horiz-adv-x="607" 
d="M425 495q61 -31 101.5 -91.5t40.5 -144.5t-40.5 -144.5t-101.5 -91t-122 -30.5t-122 30.5t-101 91t-40 144.5t40 144.5t101 91.5t122 31t122 -31zM226.5 413.5q-36.5 -20.5 -59 -60.5t-22.5 -94t23 -93.5t59 -60t76 -20.5t76.5 20.5t59.5 60t23 93.5t-23 94t-59.5 60.5
t-76.5 20.5t-76.5 -20.5zM301 616q-17 0 -27 6t-23 22l-79 104q-9 12 -9 23q0 12 8 20.5t21 8.5q19 0 38 -23l73 -87l73 87q20 23 39 23q13 0 21 -8.5t8 -20.5q0 -11 -9 -23l-79 -104q-12 -16 -23 -22t-28 -6h-4z" />
    <glyph glyph-name="uni01D3" unicode="&#x1d3;" horiz-adv-x="678" 
d="M598 687.5q15 -15.5 15 -37.5v-394q0 -81 -35.5 -140.5t-98 -91t-140.5 -31.5t-140.5 31.5t-98 91t-35.5 140.5v394q0 22 15.5 37.5t37.5 15.5q23 0 39 -15.5t16 -37.5v-393q0 -84 46 -128.5t120 -44.5t120 44.5t46 128.5v393q0 22 16.5 37.5t39.5 15.5q22 0 37 -15.5z
M337 796q-17 0 -27 6t-23 22l-79 104q-9 12 -9 23q0 12 8 20.5t21 8.5q19 0 38 -23l73 -87l73 87q20 23 39 23q13 0 21 -8.5t8 -20.5q0 -11 -9 -23l-79 -104q-12 -16 -23 -22t-28 -6h-4z" />
    <glyph glyph-name="uni01D4" unicode="&#x1d4;" horiz-adv-x="597" 
d="M115 49q-55 56 -55 175v246q0 22 15 37.5t37 15.5t37.5 -15.5t15.5 -37.5v-246q0 -71 34.5 -105.5t87.5 -34.5q44 0 75.5 22t48 52t20.5 55v257q0 22 15.5 37.5t37.5 15.5t37.5 -15.5t15.5 -37.5v-421q0 -22 -15.5 -38t-37.5 -16t-37.5 16t-15.5 38v66q-3 -21 -25 -50
t-62 -50.5t-92 -21.5q-82 0 -137 56zM297 616q-17 0 -27 6t-23 22l-79 104q-9 12 -9 23q0 12 8 20.5t21 8.5q19 0 38 -23l73 -87l73 87q20 23 39 23q13 0 21 -8.5t8 -20.5q0 -11 -9 -23l-79 -104q-12 -16 -23 -22t-28 -6h-4z" />
    <glyph glyph-name="uni01EA" unicode="&#x1ea;" horiz-adv-x="796" 
d="M707.5 187q-38.5 -74 -102.5 -122.5t-140 -64.5q-49 -11 -91 -39t-42 -66q0 -24 17 -37t42 -13q35 0 35 -25q0 -33 -78 -33q-50 0 -83 21.5t-33 70.5q0 51 35 81t74 38q-78 14 -144.5 62t-106.5 123.5t-40 166.5q0 102 49.5 183.5t130 127.5t168.5 46t168.5 -46
t130 -127.5t49.5 -183.5q0 -89 -38.5 -163zM513 128q54 32 87 90t33 132t-32.5 132t-86.5 90.5t-116 32.5q-61 0 -115 -32.5t-87 -90.5t-33 -132t33 -132t87 -90t115 -32t115 32z" />
    <glyph glyph-name="uni01EB" unicode="&#x1eb;" horiz-adv-x="607" 
d="M538 133.5q-29 -54.5 -76 -87.5t-101 -46h1q-49 -11 -91 -39t-42 -66q0 -24 17 -37t42 -13q35 0 35 -25q0 -33 -78 -33q-50 0 -83 21.5t-33 70.5q0 38 20.5 64.5t48 40t49.5 16.5q-54 12 -101 45.5t-76.5 87.5t-29.5 126q0 84 40 144.5t101 91.5t122 31t122 -31
t101.5 -91.5t40.5 -144.5q0 -71 -29 -125.5zM379.5 105.5q36.5 20.5 59.5 60t23 93.5t-23 94t-59.5 60.5t-76.5 20.5t-76.5 -20.5t-59 -60.5t-22.5 -94t23 -93.5t59 -60t76 -20.5t76.5 20.5z" />
    <glyph glyph-name="Scommaaccent" unicode="&#x218;" horiz-adv-x="565" 
d="M495.5 94.5q-29.5 -42.5 -78 -67.5t-103.5 -32l-2 -4l-79 -157q-9 -18 -22.5 -24.5t-30.5 -6.5h-6q-13 0 -20.5 6.5t-7.5 17.5q0 6 4 18l52 155l1 3q-45 12 -82 36t-60 60q-21 29 -21 51q0 19 12 33t33 14q31 0 52 -32q25 -38 62 -56.5t79 -18.5q55 0 95.5 25t40.5 79
q0 44 -29 68t-95 50l-54 21q-84 33 -129 76.5t-45 111.5q0 55 29 97.5t79 65.5t111 23q118 0 188 -88q23 -29 23 -50q0 -18 -13 -30.5t-32 -12.5q-27 0 -46 23q-23 31 -49.5 46.5t-66.5 15.5q-53 0 -84 -25t-31 -66q0 -33 22.5 -57.5t70.5 -43.5l49 -19q112 -43 162.5 -88.5
t50.5 -117.5q0 -57 -29.5 -99.5z" />
    <glyph glyph-name="scommaaccent" unicode="&#x219;" horiz-adv-x="468" 
d="M388.5 49.5q-44.5 -40.5 -112.5 -51.5q-1 -1 -2 -2.5t-2 -4.5l-79 -157q-9 -18 -22.5 -24.5t-30.5 -6.5h-6q-13 0 -20.5 6.5t-7.5 17.5q0 6 4 18l52 155l1 3q-37 10 -64.5 29t-42.5 42q-9 12 -15 24t-6 27q0 17 10.5 30t30.5 13q16 0 26 -7.5t19 -21.5q33 -56 109 -56
q44 0 71 17t27 47q0 46 -71 66l-67 18q-139 39 -139 147q0 45 25 79t66.5 51.5t90.5 17.5q54 0 98 -20.5t68 -57.5q7 -10 10.5 -18t3.5 -19q0 -18 -12 -29t-31 -11q-26 0 -46 27q-34 42 -89 42q-37 0 -58.5 -17t-21.5 -44q0 -45 67 -64l62 -17q71 -19 110 -52.5t39 -92.5
q0 -63 -44.5 -103.5z" />
    <glyph glyph-name="uni021A" unicode="&#x21a;" horiz-adv-x="580" 
d="M536 686q14 -14 14 -34t-14 -34t-34 -14h-158v-553q0 -17 -10 -32q0 -11 -9 -29l-79 -157q-9 -18 -22.5 -24.5t-30.5 -6.5h-6q-13 0 -20.5 6.5t-7.5 17.5q0 6 4 18l52 155q9 23 24 34q-3 9 -3 18v553h-158q-20 0 -34 14t-14 34t14 34t34 14h424q20 0 34 -14z" />
    <glyph glyph-name="uni021B" unicode="&#x21b;" horiz-adv-x="353" 
d="M311 83.5q12 -10.5 12 -29.5q0 -22 -16.5 -36t-44.5 -19l-4 -8l-79 -157q-9 -18 -22.5 -24.5t-30.5 -6.5h-6q-13 0 -20.5 6.5t-7.5 17.5q0 6 4 18l52 155q1 3 2 5.5t2 4.5q-51 29 -51 121v304h-38q-19 0 -31 12t-12 31t12 30.5t31 11.5h38v78q0 21 15.5 36.5t36.5 15.5
q22 0 37.5 -15.5t15.5 -36.5v-78h73q20 0 32 -11.5t12 -30.5t-12 -31t-32 -12h-73v-305q0 -44 35 -44q8 0 20 2t19 3q19 3 31 -7.5z" />
    <glyph glyph-name="uni0237" unicode="&#x237;" horiz-adv-x="259" 
d="M183.5 507q15.5 -16 15.5 -38v-525q0 -74 -38.5 -111.5t-102.5 -37.5q-44 0 -78 17q-40 22 -40 54q0 19 14 33t33 14q9 0 14 -2t17 -8.5t28 -6.5q47 0 47 72v501q0 22 15.5 38t37.5 16t37.5 -16z" />
    <glyph glyph-name="circumflex" unicode="&#x2c6;" horiz-adv-x="281" 
d="M170 794q11 -6 23 -22l79 -104q9 -12 9 -23q0 -12 -8 -20.5t-21 -8.5q-19 0 -39 23l-73 87l-73 -87q-19 -23 -38 -23q-13 0 -21 8.5t-8 20.5q0 11 9 23l79 104q13 16 23 22t27 6h4q17 0 28 -6z" />
    <glyph glyph-name="caron" unicode="&#x2c7;" horiz-adv-x="281" 
d="M138 616q-17 0 -27 6t-23 22l-79 104q-9 12 -9 23q0 12 8 20.5t21 8.5q19 0 38 -23l73 -87l73 87q20 23 39 23q13 0 21 -8.5t8 -20.5q0 -11 -9 -23l-79 -104q-12 -16 -23 -22t-28 -6h-4z" />
    <glyph glyph-name="breve" unicode="&#x2d8;" horiz-adv-x="332" 
d="M320 760.5q12 -12.5 12 -29.5q0 -3 -2 -13q-14 -55 -56.5 -91t-107.5 -36t-107.5 36t-56.5 91q-2 10 -2 13q0 17 12 29.5t30 12.5q14 0 24 -7t15 -19q10 -27 33 -43.5t52 -16.5q30 0 53 16.5t32 43.5q5 11 15.5 18.5t23.5 7.5q18 0 30 -12.5z" />
    <glyph glyph-name="dotaccent" unicode="&#x2d9;" horiz-adv-x="120" 
d="M21.5 664.5q-16.5 16.5 -16.5 38.5q0 23 16.5 39t38.5 16q23 0 39 -16t16 -39q0 -22 -16 -38.5t-39 -16.5q-22 0 -38.5 16.5z" />
    <glyph glyph-name="ring" unicode="&#x2da;" horiz-adv-x="200" 
d="M171 769q29 -29 29 -70q0 -40 -29.5 -69t-69.5 -29q-42 0 -71.5 29t-29.5 69q0 41 29.5 70t71.5 29q41 0 70 -29zM77 723.5q-9 -9.5 -9 -23.5q0 -13 9 -22.5t22 -9.5t23 9.5t10 22.5q0 14 -9.5 23.5t-23.5 9.5q-13 0 -22 -9.5z" />
    <glyph glyph-name="ogonek" unicode="&#x2db;" horiz-adv-x="233" 
d="M142 -39q-42 -28 -42 -66q0 -24 17 -37t42 -13q35 0 35 -25q0 -33 -78 -33q-50 0 -83 21.5t-33 70.5q0 40 23.5 67.5t53 40.5t48.5 13h108q-49 -11 -91 -39z" />
    <glyph glyph-name="tilde" unicode="&#x2dc;" horiz-adv-x="395" 
d="M169.5 727q22.5 -10 50.5 -28q24 -15 39 -22t31 -7q36 0 47 23q9 13 25 13q13 0 21.5 -10.5t5.5 -24.5q-10 -39 -39.5 -62.5t-68.5 -23.5q-27 0 -50.5 11t-52.5 31q-26 17 -42.5 25t-33.5 8q-33 0 -45 -28q-3 -7 -10 -11.5t-15 -4.5q-14 0 -21.5 10t-4.5 23q10 40 41 64
t73 24q27 0 49.5 -10z" />
    <glyph glyph-name="hungarumlaut" unicode="&#x2dd;" horiz-adv-x="387" 
d="M332.5 756.5q16.5 -16.5 16.5 -39.5q0 -18 -12 -35l-85 -104q-12 -15 -29 -15q-15 0 -26 9t-11 24q0 4 4 16l52 124q6 16 20 26.5t31 10.5q23 0 39.5 -16.5zM150.5 756.5q16.5 -16.5 16.5 -39.5q0 -18 -12 -35l-85 -104q-12 -15 -29 -15q-15 0 -26 9t-11 24q0 4 4 16
l52 124q6 16 20 26.5t31 10.5q23 0 39.5 -16.5z" />
    <glyph glyph-name="uni0326" unicode="&#x326;" horiz-adv-x="0" 
d="M-206.5 -190.5q-7.5 6.5 -7.5 17.5q0 6 4 18l52 155q8 22 21 32t34 10h33q31 0 31 -21q0 -12 -9 -30l-79 -157q-9 -18 -22.5 -24.5t-30.5 -6.5h-6q-13 0 -20.5 6.5z" />
    <glyph glyph-name="uni0394" unicode="&#x394;" horiz-adv-x="733" 
d="M380 700l303 -700h-633l303 700h27zM367 527l-182 -436h363z" />
    <glyph glyph-name="uni03A9" unicode="&#x3a9;" horiz-adv-x="794" 
d="M705.5 88q13.5 -13 13.5 -37q0 -25 -13.5 -38t-38.5 -13h-166v133l37 28q45 36 72 86.5t27 108.5q0 74 -33.5 130.5t-89 87t-117.5 30.5t-117 -30.5t-88.5 -87t-33.5 -130.5q0 -58 26.5 -108.5t71.5 -86.5l37 -28v-133h-166q-52 0 -52 51q0 24 13.5 37t38.5 13h43
q-57 50 -88.5 114.5t-31.5 140.5q0 99 50 179.5t130 126t167 45.5t167 -45.5t130 -126t50 -179.5q0 -76 -31.5 -140.5t-88.5 -114.5h43q25 0 38.5 -13z" />
    <glyph glyph-name="uni03BC" unicode="&#x3bc;" horiz-adv-x="602" 
d="M526.5 507.5q15.5 -15.5 15.5 -37.5v-421q0 -22 -15.5 -38t-37.5 -16t-37.5 16t-15.5 38v66q-3 -21 -25 -50t-62 -50.5t-92 -21.5t-91 21v-157q0 -22 -15.5 -37.5t-37.5 -15.5t-37.5 15.5t-15.5 37.5v613q0 22 15.5 37.5t37.5 15.5h2h2q22 0 37.5 -15.5t15.5 -37.5v-246
q0 -71 34.5 -105.5t87.5 -34.5q44 0 75.5 22t48 52t20.5 55v257q0 22 15.5 37.5t37.5 15.5t37.5 -15.5z" />
    <glyph glyph-name="pi" unicode="&#x3c0;" horiz-adv-x="705" 
d="M610 88q19 3 34.5 -10t15.5 -33q0 -16 -9.5 -28t-24.5 -16q-37 -7 -68 -7q-48 0 -83.5 24t-35.5 76v335h-183v-382q0 -22 -15.5 -37.5t-37.5 -15.5q-21 0 -36.5 15.5t-15.5 37.5v382h-60q-19 0 -32.5 13.5t-13.5 32.5t13.5 32t32.5 13h512q19 0 32.5 -13t13.5 -32
t-13.5 -32.5t-32.5 -13.5h-59v-289q0 -33 9.5 -44t32.5 -11q12 0 24 3z" />
    <glyph glyph-name="uni0401" unicode="&#x401;" horiz-adv-x="558" 
d="M475 95q20 0 34 -14t14 -33q0 -20 -14 -34t-34 -14h-356q-25 0 -42 17t-17 42v582q0 26 17 42.5t42 16.5h346q20 0 34 -14t14 -33q0 -20 -14 -34t-34 -14h-297v-208h204q19 0 33 -13.5t14 -31.5q0 -19 -14 -32.5t-33 -13.5h-204v-211h307zM115 792q-17 17 -17 40t17 40
t41 17t41 -17t17 -40t-17 -40t-41 -17t-41 17zM361 792q-17 17 -17 40t17 40t41 17t41 -17t17 -40t-17 -40t-41 -17t-41 17z" />
    <glyph glyph-name="uni0404" unicode="&#x404;" horiz-adv-x="643" 
d="M583.5 141.5q14.5 -13.5 14.5 -35.5q0 -18 -11.5 -32.5t-35.5 -30.5q-73 -50 -174 -50q-89 0 -170 46t-131.5 127.5t-50.5 183.5t50.5 183.5t131.5 127.5t170 46q101 0 174 -50q24 -16 35.5 -30.5t11.5 -32.5q0 -22 -14.5 -35.5t-35.5 -13.5q-14 0 -24.5 5t-23.5 15
q-20 16 -52 27.5t-70 11.5q-55 0 -105.5 -26.5t-85.5 -74t-45 -107.5h178q19 0 32.5 -13t13.5 -32t-13.5 -32.5t-32.5 -13.5h-178q10 -60 44.5 -108t85 -74.5t106.5 -26.5q38 0 70 11.5t52 27.5q13 10 23.5 15t24.5 5q21 0 35.5 -13.5z" />
    <glyph glyph-name="uni0407" unicode="&#x407;" horiz-adv-x="230" 
d="M154 686.5q16 -16.5 16 -39.5v-597q0 -23 -16 -39.5t-38 -16.5q-23 0 -39.5 16.5t-16.5 39.5v597q0 23 16.5 39.5t39.5 16.5q22 0 38 -16.5zM-48 792q-17 17 -17 40t17 40t41 17t41 -17t17 -40t-17 -40t-41 -17t-41 17zM198 792q-17 17 -17 40t17 40t41 17t41 -17t17 -40
t-17 -40t-41 -17t-41 17z" />
    <glyph glyph-name="uni0410" unicode="&#x410;" horiz-adv-x="707" 
d="M672 46q0 -20 -15.5 -35t-37.5 -15q-18 0 -31.5 9.5t-20.5 24.5l-61 143h-305l-61 -143q-7 -15 -20.5 -24.5t-31.5 -9.5q-22 0 -37.5 15t-15.5 35q0 15 7 29l259 589q17 40 52 40q36 0 53 -40l259 -589q7 -14 7 -29zM238 259h231l-116 270z" />
    <glyph glyph-name="uni0411" unicode="&#x411;" horiz-adv-x="597" 
d="M437 401.5q58 -26.5 89 -74.5t31 -112t-31.5 -112.5t-89 -75.5t-134.5 -27h-183q-25 0 -42 17t-17 42v587v5v4q0 19 13.5 32t32.5 13h339q19 0 32.5 -13t13.5 -32t-13.5 -32.5t-32.5 -13.5h-277v-181h134q77 0 135 -26.5zM411 123q41 30 41 92t-40.5 91t-113.5 29h-130
v-242h130q72 0 113 30z" />
    <glyph glyph-name="uni0412" unicode="&#x412;" horiz-adv-x="598" 
d="M558 201q0 -94 -66.5 -147.5t-191.5 -53.5h-181q-25 0 -42 17t-17 42v582q0 26 17 42.5t42 16.5h174q99 0 159.5 -46.5t60.5 -128.5q0 -102 -99 -138q144 -50 144 -186zM168 419h125q55 0 84.5 24.5t29.5 69.5t-30 70t-84 25h-125v-189zM415.5 123.5q37.5 31.5 37.5 86.5
t-38 89.5t-115 34.5h-132v-242h132q78 0 115.5 31.5z" />
    <glyph glyph-name="uni0413" unicode="&#x413;" horiz-adv-x="539" 
d="M490.5 687q13.5 -13 13.5 -32t-13.5 -32.5t-32.5 -13.5h-292v-561q0 -22 -15.5 -37.5t-37.5 -15.5t-37.5 15.5t-15.5 37.5v593q0 26 17 42.5t42 16.5h339q19 0 32.5 -13z" />
    <glyph glyph-name="uni0414" unicode="&#x414;" horiz-adv-x="833" 
d="M743 91q26 0 43 -16.5t17 -42.5v-75q0 -25 -17.5 -42.5t-41.5 -17.5q-23 0 -40.5 17.5t-17.5 42.5v43h-539v-43q0 -25 -17.5 -42.5t-41.5 -17.5q-23 0 -40.5 17.5t-17.5 42.5v75q0 26 17 42.5t42 16.5h31q25 35 32 133.5t7 278.5v57v81q0 26 17 42.5t43 16.5h416
q26 0 42.5 -16.5t16.5 -42.5v-550h49zM589 91v518h-324v-49v-55q0 -181 -7.5 -280t-33.5 -134h365z" />
    <glyph glyph-name="uni0415" unicode="&#x415;" horiz-adv-x="558" 
d="M475 95q20 0 34 -14t14 -33q0 -20 -14 -34t-34 -14h-356q-25 0 -42 17t-17 42v582q0 26 17 42.5t42 16.5h346q20 0 34 -14t14 -33q0 -20 -14 -34t-34 -14h-297v-208h204q19 0 33 -13.5t14 -31.5q0 -19 -14 -32.5t-33 -13.5h-204v-211h307z" />
    <glyph glyph-name="uni0416" unicode="&#x416;" horiz-adv-x="1096" 
d="M1066 42q0 -20 -14.5 -34t-34.5 -14q-10 0 -19.5 4.5t-16.5 12.5l-264 291l-115 -118v-135q0 -23 -16 -39t-38 -16t-38 16t-16 39v135l-115 118l-264 -291q-7 -8 -16.5 -12.5t-19.5 -4.5q-20 0 -34.5 14t-14.5 34q0 18 13 33l268 298l-244 252q-11 13 -11 32
q0 20 14.5 34.5t34.5 14.5t38 -18l351 -359v322q0 23 16 39t38 16t38 -16t16 -39v-322l351 359q18 18 38 18t34.5 -14.5t14.5 -34.5q0 -19 -11 -32l-244 -252l268 -298q13 -15 13 -33z" />
    <glyph glyph-name="uni0417" unicode="&#x417;" horiz-adv-x="572" 
d="M389 681.5q51 -25.5 81.5 -68t30.5 -91.5q0 -57 -39 -98.5t-101 -54.5q43 -3 82 -24t64 -59t25 -89q0 -58 -33.5 -105.5t-92 -74.5t-128.5 -27q-86 0 -148 40.5t-85 107.5q-4 9 -4 22q0 21 12 35.5t34 14.5q18 0 33 -10.5t20 -24.5q18 -46 57 -69.5t84 -23.5q31 0 64 12
t55.5 37.5t22.5 65.5q0 51 -38 81.5t-107 38.5q-19 2 -31 16t-12 31t12 30.5t30 15.5q60 7 88 38t28 68q0 44 -34 71.5t-80 27.5q-38 0 -71 -22t-47 -67q-5 -17 -19.5 -27.5t-33.5 -10.5q-22 0 -34.5 14.5t-12.5 35.5q0 12 2 18q19 71 77.5 111t137.5 40q60 0 111 -25.5z
" />
    <glyph glyph-name="uni0418" unicode="&#x418;" horiz-adv-x="689" 
d="M154 686.5q16 -16.5 16 -39.5v-453l353 477q21 32 55 32q22 0 36.5 -13.5t14.5 -38.5v-600q0 -23 -16.5 -39.5t-39.5 -16.5q-22 0 -38 16.5t-16 39.5v453l-353 -477q-21 -32 -55 -32q-22 0 -36.5 13.5t-14.5 38.5v600q0 23 16.5 39.5t39.5 16.5q22 0 38 -16.5z" />
    <glyph glyph-name="uni0419" unicode="&#x419;" horiz-adv-x="689" 
d="M499 940.5q12 -12.5 12 -29.5q0 -3 -2 -13q-14 -55 -56.5 -91t-107.5 -36t-107.5 36t-56.5 91q-2 10 -2 13q0 17 12 29.5t30 12.5q14 0 24 -7t15 -19q10 -27 33 -43.5t52 -16.5q30 0 53 16.5t32 43.5q5 11 15.5 18.5t23.5 7.5q18 0 30 -12.5zM154 686.5
q16 -16.5 16 -39.5v-453l353 477q21 32 55 32q22 0 36.5 -13.5t14.5 -38.5v-600q0 -23 -16.5 -39.5t-39.5 -16.5q-22 0 -38 16.5t-16 39.5v453l-353 -477q-21 -32 -55 -32q-22 0 -36.5 13.5t-14.5 38.5v600q0 23 16.5 39.5t39.5 16.5q22 0 38 -16.5z" />
    <glyph glyph-name="uni041A" unicode="&#x41a;" horiz-adv-x="662" 
d="M632 42q0 -20 -14.5 -34t-34.5 -14q-10 0 -19.5 4.5t-16.5 12.5l-264 291l-115 -118v-135q0 -22 -16 -38.5t-38 -16.5t-38 16t-16 39v602q0 23 16 39t38 16t38 -16.5t16 -38.5v-322l351 359q18 18 38 18t34.5 -14.5t14.5 -34.5q0 -19 -11 -32l-244 -252l268 -298
q13 -15 13 -33z" />
    <glyph glyph-name="uni041B" unicode="&#x41b;" horiz-adv-x="738" 
d="M661 683.5q17 -16.5 17 -42.5v-593q0 -22 -15.5 -37.5t-37.5 -15.5t-37.5 15.5t-15.5 37.5v561h-333v-481q0 -75 -34 -104.5t-92 -29.5q-43 0 -70.5 13.5t-27.5 41.5q0 22 15 34t33 10q27 -5 36 -5q18 0 26.5 11t8.5 35v507q0 26 16.5 42.5t42.5 16.5h425q26 0 43 -16.5z
" />
    <glyph glyph-name="uni041C" unicode="&#x41c;" horiz-adv-x="867" 
d="M792.5 689.5q14.5 -13.5 14.5 -36.5v-600q0 -23 -16 -39.5t-39 -16.5q-22 0 -38.5 16.5t-16.5 39.5v406l-216 -403q-16 -30 -47 -30q-15 0 -27.5 7.5t-19.5 22.5l-217 403v-406q0 -23 -16 -39.5t-38 -16.5q-23 0 -39.5 16.5t-16.5 39.5v600q0 23 14.5 36.5t34.5 13.5
q17 0 32 -10t24 -26l269 -489l269 489q9 16 24 26t32 10q19 0 33.5 -13.5z" />
    <glyph glyph-name="uni041D" unicode="&#x41d;" horiz-adv-x="671" 
d="M519 687q16 16 39 16q22 0 37.5 -16t15.5 -39v-596q0 -23 -15.5 -39t-37.5 -16q-23 0 -39 16t-16 39v245h-335v-245q0 -23 -15.5 -39t-37.5 -16q-23 0 -39 16t-16 39v596q0 23 16 39t39 16q22 0 37.5 -16t15.5 -39v-258h335v258q0 23 16 39z" />
    <glyph glyph-name="uni041E" unicode="&#x41e;" horiz-adv-x="796" 
d="M566.5 661q80.5 -46 130 -127.5t49.5 -183.5t-49.5 -183.5t-130 -127.5t-168.5 -46t-168.5 46t-130 127.5t-49.5 183.5t49.5 183.5t130 127.5t168.5 46t168.5 -46zM283 572.5q-54 -32.5 -87 -90.5t-33 -132t33 -132t87 -90t115 -32t115 32t87 90t33 132t-32.5 132
t-86.5 90.5t-116 32.5q-61 0 -115 -32.5z" />
    <glyph glyph-name="uni041F" unicode="&#x41f;" horiz-adv-x="684" 
d="M607 683.5q17 -16.5 17 -42.5v-593q0 -22 -15.5 -37.5t-37.5 -15.5t-37.5 15.5t-15.5 37.5v561h-352v-561q0 -22 -15.5 -37.5t-37.5 -15.5t-37.5 15.5t-15.5 37.5v593q0 26 17 42.5t42 16.5h445q26 0 43 -16.5z" />
    <glyph glyph-name="uni0420" unicode="&#x420;" horiz-adv-x="592" 
d="M436 671q58 -29 89.5 -79.5t31.5 -113.5q0 -65 -31.5 -115.5t-89 -79t-134.5 -28.5h-134v-206q0 -23 -15.5 -39t-37.5 -16q-23 0 -39 16t-16 39v592q0 26 17 42.5t42 16.5h183q76 0 134 -29zM411.5 379.5q40.5 31.5 40.5 98.5q0 64 -41.5 96.5t-112.5 32.5h-130v-259h130
q73 0 113.5 31.5z" />
    <glyph glyph-name="uni0421" unicode="&#x421;" horiz-adv-x="658" 
d="M608.5 141.5q14.5 -13.5 14.5 -35.5q0 -18 -11.5 -32.5t-35.5 -30.5q-73 -50 -174 -50q-89 0 -170 46t-131.5 127.5t-50.5 183.5t50.5 183.5t131.5 127.5t170 46q101 0 174 -50q24 -16 35.5 -30.5t11.5 -32.5q0 -22 -14.5 -35.5t-35.5 -13.5q-14 0 -24.5 5t-23.5 15
q-20 16 -52 27.5t-70 11.5q-62 0 -117.5 -33.5t-89 -91.5t-33.5 -129t33.5 -129t89 -91.5t117.5 -33.5q38 0 70 11.5t52 27.5q13 10 23.5 15t24.5 5q21 0 35.5 -13.5z" />
    <glyph glyph-name="uni0422" unicode="&#x422;" horiz-adv-x="580" 
d="M536 686q14 -14 14 -34t-14 -34t-34 -14h-158v-553q0 -23 -16 -40t-37 -17q-22 0 -38.5 17t-16.5 40v553h-158q-20 0 -34 14t-14 34t14 34t34 14h424q20 0 34 -14z" />
    <glyph glyph-name="uni0423" unicode="&#x423;" horiz-adv-x="633" 
d="M525 698.5q12 7.5 25 7.5q20 0 34.5 -14.5t14.5 -34.5q0 -12 -6 -24l-336 -612q-6 -11 -17.5 -18.5t-25.5 -7.5q-20 0 -34 14.5t-14 34.5q0 10 5 23l90 163l-221 403q-5 13 -5 24q0 20 14.5 34.5t34.5 14.5q13 0 24.5 -7.5t17.5 -18.5l191 -348l191 348q5 11 17 18.5z
" />
    <glyph glyph-name="uni0424" unicode="&#x424;" horiz-adv-x="828" 
d="M746.5 206q-41.5 -64 -115 -101.5t-165.5 -39.5v-18q0 -22 -15.5 -37.5t-37.5 -15.5t-37.5 15.5t-15.5 37.5v18q-92 3 -165 40.5t-114 101.5t-41 143t41 143t114 101.5t165 40.5v18q0 22 15.5 37.5t37.5 15.5t37.5 -15.5t15.5 -37.5v-18q92 -2 165.5 -39.5t115 -101.5
t41.5 -144t-41.5 -144zM630 214.5q52 55.5 52 135.5t-52 135.5t-164 58.5v-388q112 3 164 58.5zM197.5 215q51.5 -56 162.5 -59v388q-111 -3 -162.5 -59t-51.5 -135t51.5 -135z" />
    <glyph glyph-name="uni0425" unicode="&#x425;" horiz-adv-x="640" 
d="M595 41q0 -20 -14 -33.5t-36 -13.5q-28 0 -45 24l-180 256l-179 -256q-18 -24 -45 -24q-22 0 -36.5 13.5t-14.5 33.5q0 19 12 38l203 281l-186 259q-13 16 -13 37q0 20 14.5 33.5t36.5 13.5q27 0 45 -24l163 -233l163 233q18 24 46 24q22 0 36 -13.5t14 -33.5
q0 -22 -12 -37l-186 -259l202 -281q12 -16 12 -38z" />
    <glyph glyph-name="uni0426" unicode="&#x426;" horiz-adv-x="758" 
d="M711.5 74.5q16.5 -16.5 16.5 -42.5v-63q0 -22 -15 -37.5t-37 -15.5t-37.5 15.5t-15.5 37.5v31h-504q-25 0 -42 17t-17 42v593q0 22 15.5 37.5t37.5 15.5t37.5 -15.5t15.5 -37.5v-561h352v561q0 22 15.5 37.5t37.5 15.5t37.5 -15.5t15.5 -37.5v-561h45q26 0 42.5 -16.5z
" />
    <glyph glyph-name="uni0427" unicode="&#x427;" horiz-adv-x="613" 
d="M462.5 687.5q15.5 15.5 37.5 15.5t37.5 -15.5t15.5 -37.5v-602q0 -22 -15.5 -37.5t-37.5 -15.5t-37.5 15.5t-15.5 37.5v263q-8 -19 -31.5 -41t-63 -38t-91.5 -16q-93 0 -154.5 51t-61.5 159v224q0 22 15.5 37.5t37.5 15.5t37.5 -15.5t15.5 -37.5v-224q0 -60 37 -90
t92 -30q63 0 105 34.5t62 77.5v232q0 22 15.5 37.5z" />
    <glyph glyph-name="uni0428" unicode="&#x428;" horiz-adv-x="1082" 
d="M1006.5 689.5q15.5 -15.5 15.5 -37.5v-593q0 -26 -17 -42.5t-43 -16.5h-843q-25 0 -42 17t-17 42v593q0 22 15.5 37.5t37.5 15.5t37.5 -15.5t15.5 -37.5v-561h322v561q0 22 15.5 37.5t37.5 15.5t37.5 -15.5t15.5 -37.5v-561h322v561q0 22 15.5 37.5t37.5 15.5t37.5 -15.5
z" />
    <glyph glyph-name="uni0429" unicode="&#x429;" horiz-adv-x="1156" 
d="M1109.5 74.5q16.5 -16.5 16.5 -42.5v-63q0 -22 -15 -37.5t-37 -15.5t-37.5 15.5t-15.5 37.5v31h-902q-25 0 -42 17t-17 42v593q0 22 15.5 37.5t37.5 15.5t37.5 -15.5t15.5 -37.5v-561h322v561q0 22 15.5 37.5t37.5 15.5t37.5 -15.5t15.5 -37.5v-561h322v561
q0 22 15.5 37.5t37.5 15.5t37.5 -15.5t15.5 -37.5v-561h45q26 0 42.5 -16.5z" />
    <glyph glyph-name="uni042A" unicode="&#x42a;" horiz-adv-x="691" 
d="M530.5 416.5q57.5 -28.5 89 -79t31.5 -115.5q0 -63 -31.5 -113.5t-89.5 -79.5t-134 -29h-183q-25 0 -42 17t-17 42v556h-88q-19 0 -32.5 13.5t-13.5 32.5t13.5 32t32.5 13h143q22 0 37.5 -16t15.5 -39v-206h134q77 0 134.5 -28.5zM504.5 125.5q41.5 32.5 41.5 96.5
q0 67 -40.5 98.5t-113.5 31.5h-130v-259h130q71 0 112.5 32.5z" />
    <glyph glyph-name="uni042B" unicode="&#x42b;" horiz-adv-x="856" 
d="M436.5 416.5q57.5 -28.5 89 -79t31.5 -115.5q0 -63 -31.5 -113.5t-89.5 -79.5t-134 -29h-183q-25 0 -42 17t-17 42v592q0 23 16 39t39 16q22 0 37.5 -16t15.5 -39v-206h134q77 0 134.5 -28.5zM410.5 125.5q41.5 32.5 41.5 96.5q0 67 -40.5 98.5t-113.5 31.5h-130v-259
h130q71 0 112.5 32.5zM780 686.5q16 -16.5 16 -39.5v-597q0 -23 -16 -39.5t-38 -16.5q-23 0 -39.5 16.5t-16.5 39.5v597q0 23 16.5 39.5t39.5 16.5q22 0 38 -16.5z" />
    <glyph glyph-name="uni042C" unicode="&#x42c;" horiz-adv-x="592" 
d="M436.5 416.5q57.5 -28.5 89 -79t31.5 -115.5q0 -63 -31.5 -113.5t-89.5 -79.5t-134 -29h-183q-25 0 -42 17t-17 42v592q0 23 16 39t39 16q22 0 37.5 -16t15.5 -39v-206h134q77 0 134.5 -28.5zM410.5 125.5q41.5 32.5 41.5 96.5q0 67 -40.5 98.5t-113.5 31.5h-130v-259
h130q71 0 112.5 32.5z" />
    <glyph glyph-name="uni042D" unicode="&#x42d;" horiz-adv-x="643" 
d="M416 661q81 -46 131.5 -127.5t50.5 -183.5t-50.5 -183.5t-131.5 -127.5t-170 -46q-101 0 -174 50q-24 16 -35.5 30.5t-11.5 32.5q0 22 14.5 35.5t35.5 13.5q14 0 24.5 -5t23.5 -15q20 -16 52 -27.5t70 -11.5q56 0 106.5 26.5t85 74.5t44.5 108h-178q-19 0 -32.5 13.5
t-13.5 32.5t13.5 32t32.5 13h178q-10 60 -45 107.5t-85.5 74t-105.5 26.5q-38 0 -70 -11.5t-52 -27.5q-13 -10 -23.5 -15t-24.5 -5q-21 0 -35.5 13.5t-14.5 35.5q0 18 11.5 32.5t35.5 30.5q73 50 174 50q89 0 170 -46z" />
    <glyph glyph-name="uni042E" unicode="&#x42e;" horiz-adv-x="1008" 
d="M778.5 661q80.5 -46 130 -127.5t49.5 -183.5t-49.5 -183.5t-130 -127.5t-168.5 -46q-81 0 -156.5 39.5t-126.5 111t-62 161.5h-95v-255q0 -23 -16 -39.5t-38 -16.5q-23 0 -39.5 16.5t-16.5 39.5v597q0 23 16.5 39.5t39.5 16.5q22 0 38 -16.5t16 -39.5v-251h95
q11 90 62 161t126.5 110.5t156.5 39.5q88 0 168.5 -46zM725 128q54 32 87 90t33 132t-32.5 132t-86.5 90.5t-116 32.5q-61 0 -115 -32.5t-87 -90.5t-33 -132t33 -132t87 -90t115 -32t115 32z" />
    <glyph glyph-name="uni042F" unicode="&#x42f;" horiz-adv-x="606" 
d="M529.5 683.5q16.5 -16.5 16.5 -42.5v-592q0 -23 -16 -39t-39 -16q-22 0 -37.5 16t-15.5 39v206h-121l-188 -238q-16 -20 -40 -20q-21 0 -35 14.5t-14 35.5q0 19 13 34l154 188q-74 23 -116 78t-42 131q0 63 31.5 113.5t89.5 79.5t134 29h183q26 0 42.5 -16.5zM438 348
v259h-130q-71 0 -112.5 -32.5t-41.5 -96.5q0 -67 40.5 -98.5t113.5 -31.5h130z" />
    <glyph glyph-name="uni0430" unicode="&#x430;" 
d="M383.5 500q44.5 -26 64.5 -70v40q0 22 15.5 37.5t37.5 15.5t38 -15.5t16 -37.5v-423q0 -22 -16 -37.5t-38 -15.5t-37.5 15.5t-15.5 37.5v54q-4 -24 -25.5 -49t-57.5 -42t-81 -17q-59 0 -115 30.5t-92.5 90.5t-36.5 146q0 84 36.5 144.5t93 91t114.5 30.5q55 0 99.5 -26z
M372.5 103q34.5 19 57.5 59t23 98q0 59 -23 98.5t-57.5 58t-71.5 18.5q-38 0 -74 -20t-58.5 -59.5t-22.5 -95.5t22.5 -96t58.5 -60t74 -20q37 0 71.5 19z" />
    <glyph glyph-name="uni0431" unicode="&#x431;" 
d="M445.5 495.5q56.5 -30.5 93 -91t36.5 -144.5q0 -86 -36.5 -146t-92.5 -90.5t-115 -30.5q-45 0 -81 17t-57.5 42t-25.5 49v-54q0 -22 -15.5 -37.5t-37.5 -15.5t-38 15.5t-16 37.5v423q0 7 1 10v40q0 92 49 136t153 44h60q65 0 87 14q20 13 34 13q17 0 28.5 -12.5
t11.5 -28.5q0 -12 -5 -23.5t-12 -17.5q-19 -20 -49.5 -28t-73.5 -8h-81q-49 0 -72.5 -22.5t-23.5 -66.5v-90q20 44 64.5 70t99.5 26q58 0 114.5 -30.5zM388 104q36 20 58.5 60t22.5 96t-22.5 95.5t-58.5 59.5t-74 20q-37 0 -71.5 -18.5t-57.5 -58t-23 -98.5q0 -58 23 -98
t57.5 -59t71.5 -19q38 0 74 20z" />
    <glyph glyph-name="uni0432" unicode="&#x432;" horiz-adv-x="564" 
d="M502.5 233q26.5 -35 26.5 -80q0 -76 -59 -114.5t-165 -38.5h-186q-25 0 -42 17t-17 42v402q0 26 17 42.5t42 16.5h186q84 0 134 -35t50 -98q0 -34 -16 -60t-51 -39q54 -20 80.5 -55zM166 321h137q81 0 81 56t-81 56h-137v-112zM398 108q25 21 25 53q0 78 -118 78h-139
v-152h139q68 0 93 21z" />
    <glyph glyph-name="uni0433" unicode="&#x433;" horiz-adv-x="492" 
d="M448 507q14 -13 14 -32t-14 -32.5t-33 -13.5h-249v-381q0 -22 -15.5 -37.5t-37.5 -15.5t-37.5 15.5t-15.5 37.5v413q0 26 17 42.5t42 16.5h296q19 0 33 -13z" />
    <glyph glyph-name="uni0434" unicode="&#x434;" horiz-adv-x="668" 
d="M626.5 74.5q16.5 -16.5 16.5 -42.5v-67q0 -22 -15 -37.5t-37 -15.5t-37.5 15.5t-15.5 37.5v35h-407v-35q0 -22 -15.5 -37.5t-37.5 -15.5t-37.5 15.5t-15.5 37.5v67q0 26 17 42.5t42 16.5h4q19 44 25 107t6 176v87q0 26 16.5 42.5t42.5 16.5h341q26 0 42.5 -16.5
t16.5 -42.5v-370h6q26 0 42.5 -16.5zM218 200q-6 -67 -22 -109h277v338h-249v-55q0 -107 -6 -174z" />
    <glyph glyph-name="uni0435" unicode="&#x435;" horiz-adv-x="590" 
d="M416.5 496q58.5 -30 96 -87t37.5 -132q0 -30 -16.5 -43.5t-49.5 -13.5l-335 1q8 -67 54 -103t110 -36q30 0 53 7t47 22q3 2 12.5 7t16 7t13.5 2q17 0 27 -10.5t10 -27.5q0 -23 -27 -45q-29 -23 -69 -36t-87 -13q-68 0 -130 29.5t-100.5 89t-38.5 145.5q0 85 39.5 145.5
t99.5 91t120 30.5q59 0 117.5 -30zM199.5 398.5q-44.5 -35.5 -50.5 -101.5h298q-6 67 -49.5 102t-98.5 35t-99.5 -35.5z" />
    <glyph glyph-name="uni0436" unicode="&#x436;" horiz-adv-x="817" 
d="M792 44q0 -20 -14.5 -34.5t-34.5 -14.5q-10 0 -19.5 4t-15.5 11l-190 196l-56 -57v-101q0 -22 -15.5 -37.5t-37.5 -15.5h-1q-22 0 -37.5 15.5t-15.5 37.5v101l-56 57l-190 -196q-6 -7 -15.5 -11t-19.5 -4q-20 0 -34.5 14.5t-14.5 34.5t13 35l194 195l-165 167
q-15 13 -15 33t14.5 34.5t34.5 14.5t35 -15l219 -221v183q0 22 15.5 37.5t37.5 15.5h1v0q22 0 37.5 -15.5t15.5 -37.5v-183l219 221q15 15 35 15t34.5 -14.5t14.5 -34.5t-15 -33l-165 -167l194 -195q13 -15 13 -35z" />
    <glyph glyph-name="uni0437" unicode="&#x437;" horiz-adv-x="520" 
d="M349.5 506.5q44.5 -18.5 71.5 -50.5t27 -71q0 -43 -28 -70t-64 -37q43 -8 83.5 -39.5t40.5 -88.5q0 -48 -31 -83.5t-82 -54.5t-109 -19q-77 0 -132 33t-80 91q-6 12 -6 25q0 18 12 31.5t33 13.5q16 0 28 -7t17 -18q17 -40 52 -60t78 -20q44 0 79 19.5t35 55.5
q0 32 -30 52.5t-83 22.5q-20 1 -32 11.5t-12 28.5q0 17 11.5 29t30.5 13q44 4 63.5 20t19.5 40q0 30 -29.5 46t-62.5 16t-62.5 -17t-45.5 -47q-4 -8 -15 -14.5t-24 -6.5q-21 0 -33 13.5t-12 32.5q0 16 7 29q23 44 74.5 71.5t113.5 27.5q52 0 96.5 -18.5z" />
    <glyph glyph-name="uni0438" unicode="&#x438;" horiz-adv-x="609" 
d="M445 517.5q17 8.5 34 8.5q28 0 49 -20.5t21 -54.5v-404q0 -22 -15.5 -37.5t-37.5 -15.5q-21 0 -36.5 15.5t-15.5 37.5v324l-251 -343q-25 -34 -63 -34q-28 0 -49 20.5t-21 54.5v404q0 22 15.5 37.5t37.5 15.5t37.5 -15.5t15.5 -37.5v-324l250 343q12 17 29 25.5z" />
    <glyph glyph-name="uni0439" unicode="&#x439;" horiz-adv-x="609" 
d="M445 517.5q17 8.5 34 8.5q28 0 49 -20.5t21 -54.5v-404q0 -22 -15.5 -37.5t-37.5 -15.5q-21 0 -36.5 15.5t-15.5 37.5v324l-251 -343q-25 -34 -63 -34q-28 0 -49 20.5t-21 54.5v404q0 22 15.5 37.5t37.5 15.5t37.5 -15.5t15.5 -37.5v-324l250 343q12 17 29 25.5z
M459 760.5q12 -12.5 12 -29.5q0 -3 -2 -13q-14 -55 -56.5 -91t-107.5 -36t-107.5 36t-56.5 91q-2 10 -2 13q0 17 12 29.5t30 12.5q14 0 24 -7t15 -19q10 -27 33 -43.5t52 -16.5q30 0 53 16.5t32 43.5q5 11 15.5 18.5t23.5 7.5q18 0 30 -12.5z" />
    <glyph glyph-name="uni043A" unicode="&#x43a;" horiz-adv-x="521" 
d="M496 44q0 -20 -14.5 -34.5t-34.5 -14.5q-10 0 -19.5 4t-15.5 11l-190 196l-56 -57v-101q0 -22 -15.5 -37.5t-37.5 -15.5t-37.5 15.5t-15.5 37.5v422q0 22 15.5 37.5t37.5 15.5t37.5 -15.5t15.5 -37.5v-183l219 221q15 15 35 15t34.5 -14.5t14.5 -34.5t-15 -33l-165 -167
l194 -195q13 -15 13 -35z" />
    <glyph glyph-name="uni043B" unicode="&#x43b;" horiz-adv-x="658" 
d="M581 503.5q17 -16.5 17 -42.5v-414q0 -22 -15.5 -37.5t-37.5 -15.5t-37.5 15.5t-15.5 37.5v382h-262v-299q0 -77 -34 -106.5t-90 -29.5q-42 0 -66.5 13.5t-24.5 40.5q0 20 14.5 32t34.5 9q21 -3 24 -3q21 0 28.5 13t7.5 35v327q0 26 17 42.5t42 16.5h355q26 0 43 -16.5z
" />
    <glyph glyph-name="uni043C" unicode="&#x43c;" horiz-adv-x="807" 
d="M615.5 511.5q21.5 12.5 45.5 12.5q35 0 60.5 -24t25.5 -63v-389q0 -22 -15.5 -37.5t-37.5 -15.5t-37.5 15.5t-15.5 37.5v322l-186 -347q-7 -14 -21.5 -21.5t-30.5 -7.5t-30 7.5t-22 21.5l-185 347v-322q0 -22 -15.5 -37.5t-37.5 -15.5t-37.5 15.5t-15.5 37.5v389
q0 39 25.5 63t60.5 24q24 0 45.5 -12.5t34.5 -36.5l177 -331l178 331q13 24 34.5 36.5z" />
    <glyph glyph-name="uni043D" unicode="&#x43d;" horiz-adv-x="586" 
d="M435.5 507.5q15.5 15.5 37.5 15.5t37.5 -15.5t15.5 -37.5v-422q0 -22 -15.5 -37.5t-37.5 -15.5t-37.5 15.5t-15.5 37.5v167h-254v-167q0 -22 -15.5 -37.5t-37.5 -15.5t-37.5 15.5t-15.5 37.5v422q0 22 15.5 37.5t37.5 15.5t37.5 -15.5t15.5 -37.5v-164h254v164
q0 22 15.5 37.5z" />
    <glyph glyph-name="uni043E" unicode="&#x43e;" horiz-adv-x="607" 
d="M425 495q61 -31 101.5 -91.5t40.5 -144.5t-40.5 -144.5t-101.5 -91t-122 -30.5t-122 30.5t-101 91t-40 144.5t40 144.5t101 91.5t122 31t122 -31zM226.5 413.5q-36.5 -20.5 -59 -60.5t-22.5 -94t23 -93.5t59 -60t76 -20.5t76.5 20.5t59.5 60t23 93.5t-23 94t-59.5 60.5
t-76.5 20.5t-76.5 -20.5z" />
    <glyph glyph-name="uni043F" unicode="&#x43f;" horiz-adv-x="594" 
d="M517 503.5q17 -16.5 17 -42.5v-413q0 -22 -15.5 -37.5t-37.5 -15.5t-37.5 15.5t-15.5 37.5v381h-262v-381q0 -22 -15.5 -37.5t-37.5 -15.5t-37.5 15.5t-15.5 37.5v413q0 26 17 42.5t42 16.5h355q26 0 43 -16.5z" />
    <glyph glyph-name="uni0440" unicode="&#x440;" 
d="M445.5 495.5q56.5 -30.5 93 -91t36.5 -144.5q0 -86 -36.5 -146t-92.5 -90.5t-115 -30.5q-45 0 -81 17t-57.5 42t-25.5 49v-54q0 -7 -1 -10v-180q0 -22 -15.5 -37.5t-37.5 -15.5t-37.5 15.5t-15.5 37.5v613q0 22 16 37.5t38 15.5t37.5 -15.5t15.5 -37.5v-40q20 44 64.5 70
t99.5 26q58 0 114.5 -30.5zM388 104q36 20 58.5 60t22.5 96t-22.5 95.5t-58.5 59.5t-74 20q-37 0 -71.5 -18.5t-57.5 -58t-23 -98.5q0 -58 23 -98t57.5 -59t71.5 -19q38 0 74 20z" />
    <glyph glyph-name="uni0441" unicode="&#x441;" horiz-adv-x="539" 
d="M486 140.5q13 -11.5 13 -29.5q0 -14 -6.5 -23.5t-13 -16l-8.5 -8.5q-65 -68 -168 -68q-63 0 -123.5 30.5t-100 90.5t-39.5 144q0 85 39.5 145t100 90.5t123.5 30.5q103 0 168 -68l10 -10t13 -17.5t5 -20.5q0 -18 -13 -29.5t-30 -11.5q-24 0 -43 19q-19 23 -47.5 34.5
t-58.5 11.5q-43 0 -80 -20t-59.5 -59.5t-22.5 -94.5q0 -54 22.5 -93.5t59.5 -59.5t80 -20q30 0 58.5 11.5t47.5 34.5q19 19 43 19q17 0 30 -11.5z" />
    <glyph glyph-name="uni0442" unicode="&#x442;" horiz-adv-x="478" 
d="M434.5 507q13.5 -13 13.5 -32t-13.5 -32.5t-32.5 -13.5h-110v-381q0 -22 -15.5 -37.5t-37.5 -15.5t-37.5 15.5t-15.5 37.5v381h-110q-19 0 -32.5 13.5t-13.5 32.5t13.5 32t32.5 13h326q19 0 32.5 -13z" />
    <glyph glyph-name="uni0443" unicode="&#x443;" horiz-adv-x="559" 
d="M515 509q14 -14 14 -34q0 -10 -6 -24l-267 -610q-8 -18 -21 -27t-29 -9q-21 0 -34 14t-13 34q0 10 6 24l62 143l-191 431q-6 14 -6 24q0 20 14 34t35 14q16 0 29 -9t21 -27l150 -349l151 349q8 18 21 27t29 9q21 0 35 -14z" />
    <glyph glyph-name="uni0444" unicode="&#x444;" horiz-adv-x="1003" 
d="M833.5 495.5q56.5 -30.5 93 -91t36.5 -144.5q0 -86 -36.5 -146t-92.5 -90.5t-115 -30.5q-45 0 -81 17t-57.5 42t-25.5 49v-54q0 -7 -1 -10v-180q0 -22 -15.5 -37.5t-37.5 -15.5t-37.5 15.5t-15.5 37.5v233q-20 -44 -64.5 -70t-99.5 -26q-58 0 -114.5 30.5t-93 91
t-36.5 144.5q0 86 36.5 146t92.5 90.5t115 30.5q45 0 81 -17t57.5 -42t25.5 -49v54q0 7 1 10v180q0 22 15.5 37.5t37.5 15.5t37.5 -15.5t15.5 -37.5v-233q20 44 64.5 70t99.5 26q58 0 114.5 -30.5zM392.5 117q42.5 32 55.5 93v99q-13 62 -55.5 94.5t-91.5 32.5
q-38 0 -74 -20t-58.5 -60t-22.5 -96t22.5 -95.5t58.5 -59.5t74 -20q49 0 91.5 32zM776 104q36 20 58.5 60t22.5 96t-22.5 95.5t-58.5 59.5t-74 20q-49 0 -91.5 -32t-55.5 -93v-99q13 -62 55.5 -94.5t91.5 -32.5q38 0 74 20z" />
    <glyph glyph-name="uni0445" unicode="&#x445;" horiz-adv-x="513" 
d="M478 42q0 -19 -14.5 -33t-33.5 -14q-21 0 -37 19l-136 176l-137 -176q-16 -19 -37 -19q-19 0 -33.5 14t-14.5 33q0 15 10 28l153 191l-149 187q-11 13 -11 28q0 19 14.5 33t33.5 14q22 0 38 -19l133 -172l133 172q16 19 37 19q19 0 33.5 -14t14.5 -33q0 -15 -11 -28
l-149 -187l153 -191q10 -13 10 -28z" />
    <glyph glyph-name="uni0446" unicode="&#x446;" horiz-adv-x="648" 
d="M601 74.5q17 -16.5 17 -42.5v-63q0 -22 -15 -37.5t-37 -15.5t-37.5 15.5t-15.5 37.5v31h-394q-25 0 -42 17t-17 42v413q0 22 15.5 37.5t37.5 15.5t37.5 -15.5t15.5 -37.5v-381h262v381q0 22 15.5 37.5t37.5 15.5t37.5 -15.5t15.5 -37.5v-381h24q26 0 43 -16.5z" />
    <glyph glyph-name="uni0447" unicode="&#x447;" horiz-adv-x="577" 
d="M426.5 507.5q15.5 15.5 37.5 15.5t37.5 -15.5t15.5 -37.5v-422q0 -22 -15.5 -37.5t-37.5 -15.5t-37.5 15.5t-15.5 37.5v202q-3 -16 -21.5 -40t-55.5 -42.5t-89 -18.5q-55 0 -100.5 23t-72.5 70.5t-27 116.5v111q0 22 15.5 37.5t37.5 15.5t37.5 -15.5t15.5 -37.5v-112
q0 -51 28 -83t82 -32q40 0 73 17t53 45t24 60v105q0 22 15.5 37.5z" />
    <glyph glyph-name="uni0448" unicode="&#x448;" horiz-adv-x="814" 
d="M663.5 510.5q15.5 15.5 37.5 15.5t37.5 -15.5t15.5 -37.5v-414q0 -26 -17 -42.5t-43 -16.5h-575q-25 0 -42 17t-17 42v414q0 22 15.5 37.5t37.5 15.5t37.5 -15.5t15.5 -37.5v-382h188v382q0 22 15.5 37.5t37.5 15.5t37.5 -15.5t15.5 -37.5v-382h188v382q0 22 15.5 37.5z
" />
    <glyph glyph-name="uni0449" unicode="&#x449;" horiz-adv-x="868" 
d="M821 74.5q17 -16.5 17 -42.5v-63q0 -22 -15 -37.5t-37 -15.5t-37.5 15.5t-15.5 37.5v31h-614q-25 0 -42 17t-17 42v414q0 22 15.5 37.5t37.5 15.5t37.5 -15.5t15.5 -37.5v-382h188v382q0 22 15.5 37.5t37.5 15.5t37.5 -15.5t15.5 -37.5v-382h188v382q0 22 15.5 37.5
t37.5 15.5t37.5 -15.5t15.5 -37.5v-382h24q26 0 43 -16.5z" />
    <glyph glyph-name="uni044A" unicode="&#x44a;" horiz-adv-x="655" 
d="M565.5 281.5q54.5 -42.5 54.5 -119.5q0 -76 -55 -119t-150 -43h-217q-25 0 -42 17t-17 42v373h-58q-19 0 -32.5 13.5t-13.5 32.5t13.5 32t32.5 13h110h1q22 0 37.5 -15.5t15.5 -37.5v-146h170q96 0 150.5 -42.5zM493.5 110q21.5 19 21.5 52q0 32 -21.5 51t-77.5 19h-171
v-141h171q56 0 77.5 19z" />
    <glyph glyph-name="uni044B" unicode="&#x44b;" horiz-adv-x="783" 
d="M486.5 281.5q54.5 -42.5 54.5 -119.5q0 -76 -55 -119t-150 -43h-217q-25 0 -42 17t-17 42v411q0 22 15.5 37.5t37.5 15.5t37.5 -15.5t15.5 -37.5v-146h170q96 0 150.5 -42.5zM707.5 507.5q15.5 -15.5 15.5 -37.5v-422q0 -22 -15.5 -37.5t-36.5 -15.5q-22 0 -37.5 15.5
t-15.5 37.5v422q0 22 15.5 37.5t37.5 15.5q21 0 36.5 -15.5zM414.5 110q21.5 19 21.5 52q0 32 -21.5 51t-77.5 19h-171v-141h171q56 0 77.5 19z" />
    <glyph glyph-name="uni044C" unicode="&#x44c;" horiz-adv-x="576" 
d="M486.5 281.5q54.5 -42.5 54.5 -119.5q0 -76 -55 -119t-150 -43h-217q-25 0 -42 17t-17 42v411q0 22 15.5 37.5t37.5 15.5t37.5 -15.5t15.5 -37.5v-146h170q96 0 150.5 -42.5zM414.5 110q21.5 19 21.5 52q0 32 -21.5 51t-77.5 19h-171v-141h171q56 0 77.5 19z" />
    <glyph glyph-name="uni044D" unicode="&#x44d;" horiz-adv-x="539" 
d="M359.5 495.5q60.5 -30.5 100 -90.5t39.5 -145q0 -84 -39.5 -144t-100 -90.5t-123.5 -30.5q-103 0 -168 68l-10 10t-13 17.5t-5 20.5q0 18 13 29.5t30 11.5q24 0 43 -19q19 -23 47.5 -34.5t58.5 -11.5q57 0 101 33.5t56 94.5h-121q-19 0 -32 12t-13 30t13 30.5t32 12.5
h123q-12 64 -56.5 99t-102.5 35q-30 0 -58.5 -11.5t-47.5 -34.5q-19 -19 -43 -19q-17 0 -30 11.5t-13 29.5q0 14 6.5 23.5t13 16l8.5 8.5q65 68 168 68q63 0 123.5 -30.5z" />
    <glyph glyph-name="uni044E" unicode="&#x44e;" horiz-adv-x="814" 
d="M623 495q61 -31 101.5 -91.5t40.5 -144.5t-40.5 -144.5t-101.5 -91t-122 -30.5q-55 0 -110 24.5t-96 73.5t-53 118h-76v-161q0 -22 -15.5 -37.5t-37.5 -15.5t-37.5 15.5t-15.5 37.5v422q0 22 15.5 37.5t37.5 15.5t37.5 -15.5t15.5 -37.5v-165h75q11 70 52 120t97 75.5
t111 25.5q61 0 122 -31zM577.5 105.5q36.5 20.5 59.5 60t23 93.5t-23 94t-59.5 60.5t-76.5 20.5t-76.5 -20.5t-59 -60.5t-22.5 -94t23 -93.5t59 -60t76 -20.5t76.5 20.5z" />
    <glyph glyph-name="uni044F" unicode="&#x44f;" horiz-adv-x="576" 
d="M499.5 503.5q16.5 -16.5 16.5 -42.5v-411q0 -22 -15.5 -37.5t-37.5 -15.5t-37.5 15.5t-15.5 37.5v146h-114l-174 -185q-14 -16 -34 -16q-19 0 -33 14t-14 33q0 20 14 32l126 127q-70 12 -108 52t-38 105q0 76 55 119t150 43h217q26 0 42.5 -16.5zM410 429h-171
q-56 0 -77.5 -19t-21.5 -52q0 -32 21.5 -51t77.5 -19h171v141z" />
    <glyph glyph-name="uni0451" unicode="&#x451;" horiz-adv-x="590" 
d="M416.5 496q58.5 -30 96 -87t37.5 -132q0 -30 -16.5 -43.5t-49.5 -13.5l-335 1q8 -67 54 -103t110 -36q30 0 53 7t47 22q3 2 12.5 7t16 7t13.5 2q17 0 27 -10.5t10 -27.5q0 -23 -27 -45q-29 -23 -69 -36t-87 -13q-68 0 -130 29.5t-100.5 89t-38.5 145.5q0 85 39.5 145.5
t99.5 91t120 30.5q59 0 117.5 -30zM199.5 398.5q-44.5 -35.5 -50.5 -101.5h298q-6 67 -49.5 102t-98.5 35t-99.5 -35.5zM134 612q-17 17 -17 40t17 40t41 17t41 -17t17 -40t-17 -40t-41 -17t-41 17zM380 612q-17 17 -17 40t17 40t41 17t41 -17t17 -40t-17 -40t-41 -17
t-41 17z" />
    <glyph glyph-name="uni0454" unicode="&#x454;" horiz-adv-x="539" 
d="M486 140.5q13 -11.5 13 -29.5q0 -14 -6.5 -23.5t-13 -16l-8.5 -8.5q-65 -68 -168 -68q-63 0 -123.5 30.5t-100 90.5t-39.5 144q0 85 39.5 145t100 90.5t123.5 30.5q103 0 168 -68l10 -10t13 -17.5t5 -20.5q0 -18 -13 -29.5t-30 -11.5q-24 0 -43 19q-19 23 -47.5 34.5
t-58.5 11.5q-58 0 -102.5 -35t-56.5 -99h123q19 0 32 -12.5t13 -30.5t-13 -30t-32 -12h-121q12 -61 56 -94.5t101 -33.5q30 0 58.5 11.5t47.5 34.5q19 19 43 19q17 0 30 -11.5z" />
    <glyph glyph-name="uni0457" unicode="&#x457;" horiz-adv-x="256" 
d="M165.5 507.5q15.5 -15.5 15.5 -37.5v-422q0 -22 -15.5 -37.5t-37.5 -15.5t-37.5 15.5t-15.5 37.5v422q0 22 15.5 37.5t37.5 15.5t37.5 -15.5zM-36 612q-17 17 -17 40t17 40t41 17t41 -17t17 -40t-17 -40t-41 -17t-41 17zM210 612q-17 17 -17 40t17 40t41 17t41 -17
t17 -40t-17 -40t-41 -17t-41 17z" />
    <glyph glyph-name="uni0490" unicode="&#x490;" horiz-adv-x="539" 
d="M504 656v-1q0 -19 -13.5 -32.5t-32.5 -13.5h-292v-561q0 -22 -15.5 -37.5t-37.5 -15.5t-37.5 15.5t-15.5 37.5v593q0 26 17 42.5t42 16.5h279v7q0 21 15.5 36.5t36.5 15.5q22 0 38 -15.5t16 -36.5v-51z" />
    <glyph glyph-name="uni0491" unicode="&#x491;" horiz-adv-x="492" 
d="M446 571.5q16 -15.5 16 -37.5v-62q-1 -19 -15 -31t-32 -12h-249v-381q0 -22 -15.5 -37.5t-37.5 -15.5t-37.5 15.5t-15.5 37.5v413q0 26 17 42.5t42 16.5h236v14q0 22 15.5 37.5t37.5 15.5t38 -15.5z" />
    <glyph glyph-name="Wgrave" unicode="&#x1e80;" horiz-adv-x="1025" 
d="M975 688q15 -15 15 -35q0 -13 -6 -29l-182 -589q-7 -19 -22 -29.5t-36 -10.5q-42 0 -56 40l-175 474l-175 -474q-15 -40 -57 -40q-21 0 -36 10.5t-21 29.5l-182 589q-7 19 -7 29q0 20 15.5 35t37.5 15q18 0 33 -9.5t19 -24.5l145 -499l179 498q14 35 48 35q36 0 49 -35
l180 -498l145 499q4 15 19 24.5t33 9.5q22 0 37 -15zM484 942.5q14 -10.5 20 -26.5l52 -124q4 -12 4 -16q0 -15 -11 -24t-26 -9q-17 0 -29 15l-85 104q-12 17 -12 35q0 23 16.5 39.5t39.5 16.5q17 0 31 -10.5z" />
    <glyph glyph-name="wgrave" unicode="&#x1e81;" horiz-adv-x="830" 
d="M785.5 508.5q14.5 -14.5 14.5 -35.5q0 -6 -3 -13t-4 -11l-141 -411q-7 -19 -20 -29.5t-30 -10.5q-35 0 -52 40l-135 330l-136 -330q-7 -19 -20.5 -29.5t-30.5 -10.5t-30 10.5t-20 29.5l-141 411q-1 4 -4 11t-3 13q0 21 14.5 35.5t35.5 14.5q14 0 27.5 -8t17.5 -21
l110 -340l132 336q13 33 48 33q34 0 48 -33l132 -336l110 340q4 13 17 21t28 8q21 0 35.5 -14.5zM386 762.5q14 -10.5 20 -26.5l52 -124q4 -12 4 -16q0 -15 -11 -24t-26 -9q-17 0 -29 15l-85 104q-12 17 -12 35q0 23 16.5 39.5t39.5 16.5q17 0 31 -10.5z" />
    <glyph glyph-name="Wacute" unicode="&#x1e82;" horiz-adv-x="1025" 
d="M975 688q15 -15 15 -35q0 -13 -6 -29l-182 -589q-7 -19 -22 -29.5t-36 -10.5q-42 0 -56 40l-175 474l-175 -474q-15 -40 -57 -40q-21 0 -36 10.5t-21 29.5l-182 589q-7 19 -7 29q0 20 15.5 35t37.5 15q18 0 33 -9.5t19 -24.5l145 -499l179 498q14 35 48 35q36 0 49 -35
l180 -498l145 499q4 15 19 24.5t33 9.5q22 0 37 -15zM602.5 936.5q16.5 -16.5 16.5 -39.5q0 -18 -12 -35l-85 -104q-12 -15 -29 -15q-15 0 -26 9t-11 24q0 4 4 16l52 124q6 16 20 26.5t31 10.5q23 0 39.5 -16.5z" />
    <glyph glyph-name="wacute" unicode="&#x1e83;" horiz-adv-x="830" 
d="M785.5 508.5q14.5 -14.5 14.5 -35.5q0 -6 -3 -13t-4 -11l-141 -411q-7 -19 -20 -29.5t-30 -10.5q-35 0 -52 40l-135 330l-136 -330q-7 -19 -20.5 -29.5t-30.5 -10.5t-30 10.5t-20 29.5l-141 411q-1 4 -4 11t-3 13q0 21 14.5 35.5t35.5 14.5q14 0 27.5 -8t17.5 -21
l110 -340l132 336q13 33 48 33q34 0 48 -33l132 -336l110 340q4 13 17 21t28 8q21 0 35.5 -14.5zM504.5 756.5q16.5 -16.5 16.5 -39.5q0 -18 -12 -35l-85 -104q-12 -15 -29 -15q-15 0 -26 9t-11 24q0 4 4 16l52 124q6 16 20 26.5t31 10.5q23 0 39.5 -16.5z" />
    <glyph glyph-name="Wdieresis" unicode="&#x1e84;" horiz-adv-x="1025" 
d="M975 688q15 -15 15 -35q0 -13 -6 -29l-182 -589q-7 -19 -22 -29.5t-36 -10.5q-42 0 -56 40l-175 474l-175 -474q-15 -40 -57 -40q-21 0 -36 10.5t-21 29.5l-182 589q-7 19 -7 29q0 20 15.5 35t37.5 15q18 0 33 -9.5t19 -24.5l145 -499l179 498q14 35 48 35q36 0 49 -35
l180 -498l145 499q4 15 19 24.5t33 9.5q22 0 37 -15zM349 792q-17 17 -17 40t17 40t41 17t41 -17t17 -40t-17 -40t-41 -17t-41 17zM595 792q-17 17 -17 40t17 40t41 17t41 -17t17 -40t-17 -40t-41 -17t-41 17z" />
    <glyph glyph-name="wdieresis" unicode="&#x1e85;" horiz-adv-x="830" 
d="M785.5 508.5q14.5 -14.5 14.5 -35.5q0 -6 -3 -13t-4 -11l-141 -411q-7 -19 -20 -29.5t-30 -10.5q-35 0 -52 40l-135 330l-136 -330q-7 -19 -20.5 -29.5t-30.5 -10.5t-30 10.5t-20 29.5l-141 411q-1 4 -4 11t-3 13q0 21 14.5 35.5t35.5 14.5q14 0 27.5 -8t17.5 -21
l110 -340l132 336q13 33 48 33q34 0 48 -33l132 -336l110 340q4 13 17 21t28 8q21 0 35.5 -14.5zM251 612q-17 17 -17 40t17 40t41 17t41 -17t17 -40t-17 -40t-41 -17t-41 17zM497 612q-17 17 -17 40t17 40t41 17t41 -17t17 -40t-17 -40t-41 -17t-41 17z" />
    <glyph glyph-name="Ygrave" unicode="&#x1ef2;" horiz-adv-x="617" 
d="M568.5 688.5q14.5 -14.5 14.5 -34.5q0 -15 -9 -29l-212 -307v-271q0 -22 -15.5 -37.5t-37.5 -15.5t-38 15.5t-16 37.5v271l-212 307q-8 14 -8 29q0 20 14.5 34.5t35.5 14.5q24 0 40 -21l184 -272l183 272q16 21 41 21q21 0 35.5 -14.5zM280 942.5q14 -10.5 20 -26.5
l52 -124q4 -12 4 -16q0 -15 -11 -24t-26 -9q-17 0 -29 15l-85 104q-12 17 -12 35q0 23 16.5 39.5t39.5 16.5q17 0 31 -10.5z" />
    <glyph glyph-name="ygrave" unicode="&#x1ef3;" horiz-adv-x="559" 
d="M515 509q14 -14 14 -34q0 -10 -6 -24l-267 -610q-8 -18 -21 -27t-29 -9q-21 0 -34 14t-13 34q0 10 6 24l62 143l-191 431q-6 14 -6 24q0 20 14 34t35 14q16 0 29 -9t21 -27l150 -349l151 349q8 18 21 27t29 9q21 0 35 -14zM248 762.5q14 -10.5 20 -26.5l52 -124
q4 -12 4 -16q0 -15 -11 -24t-26 -9q-17 0 -29 15l-85 104q-12 17 -12 35q0 23 16.5 39.5t39.5 16.5q17 0 31 -10.5z" />
    <glyph glyph-name="endash" unicode="&#x2013;" horiz-adv-x="611" 
d="M553 308q13 -13 13 -31t-13 -30.5t-30 -12.5h-435q-17 0 -30 12.5t-13 30.5t13 31t30 13h435q17 0 30 -13z" />
    <glyph glyph-name="emdash" unicode="&#x2014;" horiz-adv-x="671" 
d="M613 308q13 -13 13 -31t-13 -30.5t-30 -12.5h-495q-17 0 -30 12.5t-13 30.5t13 31t30 13h495q17 0 30 -13z" />
    <glyph glyph-name="quoteleft" unicode="&#x2018;" horiz-adv-x="236" 
d="M198.5 693.5q7.5 -6.5 7.5 -17.5q0 -6 -4 -18l-52 -155q-8 -22 -21 -32t-34 -10h-33q-31 0 -31 21q0 12 9 30l79 157q9 18 22.5 24.5t30.5 6.5h6q13 0 20.5 -6.5z" />
    <glyph glyph-name="quoteright" unicode="&#x2019;" horiz-adv-x="236" 
d="M37.5 467.5q-7.5 6.5 -7.5 17.5q0 6 4 18l52 155q8 22 21.5 32t33.5 10h33q31 0 31 -21q0 -12 -9 -30l-79 -157q-9 -18 -22.5 -24.5t-30.5 -6.5h-6q-13 0 -20.5 6.5z" />
    <glyph glyph-name="quotesinglbase" unicode="&#x201a;" horiz-adv-x="241" 
d="M37.5 -110.5q-7.5 6.5 -7.5 17.5q0 6 4 18l52 155q8 22 21.5 32t33.5 10h33q31 0 31 -21q0 -12 -9 -30l-79 -157q-9 -18 -22.5 -24.5t-30.5 -6.5h-6q-13 0 -20.5 6.5z" />
    <glyph glyph-name="quotedblleft" unicode="&#x201c;" horiz-adv-x="400" 
d="M197.5 693.5q7.5 -6.5 7.5 -17.5q0 -6 -4 -18l-52 -155q-8 -22 -21 -32t-34 -10h-33q-31 0 -31 21q0 12 9 30l79 157q9 18 22.5 24.5t30.5 6.5h6q13 0 20.5 -6.5zM362.5 693.5q7.5 -6.5 7.5 -17.5q0 -6 -4 -18l-52 -155q-8 -22 -21 -32t-34 -10h-33q-31 0 -31 21
q0 12 9 30l79 157q9 18 22.5 24.5t30.5 6.5h6q13 0 20.5 -6.5z" />
    <glyph glyph-name="quotedblright" unicode="&#x201d;" horiz-adv-x="400" 
d="M202.5 467.5q-7.5 6.5 -7.5 17.5q0 6 4 18l52 155q8 22 21.5 32t33.5 10h33q31 0 31 -21q0 -12 -9 -30l-79 -157q-9 -18 -22.5 -24.5t-30.5 -6.5h-6q-13 0 -20.5 6.5zM37.5 467.5q-7.5 6.5 -7.5 17.5q0 6 4 18l52 155q8 22 21.5 32t33.5 10h33q31 0 31 -21q0 -12 -9 -30
l-79 -157q-9 -18 -22.5 -24.5t-30.5 -6.5h-6q-13 0 -20.5 6.5z" />
    <glyph glyph-name="quotedblbase" unicode="&#x201e;" horiz-adv-x="405" 
d="M202.5 -110.5q-7.5 6.5 -7.5 17.5q0 6 4 18l52 155q8 22 21.5 32t33.5 10h33q31 0 31 -21q0 -12 -9 -30l-79 -157q-9 -18 -22.5 -24.5t-30.5 -6.5h-6q-13 0 -20.5 6.5zM37.5 -110.5q-7.5 6.5 -7.5 17.5q0 6 4 18l52 155q8 22 21.5 32t33.5 10h33q31 0 31 -21
q0 -12 -9 -30l-79 -157q-9 -18 -22.5 -24.5t-30.5 -6.5h-6q-13 0 -20.5 6.5z" />
    <glyph glyph-name="dagger" unicode="&#x2020;" horiz-adv-x="345" 
d="M300 564v-72h-92l-21 -198h-28l-21 198h-93v72h85l-14 136h114l-14 -136h84z" />
    <glyph glyph-name="daggerdbl" unicode="&#x2021;" horiz-adv-x="335" 
d="M207 565h88v-73h-97l-16 -118h-28l-16 118h-98v73h89l-18 135h114zM182 326l16 -118h97v-73h-88l18 -135h-114l18 135h-89v73h98l16 118h28z" />
    <glyph glyph-name="bullet" unicode="&#x2022;" horiz-adv-x="234" 
d="M69.5 239.5q-19.5 19.5 -19.5 47.5t19.5 47.5t47.5 19.5t47.5 -19.5t19.5 -47.5t-19.5 -47.5t-47.5 -19.5t-47.5 19.5z" />
    <glyph glyph-name="ellipsis" unicode="&#x2026;" horiz-adv-x="698" 
d="M305.5 15.5q-18.5 18.5 -18.5 44.5t18.5 44t44.5 18q25 0 43 -18.5t18 -43.5q0 -26 -18 -44.5t-43 -18.5q-26 0 -44.5 18.5zM552.5 15.5q-18.5 18.5 -18.5 44.5t18.5 44t44.5 18q25 0 43 -18.5t18 -43.5q0 -26 -18 -44.5t-43 -18.5q-26 0 -44.5 18.5zM58.5 15.5
q-18.5 18.5 -18.5 44.5t18.5 44t44.5 18q25 0 43 -18.5t18 -43.5q0 -26 -18 -44.5t-43 -18.5q-26 0 -44.5 18.5z" />
    <glyph glyph-name="perthousand" unicode="&#x2030;" horiz-adv-x="1019" 
d="M256 669.5q36 -35.5 36 -87.5q0 -51 -36 -87t-88 -36q-51 0 -87 36t-36 87q0 52 36 87.5t87 35.5q52 0 88 -35.5zM519 682q11 6 24 6q20 0 34.5 -14t14.5 -34q0 -14 -9 -28l-386 -576q-16 -23 -42 -23q-19 0 -34 15t-15 34q0 15 8 28l388 576q6 10 17 16zM132 617
q-15 -14 -15 -35t15 -35.5t36 -14.5q19 0 33.5 14.5t14.5 35.5t-14.5 35t-33.5 14q-21 0 -36 -14zM617 205.5q36 -35.5 36 -87.5q0 -51 -36 -87t-88 -36q-51 0 -87 36t-36 87q0 52 36 87.5t87 35.5q52 0 88 -35.5zM938 205.5q36 -35.5 36 -87.5q0 -51 -36 -87t-88 -36
q-51 0 -87 36t-36 87q0 52 36 87.5t87 35.5q52 0 88 -35.5zM493 153q-15 -14 -15 -35t15 -35.5t36 -14.5q19 0 33.5 14.5t14.5 35.5t-14.5 35t-33.5 14q-21 0 -36 -14zM814.5 153q-14.5 -14 -14.5 -35t15 -35.5t35 -14.5q19 0 33.5 14.5t14.5 35.5t-14.5 35t-33.5 14
q-21 0 -35.5 -14z" />
    <glyph glyph-name="guilsinglleft" unicode="&#x2039;" horiz-adv-x="268" 
d="M46 317q6 9 22 25l108 103q9 9 23 9q12 0 20.5 -8.5t8.5 -20.5q0 -15 -23 -39l-90 -96l90 -96q23 -24 23 -38q0 -13 -9 -21.5t-21 -8.5q-11 0 -22 9l-108 103q-16 16 -22 25t-6 25v4q0 16 6 25z" />
    <glyph glyph-name="guilsinglright" unicode="&#x203a;" horiz-adv-x="268" 
d="M228 288q0 -16 -6 -25t-22 -25l-108 -103q-11 -9 -22 -9q-12 0 -21 8.5t-9 21.5q0 14 23 38l90 96l-90 96q-23 24 -23 39q0 12 8.5 20.5t20.5 8.5q14 0 23 -9l108 -103q16 -16 22 -25t6 -25v-4z" />
    <glyph glyph-name="fraction" unicode="&#x2044;" horiz-adv-x="108" 
d="M288 700l-430 -700h-48l436 700h42z" />
    <glyph glyph-name="Euro" unicode="&#x20ac;" horiz-adv-x="709" 
d="M659.5 141.5q14.5 -13.5 14.5 -35.5q0 -18 -11.5 -32.5t-35.5 -30.5q-73 -50 -174 -50q-71 0 -139 30.5t-120 86.5t-76 129h-43q-16 0 -28 12t-12 28q0 17 12 29t28 12h27q-1 10 -1 30v17h-26q-16 0 -28 12t-12 29t12 28.5t28 11.5h39q22 77 74 135.5t121.5 91
t143.5 32.5q101 0 174 -50q24 -16 35.5 -30.5t11.5 -32.5q0 -22 -14.5 -35.5t-35.5 -13.5q-14 0 -24.5 5t-23.5 15q-20 16 -52 27.5t-70 11.5q-71 0 -132 -43t-89 -113h116q17 0 28.5 -11.5t11.5 -28.5t-12 -29t-28 -12h-134q-1 -6 -1 -17q0 -10 2 -30h133q16 0 28 -12
t12 -29q0 -16 -11.5 -28t-28.5 -12h-111q30 -65 89 -104t127 -39q38 0 70 11.5t52 27.5q13 10 23.5 15t24.5 5q21 0 35.5 -13.5z" />
    <glyph glyph-name="uni20B4" unicode="&#x20b4;" horiz-adv-x="608" 
d="M556 316.5q12 -11.5 12 -26.5q0 -14 -12 -25.5t-28 -11.5h-328q-21 -24 -21 -59q0 -54 41 -79t95 -25q42 0 79 18.5t62 56.5q21 32 52 32q21 0 33 -14t12 -33q0 -22 -21 -51q-33 -50 -92 -78t-125 -28q-61 0 -117.5 23.5t-93 69t-36.5 108.5q0 33 10 59q-15 1 -26.5 12
t-11.5 25q0 15 12 26.5t28 11.5h58q30 22 80 46h-138q-16 0 -28 11.5t-12 25.5q0 15 12 26.5t28 11.5h306q37 28 37 71q0 41 -31 66t-84 25q-40 0 -66.5 -15.5t-49.5 -46.5q-19 -23 -46 -23q-19 0 -32 12.5t-13 30.5q0 21 23 50q70 88 188 88q61 0 111 -23t79 -65.5
t29 -97.5q0 -38 -16 -72h13q16 0 28 -11.5t12 -26.5q0 -14 -12 -25.5t-28 -11.5h-87q-30 -20 -84 -41l-13 -5h184q16 0 28 -11.5z" />
    <glyph glyph-name="trademark" unicode="&#x2122;" horiz-adv-x="554" 
d="M240 700v-39h-65v-141h-46v141h-64v39h175zM489 700v-180h-44v84l-54 -84h-18l-54 84v-84h-44v180h28l79 -122l79 122h28z" />
    <glyph glyph-name="oneeighth" unicode="&#x215b;" horiz-adv-x="556" 
d="M100 701v-261h-37v221l-17 -11l-18 31l35 20h37zM503 700l-430 -700h-48l436 700h42zM496.5 243q21.5 -20 21.5 -47q0 -34 -30 -53q43 -21 43 -66q0 -34 -27 -56.5t-65 -22.5q-37 0 -64 22.5t-27 56.5q0 22 11.5 39t31.5 27q-15 10 -22.5 24t-7.5 29q0 26 21.5 46.5
t56.5 20.5q36 0 57.5 -20zM408.5 221.5q-10.5 -10.5 -10.5 -25.5t12.5 -27t28.5 -12q18 0 29.5 12t11.5 27t-9.5 25.5t-31.5 10.5q-20 0 -30.5 -10.5zM401 112q-16 -14 -16 -35q0 -20 16 -34t38 -14q24 0 39 13t15 35t-15 35.5t-39 13.5q-22 0 -38 -14z" />
    <glyph glyph-name="threeeighths" unicode="&#x215c;" horiz-adv-x="574" 
d="M172 682.5q24 -20.5 24 -47.5q0 -32 -30 -53q19 -8 30.5 -25t11.5 -41q0 -34 -27.5 -57t-64.5 -23q-41 0 -67.5 27t-23.5 64h38q-1 -3 -1 -9q0 -20 16 -35t38 -15t38 13.5t16 34.5q0 46 -55 46q-12 0 -19 -1v31q63 3 63 43q0 15 -12.5 26t-30.5 11q-22 0 -35 -15.5
t-11 -41.5h-38q-3 38 22 63t62 25q32 0 56 -20.5zM523 700l-430 -700h-48l436 700h42zM514.5 243q21.5 -20 21.5 -47q0 -34 -30 -53q43 -21 43 -66q0 -34 -27 -56.5t-65 -22.5q-37 0 -64 22.5t-27 56.5q0 22 11.5 39t31.5 27q-15 10 -22.5 24t-7.5 29q0 26 21.5 46.5
t56.5 20.5q36 0 57.5 -20zM426.5 221.5q-10.5 -10.5 -10.5 -25.5t12.5 -27t28.5 -12q18 0 29.5 12t11.5 27t-9.5 25.5t-31.5 10.5q-20 0 -30.5 -10.5zM419 112q-16 -14 -16 -35q0 -20 16 -34t38 -14q24 0 39 13t15 35t-15 35.5t-39 13.5q-22 0 -38 -14z" />
    <glyph glyph-name="fiveeighths" unicode="&#x215d;" horiz-adv-x="576" 
d="M186 669h-104l-8 -58q22 10 45 10q35 0 63 -26.5t28 -65.5t-28 -66t-67 -27q-33 0 -58.5 18.5t-31.5 43.5l33 19q2 -20 17.5 -34.5t39.5 -14.5q23 0 40 17.5t17 43.5q0 25 -16.5 42.5t-36.5 17.5q-35 0 -57 -29l-32 8l18 133h138v-32zM523 700l-430 -700h-48l436 700h42z
M516.5 243q21.5 -20 21.5 -47q0 -34 -30 -53q43 -21 43 -66q0 -34 -27 -56.5t-65 -22.5q-37 0 -64 22.5t-27 56.5q0 22 11.5 39t31.5 27q-15 10 -22.5 24t-7.5 29q0 26 21.5 46.5t56.5 20.5q36 0 57.5 -20zM428.5 221.5q-10.5 -10.5 -10.5 -25.5t12.5 -27t28.5 -12
q18 0 29.5 12t11.5 27t-9.5 25.5t-31.5 10.5q-20 0 -30.5 -10.5zM421 112q-16 -14 -16 -35q0 -20 16 -34t38 -14q24 0 39 13t15 35t-15 35.5t-39 13.5q-22 0 -38 -14z" />
    <glyph glyph-name="seveneighths" unicode="&#x215e;" horiz-adv-x="556" 
d="M200 701l-102 -261h-39l89 229h-121v32h173zM503 700l-430 -700h-48l436 700h42zM496.5 243q21.5 -20 21.5 -47q0 -34 -30 -53q43 -21 43 -66q0 -34 -27 -56.5t-65 -22.5q-37 0 -64 22.5t-27 56.5q0 22 11.5 39t31.5 27q-15 10 -22.5 24t-7.5 29q0 26 21.5 46.5
t56.5 20.5q36 0 57.5 -20zM408.5 221.5q-10.5 -10.5 -10.5 -25.5t12.5 -27t28.5 -12q18 0 29.5 12t11.5 27t-9.5 25.5t-31.5 10.5q-20 0 -30.5 -10.5zM401 112q-16 -14 -16 -35q0 -20 16 -34t38 -14q24 0 39 13t15 35t-15 35.5t-39 13.5q-22 0 -38 -14z" />
    <glyph glyph-name="partialdiff" unicode="&#x2202;" horiz-adv-x="554" 
d="M359 516q18 -26 36 -48q40 -52 62.5 -87t37 -75t14.5 -84q0 -68 -33 -120.5t-86.5 -82t-113.5 -29.5q-59 0 -112.5 28.5t-86 79.5t-32.5 114t32.5 115t86 81.5t112.5 29.5q23 0 37 -4l-150 196q-10 13 -10 29q0 20 13 33.5t33 13.5q11 0 21.5 -5.5t16.5 -14.5zM212 323.5
q-30 -16.5 -48 -46t-18 -65.5t18 -66t48 -47t65 -17t65.5 17t48.5 47t18 66q0 56 -36 92t-96 36q-35 0 -65 -16.5z" />
    <glyph glyph-name="product" unicode="&#x220f;" horiz-adv-x="704" 
d="M62 783.5q17 16.5 42 16.5h495q26 0 43 -16.5t17 -42.5v-886q0 -21 -15 -36t-35 -15q-21 0 -36 15t-15 36v849h-412v-849q0 -21 -15 -36t-35 -15q-21 0 -36 15t-15 36v886q0 26 17 42.5z" />
    <glyph glyph-name="summation" unicode="&#x2211;" horiz-adv-x="633" 
d="M574 786q14 -14 14 -34t-14 -34t-34 -14h-374l207 -374q7 -11 7 -25t-7 -25l-207 -374h374q20 0 34 -14t14 -34t-14 -34t-34 -14h-421q-33 0 -53.5 19.5t-20.5 47.5q0 19 11 39l215 389l-215 389q-11 20 -11 39q0 28 20.5 47.5t53.5 19.5h421q20 0 34 -14z" />
    <glyph glyph-name="minus" unicode="&#x2212;" horiz-adv-x="425" 
d="M399 308q14 -13 14 -31t-14 -30.5t-33 -12.5h-275q-19 0 -32.5 12.5t-13.5 30.5t13.5 31t32.5 13h275q19 0 33 -13z" />
    <glyph glyph-name="radical" unicode="&#x221a;" horiz-adv-x="758" 
d="M699 791.5q14 -14.5 14 -36.5q0 -8 -1 -12l-235 -879q-7 -26 -28.5 -43t-48.5 -17q-25 0 -45.5 14t-28.5 37l-150 399h-74q-23 0 -40 17t-17 41q0 23 17 40t40 17h108q18 0 31 -9t19 -26l137 -384l219 818q4 17 17.5 27.5t30.5 10.5q21 0 35 -14.5z" />
    <glyph glyph-name="infinity" unicode="&#x221e;" horiz-adv-x="837" 
d="M698 406q41 -21 65 -58.5t24 -85.5q0 -49 -24 -87.5t-65 -59.5t-89 -21q-101 0 -190 96q-42 -45 -90 -70.5t-99 -25.5q-49 0 -90 21t-65.5 59.5t-24.5 87.5q0 48 24.5 85.5t65.5 58.5t90 21q51 0 99 -25t90 -69q91 94 190 94q48 0 89 -21zM361 262q-61 84 -129 84
q-39 0 -61.5 -24.5t-22.5 -59.5t22.5 -60t61.5 -25q68 0 129 85zM667.5 202q22.5 25 22.5 60t-22.5 59.5t-61.5 24.5q-67 0 -130 -84q62 -85 130 -85q39 0 61.5 25z" />
    <glyph glyph-name="integral" unicode="&#x222b;" horiz-adv-x="289" 
d="M279 709q-47 0 -62 -22.5t-15 -78.5v-625q0 -93 -45 -133t-137 -40v91q47 0 62 22.5t15 78.5v625q0 93 45 133t137 40v-91z" />
    <glyph glyph-name="approxequal" unicode="&#x2248;" horiz-adv-x="502" 
d="M218 255.5q24 -9.5 56 -28.5q30 -16 45.5 -23t34.5 -7q18 0 31.5 4t19.5 11l8 8t9.5 7t10.5 2q12 0 18.5 -7t4.5 -19q-8 -41 -37.5 -65t-77.5 -24q-29 0 -53.5 10.5t-55.5 30.5q-28 18 -46.5 26.5t-39.5 8.5q-19 0 -32.5 -6t-19.5 -15q-7 -11 -12 -15t-15 -4
q-11 0 -16.5 6t-3.5 17q7 42 37 67t80 25q30 0 54 -9.5zM218 420.5q24 -9.5 56 -28.5q30 -16 45.5 -23t34.5 -7q18 0 31.5 4t19.5 11l8 8t9.5 7t10.5 2q12 0 18.5 -7t4.5 -19q-8 -41 -37.5 -65t-77.5 -24q-29 0 -53.5 10.5t-55.5 30.5q-28 18 -46.5 26.5t-39.5 8.5
q-19 0 -32.5 -6t-19.5 -15q-7 -11 -12 -15t-15 -4q-11 0 -16.5 6t-3.5 17q7 42 37 67t80 25q30 0 54 -9.5z" />
    <glyph glyph-name="notequal" unicode="&#x2260;" horiz-adv-x="458" 
d="M399 223q14 -13 14 -31t-14 -30.5t-33 -12.5h-143l-50 -128q-5 -12 -16 -19.5t-24 -7.5q-18 0 -29.5 13t-11.5 30q0 8 3 14l38 98h-42q-19 0 -32.5 12.5t-13.5 30.5t13.5 31t32.5 13h76l32 83h-108q-19 0 -32.5 12.5t-13.5 30.5t13.5 31t32.5 13h142l52 134
q4 12 14.5 19.5t23.5 7.5q19 0 31 -13.5t12 -30.5q0 -7 -3 -13l-40 -104h43q19 0 33 -13t14 -31t-14 -30.5t-33 -12.5h-77l-32 -83h109q19 0 33 -13z" />
    <glyph glyph-name="lessequal" unicode="&#x2264;" horiz-adv-x="458" 
d="M349 570q17 0 28.5 -11.5t11.5 -28.5q0 -22 -22 -36l-230 -119l230 -118q22 -12 22 -37q0 -16 -12 -27.5t-28 -11.5q-11 0 -19 5l-246 129q-19 10 -29.5 26t-10.5 34t10.5 34t29.5 26l246 130q9 5 19 5zM399 75q14 -13 14 -31t-14 -30.5t-33 -12.5h-275q-19 0 -32.5 12.5
t-13.5 30.5t13.5 31t32.5 13h275q19 0 33 -13z" />
    <glyph glyph-name="greaterequal" unicode="&#x2265;" horiz-adv-x="458" 
d="M374 435q20 -10 30 -26t10 -34t-10 -34t-30 -26l-246 -129q-7 -5 -19 -5q-16 0 -28 11.5t-12 27.5q0 25 22 37l230 118l-230 119q-22 14 -22 36q0 17 12 28.5t28 11.5q10 0 19 -5zM367 88q19 0 32.5 -13t13.5 -31t-13.5 -30.5t-32.5 -12.5h-275q-19 0 -33 12.5t-14 30.5
t14 31t33 13h275z" />
    <glyph glyph-name="lozenge" unicode="&#x25ca;" horiz-adv-x="538" 
d="M328 688q27 -18 39 -46l121 -272q5 -10 5 -20q0 -8 -5 -20l-121 -272q-12 -28 -39 -46t-59 -18t-59 18t-40 46l-120 272q-4 9 -4 20q0 12 4 20l120 272q13 28 40 46t59 18t59 -18zM269 78l120 272l-120 272l-120 -272z" />
    <glyph glyph-name="Q.ss01" horiz-adv-x="796" 
d="M761.5 -16q13.5 -14 13.5 -35q0 -24 -19 -44t-50 -32t-66 -12q-47 0 -82.5 18.5t-83.5 55.5q-41 31 -68 45.5t-58 14.5q-51 0 -99 -50q-17 -17 -38 -17t-36 15.5t-15 36.5q0 22 16 38q23 23 35 32q-73 48 -117 126t-44 174q0 102 49.5 183.5t130 127.5t168.5 46
t168.5 -46t130 -127.5t49.5 -183.5q0 -79 -30 -146t-82 -115.5t-117 -72.5q36 -28 60 -41.5t51 -13.5q31 0 64 25q16 12 35 12q21 0 34.5 -14zM283 572.5q-54 -32.5 -87 -90.5t-33 -132t33 -132t87 -90t115 -32t115 32t87 90t33 132t-32.5 132t-86.5 90.5t-116 32.5
q-61 0 -115 -32.5z" />
    <glyph glyph-name="R.ss01" horiz-adv-x="644" 
d="M607.5 130.5q11.5 -12.5 11.5 -31.5t-13 -39q-21 -32 -50 -49.5t-76 -17.5t-77.5 17t-48.5 41.5t-40 66.5q-21 39 -37.5 63t-43 43.5t-65.5 26.5v-202q0 -23 -15.5 -39t-37.5 -16q-23 0 -39 16t-16 39v592q0 26 17 42.5t42 16.5h183q76 0 134 -29t89.5 -79.5t31.5 -113.5
t-29.5 -113t-84.5 -79t-128 -31q25 -19 41.5 -41t34.5 -53q24 -40 41.5 -57t49.5 -17q20 0 33.5 9.5t23.5 26.5q6 9 16.5 14.5t21.5 5.5q19 0 30.5 -12.5zM168 607v-259h130q73 0 113.5 31.5t40.5 98.5q0 64 -41.5 96.5t-112.5 32.5h-130z" />
    <glyph glyph-name="R.ss02" horiz-adv-x="608" 
d="M543 208.5q25 -57.5 25 -154.5q0 -27 -15.5 -42t-38.5 -15t-38.5 15t-15.5 42q0 75 -13.5 117.5t-50 63t-105.5 20.5h-123v-206q0 -23 -15.5 -39t-37.5 -16q-23 0 -39 16t-16 39v592q0 26 17 42.5t42 16.5h183q76 0 134 -29t89.5 -79.5t31.5 -113.5q0 -60 -26.5 -107.5
t-74.5 -76.5q62 -28 87 -85.5zM298 348q73 0 113.5 31.5t40.5 98.5q0 64 -41.5 96.5t-112.5 32.5h-130v-259h130z" />
    <glyph glyph-name="i.loclTRK" horiz-adv-x="256" 
d="M165.5 507.5q15.5 -15.5 15.5 -37.5v-422q0 -22 -15.5 -37.5t-37.5 -15.5t-37.5 15.5t-15.5 37.5v422q0 22 15.5 37.5t37.5 15.5t37.5 -15.5zM89.5 664.5q-16.5 16.5 -16.5 38.5q0 23 16.5 39t38.5 16q23 0 39 -16t16 -39q0 -22 -16 -38.5t-39 -16.5q-22 0 -38.5 16.5z
" />
    <glyph glyph-name="t_t" horiz-adv-x="690" 
d="M648 83.5q12 -10.5 12 -29.5q0 -29 -29 -44t-74 -15q-54 0 -86.5 29t-32.5 107v304h-232v-305q0 -44 35 -44q8 0 20 2t19 3q19 3 31 -7.5t12 -29.5q0 -29 -29 -44t-74 -15q-54 0 -86.5 29t-32.5 107v304h-38q-19 0 -31 12t-12 31t12 30.5t31 11.5h38v78q0 21 15.5 36.5
t36.5 15.5q22 0 37.5 -15.5t15.5 -36.5v-78h232v78q0 21 15.5 36.5t36.5 15.5q22 0 37.5 -15.5t15.5 -36.5v-78h73q20 0 32 -11.5t12 -30.5t-12 -31t-32 -12h-73v-305q0 -44 35 -44q8 0 20 2t19 3q19 3 31 -7.5z" />
    <glyph glyph-name="zero.tf" horiz-adv-x="700" 
d="M476.5 666.5q63.5 -40.5 101.5 -118.5t38 -185v-24q0 -108 -38 -186t-101.5 -118t-136.5 -40t-136 40.5t-101.5 118t-38.5 185.5v24q0 107 38.5 185t101.5 118.5t136 40.5t136.5 -40.5zM247 581q-38 -35 -57.5 -92.5t-19.5 -125.5v-24q0 -68 19.5 -125.5t57.5 -92.5
t93 -35t93 35t57.5 92.5t19.5 125.5v24q0 68 -19.5 125.5t-57.5 92.5t-93 35t-93 -35z" />
    <glyph glyph-name="one.tf" horiz-adv-x="700" 
d="M382 683.5q17 -16.5 17 -42.5v-593q0 -22 -15.5 -37.5t-37.5 -15.5t-37.5 15.5t-15.5 37.5v561h-66q-19 0 -32.5 13.5t-13.5 32.5t13.5 32t32.5 13h112q26 0 43 -16.5z" />
    <glyph glyph-name="two.tf" horiz-adv-x="700" 
d="M454 679q52 -28 81.5 -75.5t29.5 -101.5q0 -40 -17 -74.5t-47 -68.5t-92 -95l-33 -33l-135 -137h282q19 0 33 -13.5t14 -33.5t-14 -33.5t-33 -13.5h-322q-36 0 -59.5 22t-23.5 52q0 32 25 57l130 133l56 56q53 51 78 79t38.5 53.5t13.5 53.5q0 52 -36 80t-81 28
q-42 0 -75.5 -24.5t-44.5 -74.5q-5 -18 -20 -30.5t-35 -12.5q-22 0 -35 15t-13 37q0 12 3 22q17 70 74.5 115.5t140.5 45.5q65 0 117 -28z" />
    <glyph glyph-name="three.tf" horiz-adv-x="700" 
d="M523 680q22 -20 22 -48q0 -21 -15 -42l-134 -174q46 -8 88.5 -34.5t70 -71t27.5 -101.5q0 -64 -32.5 -113.5t-89 -77.5t-124.5 -28q-83 0 -146 41t-86 116q-3 9 -3 18q0 20 13 34.5t34 14.5q18 0 31 -9.5t17 -22.5q15 -50 55.5 -75.5t84.5 -25.5q32 0 64.5 13.5t54.5 42
t22 72.5q0 61 -45.5 93t-104.5 43q-19 4 -30.5 17t-11.5 29q0 11 5.5 20.5t19.5 27.5l125 170h-265q-19 0 -32.5 13.5t-13.5 32.5t13.5 32t32.5 13h297q34 0 56 -20z" />
    <glyph glyph-name="four.tf" horiz-adv-x="700" 
d="M530 262q19 0 32.5 -13t13.5 -31q0 -19 -13.5 -31.5t-32.5 -12.5h-35v-127q0 -22 -15.5 -37.5t-37.5 -15.5t-37.5 15.5t-15.5 37.5v127h-223q-33 0 -52 16t-19 40t16 47l272 390q11 16 25.5 24t30.5 8q23 0 39.5 -16.5t16.5 -43.5v-377h35zM389 528l-182 -266h182v266z
" />
    <glyph glyph-name="five.tf" horiz-adv-x="700" 
d="M488.5 687q13.5 -13 13.5 -32t-13.5 -32.5t-32.5 -13.5h-226l-21 -177q19 14 53 26t77 12q61 0 113 -30t83.5 -84.5t31.5 -124.5q0 -69 -33.5 -124t-91 -86t-128.5 -31q-65 0 -117.5 25.5t-86.5 70.5q-14 19 -14 36q0 20 13.5 33.5t34.5 13.5q12 0 23.5 -5.5t17.5 -14.5
q19 -30 53 -49t75 -19q37 0 71 17t55.5 51t21.5 82q0 46 -19.5 79.5t-52 51t-69.5 17.5q-55 0 -106 -41q-7 -4 -20 -7t-24 -3q-30 0 -48 22t-15 53l31 247q3 22 18.5 36t38.5 14h261q19 0 32.5 -13z" />
    <glyph glyph-name="six.tf" horiz-adv-x="700" 
d="M460 692.5q13 -13.5 13 -33.5q0 -16 -10 -29l-150 -196q14 4 37 4q59 0 112.5 -29.5t86 -81.5t32.5 -115t-32.5 -114t-86 -79.5t-112.5 -28.5q-60 0 -113.5 29.5t-86.5 82t-33 120.5q0 44 14.5 84t37 75t62.5 87q18 22 36 48l122 170q6 9 16.5 14.5t21.5 5.5
q20 0 33 -13.5zM253 304q-36 -36 -36 -92q0 -36 18 -66t48.5 -47t65.5 -17t65 17t48 47t18 66t-18 65.5t-48 46t-65 16.5q-60 0 -96 -36z" />
    <glyph glyph-name="seven.tf" horiz-adv-x="700" 
d="M560 681q20 -19 20 -47q0 -15 -8 -33l-275 -577q-6 -13 -18 -21.5t-27 -8.5q-21 0 -35.5 15t-14.5 36q0 11 5 21l265 543h-288q-19 0 -32.5 13.5t-13.5 32.5t13.5 32t32.5 13h324q32 0 52 -19z" />
    <glyph glyph-name="eight.tf" horiz-adv-x="700" 
d="M563.5 319.5q28.5 -46.5 28.5 -106.5q0 -66 -34 -116.5t-89 -78t-116 -27.5t-116 27.5t-89 78t-34 116.5q0 60 28.5 106.5t75.5 74.5q-28 26 -44 60t-16 71q0 50 23.5 91.5t68 66t103.5 24.5t103.5 -24.5t68.5 -66.5t24 -91q0 -37 -16.5 -71.5t-44.5 -59.5
q47 -28 75.5 -74.5zM285 458.5q27 -27.5 68 -27.5q42 0 68.5 27.5t26.5 65.5q0 37 -26.5 64.5t-68.5 27.5t-68.5 -27.5t-26.5 -64.5q0 -38 27 -65.5zM418 99q30 17 48 47t18 67q0 39 -18.5 68.5t-48.5 45.5t-64 16t-64 -16t-48.5 -45.5t-18.5 -68.5q0 -37 18 -67t48.5 -47
t64.5 -17q35 0 65 17z" />
    <glyph glyph-name="nine.tf" horiz-adv-x="700" 
d="M241 6.5q-13 13.5 -13 33.5q0 16 10 29l150 196q-14 -4 -37 -4q-59 0 -112.5 29.5t-86 81.5t-32.5 115t32.5 114t86 79.5t112.5 28.5q60 0 113.5 -29.5t86.5 -82t33 -120.5q0 -44 -14.5 -84t-37 -75t-62.5 -87q-18 -22 -36 -48l-122 -170q-6 -9 -16.5 -14.5t-21.5 -5.5
q-20 0 -33 13.5zM448 395q36 36 36 92q0 36 -18 66t-48.5 47t-65.5 17t-65 -17t-48 -47t-18 -66t18 -65.5t48 -46t65 -16.5q60 0 96 36z" />
    <glyph glyph-name="zero.dnom" horiz-adv-x="260" 
d="M206 228q29 -35 29 -91v-13q0 -56 -29 -91t-76 -35q-45 0 -75 35t-30 91v13q0 56 30 91t75 35q47 0 76 -35zM81.5 206.5q-19.5 -25.5 -19.5 -69.5v-13q0 -44 19.5 -69.5t48.5 -25.5q31 0 49.5 25t18.5 70v13q0 45 -18.5 70t-49.5 25q-29 0 -48.5 -25.5z" />
    <glyph glyph-name="one.dnom" horiz-adv-x="122" 
d="M97 261v-261h-37v221l-17 -11l-18 31l35 20h37z" />
    <glyph glyph-name="two.dnom" horiz-adv-x="221" 
d="M168 241.5q25 -22.5 25 -52.5q0 -26 -14.5 -47t-53.5 -61l-47 -49h118v-32h-168v32l68 69q38 40 48.5 54.5t10.5 33.5q0 18 -14 31t-32 13q-19 0 -33 -13t-14 -37v-14h-37v14q0 35 24.5 58t59.5 23q34 0 59 -22.5z" />
    <glyph glyph-name="three.dnom" horiz-adv-x="233" 
d="M172 242.5q24 -20.5 24 -47.5q0 -32 -30 -53q19 -8 30.5 -25t11.5 -41q0 -34 -27.5 -57t-64.5 -23q-41 0 -67.5 27t-23.5 64h38q-1 -3 -1 -9q0 -20 16 -35t38 -15t38 13.5t16 34.5q0 46 -55 46q-12 0 -19 -1v31q63 3 63 43q0 15 -12.5 26t-30.5 11q-22 0 -35 -15.5
t-11 -41.5h-38q-3 38 22 63t62 25q32 0 56 -20.5z" />
    <glyph glyph-name="four.dnom" horiz-adv-x="246" 
d="M194 261v-154h27v-31h-27v-76h-37v76h-132l132 185h37zM157 202l-65 -95h65v95z" />
    <glyph glyph-name="five.dnom" horiz-adv-x="235" 
d="M186 229h-104l-8 -58q22 10 45 10q35 0 63 -26.5t28 -65.5t-28 -66t-67 -27q-33 0 -58.5 18.5t-31.5 43.5l33 19q2 -20 17.5 -34.5t39.5 -14.5q23 0 40 17.5t17 43.5q0 25 -16.5 42.5t-36.5 17.5q-35 0 -57 -29l-32 8l18 133h138v-32z" />
    <glyph glyph-name="six.dnom" horiz-adv-x="223" 
d="M106 165h6q34 0 60 -25t26 -59q0 -35 -26 -60t-60 -25t-60.5 25t-26.5 60q0 24 9 41.5t28 41.5l13 18l57 79h42zM76 119q-14 -14 -14 -38q0 -23 15.5 -38t34.5 -15q18 0 33.5 15t15.5 38t-15 37.5t-34 14.5q-22 0 -36 -14z" />
    <glyph glyph-name="seven.dnom" horiz-adv-x="223" 
d="M198 261l-102 -261h-39l89 229h-121v32h173z" />
    <glyph glyph-name="eight.dnom" horiz-adv-x="233" 
d="M173.5 243q21.5 -20 21.5 -47q0 -34 -30 -53q43 -21 43 -66q0 -34 -27 -56.5t-65 -22.5q-37 0 -64 22.5t-27 56.5q0 22 11.5 39t31.5 27q-15 10 -22.5 24t-7.5 29q0 26 21.5 46.5t56.5 20.5q36 0 57.5 -20zM85.5 221.5q-10.5 -10.5 -10.5 -25.5t12.5 -27t28.5 -12
q18 0 29.5 12t11.5 27t-9.5 25.5t-31.5 10.5q-20 0 -30.5 -10.5zM78 112q-16 -14 -16 -35q0 -20 16 -34t38 -14q24 0 39 13t15 35t-15 35.5t-39 13.5q-22 0 -38 -14z" />
    <glyph glyph-name="nine.dnom" horiz-adv-x="224" 
d="M172.5 239.5q26.5 -24.5 26.5 -59.5q0 -25 -9.5 -43.5t-22.5 -34.5t-19 -24l-56 -78h-43l68 95h-5q-35 0 -61 25.5t-26 59.5q0 35 26.5 59.5t60.5 24.5t60.5 -24.5zM77.5 217q-15.5 -15 -15.5 -37q0 -23 15.5 -38t34.5 -15q22 0 35.5 14.5t13.5 38.5q0 22 -15.5 37
t-33.5 15q-19 0 -34.5 -15z" />
    <glyph glyph-name="zero.numr" horiz-adv-x="260" 
d="M206 668q29 -35 29 -91v-13q0 -56 -29 -91t-76 -35q-45 0 -75 35t-30 91v13q0 56 30 91t75 35q47 0 76 -35zM81.5 646.5q-19.5 -25.5 -19.5 -69.5v-13q0 -44 19.5 -69.5t48.5 -25.5q31 0 49.5 25t18.5 70v13q0 45 -18.5 70t-49.5 25q-29 0 -48.5 -25.5z" />
    <glyph glyph-name="one.numr" horiz-adv-x="122" 
d="M97 701v-261h-37v221l-17 -11l-18 31l35 20h37z" />
    <glyph glyph-name="two.numr" horiz-adv-x="221" 
d="M168 681.5q25 -22.5 25 -52.5q0 -26 -14.5 -47t-53.5 -61l-47 -49h118v-32h-168v32l68 69q38 40 48.5 54.5t10.5 33.5q0 18 -14 31t-32 13q-19 0 -33 -13t-14 -37v-14h-37v14q0 35 24.5 58t59.5 23q34 0 59 -22.5z" />
    <glyph glyph-name="three.numr" horiz-adv-x="233" 
d="M172 682.5q24 -20.5 24 -47.5q0 -32 -30 -53q19 -8 30.5 -25t11.5 -41q0 -34 -27.5 -57t-64.5 -23q-41 0 -67.5 27t-23.5 64h38q-1 -3 -1 -9q0 -20 16 -35t38 -15t38 13.5t16 34.5q0 46 -55 46q-12 0 -19 -1v31q63 3 63 43q0 15 -12.5 26t-30.5 11q-22 0 -35 -15.5
t-11 -41.5h-38q-3 38 22 63t62 25q32 0 56 -20.5z" />
    <glyph glyph-name="four.numr" horiz-adv-x="246" 
d="M194 701v-154h27v-31h-27v-76h-37v76h-132l132 185h37zM157 642l-65 -95h65v95z" />
    </font>
</defs>
</svg>
